<?xml version="1.0" encoding="UTF-8" standalone="no"?>
<!DOCTYPE svg PUBLIC "-//W3C//DTD SVG 1.1//EN"
 "http://www.w3.org/Graphics/SVG/1.1/DTD/svg11.dtd">
<!-- Generated by graphviz version 2.38.0 (20140413.2041)
 -->
<!-- Title: diagram.h Pages: 1 -->
<!--zoomable 207 -->
<svg id="main" version="1.1" xmlns="http://www.w3.org/2000/svg" xmlns:xlink="http://www.w3.org/1999/xlink" xml:space="preserve" onload="init(evt)">
<style type="text/css"><![CDATA[
.edge:hover path { stroke: red; }
.edge:hover polygon { stroke: red; fill: red; }
]]></style>
<script type="text/javascript"><![CDATA[
var edges = document.getElementsByTagName('g');
if (edges && edges.length) {
  for (var i=0;i<edges.length;i++) {
    if (edges[i].id.substr(0,4)=='edge') {
      edges[i].setAttribute('class','edge');
    }
  }
}
]]></script>
        <defs>
                <circle id="rim" cx="0" cy="0" r="7"/>
                <circle id="rim2" cx="0" cy="0" r="3.5"/>
                <g id="zoomPlus">
                        <use xlink:href="#rim" fill="#404040">
                                <set attributeName="fill" to="#808080" begin="zoomplus.mouseover" end="zoomplus.mouseout"/>
                        </use>
                        <path d="M-4,0h8M0,-4v8" fill="none" stroke="white" stroke-width="1.5" pointer-events="none"/>
                </g>
                <g id="zoomMin">
                        <use xlink:href="#rim" fill="#404040">
                                <set attributeName="fill" to="#808080" begin="zoomminus.mouseover" end="zoomminus.mouseout"/>
                        </use>
                        <path d="M-4,0h8" fill="none" stroke="white" stroke-width="1.5" pointer-events="none"/>
                </g>
                <g id="dirArrow">
                        <path fill="none" stroke="white" stroke-width="1.5" d="M0,-3.0v7 M-2.5,-0.5L0,-3.0L2.5,-0.5"/>
                </g>
               <g id="resetDef">
                       <use xlink:href="#rim2" fill="#404040">
                               <set attributeName="fill" to="#808080" begin="reset.mouseover" end="reset.mouseout"/>
                       </use>
               </g>
        </defs>

<script type="text/javascript">
var viewWidth = 1465;
var viewHeight = 207;
var sectionId = 'dynsection-0';
</script>
<script xlink:href="svgpan.js"/>
<svg id="graph" class="graph">
<g id="viewport">
<title>diagram.h</title>
<polygon fill="white" stroke="none" points="-4,4 -4,-203 1461,-203 1461,4 -4,4"/>
<!-- Node1 -->
<g id="node1" class="node"><title>Node1</title>
<polygon fill="#bfbfbf" stroke="black" points="856,-179.5 856,-198.5 921,-198.5 921,-179.5 856,-179.5"/>
<text text-anchor="middle" x="888.5" y="-186.5" font-family="Helvetica,sans-Serif" font-size="10.00">diagram.h</text>
</g>
<!-- Node2 -->
<g id="node2" class="node"><title>Node2</title>
<polygon fill="white" stroke="#bfbfbf" points="0,-62 0,-81 57,-81 57,-62 0,-62"/>
<text text-anchor="middle" x="28.5" y="-69" font-family="Helvetica,sans-Serif" font-size="10.00">memory</text>
</g>
<!-- Node1&#45;&gt;Node2 -->
<g id="edge1" class="edge"><title>Node1&#45;&gt;Node2</title>
<path fill="none" stroke="midnightblue" d="M855.854,-186.551C771.653,-182.539 540.366,-169.766 349.5,-143 222.526,-125.194 189.725,-122.426 66.5,-87 63.917,-86.2574 61.262,-85.4151 58.6136,-84.5191"/>
<polygon fill="midnightblue" stroke="midnightblue" points="59.7855,-81.2212 49.1911,-81.1216 57.4111,-87.8062 59.7855,-81.2212"/>
</g>
<!-- Node3 -->
<g id="node3" class="node"><title>Node3</title>
<polygon fill="white" stroke="#bfbfbf" points="842,-123.5 842,-142.5 935,-142.5 935,-123.5 842,-123.5"/>
<text text-anchor="middle" x="888.5" y="-130.5" font-family="Helvetica,sans-Serif" font-size="10.00">unordered_map</text>
</g>
<!-- Node1&#45;&gt;Node3 -->
<g id="edge2" class="edge"><title>Node1&#45;&gt;Node3</title>
<path fill="none" stroke="midnightblue" d="M888.5,-179.083C888.5,-172.006 888.5,-161.861 888.5,-152.986"/>
<polygon fill="midnightblue" stroke="midnightblue" points="892,-152.751 888.5,-142.751 885,-152.751 892,-152.751"/>
</g>
<!-- Node4 -->
<g id="node4" class="node"><title>Node4</title>
<polygon fill="white" stroke="#bfbfbf" points="952.5,-123.5 952.5,-142.5 1040.5,-142.5 1040.5,-123.5 952.5,-123.5"/>
<text text-anchor="middle" x="996.5" y="-130.5" font-family="Helvetica,sans-Serif" font-size="10.00">QGraphicsItem</text>
</g>
<!-- Node1&#45;&gt;Node4 -->
<g id="edge3" class="edge"><title>Node1&#45;&gt;Node4</title>
<path fill="none" stroke="midnightblue" d="M905.852,-179.324C923.172,-170.664 950.015,-157.242 970.002,-147.249"/>
<polygon fill="midnightblue" stroke="midnightblue" points="971.812,-150.257 979.191,-142.655 968.681,-143.996 971.812,-150.257"/>
</g>
<!-- Node5 -->
<g id="node5" class="node"><title>Node5</title>
<polygon fill="white" stroke="#bfbfbf" points="1058.5,-123.5 1058.5,-142.5 1154.5,-142.5 1154.5,-123.5 1058.5,-123.5"/>
<text text-anchor="middle" x="1106.5" y="-130.5" font-family="Helvetica,sans-Serif" font-size="10.00">QGraphicsScene</text>
</g>
<!-- Node1&#45;&gt;Node5 -->
<g id="edge4" class="edge"><title>Node1&#45;&gt;Node5</title>
<path fill="none" stroke="midnightblue" d="M921.137,-179.916C958.555,-170.647 1020.1,-155.401 1061.92,-145.043"/>
<polygon fill="midnightblue" stroke="midnightblue" points="1062.97,-148.388 1071.84,-142.587 1061.29,-141.594 1062.97,-148.388"/>
</g>
<!-- Node6 -->
<g id="node6" class="node"><title>Node6</title>
<polygon fill="white" stroke="#bfbfbf" points="1172.5,-123.5 1172.5,-142.5 1216.5,-142.5 1216.5,-123.5 1172.5,-123.5"/>
<text text-anchor="middle" x="1194.5" y="-130.5" font-family="Helvetica,sans-Serif" font-size="10.00">QSize</text>
</g>
<!-- Node1&#45;&gt;Node6 -->
<g id="edge5" class="edge"><title>Node1&#45;&gt;Node6</title>
<path fill="none" stroke="midnightblue" d="M921.342,-183.928C971.391,-177.44 1069.88,-163.57 1162.43,-143.019"/>
<polygon fill="midnightblue" stroke="midnightblue" points="1163.25,-146.424 1172.23,-140.812 1161.71,-139.595 1163.25,-146.424"/>
</g>
<!-- Node7 -->
<g id="node7" class="node"><title>Node7</title>
<polygon fill="white" stroke="#bfbfbf" points="75.5,-62 75.5,-81 145.5,-81 145.5,-62 75.5,-62"/>
<text text-anchor="middle" x="110.5" y="-69" font-family="Helvetica,sans-Serif" font-size="10.00">src/event.h</text>
</g>
<!-- Node1&#45;&gt;Node7 -->
<g id="edge6" class="edge"><title>Node1&#45;&gt;Node7</title>
<path fill="none" stroke="midnightblue" d="M855.923,-185.64C752.3,-177.683 421.422,-148.806 154.5,-87 151.025,-86.1954 147.434,-85.2346 143.871,-84.1956"/>
<polygon fill="midnightblue" stroke="midnightblue" points="144.613,-80.7608 134.025,-81.1261 142.53,-87.4436 144.613,-80.7608"/>
</g>
<!-- Node8 -->
<g id="node8" class="node"><title>Node8</title>
<g id="a_node8"><a xlink:href="model_8h.xhtml" target="_top" xlink:title="Wrapper Model classes for the MEF data. ">
<polygon fill="white" stroke="black" points="768.5,-123.5 768.5,-142.5 824.5,-142.5 824.5,-123.5 768.5,-123.5"/>
<text text-anchor="middle" x="796.5" y="-130.5" font-family="Helvetica,sans-Serif" font-size="10.00">model.h</text>
</a>
</g>
</g>
<!-- Node1&#45;&gt;Node8 -->
<g id="edge7" class="edge"><title>Node1&#45;&gt;Node8</title>
<path fill="none" stroke="midnightblue" d="M873.719,-179.324C859.233,-170.822 836.927,-157.729 820.007,-147.797"/>
<polygon fill="midnightblue" stroke="midnightblue" points="821.641,-144.698 811.245,-142.655 818.097,-150.735 821.641,-144.698"/>
</g>
<!-- Node8&#45;&gt;Node2 -->
<g id="edge8" class="edge"><title>Node8&#45;&gt;Node2</title>
<path fill="none" stroke="midnightblue" d="M768.185,-131.398C651.054,-128.73 204.102,-116.767 66.5,-87 63.4245,-86.3347 60.2683,-85.4616 57.1526,-84.4733"/>
<polygon fill="midnightblue" stroke="midnightblue" points="58.0816,-81.089 47.4869,-81.0368 55.7366,-87.6846 58.0816,-81.089"/>
</g>
<!-- Node8&#45;&gt;Node7 -->
<g id="edge20" class="edge"><title>Node8&#45;&gt;Node7</title>
<path fill="none" stroke="midnightblue" d="M768.364,-130.441C652.469,-123.962 215.277,-98.951 154.5,-87 150.616,-86.2362 146.599,-85.2301 142.643,-84.1032"/>
<polygon fill="midnightblue" stroke="midnightblue" points="143.638,-80.7472 133.05,-81.1219 141.561,-87.4319 143.638,-80.7472"/>
</g>
<!-- Node9 -->
<g id="node9" class="node"><title>Node9</title>
<polygon fill="white" stroke="#bfbfbf" points="1106,-62 1106,-81 1161,-81 1161,-62 1106,-62"/>
<text text-anchor="middle" x="1133.5" y="-69" font-family="Helvetica,sans-Serif" font-size="10.00">optional</text>
</g>
<!-- Node8&#45;&gt;Node9 -->
<g id="edge9" class="edge"><title>Node8&#45;&gt;Node9</title>
<path fill="none" stroke="midnightblue" d="M824.717,-124.819C827.673,-124.162 830.642,-123.541 833.5,-123 949.853,-100.976 983.037,-117.353 1097.5,-87 1100.01,-86.3351 1102.57,-85.5422 1105.13,-84.6749"/>
<polygon fill="midnightblue" stroke="midnightblue" points="1106.6,-87.8592 1114.74,-81.0742 1104.15,-81.3038 1106.6,-87.8592"/>
</g>
<!-- Node10 -->
<g id="node10" class="node"><title>Node10</title>
<polygon fill="white" stroke="#bfbfbf" points="1179.5,-62 1179.5,-81 1223.5,-81 1223.5,-62 1179.5,-62"/>
<text text-anchor="middle" x="1201.5" y="-69" font-family="Helvetica,sans-Serif" font-size="10.00">string</text>
</g>
<!-- Node8&#45;&gt;Node10 -->
<g id="edge10" class="edge"><title>Node8&#45;&gt;Node10</title>
<path fill="none" stroke="midnightblue" d="M824.701,-124.734C827.661,-124.093 830.634,-123.499 833.5,-123 981.894,-97.1427 1025.41,-127.463 1170.5,-87 1172.43,-86.4613 1174.39,-85.8127 1176.34,-85.0924"/>
<polygon fill="midnightblue" stroke="midnightblue" points="1177.96,-88.2057 1185.8,-81.0717 1175.23,-81.7638 1177.96,-88.2057"/>
</g>
<!-- Node11 -->
<g id="node11" class="node"><title>Node11</title>
<polygon fill="white" stroke="#bfbfbf" points="1224.5,-0.5 1224.5,-19.5 1292.5,-19.5 1292.5,-0.5 1224.5,-0.5"/>
<text text-anchor="middle" x="1258.5" y="-7.5" font-family="Helvetica,sans-Serif" font-size="10.00">type_traits</text>
</g>
<!-- Node8&#45;&gt;Node11 -->
<g id="edge11" class="edge"><title>Node8&#45;&gt;Node11</title>
<path fill="none" stroke="midnightblue" d="M824.693,-124.685C827.654,-124.054 830.63,-123.476 833.5,-123 921.328,-108.439 1162.47,-141.975 1232.5,-87 1249.86,-73.3726 1255.69,-47.5515 1257.61,-29.8195"/>
<polygon fill="midnightblue" stroke="midnightblue" points="1261.11,-30.0136 1258.39,-19.7749 1254.13,-29.4776 1261.11,-30.0136"/>
</g>
<!-- Node12 -->
<g id="node12" class="node"><title>Node12</title>
<polygon fill="white" stroke="#bfbfbf" points="1410,-62 1410,-81 1457,-81 1457,-62 1410,-62"/>
<text text-anchor="middle" x="1433.5" y="-69" font-family="Helvetica,sans-Serif" font-size="10.00">vector</text>
</g>
<!-- Node8&#45;&gt;Node12 -->
<g id="edge12" class="edge"><title>Node8&#45;&gt;Node12</title>
<path fill="none" stroke="midnightblue" d="M824.681,-124.608C827.644,-123.992 830.624,-123.438 833.5,-123 1080.93,-85.2781 1150.93,-140.215 1395.5,-87 1398.57,-86.331 1401.73,-85.4555 1404.85,-84.4657"/>
<polygon fill="midnightblue" stroke="midnightblue" points="1406.26,-87.6767 1414.51,-81.0274 1403.92,-81.0815 1406.26,-87.6767"/>
</g>
<!-- Node13 -->
<g id="node13" class="node"><title>Node13</title>
<polygon fill="white" stroke="#bfbfbf" points="163.5,-56.5 163.5,-86.5 303.5,-86.5 303.5,-56.5 163.5,-56.5"/>
<text text-anchor="start" x="171.5" y="-74.5" font-family="Helvetica,sans-Serif" font-size="10.00">boost/multi_index/hashed</text>
<text text-anchor="middle" x="233.5" y="-63.5" font-family="Helvetica,sans-Serif" font-size="10.00">_index.hpp</text>
</g>
<!-- Node8&#45;&gt;Node13 -->
<g id="edge13" class="edge"><title>Node8&#45;&gt;Node13</title>
<path fill="none" stroke="midnightblue" d="M768.303,-130.258C695.062,-125.545 492.622,-111.332 313.776,-87.0967"/>
<polygon fill="midnightblue" stroke="midnightblue" points="314.041,-83.6004 303.659,-85.7114 313.092,-90.5357 314.041,-83.6004"/>
</g>
<!-- Node14 -->
<g id="node14" class="node"><title>Node14</title>
<polygon fill="white" stroke="#bfbfbf" points="321.5,-56.5 321.5,-86.5 451.5,-86.5 451.5,-56.5 321.5,-56.5"/>
<text text-anchor="start" x="329.5" y="-74.5" font-family="Helvetica,sans-Serif" font-size="10.00">boost/multi_index/mem</text>
<text text-anchor="middle" x="386.5" y="-63.5" font-family="Helvetica,sans-Serif" font-size="10.00">_fun.hpp</text>
</g>
<!-- Node8&#45;&gt;Node14 -->
<g id="edge14" class="edge"><title>Node8&#45;&gt;Node14</title>
<path fill="none" stroke="midnightblue" d="M768.094,-128.783C711.699,-122.269 581.413,-106.596 461.885,-87.1705"/>
<polygon fill="midnightblue" stroke="midnightblue" points="462.266,-83.6863 451.831,-85.5234 461.134,-90.5942 462.266,-83.6863"/>
</g>
<!-- Node15 -->
<g id="node15" class="node"><title>Node15</title>
<polygon fill="white" stroke="#bfbfbf" points="469.5,-62 469.5,-81 641.5,-81 641.5,-62 469.5,-62"/>
<text text-anchor="middle" x="555.5" y="-69" font-family="Helvetica,sans-Serif" font-size="10.00">boost/multi_index_container.hpp</text>
</g>
<!-- Node8&#45;&gt;Node15 -->
<g id="edge15" class="edge"><title>Node8&#45;&gt;Node15</title>
<path fill="none" stroke="midnightblue" d="M768.383,-125.058C726.912,-114.82 648.959,-95.5738 599.767,-83.4289"/>
<polygon fill="midnightblue" stroke="midnightblue" points="600.578,-80.0242 590.03,-81.0251 598.9,-86.8201 600.578,-80.0242"/>
</g>
<!-- Node16 -->
<g id="node16" class="node"><title>Node16</title>
<polygon fill="white" stroke="#bfbfbf" points="660,-62 660,-81 715,-81 715,-62 660,-62"/>
<text text-anchor="middle" x="687.5" y="-69" font-family="Helvetica,sans-Serif" font-size="10.00">QObject</text>
</g>
<!-- Node8&#45;&gt;Node16 -->
<g id="edge16" class="edge"><title>Node8&#45;&gt;Node16</title>
<path fill="none" stroke="midnightblue" d="M780.883,-123.475C762.914,-113.666 733.179,-97.4346 712.094,-85.925"/>
<polygon fill="midnightblue" stroke="midnightblue" points="713.542,-82.7284 703.088,-81.0091 710.189,-88.8726 713.542,-82.7284"/>
</g>
<!-- Node17 -->
<g id="node17" class="node"><title>Node17</title>
<polygon fill="white" stroke="#bfbfbf" points="733,-62 733,-81 786,-81 786,-62 733,-62"/>
<text text-anchor="middle" x="759.5" y="-69" font-family="Helvetica,sans-Serif" font-size="10.00">QString</text>
</g>
<!-- Node8&#45;&gt;Node17 -->
<g id="edge17" class="edge"><title>Node8&#45;&gt;Node17</title>
<path fill="none" stroke="midnightblue" d="M791.199,-123.475C785.759,-114.727 777.141,-100.869 770.264,-89.8093"/>
<polygon fill="midnightblue" stroke="midnightblue" points="773.044,-87.6528 764.791,-81.0091 767.1,-91.3494 773.044,-87.6528"/>
</g>
<!-- Node18 -->
<g id="node18" class="node"><title>Node18</title>
<polygon fill="white" stroke="#bfbfbf" points="1324.5,-0.5 1324.5,-19.5 1424.5,-19.5 1424.5,-0.5 1324.5,-0.5"/>
<text text-anchor="middle" x="1374.5" y="-7.5" font-family="Helvetica,sans-Serif" font-size="10.00">QUndoCommand</text>
</g>
<!-- Node8&#45;&gt;Node18 -->
<g id="edge18" class="edge"><title>Node8&#45;&gt;Node18</title>
<path fill="none" stroke="midnightblue" d="M824.682,-124.62C827.646,-124.001 830.625,-123.444 833.5,-123 891.723,-114.005 1319.04,-126.771 1362.5,-87 1378.02,-72.7972 1378.99,-47.3035 1377.43,-29.7879"/>
<polygon fill="midnightblue" stroke="midnightblue" points="1380.88,-29.1226 1376.17,-19.6287 1373.93,-29.9831 1380.88,-29.1226"/>
</g>
<!-- Node19 -->
<g id="node19" class="node"><title>Node19</title>
<polygon fill="white" stroke="#bfbfbf" points="804.5,-62 804.5,-81 862.5,-81 862.5,-62 804.5,-62"/>
<text text-anchor="middle" x="833.5" y="-69" font-family="Helvetica,sans-Serif" font-size="10.00">QVariant</text>
</g>
<!-- Node8&#45;&gt;Node19 -->
<g id="edge19" class="edge"><title>Node8&#45;&gt;Node19</title>
<path fill="none" stroke="midnightblue" d="M801.801,-123.475C807.241,-114.727 815.859,-100.869 822.736,-89.8093"/>
<polygon fill="midnightblue" stroke="midnightblue" points="825.9,-91.3494 828.209,-81.0091 819.956,-87.6528 825.9,-91.3494"/>
</g>
<!-- Node20 -->
<g id="node20" class="node"><title>Node20</title>
<polygon fill="white" stroke="#bfbfbf" points="880.5,-62 880.5,-81 996.5,-81 996.5,-62 880.5,-62"/>
<text text-anchor="middle" x="938.5" y="-69" font-family="Helvetica,sans-Serif" font-size="10.00">src/ext/multi_index.h</text>
</g>
<!-- Node8&#45;&gt;Node20 -->
<g id="edge21" class="edge"><title>Node8&#45;&gt;Node20</title>
<path fill="none" stroke="midnightblue" d="M816.845,-123.475C840.887,-113.401 881.097,-96.5525 908.663,-85.0023"/>
<polygon fill="midnightblue" stroke="midnightblue" points="910.322,-88.1018 918.193,-81.0091 907.617,-81.6457 910.322,-88.1018"/>
</g>
<!-- Node21 -->
<g id="node21" class="node"><title>Node21</title>
<polygon fill="white" stroke="#bfbfbf" points="1015,-62 1015,-81 1088,-81 1088,-62 1015,-62"/>
<text text-anchor="middle" x="1051.5" y="-69" font-family="Helvetica,sans-Serif" font-size="10.00">src/model.h</text>
</g>
<!-- Node8&#45;&gt;Node21 -->
<g id="edge22" class="edge"><title>Node8&#45;&gt;Node21</title>
<path fill="none" stroke="midnightblue" d="M824.76,-125.027C827.708,-124.329 830.663,-123.642 833.5,-123 909.676,-105.768 929.941,-106.764 1005.5,-87 1008.93,-86.1041 1012.47,-85.1085 1016.01,-84.0708"/>
<polygon fill="midnightblue" stroke="midnightblue" points="1017.29,-87.3396 1025.84,-81.0818 1015.26,-80.6423 1017.29,-87.3396"/>
</g>
<!-- Node22 -->
<g id="node22" class="node"><title>Node22</title>
<g id="a_node22"><a xlink:href="command_8h.xhtml" target="_top" xlink:title="Undo&#45;redo helper facilities based on the Qt Undo framework. ">
<polygon fill="white" stroke="black" points="1279.5,-62 1279.5,-81 1353.5,-81 1353.5,-62 1279.5,-62"/>
<text text-anchor="middle" x="1316.5" y="-69" font-family="Helvetica,sans-Serif" font-size="10.00">command.h</text>
</a>
</g>
</g>
<!-- Node8&#45;&gt;Node22 -->
<g id="edge23" class="edge"><title>Node8&#45;&gt;Node22</title>
<path fill="none" stroke="midnightblue" d="M824.689,-124.665C827.651,-124.038 830.629,-123.466 833.5,-123 1023.68,-92.1384 1075.95,-121.507 1265.5,-87 1270.34,-86.119 1275.38,-84.974 1280.33,-83.7136"/>
<polygon fill="midnightblue" stroke="midnightblue" points="1281.53,-87.0144 1290.26,-81.012 1279.69,-80.2599 1281.53,-87.0144"/>
</g>
<!-- Node22&#45;&gt;Node11 -->
<g id="edge24" class="edge"><title>Node22&#45;&gt;Node11</title>
<path fill="none" stroke="midnightblue" d="M1308.19,-61.9751C1299.32,-52.8733 1285.05,-38.241 1274.08,-26.983"/>
<polygon fill="midnightblue" stroke="midnightblue" points="1276.28,-24.2268 1266.79,-19.5091 1271.27,-29.113 1276.28,-24.2268"/>
</g>
<!-- Node22&#45;&gt;Node18 -->
<g id="edge25" class="edge"><title>Node22&#45;&gt;Node18</title>
<path fill="none" stroke="midnightblue" d="M1324.81,-61.9751C1333.68,-52.8733 1347.95,-38.241 1358.92,-26.983"/>
<polygon fill="midnightblue" stroke="midnightblue" points="1361.73,-29.113 1366.21,-19.5091 1356.72,-24.2268 1361.73,-29.113"/>
</g>
</g>
</svg>
        <g id="navigator" transform="translate(0 0)" fill="#404254">
                <rect fill="#f2f5e9" fill-opacity="0.5" stroke="#606060" stroke-width=".5" x="0" y="0" width="60" height="60"/>
                <use id="zoomplus" xlink:href="#zoomPlus" x="17" y="9" onmousedown="handleZoom(evt,'in')"/>
                <use id="zoomminus" xlink:href="#zoomMin" x="42" y="9" onmousedown="handleZoom(evt,'out')"/>
                <use id="reset" xlink:href="#resetDef" x="30" y="36" onmousedown="handleReset()"/>
                <g id="arrowUp" xlink:href="#dirArrow" transform="translate(30 24)" onmousedown="handlePan(0,-1)">
                  <use xlink:href="#rim" fill="#404040">
                        <set attributeName="fill" to="#808080" begin="arrowUp.mouseover" end="arrowUp.mouseout"/>
                  </use>
                  <path fill="none" stroke="white" stroke-width="1.5" d="M0,-3.0v7 M-2.5,-0.5L0,-3.0L2.5,-0.5"/>
                </g>
                <g id="arrowRight" xlink:href="#dirArrow" transform="rotate(90) translate(36 -43)" onmousedown="handlePan(1,0)">
                  <use xlink:href="#rim" fill="#404040">
                        <set attributeName="fill" to="#808080" begin="arrowRight.mouseover" end="arrowRight.mouseout"/>
                  </use>
                  <path fill="none" stroke="white" stroke-width="1.5" d="M0,-3.0v7 M-2.5,-0.5L0,-3.0L2.5,-0.5"/>
                </g>
                <g id="arrowDown" xlink:href="#dirArrow" transform="rotate(180) translate(-30 -48)" onmousedown="handlePan(0,1)">
                  <use xlink:href="#rim" fill="#404040">
                        <set attributeName="fill" to="#808080" begin="arrowDown.mouseover" end="arrowDown.mouseout"/>
                  </use>
                  <path fill="none" stroke="white" stroke-width="1.5" d="M0,-3.0v7 M-2.5,-0.5L0,-3.0L2.5,-0.5"/>
                </g>
                <g id="arrowLeft" xlink:href="#dirArrow" transform="rotate(270) translate(-36 17)" onmousedown="handlePan(-1,0)">
                  <use xlink:href="#rim" fill="#404040">
                        <set attributeName="fill" to="#808080" begin="arrowLeft.mouseover" end="arrowLeft.mouseout"/>
                  </use>
                  <path fill="none" stroke="white" stroke-width="1.5" d="M0,-3.0v7 M-2.5,-0.5L0,-3.0L2.5,-0.5"/>
                </g>
        </g>
        <svg viewBox="0 0 15 15" width="100%" height="30px" preserveAspectRatio="xMaxYMin meet">
         <g id="arrow_out" transform="scale(0.3 0.3)">
          <a xlink:href="diagram_8h__incl_org.svg" target="_base">
           <rect id="button" ry="5" rx="5" y="6" x="6" height="38" width="38"
                fill="#f2f5e9" fill-opacity="0.5" stroke="#606060" stroke-width="1.0"/>
           <path id="arrow"
             d="M 11.500037,31.436501 C 11.940474,20.09759 22.043105,11.32322 32.158766,21.979434 L 37.068811,17.246167 C 37.068811,17.246167 37.088388,32 37.088388,32 L 22.160133,31.978069 C 22.160133,31.978069 26.997745,27.140456 26.997745,27.140456 C 18.528582,18.264221 13.291696,25.230495 11.500037,31.436501 z"
             style="fill:#404040;"/>
          </a>
         </g>
        </svg>
</svg>
