<?xml version="1.0" encoding="UTF-8" standalone="no"?>
<!DOCTYPE svg PUBLIC "-//W3C//DTD SVG 1.1//EN"
 "http://www.w3.org/Graphics/SVG/1.1/DTD/svg11.dtd">
<!-- Generated by graphviz version 2.38.0 (20140413.2041)
 -->
<!-- Title: elementcontainermodel.cpp Pages: 1 -->
<svg width="1707pt" height="263pt"
 viewBox="0.00 0.00 1706.50 263.00" xmlns="http://www.w3.org/2000/svg" xmlns:xlink="http://www.w3.org/1999/xlink">
<g id="graph0" class="graph" transform="scale(1 1) rotate(0) translate(4 259)">
<title>elementcontainermodel.cpp</title>
<polygon fill="white" stroke="none" points="-4,4 -4,-259 1702.5,-259 1702.5,4 -4,4"/>
<!-- Node1 -->
<g id="node1" class="node"><title>Node1</title>
<polygon fill="#bfbfbf" stroke="black" points="1349,-235.5 1349,-254.5 1501,-254.5 1501,-235.5 1349,-235.5"/>
<text text-anchor="middle" x="1425" y="-242.5" font-family="Helvetica,sans-Serif" font-size="10.00">elementcontainermodel.cpp</text>
</g>
<!-- Node2 -->
<g id="node2" class="node"><title>Node2</title>
<g id="a_node2"><a xlink:href="elementcontainermodel_8h.xhtml" target="_top" xlink:title="The table model for elements. ">
<polygon fill="white" stroke="black" points="710,-179.5 710,-198.5 850,-198.5 850,-179.5 710,-179.5"/>
<text text-anchor="middle" x="780" y="-186.5" font-family="Helvetica,sans-Serif" font-size="10.00">elementcontainermodel.h</text>
</a>
</g>
</g>
<!-- Node1&#45;&gt;Node2 -->
<g id="edge1" class="edge"><title>Node1&#45;&gt;Node2</title>
<path fill="none" stroke="midnightblue" d="M1348.8,-237.62C1226.07,-227.345 985.754,-207.226 860.405,-196.732"/>
<polygon fill="midnightblue" stroke="midnightblue" points="860.368,-193.216 850.111,-195.87 859.784,-200.192 860.368,-193.216"/>
</g>
<!-- Node9 -->
<g id="node9" class="node"><title>Node9</title>
<polygon fill="white" stroke="#bfbfbf" points="0,-62 0,-81 70,-81 70,-62 0,-62"/>
<text text-anchor="middle" x="35" y="-69" font-family="Helvetica,sans-Serif" font-size="10.00">src/event.h</text>
</g>
<!-- Node1&#45;&gt;Node9 -->
<g id="edge28" class="edge"><title>Node1&#45;&gt;Node9</title>
<path fill="none" stroke="midnightblue" d="M1348.65,-240.633C1119.34,-230.038 439.219,-194.972 224,-143 164.878,-128.723 98.989,-101.371 62.7247,-85.2545"/>
<polygon fill="midnightblue" stroke="midnightblue" points="63.8683,-81.9314 53.3121,-81.0271 61.0003,-88.3169 63.8683,-81.9314"/>
</g>
<!-- Node23 -->
<g id="node23" class="node"><title>Node23</title>
<polygon fill="white" stroke="#bfbfbf" points="1385.5,-62 1385.5,-81 1458.5,-81 1458.5,-62 1385.5,-62"/>
<text text-anchor="middle" x="1422" y="-69" font-family="Helvetica,sans-Serif" font-size="10.00">src/model.h</text>
</g>
<!-- Node1&#45;&gt;Node23 -->
<g id="edge30" class="edge"><title>Node1&#45;&gt;Node23</title>
<path fill="none" stroke="midnightblue" d="M1424.85,-235.26C1424.38,-208.651 1422.97,-128.215 1422.33,-91.3382"/>
<polygon fill="midnightblue" stroke="midnightblue" points="1425.82,-90.9566 1422.15,-81.0194 1418.82,-91.0791 1425.82,-90.9566"/>
</g>
<!-- Node25 -->
<g id="node25" class="node"><title>Node25</title>
<polygon fill="white" stroke="#bfbfbf" points="1453,-179.5 1453,-198.5 1547,-198.5 1547,-179.5 1453,-179.5"/>
<text text-anchor="middle" x="1500" y="-186.5" font-family="Helvetica,sans-Serif" font-size="10.00">src/ext/variant.h</text>
</g>
<!-- Node1&#45;&gt;Node25 -->
<g id="edge29" class="edge"><title>Node1&#45;&gt;Node25</title>
<path fill="none" stroke="midnightblue" d="M1437.05,-235.324C1448.46,-227.107 1465.83,-214.602 1479.43,-204.807"/>
<polygon fill="midnightblue" stroke="midnightblue" points="1481.66,-207.517 1487.73,-198.834 1477.57,-201.837 1481.66,-207.517"/>
</g>
<!-- Node26 -->
<g id="node26" class="node"><title>Node26</title>
<g id="a_node26"><a xlink:href="align_8h.xhtml" target="_top" xlink:title="Text alignment common conventions. ">
<polygon fill="white" stroke="black" points="1565,-179.5 1565,-198.5 1613,-198.5 1613,-179.5 1565,-179.5"/>
<text text-anchor="middle" x="1589" y="-186.5" font-family="Helvetica,sans-Serif" font-size="10.00">align.h</text>
</a>
</g>
</g>
<!-- Node1&#45;&gt;Node26 -->
<g id="edge31" class="edge"><title>Node1&#45;&gt;Node26</title>
<path fill="none" stroke="midnightblue" d="M1450.99,-235.444C1479.19,-226.159 1524.31,-211.3 1555.24,-201.117"/>
<polygon fill="midnightblue" stroke="midnightblue" points="1556.34,-204.44 1564.74,-197.988 1554.15,-197.791 1556.34,-204.44"/>
</g>
<!-- Node28 -->
<g id="node28" class="node"><title>Node28</title>
<g id="a_node28"><a xlink:href="guiassert_8h.xhtml" target="_top" xlink:title="GUI assertions that should not crash the program by default. ">
<polygon fill="white" stroke="black" points="1245,-179.5 1245,-198.5 1315,-198.5 1315,-179.5 1245,-179.5"/>
<text text-anchor="middle" x="1280" y="-186.5" font-family="Helvetica,sans-Serif" font-size="10.00">guiassert.h</text>
</a>
</g>
</g>
<!-- Node1&#45;&gt;Node28 -->
<g id="edge33" class="edge"><title>Node1&#45;&gt;Node28</title>
<path fill="none" stroke="midnightblue" d="M1402.02,-235.444C1377.84,-226.438 1339.58,-212.189 1312.35,-202.049"/>
<polygon fill="midnightblue" stroke="midnightblue" points="1313.46,-198.727 1302.87,-198.516 1311.02,-205.286 1313.46,-198.727"/>
</g>
<!-- Node31 -->
<g id="node31" class="node"><title>Node31</title>
<g id="a_node31"><a xlink:href="overload_8h.xhtml" target="_top" xlink:title="Facilities to help with pointers to overloaded functions. ">
<polygon fill="white" stroke="black" points="1631.5,-179.5 1631.5,-198.5 1698.5,-198.5 1698.5,-179.5 1631.5,-179.5"/>
<text text-anchor="middle" x="1665" y="-186.5" font-family="Helvetica,sans-Serif" font-size="10.00">overload.h</text>
</a>
</g>
</g>
<!-- Node1&#45;&gt;Node31 -->
<g id="edge37" class="edge"><title>Node1&#45;&gt;Node31</title>
<path fill="none" stroke="midnightblue" d="M1463.03,-235.444C1506.16,-225.739 1576.35,-209.945 1621.6,-199.766"/>
<polygon fill="midnightblue" stroke="midnightblue" points="1622.42,-203.168 1631.41,-197.558 1620.88,-196.339 1622.42,-203.168"/>
</g>
<!-- Node3 -->
<g id="node3" class="node"><title>Node3</title>
<polygon fill="white" stroke="#bfbfbf" points="960.5,-123.5 960.5,-142.5 1009.5,-142.5 1009.5,-123.5 960.5,-123.5"/>
<text text-anchor="middle" x="985" y="-130.5" font-family="Helvetica,sans-Serif" font-size="10.00">cstdint</text>
</g>
<!-- Node2&#45;&gt;Node3 -->
<g id="edge2" class="edge"><title>Node2&#45;&gt;Node3</title>
<path fill="none" stroke="midnightblue" d="M812.467,-179.471C844.918,-170.943 896.504,-157.377 950.7,-143.076"/>
<polygon fill="midnightblue" stroke="midnightblue" points="951.711,-146.429 960.487,-140.493 949.925,-139.661 951.711,-146.429"/>
</g>
<!-- Node4 -->
<g id="node4" class="node"><title>Node4</title>
<polygon fill="white" stroke="#bfbfbf" points="1027.5,-123.5 1027.5,-142.5 1120.5,-142.5 1120.5,-123.5 1027.5,-123.5"/>
<text text-anchor="middle" x="1074" y="-130.5" font-family="Helvetica,sans-Serif" font-size="10.00">unordered_map</text>
</g>
<!-- Node2&#45;&gt;Node4 -->
<g id="edge3" class="edge"><title>Node2&#45;&gt;Node4</title>
<path fill="none" stroke="midnightblue" d="M826.585,-179.444C878.41,-169.925 962.132,-154.547 1017.62,-144.356"/>
<polygon fill="midnightblue" stroke="midnightblue" points="1018.43,-147.765 1027.63,-142.516 1017.16,-140.881 1018.43,-147.765"/>
</g>
<!-- Node5 -->
<g id="node5" class="node"><title>Node5</title>
<polygon fill="white" stroke="#bfbfbf" points="88.5,-62 88.5,-81 135.5,-81 135.5,-62 88.5,-62"/>
<text text-anchor="middle" x="112" y="-69" font-family="Helvetica,sans-Serif" font-size="10.00">vector</text>
</g>
<!-- Node2&#45;&gt;Node5 -->
<g id="edge4" class="edge"><title>Node2&#45;&gt;Node5</title>
<path fill="none" stroke="midnightblue" d="M720.597,-179.493C573.245,-158.26 198.848,-103.455 144,-87 142.072,-86.4216 140.11,-85.7514 138.153,-85.0226"/>
<polygon fill="midnightblue" stroke="midnightblue" points="139.191,-81.6631 128.614,-81.0451 136.497,-88.124 139.191,-81.6631"/>
</g>
<!-- Node6 -->
<g id="node6" class="node"><title>Node6</title>
<polygon fill="white" stroke="#bfbfbf" points="585.5,-123.5 585.5,-142.5 700.5,-142.5 700.5,-123.5 585.5,-123.5"/>
<text text-anchor="middle" x="643" y="-130.5" font-family="Helvetica,sans-Serif" font-size="10.00">QAbstractItemModel</text>
</g>
<!-- Node2&#45;&gt;Node6 -->
<g id="edge5" class="edge"><title>Node2&#45;&gt;Node6</title>
<path fill="none" stroke="midnightblue" d="M758.292,-179.444C735.645,-170.517 699.928,-156.439 674.248,-146.317"/>
<polygon fill="midnightblue" stroke="midnightblue" points="675.193,-142.927 664.606,-142.516 672.626,-149.44 675.193,-142.927"/>
</g>
<!-- Node7 -->
<g id="node7" class="node"><title>Node7</title>
<polygon fill="white" stroke="#bfbfbf" points="719,-123.5 719,-142.5 841,-142.5 841,-123.5 719,-123.5"/>
<text text-anchor="middle" x="780" y="-130.5" font-family="Helvetica,sans-Serif" font-size="10.00">QSortFilterProxyModel</text>
</g>
<!-- Node2&#45;&gt;Node7 -->
<g id="edge6" class="edge"><title>Node2&#45;&gt;Node7</title>
<path fill="none" stroke="midnightblue" d="M780,-179.083C780,-172.006 780,-161.861 780,-152.986"/>
<polygon fill="midnightblue" stroke="midnightblue" points="783.5,-152.751 780,-142.751 776.5,-152.751 783.5,-152.751"/>
</g>
<!-- Node8 -->
<g id="node8" class="node"><title>Node8</title>
<polygon fill="white" stroke="#bfbfbf" points="859.5,-123.5 859.5,-142.5 942.5,-142.5 942.5,-123.5 859.5,-123.5"/>
<text text-anchor="middle" x="901" y="-130.5" font-family="Helvetica,sans-Serif" font-size="10.00">src/element.h</text>
</g>
<!-- Node2&#45;&gt;Node8 -->
<g id="edge7" class="edge"><title>Node2&#45;&gt;Node8</title>
<path fill="none" stroke="midnightblue" d="M799.173,-179.444C818.909,-170.636 849.885,-156.812 872.493,-146.722"/>
<polygon fill="midnightblue" stroke="midnightblue" points="874.211,-149.788 881.917,-142.516 871.359,-143.396 874.211,-149.788"/>
</g>
<!-- Node2&#45;&gt;Node9 -->
<g id="edge8" class="edge"><title>Node2&#45;&gt;Node9</title>
<path fill="none" stroke="midnightblue" d="M709.911,-183.132C623.176,-176.572 471.127,-163.32 342,-143 223.944,-124.422 194.367,-118.193 79,-87 75.8167,-86.1393 72.5244,-85.1824 69.2398,-84.1821"/>
<polygon fill="midnightblue" stroke="midnightblue" points="70.1153,-80.7881 59.5251,-81.1042 68.001,-87.4612 70.1153,-80.7881"/>
</g>
<!-- Node10 -->
<g id="node10" class="node"><title>Node10</title>
<g id="a_node10"><a xlink:href="model_8h.xhtml" target="_top" xlink:title="Wrapper Model classes for the MEF data. ">
<polygon fill="white" stroke="black" points="512,-123.5 512,-142.5 568,-142.5 568,-123.5 512,-123.5"/>
<text text-anchor="middle" x="540" y="-130.5" font-family="Helvetica,sans-Serif" font-size="10.00">model.h</text>
</a>
</g>
</g>
<!-- Node2&#45;&gt;Node10 -->
<g id="edge9" class="edge"><title>Node2&#45;&gt;Node10</title>
<path fill="none" stroke="midnightblue" d="M739.669,-179.45C700.555,-171.081 639.283,-157.768 578.096,-143.454"/>
<polygon fill="midnightblue" stroke="midnightblue" points="578.816,-140.028 568.281,-141.149 577.215,-146.843 578.816,-140.028"/>
</g>
<!-- Node10&#45;&gt;Node5 -->
<g id="edge14" class="edge"><title>Node10&#45;&gt;Node5</title>
<path fill="none" stroke="midnightblue" d="M511.739,-129.033C424.107,-119.799 161.758,-91.9014 144,-87 141.85,-86.4067 139.662,-85.6871 137.49,-84.8893"/>
<polygon fill="midnightblue" stroke="midnightblue" points="138.818,-81.6512 128.241,-81.0414 136.129,-88.1142 138.818,-81.6512"/>
</g>
<!-- Node10&#45;&gt;Node9 -->
<g id="edge22" class="edge"><title>Node10&#45;&gt;Node9</title>
<path fill="none" stroke="midnightblue" d="M511.872,-131.411C439.37,-129.429 240.501,-121.055 79,-87 75.3208,-86.2242 71.518,-85.2482 67.7595,-84.1709"/>
<polygon fill="midnightblue" stroke="midnightblue" points="68.6171,-80.7725 58.0291,-81.151 66.5422,-87.4579 68.6171,-80.7725"/>
</g>
<!-- Node11 -->
<g id="node11" class="node"><title>Node11</title>
<polygon fill="white" stroke="#bfbfbf" points="437.5,-62 437.5,-81 494.5,-81 494.5,-62 437.5,-62"/>
<text text-anchor="middle" x="466" y="-69" font-family="Helvetica,sans-Serif" font-size="10.00">memory</text>
</g>
<!-- Node10&#45;&gt;Node11 -->
<g id="edge10" class="edge"><title>Node10&#45;&gt;Node11</title>
<path fill="none" stroke="midnightblue" d="M529.398,-123.475C517.748,-114.108 498.814,-98.8839 484.665,-87.5081"/>
<polygon fill="midnightblue" stroke="midnightblue" points="486.569,-84.5477 476.583,-81.0091 482.183,-90.003 486.569,-84.5477"/>
</g>
<!-- Node12 -->
<g id="node12" class="node"><title>Node12</title>
<polygon fill="white" stroke="#bfbfbf" points="512.5,-62 512.5,-81 567.5,-81 567.5,-62 512.5,-62"/>
<text text-anchor="middle" x="540" y="-69" font-family="Helvetica,sans-Serif" font-size="10.00">optional</text>
</g>
<!-- Node10&#45;&gt;Node12 -->
<g id="edge11" class="edge"><title>Node10&#45;&gt;Node12</title>
<path fill="none" stroke="midnightblue" d="M540,-123.475C540,-115.08 540,-101.981 540,-91.1631"/>
<polygon fill="midnightblue" stroke="midnightblue" points="543.5,-91.0091 540,-81.0091 536.5,-91.0091 543.5,-91.0091"/>
</g>
<!-- Node13 -->
<g id="node13" class="node"><title>Node13</title>
<polygon fill="white" stroke="#bfbfbf" points="586,-62 586,-81 630,-81 630,-62 586,-62"/>
<text text-anchor="middle" x="608" y="-69" font-family="Helvetica,sans-Serif" font-size="10.00">string</text>
</g>
<!-- Node10&#45;&gt;Node13 -->
<g id="edge12" class="edge"><title>Node10&#45;&gt;Node13</title>
<path fill="none" stroke="midnightblue" d="M549.743,-123.475C560.347,-114.197 577.519,-99.1706 590.479,-87.831"/>
<polygon fill="midnightblue" stroke="midnightblue" points="593.054,-90.2282 598.275,-81.0091 588.445,-84.9601 593.054,-90.2282"/>
</g>
<!-- Node14 -->
<g id="node14" class="node"><title>Node14</title>
<polygon fill="white" stroke="#bfbfbf" points="747,-0.5 747,-19.5 815,-19.5 815,-0.5 747,-0.5"/>
<text text-anchor="middle" x="781" y="-7.5" font-family="Helvetica,sans-Serif" font-size="10.00">type_traits</text>
</g>
<!-- Node10&#45;&gt;Node14 -->
<g id="edge13" class="edge"><title>Node10&#45;&gt;Node14</title>
<path fill="none" stroke="midnightblue" d="M568.261,-124.763C570.872,-124.146 573.482,-123.549 576,-123 661.254,-104.41 708.164,-149.552 769,-87 783.592,-71.9965 784.817,-46.8901 783.572,-29.6673"/>
<polygon fill="midnightblue" stroke="midnightblue" points="787.047,-29.2486 782.512,-19.6733 780.086,-29.9867 787.047,-29.2486"/>
</g>
<!-- Node15 -->
<g id="node15" class="node"><title>Node15</title>
<polygon fill="white" stroke="#bfbfbf" points="816,-56.5 816,-86.5 956,-86.5 956,-56.5 816,-56.5"/>
<text text-anchor="start" x="824" y="-74.5" font-family="Helvetica,sans-Serif" font-size="10.00">boost/multi_index/hashed</text>
<text text-anchor="middle" x="886" y="-63.5" font-family="Helvetica,sans-Serif" font-size="10.00">_index.hpp</text>
</g>
<!-- Node10&#45;&gt;Node15 -->
<g id="edge15" class="edge"><title>Node10&#45;&gt;Node15</title>
<path fill="none" stroke="midnightblue" d="M568.246,-124.692C570.86,-124.09 573.475,-123.516 576,-123 675.654,-102.646 701.661,-103.651 802,-87 803.273,-86.7888 804.556,-86.5751 805.849,-86.3594"/>
<polygon fill="midnightblue" stroke="midnightblue" points="806.603,-89.7818 815.885,-84.6731 805.443,-82.8785 806.603,-89.7818"/>
</g>
<!-- Node16 -->
<g id="node16" class="node"><title>Node16</title>
<polygon fill="white" stroke="#bfbfbf" points="974,-56.5 974,-86.5 1104,-86.5 1104,-56.5 974,-56.5"/>
<text text-anchor="start" x="982" y="-74.5" font-family="Helvetica,sans-Serif" font-size="10.00">boost/multi_index/mem</text>
<text text-anchor="middle" x="1039" y="-63.5" font-family="Helvetica,sans-Serif" font-size="10.00">_fun.hpp</text>
</g>
<!-- Node10&#45;&gt;Node16 -->
<g id="edge16" class="edge"><title>Node10&#45;&gt;Node16</title>
<path fill="none" stroke="midnightblue" d="M568.212,-124.514C570.834,-123.95 573.46,-123.432 576,-123 743.989,-94.4004 791.393,-111.078 963.778,-87.0747"/>
<polygon fill="midnightblue" stroke="midnightblue" points="964.282,-90.5385 973.691,-85.6691 963.299,-83.6078 964.282,-90.5385"/>
</g>
<!-- Node17 -->
<g id="node17" class="node"><title>Node17</title>
<polygon fill="white" stroke="#bfbfbf" points="1122,-62 1122,-81 1294,-81 1294,-62 1122,-62"/>
<text text-anchor="middle" x="1208" y="-69" font-family="Helvetica,sans-Serif" font-size="10.00">boost/multi_index_container.hpp</text>
</g>
<!-- Node10&#45;&gt;Node17 -->
<g id="edge17" class="edge"><title>Node10&#45;&gt;Node17</title>
<path fill="none" stroke="midnightblue" d="M568.201,-124.445C570.825,-123.895 573.454,-123.4 576,-123 812.299,-85.8453 875.222,-113.069 1113,-87 1124.16,-85.7765 1136.02,-84.1944 1147.43,-82.5267"/>
<polygon fill="midnightblue" stroke="midnightblue" points="1147.95,-85.9882 1157.32,-81.046 1146.91,-79.0653 1147.95,-85.9882"/>
</g>
<!-- Node18 -->
<g id="node18" class="node"><title>Node18</title>
<polygon fill="white" stroke="#bfbfbf" points="153.5,-62 153.5,-81 208.5,-81 208.5,-62 153.5,-62"/>
<text text-anchor="middle" x="181" y="-69" font-family="Helvetica,sans-Serif" font-size="10.00">QObject</text>
</g>
<!-- Node10&#45;&gt;Node18 -->
<g id="edge18" class="edge"><title>Node10&#45;&gt;Node18</title>
<path fill="none" stroke="midnightblue" d="M511.937,-128.935C444.26,-121.404 273.56,-101.553 218,-87 215.339,-86.3029 212.609,-85.4712 209.896,-84.5637"/>
<polygon fill="midnightblue" stroke="midnightblue" points="210.895,-81.2023 200.301,-81.0502 208.488,-87.7755 210.895,-81.2023"/>
</g>
<!-- Node19 -->
<g id="node19" class="node"><title>Node19</title>
<polygon fill="white" stroke="#bfbfbf" points="1312.5,-62 1312.5,-81 1365.5,-81 1365.5,-62 1312.5,-62"/>
<text text-anchor="middle" x="1339" y="-69" font-family="Helvetica,sans-Serif" font-size="10.00">QString</text>
</g>
<!-- Node10&#45;&gt;Node19 -->
<g id="edge19" class="edge"><title>Node10&#45;&gt;Node19</title>
<path fill="none" stroke="midnightblue" d="M568.194,-124.398C570.82,-123.858 573.451,-123.378 576,-123 896.007,-75.5425 987.024,-156.395 1303,-87 1305.84,-86.3767 1308.74,-85.5519 1311.61,-84.6112"/>
<polygon fill="midnightblue" stroke="midnightblue" points="1312.91,-87.8608 1321.06,-81.0908 1310.47,-81.3009 1312.91,-87.8608"/>
</g>
<!-- Node20 -->
<g id="node20" class="node"><title>Node20</title>
<polygon fill="white" stroke="#bfbfbf" points="615,-0.5 615,-19.5 715,-19.5 715,-0.5 615,-0.5"/>
<text text-anchor="middle" x="665" y="-7.5" font-family="Helvetica,sans-Serif" font-size="10.00">QUndoCommand</text>
</g>
<!-- Node10&#45;&gt;Node20 -->
<g id="edge20" class="edge"><title>Node10&#45;&gt;Node20</title>
<path fill="none" stroke="midnightblue" d="M564.667,-123.357C590.432,-113.894 628.533,-98.5348 639,-87 653.467,-71.0574 659.94,-46.7056 662.8,-29.884"/>
<polygon fill="midnightblue" stroke="midnightblue" points="666.315,-30.0303 664.257,-19.6372 659.384,-29.0451 666.315,-30.0303"/>
</g>
<!-- Node21 -->
<g id="node21" class="node"><title>Node21</title>
<polygon fill="white" stroke="#bfbfbf" points="227,-62 227,-81 285,-81 285,-62 227,-62"/>
<text text-anchor="middle" x="256" y="-69" font-family="Helvetica,sans-Serif" font-size="10.00">QVariant</text>
</g>
<!-- Node10&#45;&gt;Node21 -->
<g id="edge21" class="edge"><title>Node10&#45;&gt;Node21</title>
<path fill="none" stroke="midnightblue" d="M511.953,-128.577C465.884,-122.576 371.562,-108.694 294,-87 291.35,-86.2588 288.626,-85.4073 285.913,-84.4962"/>
<polygon fill="midnightblue" stroke="midnightblue" points="286.874,-81.1222 276.279,-81.0264 284.501,-87.7081 286.874,-81.1222"/>
</g>
<!-- Node22 -->
<g id="node22" class="node"><title>Node22</title>
<polygon fill="white" stroke="#bfbfbf" points="303,-62 303,-81 419,-81 419,-62 303,-62"/>
<text text-anchor="middle" x="361" y="-69" font-family="Helvetica,sans-Serif" font-size="10.00">src/ext/multi_index.h</text>
</g>
<!-- Node10&#45;&gt;Node22 -->
<g id="edge23" class="edge"><title>Node10&#45;&gt;Node22</title>
<path fill="none" stroke="midnightblue" d="M514.354,-123.475C483.383,-113.18 431.127,-95.8103 396.349,-84.2502"/>
<polygon fill="midnightblue" stroke="midnightblue" points="397.192,-80.8422 386.599,-81.0091 394.984,-87.4848 397.192,-80.8422"/>
</g>
<!-- Node10&#45;&gt;Node23 -->
<g id="edge24" class="edge"><title>Node10&#45;&gt;Node23</title>
<path fill="none" stroke="midnightblue" d="M568.192,-124.386C570.818,-123.848 573.45,-123.372 576,-123 927.3,-71.6905 1024.04,-146.793 1374,-87 1378.56,-86.2202 1383.3,-85.1385 1387.95,-83.9141"/>
<polygon fill="midnightblue" stroke="midnightblue" points="1389.22,-87.1916 1397.86,-81.0673 1387.28,-80.4635 1389.22,-87.1916"/>
</g>
<!-- Node24 -->
<g id="node24" class="node"><title>Node24</title>
<g id="a_node24"><a xlink:href="command_8h.xhtml" target="_top" xlink:title="Undo&#45;redo helper facilities based on the Qt Undo framework. ">
<polygon fill="white" stroke="black" points="686,-62 686,-81 760,-81 760,-62 686,-62"/>
<text text-anchor="middle" x="723" y="-69" font-family="Helvetica,sans-Serif" font-size="10.00">command.h</text>
</a>
</g>
</g>
<!-- Node10&#45;&gt;Node24 -->
<g id="edge25" class="edge"><title>Node10&#45;&gt;Node24</title>
<path fill="none" stroke="midnightblue" d="M566.219,-123.475C598.018,-113.136 651.765,-95.6611 687.317,-84.1017"/>
<polygon fill="midnightblue" stroke="midnightblue" points="688.401,-87.4297 696.829,-81.0091 686.237,-80.7727 688.401,-87.4297"/>
</g>
<!-- Node24&#45;&gt;Node14 -->
<g id="edge26" class="edge"><title>Node24&#45;&gt;Node14</title>
<path fill="none" stroke="midnightblue" d="M731.31,-61.9751C740.182,-52.8733 754.446,-38.241 765.42,-26.983"/>
<polygon fill="midnightblue" stroke="midnightblue" points="768.231,-29.113 772.705,-19.5091 763.219,-24.2268 768.231,-29.113"/>
</g>
<!-- Node24&#45;&gt;Node20 -->
<g id="edge27" class="edge"><title>Node24&#45;&gt;Node20</title>
<path fill="none" stroke="midnightblue" d="M714.69,-61.9751C705.818,-52.8733 691.554,-38.241 680.58,-26.983"/>
<polygon fill="midnightblue" stroke="midnightblue" points="682.781,-24.2268 673.295,-19.5091 677.769,-29.113 682.781,-24.2268"/>
</g>
<!-- Node27 -->
<g id="node27" class="node"><title>Node27</title>
<polygon fill="white" stroke="#bfbfbf" points="1574.5,-123.5 1574.5,-142.5 1603.5,-142.5 1603.5,-123.5 1574.5,-123.5"/>
<text text-anchor="middle" x="1589" y="-130.5" font-family="Helvetica,sans-Serif" font-size="10.00">Qt</text>
</g>
<!-- Node26&#45;&gt;Node27 -->
<g id="edge32" class="edge"><title>Node26&#45;&gt;Node27</title>
<path fill="none" stroke="midnightblue" d="M1589,-179.083C1589,-172.006 1589,-161.861 1589,-152.986"/>
<polygon fill="midnightblue" stroke="midnightblue" points="1592.5,-152.751 1589,-142.751 1585.5,-152.751 1592.5,-152.751"/>
</g>
<!-- Node28&#45;&gt;Node19 -->
<g id="edge35" class="edge"><title>Node28&#45;&gt;Node19</title>
<path fill="none" stroke="midnightblue" d="M1244.84,-181.659C1203.78,-172.683 1144.3,-153.842 1168,-123 1205.83,-73.758 1244.09,-106.637 1303,-87 1305.13,-86.2902 1307.31,-85.5196 1309.5,-84.7161"/>
<polygon fill="midnightblue" stroke="midnightblue" points="1310.9,-87.9275 1318.98,-81.0685 1308.39,-81.3948 1310.9,-87.9275"/>
</g>
<!-- Node29 -->
<g id="node29" class="node"><title>Node29</title>
<polygon fill="white" stroke="#bfbfbf" points="1177.5,-123.5 1177.5,-142.5 1262.5,-142.5 1262.5,-123.5 1177.5,-123.5"/>
<text text-anchor="middle" x="1220" y="-130.5" font-family="Helvetica,sans-Serif" font-size="10.00">QMessageBox</text>
</g>
<!-- Node28&#45;&gt;Node29 -->
<g id="edge34" class="edge"><title>Node28&#45;&gt;Node29</title>
<path fill="none" stroke="midnightblue" d="M1270.36,-179.324C1261.49,-171.341 1248.13,-159.313 1237.39,-149.653"/>
<polygon fill="midnightblue" stroke="midnightblue" points="1239.59,-146.922 1229.82,-142.834 1234.91,-152.125 1239.59,-146.922"/>
</g>
<!-- Node30 -->
<g id="node30" class="node"><title>Node30</title>
<polygon fill="white" stroke="#bfbfbf" points="1281,-123.5 1281,-142.5 1397,-142.5 1397,-123.5 1281,-123.5"/>
<text text-anchor="middle" x="1339" y="-130.5" font-family="Helvetica,sans-Serif" font-size="10.00">src/ext/source_info.h</text>
</g>
<!-- Node28&#45;&gt;Node30 -->
<g id="edge36" class="edge"><title>Node28&#45;&gt;Node30</title>
<path fill="none" stroke="midnightblue" d="M1289.48,-179.324C1298.2,-171.341 1311.34,-159.313 1321.9,-149.653"/>
<polygon fill="midnightblue" stroke="midnightblue" points="1324.33,-152.167 1329.35,-142.834 1319.61,-147.004 1324.33,-152.167"/>
</g>
</g>
</svg>
