<?xml version="1.0" encoding="UTF-8" standalone="no"?>
<!DOCTYPE svg PUBLIC "-//W3C//DTD SVG 1.1//EN"
 "http://www.w3.org/Graphics/SVG/1.1/DTD/svg11.dtd">
<!-- Generated by graphviz version 2.38.0 (20140413.2041)
 -->
<!-- Title: elementcontainermodel.h Pages: 1 -->
<svg width="1498pt" height="207pt"
 viewBox="0.00 0.00 1497.50 207.00" xmlns="http://www.w3.org/2000/svg" xmlns:xlink="http://www.w3.org/1999/xlink">
<g id="graph0" class="graph" transform="scale(1 1) rotate(0) translate(4 203)">
<title>elementcontainermodel.h</title>
<polygon fill="white" stroke="none" points="-4,4 -4,-203 1493.5,-203 1493.5,4 -4,4"/>
<!-- Node1 -->
<g id="node1" class="node"><title>Node1</title>
<polygon fill="#bfbfbf" stroke="black" points="688.5,-179.5 688.5,-198.5 828.5,-198.5 828.5,-179.5 688.5,-179.5"/>
<text text-anchor="middle" x="758.5" y="-186.5" font-family="Helvetica,sans-Serif" font-size="10.00">elementcontainermodel.h</text>
</g>
<!-- Node2 -->
<g id="node2" class="node"><title>Node2</title>
<polygon fill="white" stroke="#bfbfbf" points="504,-123.5 504,-142.5 553,-142.5 553,-123.5 504,-123.5"/>
<text text-anchor="middle" x="528.5" y="-130.5" font-family="Helvetica,sans-Serif" font-size="10.00">cstdint</text>
</g>
<!-- Node1&#45;&gt;Node2 -->
<g id="edge1" class="edge"><title>Node1&#45;&gt;Node2</title>
<path fill="none" stroke="midnightblue" d="M718.765,-179.433C680.997,-171.177 622.372,-158.069 563.218,-143.363"/>
<polygon fill="midnightblue" stroke="midnightblue" points="563.887,-139.923 553.337,-140.893 562.19,-146.714 563.887,-139.923"/>
</g>
<!-- Node3 -->
<g id="node3" class="node"><title>Node3</title>
<polygon fill="white" stroke="#bfbfbf" points="571,-123.5 571,-142.5 664,-142.5 664,-123.5 571,-123.5"/>
<text text-anchor="middle" x="617.5" y="-130.5" font-family="Helvetica,sans-Serif" font-size="10.00">unordered_map</text>
</g>
<!-- Node1&#45;&gt;Node3 -->
<g id="edge2" class="edge"><title>Node1&#45;&gt;Node3</title>
<path fill="none" stroke="midnightblue" d="M736.158,-179.444C712.747,-170.478 675.764,-156.314 649.31,-146.183"/>
<polygon fill="midnightblue" stroke="midnightblue" points="650.328,-142.824 639.737,-142.516 647.824,-149.361 650.328,-142.824"/>
</g>
<!-- Node4 -->
<g id="node4" class="node"><title>Node4</title>
<polygon fill="white" stroke="#bfbfbf" points="0,-62 0,-81 47,-81 47,-62 0,-62"/>
<text text-anchor="middle" x="23.5" y="-69" font-family="Helvetica,sans-Serif" font-size="10.00">vector</text>
</g>
<!-- Node1&#45;&gt;Node4 -->
<g id="edge3" class="edge"><title>Node1&#45;&gt;Node4</title>
<path fill="none" stroke="midnightblue" d="M748.518,-179.262C729.722,-163.016 689.448,-129.24 672.5,-123 543.823,-75.6214 189.816,-119.086 56.5,-87 54.1386,-86.4317 51.7347,-85.7024 49.3555,-84.874"/>
<polygon fill="midnightblue" stroke="midnightblue" points="50.4698,-81.5498 39.8859,-81.0693 47.8601,-88.0452 50.4698,-81.5498"/>
</g>
<!-- Node5 -->
<g id="node5" class="node"><title>Node5</title>
<polygon fill="white" stroke="#bfbfbf" points="832,-123.5 832,-142.5 947,-142.5 947,-123.5 832,-123.5"/>
<text text-anchor="middle" x="889.5" y="-130.5" font-family="Helvetica,sans-Serif" font-size="10.00">QAbstractItemModel</text>
</g>
<!-- Node1&#45;&gt;Node5 -->
<g id="edge4" class="edge"><title>Node1&#45;&gt;Node5</title>
<path fill="none" stroke="midnightblue" d="M779.257,-179.444C800.816,-170.557 834.763,-156.563 859.294,-146.451"/>
<polygon fill="midnightblue" stroke="midnightblue" points="860.928,-149.563 868.84,-142.516 858.261,-143.092 860.928,-149.563"/>
</g>
<!-- Node6 -->
<g id="node6" class="node"><title>Node6</title>
<polygon fill="white" stroke="#bfbfbf" points="965.5,-123.5 965.5,-142.5 1087.5,-142.5 1087.5,-123.5 965.5,-123.5"/>
<text text-anchor="middle" x="1026.5" y="-130.5" font-family="Helvetica,sans-Serif" font-size="10.00">QSortFilterProxyModel</text>
</g>
<!-- Node1&#45;&gt;Node6 -->
<g id="edge5" class="edge"><title>Node1&#45;&gt;Node6</title>
<path fill="none" stroke="midnightblue" d="M800.965,-179.444C847.913,-169.984 923.576,-154.738 974.154,-144.547"/>
<polygon fill="midnightblue" stroke="midnightblue" points="975.122,-147.923 984.233,-142.516 973.739,-141.061 975.122,-147.923"/>
</g>
<!-- Node7 -->
<g id="node7" class="node"><title>Node7</title>
<polygon fill="white" stroke="#bfbfbf" points="1106,-123.5 1106,-142.5 1189,-142.5 1189,-123.5 1106,-123.5"/>
<text text-anchor="middle" x="1147.5" y="-130.5" font-family="Helvetica,sans-Serif" font-size="10.00">src/element.h</text>
</g>
<!-- Node1&#45;&gt;Node7 -->
<g id="edge6" class="edge"><title>Node1&#45;&gt;Node7</title>
<path fill="none" stroke="midnightblue" d="M828.537,-179.553C894.707,-171.373 996.998,-158.212 1095.63,-143.078"/>
<polygon fill="midnightblue" stroke="midnightblue" points="1096.43,-146.496 1105.78,-141.511 1095.36,-139.578 1096.43,-146.496"/>
</g>
<!-- Node8 -->
<g id="node8" class="node"><title>Node8</title>
<polygon fill="white" stroke="#bfbfbf" points="65.5,-62 65.5,-81 135.5,-81 135.5,-62 65.5,-62"/>
<text text-anchor="middle" x="100.5" y="-69" font-family="Helvetica,sans-Serif" font-size="10.00">src/event.h</text>
</g>
<!-- Node1&#45;&gt;Node8 -->
<g id="edge7" class="edge"><title>Node1&#45;&gt;Node8</title>
<path fill="none" stroke="midnightblue" d="M754.543,-179.334C747.346,-164.72 730.598,-135.546 706.5,-123 595.498,-65.2093 267.365,-110.776 144.5,-87 140.613,-86.2479 136.595,-85.249 132.639,-84.126"/>
<polygon fill="midnightblue" stroke="midnightblue" points="133.632,-80.7698 123.044,-81.1489 131.558,-87.4553 133.632,-80.7698"/>
</g>
<!-- Node9 -->
<g id="node9" class="node"><title>Node9</title>
<g id="a_node9"><a xlink:href="model_8h.xhtml" target="_top" xlink:title="Wrapper Model classes for the MEF data. ">
<polygon fill="white" stroke="black" points="758.5,-123.5 758.5,-142.5 814.5,-142.5 814.5,-123.5 758.5,-123.5"/>
<text text-anchor="middle" x="786.5" y="-130.5" font-family="Helvetica,sans-Serif" font-size="10.00">model.h</text>
</a>
</g>
</g>
<!-- Node1&#45;&gt;Node9 -->
<g id="edge8" class="edge"><title>Node1&#45;&gt;Node9</title>
<path fill="none" stroke="midnightblue" d="M763.124,-179.083C766.956,-171.691 772.524,-160.953 777.265,-151.811"/>
<polygon fill="midnightblue" stroke="midnightblue" points="780.466,-153.24 781.962,-142.751 774.252,-150.018 780.466,-153.24"/>
</g>
<!-- Node9&#45;&gt;Node4 -->
<g id="edge13" class="edge"><title>Node9&#45;&gt;Node4</title>
<path fill="none" stroke="midnightblue" d="M758.4,-128.444C743.079,-126.605 723.77,-124.449 706.5,-123 418.181,-98.8174 337.902,-154.274 56.5,-87 54.1377,-86.4353 51.7332,-85.7085 49.3536,-84.8817"/>
<polygon fill="midnightblue" stroke="midnightblue" points="50.4675,-81.5574 39.8834,-81.0798 47.8595,-88.0535 50.4675,-81.5574"/>
</g>
<!-- Node9&#45;&gt;Node8 -->
<g id="edge21" class="edge"><title>Node9&#45;&gt;Node8</title>
<path fill="none" stroke="midnightblue" d="M758.136,-125.314C753.596,-124.42 748.933,-123.604 744.5,-123 479.803,-86.9095 406.882,-137.225 144.5,-87 140.526,-86.2392 136.414,-85.2174 132.372,-84.0665"/>
<polygon fill="midnightblue" stroke="midnightblue" points="133.177,-80.6514 122.589,-81.0151 131.093,-87.3339 133.177,-80.6514"/>
</g>
<!-- Node10 -->
<g id="node10" class="node"><title>Node10</title>
<polygon fill="white" stroke="#bfbfbf" points="1096,-62 1096,-81 1153,-81 1153,-62 1096,-62"/>
<text text-anchor="middle" x="1124.5" y="-69" font-family="Helvetica,sans-Serif" font-size="10.00">memory</text>
</g>
<!-- Node9&#45;&gt;Node10 -->
<g id="edge9" class="edge"><title>Node9&#45;&gt;Node10</title>
<path fill="none" stroke="midnightblue" d="M814.734,-124.631C817.351,-124.042 819.97,-123.487 822.5,-123 938.783,-100.606 971.763,-116.3 1086.5,-87 1089.32,-86.2793 1092.22,-85.4144 1095.1,-84.4704"/>
<polygon fill="midnightblue" stroke="midnightblue" points="1096.42,-87.7139 1104.66,-81.0514 1094.07,-81.1225 1096.42,-87.7139"/>
</g>
<!-- Node11 -->
<g id="node11" class="node"><title>Node11</title>
<polygon fill="white" stroke="#bfbfbf" points="1171,-62 1171,-81 1226,-81 1226,-62 1171,-62"/>
<text text-anchor="middle" x="1198.5" y="-69" font-family="Helvetica,sans-Serif" font-size="10.00">optional</text>
</g>
<!-- Node9&#45;&gt;Node11 -->
<g id="edge10" class="edge"><title>Node9&#45;&gt;Node11</title>
<path fill="none" stroke="midnightblue" d="M814.719,-124.551C817.339,-123.979 819.963,-123.45 822.5,-123 971.689,-96.5623 1014.32,-122.963 1161.5,-87 1164.33,-86.3091 1167.23,-85.4522 1170.1,-84.5027"/>
<polygon fill="midnightblue" stroke="midnightblue" points="1171.42,-87.7459 1179.61,-81.0245 1169.02,-81.1716 1171.42,-87.7459"/>
</g>
<!-- Node12 -->
<g id="node12" class="node"><title>Node12</title>
<polygon fill="white" stroke="#bfbfbf" points="1244.5,-62 1244.5,-81 1288.5,-81 1288.5,-62 1244.5,-62"/>
<text text-anchor="middle" x="1266.5" y="-69" font-family="Helvetica,sans-Serif" font-size="10.00">string</text>
</g>
<!-- Node9&#45;&gt;Node12 -->
<g id="edge11" class="edge"><title>Node9&#45;&gt;Node12</title>
<path fill="none" stroke="midnightblue" d="M814.71,-124.5C817.332,-123.939 819.959,-123.426 822.5,-123 1003.78,-92.6154 1056.7,-133.597 1234.5,-87 1236.66,-86.4347 1238.85,-85.735 1241.03,-84.951"/>
<polygon fill="midnightblue" stroke="midnightblue" points="1242.38,-88.1807 1250.28,-81.1283 1239.7,-81.7108 1242.38,-88.1807"/>
</g>
<!-- Node13 -->
<g id="node13" class="node"><title>Node13</title>
<polygon fill="white" stroke="#bfbfbf" points="1289.5,-0.5 1289.5,-19.5 1357.5,-19.5 1357.5,-0.5 1289.5,-0.5"/>
<text text-anchor="middle" x="1323.5" y="-7.5" font-family="Helvetica,sans-Serif" font-size="10.00">type_traits</text>
</g>
<!-- Node9&#45;&gt;Node13 -->
<g id="edge12" class="edge"><title>Node9&#45;&gt;Node13</title>
<path fill="none" stroke="midnightblue" d="M814.705,-124.469C817.328,-123.914 819.956,-123.411 822.5,-123 874.75,-114.551 1255.63,-119.385 1297.5,-87 1314.96,-73.4973 1320.77,-47.6468 1322.66,-29.8741"/>
<polygon fill="midnightblue" stroke="midnightblue" points="1326.16,-30.0359 1323.41,-19.8033 1319.17,-29.5153 1326.16,-30.0359"/>
</g>
<!-- Node14 -->
<g id="node14" class="node"><title>Node14</title>
<polygon fill="white" stroke="#bfbfbf" points="153.5,-56.5 153.5,-86.5 293.5,-86.5 293.5,-56.5 153.5,-56.5"/>
<text text-anchor="start" x="161.5" y="-74.5" font-family="Helvetica,sans-Serif" font-size="10.00">boost/multi_index/hashed</text>
<text text-anchor="middle" x="223.5" y="-63.5" font-family="Helvetica,sans-Serif" font-size="10.00">_index.hpp</text>
</g>
<!-- Node9&#45;&gt;Node14 -->
<g id="edge14" class="edge"><title>Node9&#45;&gt;Node14</title>
<path fill="none" stroke="midnightblue" d="M758.124,-125.398C753.585,-124.492 748.927,-123.652 744.5,-123 552.744,-94.7676 499.649,-112.221 303.701,-87.0643"/>
<polygon fill="midnightblue" stroke="midnightblue" points="304.022,-83.5767 293.653,-85.7534 303.117,-90.5178 304.022,-83.5767"/>
</g>
<!-- Node15 -->
<g id="node15" class="node"><title>Node15</title>
<polygon fill="white" stroke="#bfbfbf" points="311.5,-56.5 311.5,-86.5 441.5,-86.5 441.5,-56.5 311.5,-56.5"/>
<text text-anchor="start" x="319.5" y="-74.5" font-family="Helvetica,sans-Serif" font-size="10.00">boost/multi_index/mem</text>
<text text-anchor="middle" x="376.5" y="-63.5" font-family="Helvetica,sans-Serif" font-size="10.00">_fun.hpp</text>
</g>
<!-- Node9&#45;&gt;Node15 -->
<g id="edge15" class="edge"><title>Node9&#45;&gt;Node15</title>
<path fill="none" stroke="midnightblue" d="M758.099,-125.555C753.564,-124.63 748.912,-123.741 744.5,-123 617.847,-101.719 582.235,-107.37 451.798,-87.1324"/>
<polygon fill="midnightblue" stroke="midnightblue" points="452.247,-83.6601 441.825,-85.5636 451.159,-90.5751 452.247,-83.6601"/>
</g>
<!-- Node16 -->
<g id="node16" class="node"><title>Node16</title>
<polygon fill="white" stroke="#bfbfbf" points="459.5,-62 459.5,-81 631.5,-81 631.5,-62 459.5,-62"/>
<text text-anchor="middle" x="545.5" y="-69" font-family="Helvetica,sans-Serif" font-size="10.00">boost/multi_index_container.hpp</text>
</g>
<!-- Node9&#45;&gt;Node16 -->
<g id="edge16" class="edge"><title>Node9&#45;&gt;Node16</title>
<path fill="none" stroke="midnightblue" d="M758.383,-125.058C716.912,-114.82 638.959,-95.5738 589.767,-83.4289"/>
<polygon fill="midnightblue" stroke="midnightblue" points="590.578,-80.0242 580.03,-81.0251 588.9,-86.8201 590.578,-80.0242"/>
</g>
<!-- Node17 -->
<g id="node17" class="node"><title>Node17</title>
<polygon fill="white" stroke="#bfbfbf" points="650,-62 650,-81 705,-81 705,-62 650,-62"/>
<text text-anchor="middle" x="677.5" y="-69" font-family="Helvetica,sans-Serif" font-size="10.00">QObject</text>
</g>
<!-- Node9&#45;&gt;Node17 -->
<g id="edge17" class="edge"><title>Node9&#45;&gt;Node17</title>
<path fill="none" stroke="midnightblue" d="M770.883,-123.475C752.914,-113.666 723.179,-97.4346 702.094,-85.925"/>
<polygon fill="midnightblue" stroke="midnightblue" points="703.542,-82.7284 693.088,-81.0091 700.189,-88.8726 703.542,-82.7284"/>
</g>
<!-- Node18 -->
<g id="node18" class="node"><title>Node18</title>
<polygon fill="white" stroke="#bfbfbf" points="723,-62 723,-81 776,-81 776,-62 723,-62"/>
<text text-anchor="middle" x="749.5" y="-69" font-family="Helvetica,sans-Serif" font-size="10.00">QString</text>
</g>
<!-- Node9&#45;&gt;Node18 -->
<g id="edge18" class="edge"><title>Node9&#45;&gt;Node18</title>
<path fill="none" stroke="midnightblue" d="M781.199,-123.475C775.759,-114.727 767.141,-100.869 760.264,-89.8093"/>
<polygon fill="midnightblue" stroke="midnightblue" points="763.044,-87.6528 754.791,-81.0091 757.1,-91.3494 763.044,-87.6528"/>
</g>
<!-- Node19 -->
<g id="node19" class="node"><title>Node19</title>
<polygon fill="white" stroke="#bfbfbf" points="1389.5,-0.5 1389.5,-19.5 1489.5,-19.5 1489.5,-0.5 1389.5,-0.5"/>
<text text-anchor="middle" x="1439.5" y="-7.5" font-family="Helvetica,sans-Serif" font-size="10.00">QUndoCommand</text>
</g>
<!-- Node9&#45;&gt;Node19 -->
<g id="edge19" class="edge"><title>Node9&#45;&gt;Node19</title>
<path fill="none" stroke="midnightblue" d="M814.698,-124.425C817.323,-123.879 819.953,-123.391 822.5,-123 889.063,-112.79 1377.63,-132.249 1427.5,-87 1443.08,-72.8634 1444.03,-47.3545 1442.46,-29.8173"/>
<polygon fill="midnightblue" stroke="midnightblue" points="1445.9,-29.1326 1441.19,-19.6438 1438.95,-30.0006 1445.9,-29.1326"/>
</g>
<!-- Node20 -->
<g id="node20" class="node"><title>Node20</title>
<polygon fill="white" stroke="#bfbfbf" points="794.5,-62 794.5,-81 852.5,-81 852.5,-62 794.5,-62"/>
<text text-anchor="middle" x="823.5" y="-69" font-family="Helvetica,sans-Serif" font-size="10.00">QVariant</text>
</g>
<!-- Node9&#45;&gt;Node20 -->
<g id="edge20" class="edge"><title>Node9&#45;&gt;Node20</title>
<path fill="none" stroke="midnightblue" d="M791.801,-123.475C797.241,-114.727 805.859,-100.869 812.736,-89.8093"/>
<polygon fill="midnightblue" stroke="midnightblue" points="815.9,-91.3494 818.209,-81.0091 809.956,-87.6528 815.9,-91.3494"/>
</g>
<!-- Node21 -->
<g id="node21" class="node"><title>Node21</title>
<polygon fill="white" stroke="#bfbfbf" points="870.5,-62 870.5,-81 986.5,-81 986.5,-62 870.5,-62"/>
<text text-anchor="middle" x="928.5" y="-69" font-family="Helvetica,sans-Serif" font-size="10.00">src/ext/multi_index.h</text>
</g>
<!-- Node9&#45;&gt;Node21 -->
<g id="edge22" class="edge"><title>Node9&#45;&gt;Node21</title>
<path fill="none" stroke="midnightblue" d="M806.845,-123.475C830.887,-113.401 871.097,-96.5525 898.663,-85.0023"/>
<polygon fill="midnightblue" stroke="midnightblue" points="900.322,-88.1018 908.193,-81.0091 897.617,-81.6457 900.322,-88.1018"/>
</g>
<!-- Node22 -->
<g id="node22" class="node"><title>Node22</title>
<polygon fill="white" stroke="#bfbfbf" points="1005,-62 1005,-81 1078,-81 1078,-62 1005,-62"/>
<text text-anchor="middle" x="1041.5" y="-69" font-family="Helvetica,sans-Serif" font-size="10.00">src/model.h</text>
</g>
<!-- Node9&#45;&gt;Node22 -->
<g id="edge23" class="edge"><title>Node9&#45;&gt;Node22</title>
<path fill="none" stroke="midnightblue" d="M814.773,-124.819C817.382,-124.19 819.988,-123.575 822.5,-123 899.055,-105.473 919.509,-106.83 995.5,-87 998.926,-86.1061 1002.47,-85.1119 1006.01,-84.0749"/>
<polygon fill="midnightblue" stroke="midnightblue" points="1007.29,-87.3439 1015.84,-81.0872 1005.26,-80.6464 1007.29,-87.3439"/>
</g>
<!-- Node23 -->
<g id="node23" class="node"><title>Node23</title>
<g id="a_node23"><a xlink:href="command_8h.xhtml" target="_top" xlink:title="Undo&#45;redo helper facilities based on the Qt Undo framework. ">
<polygon fill="white" stroke="black" points="1344.5,-62 1344.5,-81 1418.5,-81 1418.5,-62 1344.5,-62"/>
<text text-anchor="middle" x="1381.5" y="-69" font-family="Helvetica,sans-Serif" font-size="10.00">command.h</text>
</a>
</g>
</g>
<!-- Node9&#45;&gt;Node23 -->
<g id="edge24" class="edge"><title>Node9&#45;&gt;Node23</title>
<path fill="none" stroke="midnightblue" d="M814.703,-124.456C817.327,-123.903 819.955,-123.405 822.5,-123 1046.03,-87.4168 1107.57,-126.158 1330.5,-87 1335.34,-86.149 1340.39,-85.0215 1345.34,-83.77"/>
<polygon fill="midnightblue" stroke="midnightblue" points="1346.54,-87.0718 1355.27,-81.0758 1344.7,-80.3159 1346.54,-87.0718"/>
</g>
<!-- Node23&#45;&gt;Node13 -->
<g id="edge25" class="edge"><title>Node23&#45;&gt;Node13</title>
<path fill="none" stroke="midnightblue" d="M1373.19,-61.9751C1364.32,-52.8733 1350.05,-38.241 1339.08,-26.983"/>
<polygon fill="midnightblue" stroke="midnightblue" points="1341.28,-24.2268 1331.79,-19.5091 1336.27,-29.113 1341.28,-24.2268"/>
</g>
<!-- Node23&#45;&gt;Node19 -->
<g id="edge26" class="edge"><title>Node23&#45;&gt;Node19</title>
<path fill="none" stroke="midnightblue" d="M1389.81,-61.9751C1398.68,-52.8733 1412.95,-38.241 1423.92,-26.983"/>
<polygon fill="midnightblue" stroke="midnightblue" points="1426.73,-29.113 1431.21,-19.5091 1421.72,-24.2268 1426.73,-29.113"/>
</g>
</g>
</svg>
