<?xml version="1.0" encoding="UTF-8" standalone="no"?>
<!DOCTYPE svg PUBLIC "-//W3C//DTD SVG 1.1//EN"
 "http://www.w3.org/Graphics/SVG/1.1/DTD/svg11.dtd">
<!-- Generated by graphviz version 2.38.0 (20140413.2041)
 -->
<!-- Title: eventdialog.h Pages: 1 -->
<!--zoomable 207 -->
<svg id="main" version="1.1" xmlns="http://www.w3.org/2000/svg" xmlns:xlink="http://www.w3.org/1999/xlink" xml:space="preserve" onload="init(evt)">
<style type="text/css"><![CDATA[
.edge:hover path { stroke: red; }
.edge:hover polygon { stroke: red; fill: red; }
]]></style>
<script type="text/javascript"><![CDATA[
var edges = document.getElementsByTagName('g');
if (edges && edges.length) {
  for (var i=0;i<edges.length;i++) {
    if (edges[i].id.substr(0,4)=='edge') {
      edges[i].setAttribute('class','edge');
    }
  }
}
]]></script>
        <defs>
                <circle id="rim" cx="0" cy="0" r="7"/>
                <circle id="rim2" cx="0" cy="0" r="3.5"/>
                <g id="zoomPlus">
                        <use xlink:href="#rim" fill="#404040">
                                <set attributeName="fill" to="#808080" begin="zoomplus.mouseover" end="zoomplus.mouseout"/>
                        </use>
                        <path d="M-4,0h8M0,-4v8" fill="none" stroke="white" stroke-width="1.5" pointer-events="none"/>
                </g>
                <g id="zoomMin">
                        <use xlink:href="#rim" fill="#404040">
                                <set attributeName="fill" to="#808080" begin="zoomminus.mouseover" end="zoomminus.mouseout"/>
                        </use>
                        <path d="M-4,0h8" fill="none" stroke="white" stroke-width="1.5" pointer-events="none"/>
                </g>
                <g id="dirArrow">
                        <path fill="none" stroke="white" stroke-width="1.5" d="M0,-3.0v7 M-2.5,-0.5L0,-3.0L2.5,-0.5"/>
                </g>
               <g id="resetDef">
                       <use xlink:href="#rim2" fill="#404040">
                               <set attributeName="fill" to="#808080" begin="reset.mouseover" end="reset.mouseout"/>
                       </use>
               </g>
        </defs>

<script type="text/javascript">
var viewWidth = 1466;
var viewHeight = 207;
var sectionId = 'dynsection-0';
</script>
<script xlink:href="svgpan.js"/>
<svg id="graph" class="graph">
<g id="viewport">
<title>eventdialog.h</title>
<polygon fill="white" stroke="none" points="-4,4 -4,-203 1462,-203 1462,4 -4,4"/>
<!-- Node1 -->
<g id="node1" class="node"><title>Node1</title>
<polygon fill="#bfbfbf" stroke="black" points="314,-179.5 314,-198.5 395,-198.5 395,-179.5 314,-179.5"/>
<text text-anchor="middle" x="354.5" y="-186.5" font-family="Helvetica,sans-Serif" font-size="10.00">eventdialog.h</text>
</g>
<!-- Node2 -->
<g id="node2" class="node"><title>Node2</title>
<polygon fill="white" stroke="#bfbfbf" points="78,-123.5 78,-142.5 155,-142.5 155,-123.5 78,-123.5"/>
<text text-anchor="middle" x="116.5" y="-130.5" font-family="Helvetica,sans-Serif" font-size="10.00">initializer_list</text>
</g>
<!-- Node1&#45;&gt;Node2 -->
<g id="edge1" class="edge"><title>Node1&#45;&gt;Node2</title>
<path fill="none" stroke="midnightblue" d="M316.788,-179.444C275.357,-170.043 208.743,-154.929 163.833,-144.739"/>
<polygon fill="midnightblue" stroke="midnightblue" points="164.562,-141.316 154.035,-142.516 163.013,-148.142 164.562,-141.316"/>
</g>
<!-- Node3 -->
<g id="node3" class="node"><title>Node3</title>
<polygon fill="white" stroke="#bfbfbf" points="0,-62 0,-81 57,-81 57,-62 0,-62"/>
<text text-anchor="middle" x="28.5" y="-69" font-family="Helvetica,sans-Serif" font-size="10.00">memory</text>
</g>
<!-- Node1&#45;&gt;Node3 -->
<g id="edge2" class="edge"><title>Node1&#45;&gt;Node3</title>
<path fill="none" stroke="midnightblue" d="M315.474,-179.482C283.372,-171.832 237.054,-159.3 198.5,-143 181.998,-136.023 179.73,-130.587 163.5,-123 121.842,-103.527 109.537,-103.197 66.5,-87 64.6165,-86.2912 62.6815,-85.5604 60.7296,-84.8215"/>
<polygon fill="midnightblue" stroke="midnightblue" points="61.583,-81.4017 50.9919,-81.1214 59.0966,-87.9452 61.583,-81.4017"/>
</g>
<!-- Node4 -->
<g id="node4" class="node"><title>Node4</title>
<polygon fill="white" stroke="#bfbfbf" points="75.5,-62 75.5,-81 119.5,-81 119.5,-62 75.5,-62"/>
<text text-anchor="middle" x="97.5" y="-69" font-family="Helvetica,sans-Serif" font-size="10.00">string</text>
</g>
<!-- Node1&#45;&gt;Node4 -->
<g id="edge3" class="edge"><title>Node1&#45;&gt;Node4</title>
<path fill="none" stroke="midnightblue" d="M331.993,-179.494C309.238,-170.77 273.151,-156.589 242.5,-143 200.198,-124.246 152.065,-100.315 123.271,-85.7128"/>
<polygon fill="midnightblue" stroke="midnightblue" points="124.784,-82.5556 114.284,-81.1396 121.609,-88.7943 124.784,-82.5556"/>
</g>
<!-- Node5 -->
<g id="node5" class="node"><title>Node5</title>
<polygon fill="white" stroke="#bfbfbf" points="138,-62 138,-81 185,-81 185,-62 138,-62"/>
<text text-anchor="middle" x="161.5" y="-69" font-family="Helvetica,sans-Serif" font-size="10.00">vector</text>
</g>
<!-- Node1&#45;&gt;Node5 -->
<g id="edge4" class="edge"><title>Node1&#45;&gt;Node5</title>
<path fill="none" stroke="midnightblue" d="M339.994,-179.319C306.73,-159.412 224.736,-110.343 184.509,-86.2695"/>
<polygon fill="midnightblue" stroke="midnightblue" points="186.29,-83.2564 175.911,-81.1245 182.695,-89.2629 186.29,-83.2564"/>
</g>
<!-- Node6 -->
<g id="node6" class="node"><title>Node6</title>
<polygon fill="white" stroke="#bfbfbf" points="475.5,-123.5 475.5,-142.5 529.5,-142.5 529.5,-123.5 475.5,-123.5"/>
<text text-anchor="middle" x="502.5" y="-130.5" font-family="Helvetica,sans-Serif" font-size="10.00">QDialog</text>
</g>
<!-- Node1&#45;&gt;Node6 -->
<g id="edge5" class="edge"><title>Node1&#45;&gt;Node6</title>
<path fill="none" stroke="midnightblue" d="M377.951,-179.444C402.633,-170.438 441.685,-156.189 469.477,-146.049"/>
<polygon fill="midnightblue" stroke="midnightblue" points="470.964,-149.232 479.159,-142.516 468.565,-142.656 470.964,-149.232"/>
</g>
<!-- Node7 -->
<g id="node7" class="node"><title>Node7</title>
<polygon fill="white" stroke="#bfbfbf" points="547.5,-123.5 547.5,-142.5 619.5,-142.5 619.5,-123.5 547.5,-123.5"/>
<text text-anchor="middle" x="583.5" y="-130.5" font-family="Helvetica,sans-Serif" font-size="10.00">QStatusBar</text>
</g>
<!-- Node1&#45;&gt;Node7 -->
<g id="edge6" class="edge"><title>Node1&#45;&gt;Node7</title>
<path fill="none" stroke="midnightblue" d="M390.786,-179.444C430.483,-170.083 494.207,-155.056 537.412,-144.868"/>
<polygon fill="midnightblue" stroke="midnightblue" points="538.454,-148.218 547.384,-142.516 536.848,-141.405 538.454,-148.218"/>
</g>
<!-- Node8 -->
<g id="node8" class="node"><title>Node8</title>
<polygon fill="white" stroke="#bfbfbf" points="203,-62 203,-81 256,-81 256,-62 203,-62"/>
<text text-anchor="middle" x="229.5" y="-69" font-family="Helvetica,sans-Serif" font-size="10.00">QString</text>
</g>
<!-- Node1&#45;&gt;Node8 -->
<g id="edge7" class="edge"><title>Node1&#45;&gt;Node8</title>
<path fill="none" stroke="midnightblue" d="M345.105,-179.319C324.111,-159.921 273.148,-112.831 246.451,-88.1625"/>
<polygon fill="midnightblue" stroke="midnightblue" points="248.724,-85.4979 239.004,-81.282 243.974,-90.6391 248.724,-85.4979"/>
</g>
<!-- Node9 -->
<g id="node9" class="node"><title>Node9</title>
<polygon fill="white" stroke="#bfbfbf" points="638,-123.5 638,-142.5 733,-142.5 733,-123.5 638,-123.5"/>
<text text-anchor="middle" x="685.5" y="-130.5" font-family="Helvetica,sans-Serif" font-size="10.00">ui_eventdialog.h</text>
</g>
<!-- Node1&#45;&gt;Node9 -->
<g id="edge8" class="edge"><title>Node1&#45;&gt;Node9</title>
<path fill="none" stroke="midnightblue" d="M395.087,-181.379C453.46,-171.855 561.4,-154.246 627.975,-143.385"/>
<polygon fill="midnightblue" stroke="midnightblue" points="628.583,-146.832 637.889,-141.767 627.456,-139.923 628.583,-146.832"/>
</g>
<!-- Node10 -->
<g id="node10" class="node"><title>Node10</title>
<polygon fill="white" stroke="#bfbfbf" points="274.5,-62 274.5,-81 344.5,-81 344.5,-62 274.5,-62"/>
<text text-anchor="middle" x="309.5" y="-69" font-family="Helvetica,sans-Serif" font-size="10.00">src/event.h</text>
</g>
<!-- Node1&#45;&gt;Node10 -->
<g id="edge9" class="edge"><title>Node1&#45;&gt;Node10</title>
<path fill="none" stroke="midnightblue" d="M351.118,-179.319C343.821,-160.59 326.466,-116.046 316.627,-90.7924"/>
<polygon fill="midnightblue" stroke="midnightblue" points="319.813,-89.3292 312.922,-81.282 313.291,-91.8704 319.813,-89.3292"/>
</g>
<!-- Node11 -->
<g id="node11" class="node"><title>Node11</title>
<polygon fill="white" stroke="#bfbfbf" points="751,-123.5 751,-142.5 846,-142.5 846,-123.5 751,-123.5"/>
<text text-anchor="middle" x="798.5" y="-130.5" font-family="Helvetica,sans-Serif" font-size="10.00">src/expression.h</text>
</g>
<!-- Node1&#45;&gt;Node11 -->
<g id="edge10" class="edge"><title>Node1&#45;&gt;Node11</title>
<path fill="none" stroke="midnightblue" d="M395.071,-183.887C463.966,-176.774 608.466,-161.298 740.565,-143.22"/>
<polygon fill="midnightblue" stroke="midnightblue" points="741.433,-146.633 750.862,-141.802 740.478,-139.699 741.433,-146.633"/>
</g>
<!-- Node12 -->
<g id="node12" class="node"><title>Node12</title>
<polygon fill="white" stroke="#bfbfbf" points="363,-62 363,-81 436,-81 436,-62 363,-62"/>
<text text-anchor="middle" x="399.5" y="-69" font-family="Helvetica,sans-Serif" font-size="10.00">src/model.h</text>
</g>
<!-- Node1&#45;&gt;Node12 -->
<g id="edge11" class="edge"><title>Node1&#45;&gt;Node12</title>
<path fill="none" stroke="midnightblue" d="M357.882,-179.319C365.179,-160.59 382.534,-116.046 392.373,-90.7924"/>
<polygon fill="midnightblue" stroke="midnightblue" points="395.709,-91.8704 396.078,-81.282 389.187,-89.3292 395.709,-91.8704"/>
</g>
<!-- Node13 -->
<g id="node13" class="node"><title>Node13</title>
<g id="a_node13"><a xlink:href="model_8h.xhtml" target="_top" xlink:title="Wrapper Model classes for the MEF data. ">
<polygon fill="white" stroke="black" points="401.5,-123.5 401.5,-142.5 457.5,-142.5 457.5,-123.5 401.5,-123.5"/>
<text text-anchor="middle" x="429.5" y="-130.5" font-family="Helvetica,sans-Serif" font-size="10.00">model.h</text>
</a>
</g>
</g>
<!-- Node1&#45;&gt;Node13 -->
<g id="edge12" class="edge"><title>Node1&#45;&gt;Node13</title>
<path fill="none" stroke="midnightblue" d="M366.55,-179.324C377.963,-171.107 395.331,-158.602 408.935,-148.807"/>
<polygon fill="midnightblue" stroke="midnightblue" points="411.16,-151.517 417.231,-142.834 407.07,-145.837 411.16,-151.517"/>
</g>
<!-- Node13&#45;&gt;Node3 -->
<g id="edge13" class="edge"><title>Node13&#45;&gt;Node3</title>
<path fill="none" stroke="midnightblue" d="M401.3,-130.817C339.696,-127.732 188.822,-117.445 66.5,-87 63.6735,-86.2965 60.7712,-85.4433 57.891,-84.5068"/>
<polygon fill="midnightblue" stroke="midnightblue" points="58.9204,-81.1581 48.3258,-81.0988 56.5711,-87.7521 58.9204,-81.1581"/>
</g>
<!-- Node13&#45;&gt;Node4 -->
<g id="edge15" class="edge"><title>Node13&#45;&gt;Node4</title>
<path fill="none" stroke="midnightblue" d="M401.103,-130.489C347.005,-127.016 225.879,-116.373 128.5,-87 126.623,-86.4338 124.714,-85.7726 122.814,-85.0503"/>
<polygon fill="midnightblue" stroke="midnightblue" points="124.132,-81.8073 113.562,-81.087 121.376,-88.2418 124.132,-81.8073"/>
</g>
<!-- Node13&#45;&gt;Node5 -->
<g id="edge17" class="edge"><title>Node13&#45;&gt;Node5</title>
<path fill="none" stroke="midnightblue" d="M401.358,-128.826C356.571,-123.29 266.66,-110.188 193.5,-87 191.625,-86.4057 189.714,-85.731 187.807,-85.0056"/>
<polygon fill="midnightblue" stroke="midnightblue" points="189.053,-81.7328 178.477,-81.0937 186.346,-88.1883 189.053,-81.7328"/>
</g>
<!-- Node13&#45;&gt;Node8 -->
<g id="edge22" class="edge"><title>Node13&#45;&gt;Node8</title>
<path fill="none" stroke="midnightblue" d="M401.347,-125.324C368.441,-117.28 312.499,-102.855 265.5,-87 263.373,-86.2825 261.19,-85.5063 259.002,-84.6987"/>
<polygon fill="midnightblue" stroke="midnightblue" points="260.119,-81.3783 249.53,-81.0424 257.598,-87.9087 260.119,-81.3783"/>
</g>
<!-- Node13&#45;&gt;Node10 -->
<g id="edge25" class="edge"><title>Node13&#45;&gt;Node10</title>
<path fill="none" stroke="midnightblue" d="M412.307,-123.475C392.257,-113.534 358.901,-96.9947 335.64,-85.461"/>
<polygon fill="midnightblue" stroke="midnightblue" points="337.175,-82.3157 326.661,-81.0091 334.066,-88.5871 337.175,-82.3157"/>
</g>
<!-- Node13&#45;&gt;Node12 -->
<g id="edge27" class="edge"><title>Node13&#45;&gt;Node12</title>
<path fill="none" stroke="midnightblue" d="M425.202,-123.475C420.835,-114.815 413.945,-101.149 408.397,-90.1453"/>
<polygon fill="midnightblue" stroke="midnightblue" points="411.418,-88.3625 403.79,-81.0091 405.167,-91.5141 411.418,-88.3625"/>
</g>
<!-- Node14 -->
<g id="node14" class="node"><title>Node14</title>
<polygon fill="white" stroke="#bfbfbf" points="665,-62 665,-81 720,-81 720,-62 665,-62"/>
<text text-anchor="middle" x="692.5" y="-69" font-family="Helvetica,sans-Serif" font-size="10.00">optional</text>
</g>
<!-- Node13&#45;&gt;Node14 -->
<g id="edge14" class="edge"><title>Node13&#45;&gt;Node14</title>
<path fill="none" stroke="midnightblue" d="M457.748,-124.974C460.699,-124.286 463.657,-123.616 466.5,-123 550.07,-104.889 573.34,-110.702 655.5,-87 658.083,-86.2548 660.737,-85.4005 663.381,-84.4875"/>
<polygon fill="midnightblue" stroke="midnightblue" points="664.6,-87.7684 672.763,-81.0146 662.17,-81.2037 664.6,-87.7684"/>
</g>
<!-- Node15 -->
<g id="node15" class="node"><title>Node15</title>
<polygon fill="white" stroke="#bfbfbf" points="721.5,-0.5 721.5,-19.5 789.5,-19.5 789.5,-0.5 721.5,-0.5"/>
<text text-anchor="middle" x="755.5" y="-7.5" font-family="Helvetica,sans-Serif" font-size="10.00">type_traits</text>
</g>
<!-- Node13&#45;&gt;Node15 -->
<g id="edge16" class="edge"><title>Node13&#45;&gt;Node15</title>
<path fill="none" stroke="midnightblue" d="M457.717,-124.821C460.674,-124.163 463.642,-123.542 466.5,-123 524.457,-112.014 683.952,-124.485 729.5,-87 746.459,-73.043 752.392,-47.4926 754.447,-29.8971"/>
<polygon fill="midnightblue" stroke="midnightblue" points="757.955,-29.9451 755.314,-19.6848 750.98,-29.3528 757.955,-29.9451"/>
</g>
<!-- Node16 -->
<g id="node16" class="node"><title>Node16</title>
<polygon fill="white" stroke="#bfbfbf" points="906.5,-56.5 906.5,-86.5 1046.5,-86.5 1046.5,-56.5 906.5,-56.5"/>
<text text-anchor="start" x="914.5" y="-74.5" font-family="Helvetica,sans-Serif" font-size="10.00">boost/multi_index/hashed</text>
<text text-anchor="middle" x="976.5" y="-63.5" font-family="Helvetica,sans-Serif" font-size="10.00">_index.hpp</text>
</g>
<!-- Node13&#45;&gt;Node16 -->
<g id="edge18" class="edge"><title>Node13&#45;&gt;Node16</title>
<path fill="none" stroke="midnightblue" d="M457.69,-124.668C460.652,-124.04 463.629,-123.468 466.5,-123 654.037,-92.4548 704.037,-111.183 892.5,-87 893.78,-86.8358 895.07,-86.6659 896.368,-86.491"/>
<polygon fill="midnightblue" stroke="midnightblue" points="897.034,-89.9317 906.442,-85.0605 896.049,-83.0012 897.034,-89.9317"/>
</g>
<!-- Node17 -->
<g id="node17" class="node"><title>Node17</title>
<polygon fill="white" stroke="#bfbfbf" points="1064.5,-56.5 1064.5,-86.5 1194.5,-86.5 1194.5,-56.5 1064.5,-56.5"/>
<text text-anchor="start" x="1072.5" y="-74.5" font-family="Helvetica,sans-Serif" font-size="10.00">boost/multi_index/mem</text>
<text text-anchor="middle" x="1129.5" y="-63.5" font-family="Helvetica,sans-Serif" font-size="10.00">_fun.hpp</text>
</g>
<!-- Node13&#45;&gt;Node17 -->
<g id="edge19" class="edge"><title>Node13&#45;&gt;Node17</title>
<path fill="none" stroke="midnightblue" d="M457.679,-124.6C460.643,-123.985 463.624,-123.434 466.5,-123 722.536,-84.3493 793.559,-119.376 1054.06,-87.0611"/>
<polygon fill="midnightblue" stroke="midnightblue" points="1054.72,-90.5055 1064.21,-85.7808 1053.85,-83.5606 1054.72,-90.5055"/>
</g>
<!-- Node18 -->
<g id="node18" class="node"><title>Node18</title>
<polygon fill="white" stroke="#bfbfbf" points="1212.5,-62 1212.5,-81 1384.5,-81 1384.5,-62 1212.5,-62"/>
<text text-anchor="middle" x="1298.5" y="-69" font-family="Helvetica,sans-Serif" font-size="10.00">boost/multi_index_container.hpp</text>
</g>
<!-- Node13&#45;&gt;Node18 -->
<g id="edge20" class="edge"><title>Node13&#45;&gt;Node18</title>
<path fill="none" stroke="midnightblue" d="M457.674,-124.563C460.639,-123.956 463.621,-123.417 466.5,-123 791.066,-76.0334 877.197,-119.784 1203.5,-87 1214.93,-85.8519 1227.08,-84.2729 1238.74,-82.5776"/>
<polygon fill="midnightblue" stroke="midnightblue" points="1239.45,-86.0093 1248.82,-81.0659 1238.42,-79.0866 1239.45,-86.0093"/>
</g>
<!-- Node19 -->
<g id="node19" class="node"><title>Node19</title>
<polygon fill="white" stroke="#bfbfbf" points="1403,-62 1403,-81 1458,-81 1458,-62 1403,-62"/>
<text text-anchor="middle" x="1430.5" y="-69" font-family="Helvetica,sans-Serif" font-size="10.00">QObject</text>
</g>
<!-- Node13&#45;&gt;Node19 -->
<g id="edge21" class="edge"><title>Node13&#45;&gt;Node19</title>
<path fill="none" stroke="midnightblue" d="M457.67,-124.534C460.636,-123.932 463.619,-123.402 466.5,-123 874.85,-65.9907 989.92,-171.4 1393.5,-87 1396.51,-86.3707 1399.59,-85.521 1402.63,-84.5469"/>
<polygon fill="midnightblue" stroke="midnightblue" points="1403.84,-87.8302 1412.05,-81.1283 1401.46,-81.2502 1403.84,-87.8302"/>
</g>
<!-- Node20 -->
<g id="node20" class="node"><title>Node20</title>
<polygon fill="white" stroke="#bfbfbf" points="821.5,-0.5 821.5,-19.5 921.5,-19.5 921.5,-0.5 821.5,-0.5"/>
<text text-anchor="middle" x="871.5" y="-7.5" font-family="Helvetica,sans-Serif" font-size="10.00">QUndoCommand</text>
</g>
<!-- Node13&#45;&gt;Node20 -->
<g id="edge23" class="edge"><title>Node13&#45;&gt;Node20</title>
<path fill="none" stroke="midnightblue" d="M457.693,-124.689C460.655,-124.057 463.631,-123.478 466.5,-123 553.008,-108.597 795.498,-146.957 859.5,-87 874.854,-72.6166 875.858,-47.1645 874.357,-29.7077"/>
<polygon fill="midnightblue" stroke="midnightblue" points="877.808,-29.0956 873.134,-19.5874 870.859,-29.9349 877.808,-29.0956"/>
</g>
<!-- Node21 -->
<g id="node21" class="node"><title>Node21</title>
<polygon fill="white" stroke="#bfbfbf" points="454.5,-62 454.5,-81 512.5,-81 512.5,-62 454.5,-62"/>
<text text-anchor="middle" x="483.5" y="-69" font-family="Helvetica,sans-Serif" font-size="10.00">QVariant</text>
</g>
<!-- Node13&#45;&gt;Node21 -->
<g id="edge24" class="edge"><title>Node13&#45;&gt;Node21</title>
<path fill="none" stroke="midnightblue" d="M437.237,-123.475C445.497,-114.373 458.777,-99.741 468.994,-88.483"/>
<polygon fill="midnightblue" stroke="midnightblue" points="471.649,-90.7663 475.777,-81.0091 466.465,-86.0619 471.649,-90.7663"/>
</g>
<!-- Node22 -->
<g id="node22" class="node"><title>Node22</title>
<polygon fill="white" stroke="#bfbfbf" points="530.5,-62 530.5,-81 646.5,-81 646.5,-62 530.5,-62"/>
<text text-anchor="middle" x="588.5" y="-69" font-family="Helvetica,sans-Serif" font-size="10.00">src/ext/multi_index.h</text>
</g>
<!-- Node13&#45;&gt;Node22 -->
<g id="edge26" class="edge"><title>Node13&#45;&gt;Node22</title>
<path fill="none" stroke="midnightblue" d="M452.281,-123.475C479.555,-113.269 525.413,-96.108 556.301,-84.5492"/>
<polygon fill="midnightblue" stroke="midnightblue" points="557.622,-87.7919 565.761,-81.0091 555.169,-81.2359 557.622,-87.7919"/>
</g>
<!-- Node23 -->
<g id="node23" class="node"><title>Node23</title>
<g id="a_node23"><a xlink:href="command_8h.xhtml" target="_top" xlink:title="Undo&#45;redo helper facilities based on the Qt Undo framework. ">
<polygon fill="white" stroke="black" points="776.5,-62 776.5,-81 850.5,-81 850.5,-62 776.5,-62"/>
<text text-anchor="middle" x="813.5" y="-69" font-family="Helvetica,sans-Serif" font-size="10.00">command.h</text>
</a>
</g>
</g>
<!-- Node13&#45;&gt;Node23 -->
<g id="edge28" class="edge"><title>Node13&#45;&gt;Node23</title>
<path fill="none" stroke="midnightblue" d="M457.709,-124.777C460.667,-124.128 463.638,-123.52 466.5,-123 596.888,-99.2978 632.591,-113.201 762.5,-87 767.038,-86.0847 771.762,-84.9693 776.423,-83.7678"/>
<polygon fill="midnightblue" stroke="midnightblue" points="777.701,-87.0475 786.431,-81.0442 775.863,-80.2932 777.701,-87.0475"/>
</g>
<!-- Node23&#45;&gt;Node15 -->
<g id="edge29" class="edge"><title>Node23&#45;&gt;Node15</title>
<path fill="none" stroke="midnightblue" d="M805.19,-61.9751C796.318,-52.8733 782.054,-38.241 771.08,-26.983"/>
<polygon fill="midnightblue" stroke="midnightblue" points="773.281,-24.2268 763.795,-19.5091 768.269,-29.113 773.281,-24.2268"/>
</g>
<!-- Node23&#45;&gt;Node20 -->
<g id="edge30" class="edge"><title>Node23&#45;&gt;Node20</title>
<path fill="none" stroke="midnightblue" d="M821.81,-61.9751C830.682,-52.8733 844.946,-38.241 855.92,-26.983"/>
<polygon fill="midnightblue" stroke="midnightblue" points="858.731,-29.113 863.205,-19.5091 853.719,-24.2268 858.731,-29.113"/>
</g>
</g>
</svg>
        <g id="navigator" transform="translate(0 0)" fill="#404254">
                <rect fill="#f2f5e9" fill-opacity="0.5" stroke="#606060" stroke-width=".5" x="0" y="0" width="60" height="60"/>
                <use id="zoomplus" xlink:href="#zoomPlus" x="17" y="9" onmousedown="handleZoom(evt,'in')"/>
                <use id="zoomminus" xlink:href="#zoomMin" x="42" y="9" onmousedown="handleZoom(evt,'out')"/>
                <use id="reset" xlink:href="#resetDef" x="30" y="36" onmousedown="handleReset()"/>
                <g id="arrowUp" xlink:href="#dirArrow" transform="translate(30 24)" onmousedown="handlePan(0,-1)">
                  <use xlink:href="#rim" fill="#404040">
                        <set attributeName="fill" to="#808080" begin="arrowUp.mouseover" end="arrowUp.mouseout"/>
                  </use>
                  <path fill="none" stroke="white" stroke-width="1.5" d="M0,-3.0v7 M-2.5,-0.5L0,-3.0L2.5,-0.5"/>
                </g>
                <g id="arrowRight" xlink:href="#dirArrow" transform="rotate(90) translate(36 -43)" onmousedown="handlePan(1,0)">
                  <use xlink:href="#rim" fill="#404040">
                        <set attributeName="fill" to="#808080" begin="arrowRight.mouseover" end="arrowRight.mouseout"/>
                  </use>
                  <path fill="none" stroke="white" stroke-width="1.5" d="M0,-3.0v7 M-2.5,-0.5L0,-3.0L2.5,-0.5"/>
                </g>
                <g id="arrowDown" xlink:href="#dirArrow" transform="rotate(180) translate(-30 -48)" onmousedown="handlePan(0,1)">
                  <use xlink:href="#rim" fill="#404040">
                        <set attributeName="fill" to="#808080" begin="arrowDown.mouseover" end="arrowDown.mouseout"/>
                  </use>
                  <path fill="none" stroke="white" stroke-width="1.5" d="M0,-3.0v7 M-2.5,-0.5L0,-3.0L2.5,-0.5"/>
                </g>
                <g id="arrowLeft" xlink:href="#dirArrow" transform="rotate(270) translate(-36 17)" onmousedown="handlePan(-1,0)">
                  <use xlink:href="#rim" fill="#404040">
                        <set attributeName="fill" to="#808080" begin="arrowLeft.mouseover" end="arrowLeft.mouseout"/>
                  </use>
                  <path fill="none" stroke="white" stroke-width="1.5" d="M0,-3.0v7 M-2.5,-0.5L0,-3.0L2.5,-0.5"/>
                </g>
        </g>
        <svg viewBox="0 0 15 15" width="100%" height="30px" preserveAspectRatio="xMaxYMin meet">
         <g id="arrow_out" transform="scale(0.3 0.3)">
          <a xlink:href="eventdialog_8h__incl_org.svg" target="_base">
           <rect id="button" ry="5" rx="5" y="6" x="6" height="38" width="38"
                fill="#f2f5e9" fill-opacity="0.5" stroke="#606060" stroke-width="1.0"/>
           <path id="arrow"
             d="M 11.500037,31.436501 C 11.940474,20.09759 22.043105,11.32322 32.158766,21.979434 L 37.068811,17.246167 C 37.068811,17.246167 37.088388,32 37.088388,32 L 22.160133,31.978069 C 22.160133,31.978069 26.997745,27.140456 26.997745,27.140456 C 18.528582,18.264221 13.291696,25.230495 11.500037,31.436501 z"
             style="fill:#404040;"/>
          </a>
         </g>
        </svg>
</svg>
