<?xml version="1.0" encoding="UTF-8" standalone="no"?>
<!DOCTYPE svg PUBLIC "-//W3C//DTD SVG 1.1//EN"
 "http://www.w3.org/Graphics/SVG/1.1/DTD/svg11.dtd">
<!-- Generated by graphviz version 2.38.0 (20140413.2041)
 -->
<!-- Title: eventdialog.cpp Pages: 1 -->
<!--zoomable 263 -->
<svg id="main" version="1.1" xmlns="http://www.w3.org/2000/svg" xmlns:xlink="http://www.w3.org/1999/xlink" xml:space="preserve" onload="init(evt)">
<style type="text/css"><![CDATA[
.edge:hover path { stroke: red; }
.edge:hover polygon { stroke: red; fill: red; }
]]></style>
<script type="text/javascript"><![CDATA[
var edges = document.getElementsByTagName('g');
if (edges && edges.length) {
  for (var i=0;i<edges.length;i++) {
    if (edges[i].id.substr(0,4)=='edge') {
      edges[i].setAttribute('class','edge');
    }
  }
}
]]></script>
        <defs>
                <circle id="rim" cx="0" cy="0" r="7"/>
                <circle id="rim2" cx="0" cy="0" r="3.5"/>
                <g id="zoomPlus">
                        <use xlink:href="#rim" fill="#404040">
                                <set attributeName="fill" to="#808080" begin="zoomplus.mouseover" end="zoomplus.mouseout"/>
                        </use>
                        <path d="M-4,0h8M0,-4v8" fill="none" stroke="white" stroke-width="1.5" pointer-events="none"/>
                </g>
                <g id="zoomMin">
                        <use xlink:href="#rim" fill="#404040">
                                <set attributeName="fill" to="#808080" begin="zoomminus.mouseover" end="zoomminus.mouseout"/>
                        </use>
                        <path d="M-4,0h8" fill="none" stroke="white" stroke-width="1.5" pointer-events="none"/>
                </g>
                <g id="dirArrow">
                        <path fill="none" stroke="white" stroke-width="1.5" d="M0,-3.0v7 M-2.5,-0.5L0,-3.0L2.5,-0.5"/>
                </g>
               <g id="resetDef">
                       <use xlink:href="#rim2" fill="#404040">
                               <set attributeName="fill" to="#808080" begin="reset.mouseover" end="reset.mouseout"/>
                       </use>
               </g>
        </defs>

<script type="text/javascript">
var viewWidth = 2768;
var viewHeight = 263;
var sectionId = 'dynsection-0';
</script>
<script xlink:href="svgpan.js"/>
<svg id="graph" class="graph">
<g id="viewport">
<title>eventdialog.cpp</title>
<polygon fill="white" stroke="none" points="-4,4 -4,-259 2763.5,-259 2763.5,4 -4,4"/>
<!-- Node1 -->
<g id="node1" class="node"><title>Node1</title>
<polygon fill="#bfbfbf" stroke="black" points="1572.5,-235.5 1572.5,-254.5 1664.5,-254.5 1664.5,-235.5 1572.5,-235.5"/>
<text text-anchor="middle" x="1618.5" y="-242.5" font-family="Helvetica,sans-Serif" font-size="10.00">eventdialog.cpp</text>
</g>
<!-- Node2 -->
<g id="node2" class="node"><title>Node2</title>
<g id="a_node2"><a xlink:href="eventdialog_8h.xhtml" target="_top" xlink:title="Dialog to edit and validate events. ">
<polygon fill="white" stroke="black" points="681,-179.5 681,-198.5 762,-198.5 762,-179.5 681,-179.5"/>
<text text-anchor="middle" x="721.5" y="-186.5" font-family="Helvetica,sans-Serif" font-size="10.00">eventdialog.h</text>
</a>
</g>
</g>
<!-- Node1&#45;&gt;Node2 -->
<g id="edge1" class="edge"><title>Node1&#45;&gt;Node2</title>
<path fill="none" stroke="midnightblue" d="M1572.47,-241.229C1419.88,-232.043 931.259,-202.628 772.122,-193.047"/>
<polygon fill="midnightblue" stroke="midnightblue" points="772.315,-189.553 762.123,-192.446 771.895,-196.54 772.315,-189.553"/>
</g>
<!-- Node4 -->
<g id="node4" class="node"><title>Node4</title>
<polygon fill="white" stroke="#bfbfbf" points="0,-62 0,-81 57,-81 57,-62 0,-62"/>
<text text-anchor="middle" x="28.5" y="-69" font-family="Helvetica,sans-Serif" font-size="10.00">memory</text>
</g>
<!-- Node1&#45;&gt;Node4 -->
<g id="edge43" class="edge"><title>Node1&#45;&gt;Node4</title>
<path fill="none" stroke="midnightblue" d="M1572.1,-243.049C1434.5,-239.961 1016.7,-228.638 671.5,-199 470.696,-181.76 417.539,-189.776 221.5,-143 161.239,-128.621 93.9154,-101.305 56.8462,-85.223"/>
<polygon fill="midnightblue" stroke="midnightblue" points="57.788,-81.8143 47.2241,-81.0049 54.9775,-88.2254 57.788,-81.8143"/>
</g>
<!-- Node8 -->
<g id="node8" class="node"><title>Node8</title>
<polygon fill="white" stroke="#bfbfbf" points="939.5,-123.5 939.5,-142.5 1011.5,-142.5 1011.5,-123.5 939.5,-123.5"/>
<text text-anchor="middle" x="975.5" y="-130.5" font-family="Helvetica,sans-Serif" font-size="10.00">QStatusBar</text>
</g>
<!-- Node1&#45;&gt;Node8 -->
<g id="edge37" class="edge"><title>Node1&#45;&gt;Node8</title>
<path fill="none" stroke="midnightblue" d="M1572.35,-244.067C1485.82,-243.234 1293.81,-236.826 1137.5,-199 1087.8,-186.973 1033.24,-162.561 1001.81,-147.316"/>
<polygon fill="midnightblue" stroke="midnightblue" points="1002.98,-143.988 992.458,-142.716 999.887,-150.27 1002.98,-143.988"/>
</g>
<!-- Node12 -->
<g id="node12" class="node"><title>Node12</title>
<polygon fill="white" stroke="#bfbfbf" points="1030,-123.5 1030,-142.5 1125,-142.5 1125,-123.5 1030,-123.5"/>
<text text-anchor="middle" x="1077.5" y="-130.5" font-family="Helvetica,sans-Serif" font-size="10.00">src/expression.h</text>
</g>
<!-- Node1&#45;&gt;Node12 -->
<g id="edge41" class="edge"><title>Node1&#45;&gt;Node12</title>
<path fill="none" stroke="midnightblue" d="M1572.25,-241.923C1474.93,-237.118 1252.03,-223.714 1180.5,-199 1147.92,-187.742 1115.06,-164.462 1095.49,-149.037"/>
<polygon fill="midnightblue" stroke="midnightblue" points="1097.47,-146.132 1087.49,-142.574 1093.07,-151.579 1097.47,-146.132"/>
</g>
<!-- Node20 -->
<g id="node20" class="node"><title>Node20</title>
<polygon fill="white" stroke="#bfbfbf" points="1402,-62 1402,-81 1457,-81 1457,-62 1402,-62"/>
<text text-anchor="middle" x="1429.5" y="-69" font-family="Helvetica,sans-Serif" font-size="10.00">QObject</text>
</g>
<!-- Node1&#45;&gt;Node20 -->
<g id="edge34" class="edge"><title>Node1&#45;&gt;Node20</title>
<path fill="none" stroke="midnightblue" d="M1572.22,-244.398C1493.87,-243.975 1340.31,-238.041 1306.5,-199 1300.68,-192.281 1301.34,-186.241 1306.5,-179 1334.87,-139.156 1377.14,-178.776 1410.5,-143 1423.58,-128.974 1427.83,-106.905 1429.13,-91.1979"/>
<polygon fill="midnightblue" stroke="midnightblue" points="1432.63,-91.2521 1429.63,-81.0906 1425.64,-90.9044 1432.63,-91.2521"/>
</g>
<!-- Node25 -->
<g id="node25" class="node"><title>Node25</title>
<polygon fill="white" stroke="#bfbfbf" points="1315.5,-179.5 1315.5,-198.5 1389.5,-198.5 1389.5,-179.5 1315.5,-179.5"/>
<text text-anchor="middle" x="1352.5" y="-186.5" font-family="Helvetica,sans-Serif" font-size="10.00">QCompleter</text>
</g>
<!-- Node1&#45;&gt;Node25 -->
<g id="edge32" class="edge"><title>Node1&#45;&gt;Node25</title>
<path fill="none" stroke="midnightblue" d="M1576.35,-235.444C1528.25,-225.678 1449.77,-209.746 1399.66,-199.574"/>
<polygon fill="midnightblue" stroke="midnightblue" points="1400.23,-196.118 1389.73,-197.558 1398.83,-202.978 1400.23,-196.118"/>
</g>
<!-- Node26 -->
<g id="node26" class="node"><title>Node26</title>
<polygon fill="white" stroke="#bfbfbf" points="1407.5,-179.5 1407.5,-198.5 1469.5,-198.5 1469.5,-179.5 1407.5,-179.5"/>
<text text-anchor="middle" x="1438.5" y="-186.5" font-family="Helvetica,sans-Serif" font-size="10.00">QListView</text>
</g>
<!-- Node1&#45;&gt;Node26 -->
<g id="edge33" class="edge"><title>Node1&#45;&gt;Node26</title>
<path fill="none" stroke="midnightblue" d="M1589.98,-235.444C1559.43,-226.28 1510.79,-211.688 1476.9,-201.519"/>
<polygon fill="midnightblue" stroke="midnightblue" points="1477.47,-198.038 1466.89,-198.516 1475.46,-204.742 1477.47,-198.038"/>
</g>
<!-- Node27 -->
<g id="node27" class="node"><title>Node27</title>
<polygon fill="white" stroke="#bfbfbf" points="1487.5,-179.5 1487.5,-198.5 1567.5,-198.5 1567.5,-179.5 1487.5,-179.5"/>
<text text-anchor="middle" x="1527.5" y="-186.5" font-family="Helvetica,sans-Serif" font-size="10.00">QPushButton</text>
</g>
<!-- Node1&#45;&gt;Node27 -->
<g id="edge35" class="edge"><title>Node1&#45;&gt;Node27</title>
<path fill="none" stroke="midnightblue" d="M1603.88,-235.324C1589.55,-226.822 1567.49,-213.729 1550.75,-203.797"/>
<polygon fill="midnightblue" stroke="midnightblue" points="1552.47,-200.748 1542.08,-198.655 1548.9,-206.768 1552.47,-200.748"/>
</g>
<!-- Node28 -->
<g id="node28" class="node"><title>Node28</title>
<polygon fill="white" stroke="#bfbfbf" points="1586,-179.5 1586,-198.5 1651,-198.5 1651,-179.5 1586,-179.5"/>
<text text-anchor="middle" x="1618.5" y="-186.5" font-family="Helvetica,sans-Serif" font-size="10.00">QShortcut</text>
</g>
<!-- Node1&#45;&gt;Node28 -->
<g id="edge36" class="edge"><title>Node1&#45;&gt;Node28</title>
<path fill="none" stroke="midnightblue" d="M1618.5,-235.083C1618.5,-228.006 1618.5,-217.861 1618.5,-208.986"/>
<polygon fill="midnightblue" stroke="midnightblue" points="1622,-208.751 1618.5,-198.751 1615,-208.751 1622,-208.751"/>
</g>
<!-- Node29 -->
<g id="node29" class="node"><title>Node29</title>
<polygon fill="white" stroke="#bfbfbf" points="1669.5,-179.5 1669.5,-198.5 1813.5,-198.5 1813.5,-179.5 1669.5,-179.5"/>
<text text-anchor="middle" x="1741.5" y="-186.5" font-family="Helvetica,sans-Serif" font-size="10.00">boost/range/algorithm.hpp</text>
</g>
<!-- Node1&#45;&gt;Node29 -->
<g id="edge38" class="edge"><title>Node1&#45;&gt;Node29</title>
<path fill="none" stroke="midnightblue" d="M1637.99,-235.444C1658.14,-226.596 1689.82,-212.687 1712.83,-202.586"/>
<polygon fill="midnightblue" stroke="midnightblue" points="1714.35,-205.741 1722.1,-198.516 1711.54,-199.332 1714.35,-205.741"/>
</g>
<!-- Node30 -->
<g id="node30" class="node"><title>Node30</title>
<polygon fill="white" stroke="#bfbfbf" points="1832,-179.5 1832,-198.5 1915,-198.5 1915,-179.5 1832,-179.5"/>
<text text-anchor="middle" x="1873.5" y="-186.5" font-family="Helvetica,sans-Serif" font-size="10.00">src/element.h</text>
</g>
<!-- Node1&#45;&gt;Node30 -->
<g id="edge39" class="edge"><title>Node1&#45;&gt;Node30</title>
<path fill="none" stroke="midnightblue" d="M1658.91,-235.444C1703.48,-226.004 1775.27,-210.802 1823.39,-200.611"/>
<polygon fill="midnightblue" stroke="midnightblue" points="1824.23,-204.012 1833.28,-198.516 1822.78,-197.164 1824.23,-204.012"/>
</g>
<!-- Node31 -->
<g id="node31" class="node"><title>Node31</title>
<polygon fill="white" stroke="#bfbfbf" points="1933.5,-179.5 1933.5,-198.5 2073.5,-198.5 2073.5,-179.5 1933.5,-179.5"/>
<text text-anchor="middle" x="2003.5" y="-186.5" font-family="Helvetica,sans-Serif" font-size="10.00">src/expression/constant.h</text>
</g>
<!-- Node1&#45;&gt;Node31 -->
<g id="edge40" class="edge"><title>Node1&#45;&gt;Node31</title>
<path fill="none" stroke="midnightblue" d="M1664.56,-237.54C1731.03,-228.216 1854.44,-210.907 1932.59,-199.946"/>
<polygon fill="midnightblue" stroke="midnightblue" points="1933.41,-203.365 1942.83,-198.509 1932.44,-196.432 1933.41,-203.365"/>
</g>
<!-- Node32 -->
<g id="node32" class="node"><title>Node32</title>
<polygon fill="white" stroke="#bfbfbf" points="2092,-179.5 2092,-198.5 2245,-198.5 2245,-179.5 2092,-179.5"/>
<text text-anchor="middle" x="2168.5" y="-186.5" font-family="Helvetica,sans-Serif" font-size="10.00">src/expression/exponential.h</text>
</g>
<!-- Node1&#45;&gt;Node32 -->
<g id="edge42" class="edge"><title>Node1&#45;&gt;Node32</title>
<path fill="none" stroke="midnightblue" d="M1664.61,-239.645C1746.31,-231.903 1922.1,-215.131 2081.61,-199.083"/>
<polygon fill="midnightblue" stroke="midnightblue" points="2082.01,-202.561 2091.61,-198.076 2081.31,-195.596 2082.01,-202.561"/>
</g>
<!-- Node33 -->
<g id="node33" class="node"><title>Node33</title>
<polygon fill="white" stroke="#bfbfbf" points="2263.5,-179.5 2263.5,-198.5 2341.5,-198.5 2341.5,-179.5 2263.5,-179.5"/>
<text text-anchor="middle" x="2302.5" y="-186.5" font-family="Helvetica,sans-Serif" font-size="10.00">src/ext/bits.h</text>
</g>
<!-- Node1&#45;&gt;Node33 -->
<g id="edge44" class="edge"><title>Node1&#45;&gt;Node33</title>
<path fill="none" stroke="midnightblue" d="M1664.88,-242.476C1768.45,-238.694 2026.51,-227.165 2253.16,-198.879"/>
<polygon fill="midnightblue" stroke="midnightblue" points="2253.76,-202.33 2263.24,-197.606 2252.89,-195.385 2253.76,-202.33"/>
</g>
<!-- Node34 -->
<g id="node34" class="node"><title>Node34</title>
<polygon fill="white" stroke="#bfbfbf" points="2359.5,-179.5 2359.5,-198.5 2477.5,-198.5 2477.5,-179.5 2359.5,-179.5"/>
<text text-anchor="middle" x="2418.5" y="-186.5" font-family="Helvetica,sans-Serif" font-size="10.00">src/ext/find_iterator.h</text>
</g>
<!-- Node1&#45;&gt;Node34 -->
<g id="edge45" class="edge"><title>Node1&#45;&gt;Node34</title>
<path fill="none" stroke="midnightblue" d="M1664.84,-242.282C1779.17,-237.799 2084.1,-224.371 2348.99,-199.081"/>
<polygon fill="midnightblue" stroke="midnightblue" points="2349.57,-202.541 2359.19,-198.099 2348.9,-195.573 2349.57,-202.541"/>
</g>
<!-- Node35 -->
<g id="node35" class="node"><title>Node35</title>
<polygon fill="white" stroke="#bfbfbf" points="2495.5,-179.5 2495.5,-198.5 2589.5,-198.5 2589.5,-179.5 2495.5,-179.5"/>
<text text-anchor="middle" x="2542.5" y="-186.5" font-family="Helvetica,sans-Serif" font-size="10.00">src/ext/variant.h</text>
</g>
<!-- Node1&#45;&gt;Node35 -->
<g id="edge46" class="edge"><title>Node1&#45;&gt;Node35</title>
<path fill="none" stroke="midnightblue" d="M1664.75,-243.351C1793.23,-241.177 2165.52,-232.347 2485.1,-199.025"/>
<polygon fill="midnightblue" stroke="midnightblue" points="2485.92,-202.458 2495.5,-197.93 2485.18,-195.497 2485.92,-202.458"/>
</g>
<!-- Node36 -->
<g id="node36" class="node"><title>Node36</title>
<g id="a_node36"><a xlink:href="guiassert_8h.xhtml" target="_top" xlink:title="GUI assertions that should not crash the program by default. ">
<polygon fill="white" stroke="black" points="1189.5,-179.5 1189.5,-198.5 1259.5,-198.5 1259.5,-179.5 1189.5,-179.5"/>
<text text-anchor="middle" x="1224.5" y="-186.5" font-family="Helvetica,sans-Serif" font-size="10.00">guiassert.h</text>
</a>
</g>
</g>
<!-- Node1&#45;&gt;Node36 -->
<g id="edge47" class="edge"><title>Node1&#45;&gt;Node36</title>
<path fill="none" stroke="midnightblue" d="M1572.35,-238.753C1506.08,-231.043 1380.17,-215.741 1273.5,-199 1272.23,-198.8 1270.93,-198.593 1269.63,-198.38"/>
<polygon fill="midnightblue" stroke="midnightblue" points="1269.97,-194.888 1259.53,-196.662 1268.8,-201.789 1269.97,-194.888"/>
</g>
<!-- Node39 -->
<g id="node39" class="node"><title>Node39</title>
<g id="a_node39"><a xlink:href="overload_8h.xhtml" target="_top" xlink:title="Facilities to help with pointers to overloaded functions. ">
<polygon fill="white" stroke="black" points="2608,-179.5 2608,-198.5 2675,-198.5 2675,-179.5 2608,-179.5"/>
<text text-anchor="middle" x="2641.5" y="-186.5" font-family="Helvetica,sans-Serif" font-size="10.00">overload.h</text>
</a>
</g>
</g>
<!-- Node1&#45;&gt;Node39 -->
<g id="edge51" class="edge"><title>Node1&#45;&gt;Node39</title>
<path fill="none" stroke="midnightblue" d="M1664.65,-244.5C1804.08,-245.457 2233.29,-244.326 2597.83,-198.845"/>
<polygon fill="midnightblue" stroke="midnightblue" points="2598.3,-202.314 2607.79,-197.59 2597.43,-195.368 2598.3,-202.314"/>
</g>
<!-- Node40 -->
<g id="node40" class="node"><title>Node40</title>
<g id="a_node40"><a xlink:href="validator_8h.xhtml" target="_top" xlink:title="Collection of validators. ">
<polygon fill="white" stroke="black" points="2693.5,-179.5 2693.5,-198.5 2759.5,-198.5 2759.5,-179.5 2693.5,-179.5"/>
<text text-anchor="middle" x="2726.5" y="-186.5" font-family="Helvetica,sans-Serif" font-size="10.00">validator.h</text>
</a>
</g>
</g>
<!-- Node1&#45;&gt;Node40 -->
<g id="edge52" class="edge"><title>Node1&#45;&gt;Node40</title>
<path fill="none" stroke="midnightblue" d="M1664.68,-243.058C1839.57,-239.338 2461.98,-224.659 2683.04,-198.762"/>
<polygon fill="midnightblue" stroke="midnightblue" points="2683.75,-202.201 2693.26,-197.52 2682.91,-195.252 2683.75,-202.201"/>
</g>
<!-- Node3 -->
<g id="node3" class="node"><title>Node3</title>
<polygon fill="white" stroke="#bfbfbf" points="768,-123.5 768,-142.5 845,-142.5 845,-123.5 768,-123.5"/>
<text text-anchor="middle" x="806.5" y="-130.5" font-family="Helvetica,sans-Serif" font-size="10.00">initializer_list</text>
</g>
<!-- Node2&#45;&gt;Node3 -->
<g id="edge2" class="edge"><title>Node2&#45;&gt;Node3</title>
<path fill="none" stroke="midnightblue" d="M735.157,-179.324C748.416,-170.9 768.768,-157.971 784.346,-148.074"/>
<polygon fill="midnightblue" stroke="midnightblue" points="786.313,-150.971 792.877,-142.655 782.56,-145.063 786.313,-150.971"/>
</g>
<!-- Node2&#45;&gt;Node4 -->
<g id="edge3" class="edge"><title>Node2&#45;&gt;Node4</title>
<path fill="none" stroke="midnightblue" d="M680.847,-185.172C576.779,-177.201 292.934,-150.836 65.5,-87 62.9115,-86.2735 60.2537,-85.4321 57.6076,-84.5278"/>
<polygon fill="midnightblue" stroke="midnightblue" points="58.8147,-81.2425 48.2213,-81.0691 56.3944,-87.8108 58.8147,-81.2425"/>
</g>
<!-- Node5 -->
<g id="node5" class="node"><title>Node5</title>
<polygon fill="white" stroke="#bfbfbf" points="166.5,-62 166.5,-81 210.5,-81 210.5,-62 166.5,-62"/>
<text text-anchor="middle" x="188.5" y="-69" font-family="Helvetica,sans-Serif" font-size="10.00">string</text>
</g>
<!-- Node2&#45;&gt;Node5 -->
<g id="edge4" class="edge"><title>Node2&#45;&gt;Node5</title>
<path fill="none" stroke="midnightblue" d="M705.995,-179.24C675.237,-161.892 608.977,-124.685 603.5,-123 439.664,-72.5915 384.909,-131.977 219.5,-87 217.565,-86.4738 215.601,-85.8344 213.65,-85.1207"/>
<polygon fill="midnightblue" stroke="midnightblue" points="214.764,-81.7913 204.191,-81.1138 212.034,-88.2369 214.764,-81.7913"/>
</g>
<!-- Node6 -->
<g id="node6" class="node"><title>Node6</title>
<polygon fill="white" stroke="#bfbfbf" points="229,-62 229,-81 276,-81 276,-62 229,-62"/>
<text text-anchor="middle" x="252.5" y="-69" font-family="Helvetica,sans-Serif" font-size="10.00">vector</text>
</g>
<!-- Node2&#45;&gt;Node6 -->
<g id="edge5" class="edge"><title>Node2&#45;&gt;Node6</title>
<path fill="none" stroke="midnightblue" d="M714.147,-179.395C701.165,-164.876 672.597,-135.839 641.5,-123 494.506,-62.3112 439.29,-127.482 285.5,-87 283.202,-86.3952 280.86,-85.6508 278.537,-84.8215"/>
<polygon fill="midnightblue" stroke="midnightblue" points="279.845,-81.5748 269.261,-81.0752 277.223,-88.0655 279.845,-81.5748"/>
</g>
<!-- Node7 -->
<g id="node7" class="node"><title>Node7</title>
<polygon fill="white" stroke="#bfbfbf" points="393.5,-123.5 393.5,-142.5 447.5,-142.5 447.5,-123.5 393.5,-123.5"/>
<text text-anchor="middle" x="420.5" y="-130.5" font-family="Helvetica,sans-Serif" font-size="10.00">QDialog</text>
</g>
<!-- Node2&#45;&gt;Node7 -->
<g id="edge6" class="edge"><title>Node2&#45;&gt;Node7</title>
<path fill="none" stroke="midnightblue" d="M680.912,-182.099C630.692,-174.579 542.378,-160.644 457.385,-143.055"/>
<polygon fill="midnightblue" stroke="midnightblue" points="458.08,-139.625 447.575,-141.005 456.648,-146.477 458.08,-139.625"/>
</g>
<!-- Node2&#45;&gt;Node8 -->
<g id="edge7" class="edge"><title>Node2&#45;&gt;Node8</title>
<path fill="none" stroke="midnightblue" d="M761.747,-179.444C807.325,-169.754 881.458,-153.993 929.345,-143.813"/>
<polygon fill="midnightblue" stroke="midnightblue" points="930.091,-147.232 939.145,-141.729 928.636,-140.385 930.091,-147.232"/>
</g>
<!-- Node9 -->
<g id="node9" class="node"><title>Node9</title>
<polygon fill="white" stroke="#bfbfbf" points="1331,-62 1331,-81 1384,-81 1384,-62 1331,-62"/>
<text text-anchor="middle" x="1357.5" y="-69" font-family="Helvetica,sans-Serif" font-size="10.00">QString</text>
</g>
<!-- Node2&#45;&gt;Node9 -->
<g id="edge8" class="edge"><title>Node2&#45;&gt;Node9</title>
<path fill="none" stroke="midnightblue" d="M761.892,-179.48C796.353,-171.669 846.934,-158.914 889.5,-143 908.491,-135.9 910.975,-128.463 930.5,-123 1098.56,-75.9764 1151.88,-128.034 1321.5,-87 1324.17,-86.3539 1326.9,-85.5457 1329.61,-84.6434"/>
<polygon fill="midnightblue" stroke="midnightblue" points="1331.01,-87.8585 1339.15,-81.085 1328.56,-81.2997 1331.01,-87.8585"/>
</g>
<!-- Node10 -->
<g id="node10" class="node"><title>Node10</title>
<polygon fill="white" stroke="#bfbfbf" points="466,-123.5 466,-142.5 561,-142.5 561,-123.5 466,-123.5"/>
<text text-anchor="middle" x="513.5" y="-130.5" font-family="Helvetica,sans-Serif" font-size="10.00">ui_eventdialog.h</text>
</g>
<!-- Node2&#45;&gt;Node10 -->
<g id="edge9" class="edge"><title>Node2&#45;&gt;Node10</title>
<path fill="none" stroke="midnightblue" d="M688.542,-179.444C652.713,-170.142 595.337,-155.246 556.109,-145.062"/>
<polygon fill="midnightblue" stroke="midnightblue" points="556.863,-141.642 546.304,-142.516 555.104,-148.417 556.863,-141.642"/>
</g>
<!-- Node11 -->
<g id="node11" class="node"><title>Node11</title>
<polygon fill="white" stroke="#bfbfbf" points="1242.5,-62 1242.5,-81 1312.5,-81 1312.5,-62 1242.5,-62"/>
<text text-anchor="middle" x="1277.5" y="-69" font-family="Helvetica,sans-Serif" font-size="10.00">src/event.h</text>
</g>
<!-- Node2&#45;&gt;Node11 -->
<g id="edge10" class="edge"><title>Node2&#45;&gt;Node11</title>
<path fill="none" stroke="midnightblue" d="M749.088,-179.466C775.993,-170.94 817.94,-157.104 853.5,-143 873.468,-135.08 876.778,-128.661 897.5,-123 1042.38,-83.4207 1086.69,-118.681 1233.5,-87 1237.18,-86.2068 1240.98,-85.2198 1244.73,-84.1362"/>
<polygon fill="midnightblue" stroke="midnightblue" points="1245.95,-87.422 1254.46,-81.1089 1243.87,-80.7382 1245.95,-87.422"/>
</g>
<!-- Node2&#45;&gt;Node12 -->
<g id="edge11" class="edge"><title>Node2&#45;&gt;Node12</title>
<path fill="none" stroke="midnightblue" d="M762.138,-181.979C817.761,-173.717 921.004,-158.307 1019.76,-143.104"/>
<polygon fill="midnightblue" stroke="midnightblue" points="1020.57,-146.522 1029.92,-141.539 1019.5,-139.603 1020.57,-146.522"/>
</g>
<!-- Node13 -->
<g id="node13" class="node"><title>Node13</title>
<polygon fill="white" stroke="#bfbfbf" points="75,-62 75,-81 148,-81 148,-62 75,-62"/>
<text text-anchor="middle" x="111.5" y="-69" font-family="Helvetica,sans-Serif" font-size="10.00">src/model.h</text>
</g>
<!-- Node2&#45;&gt;Node13 -->
<g id="edge12" class="edge"><title>Node2&#45;&gt;Node13</title>
<path fill="none" stroke="midnightblue" d="M695.194,-179.388C670.927,-171.113 634.13,-157.722 603.5,-143 587.699,-135.405 586.199,-128.339 569.5,-123 394.421,-67.0255 337.78,-122.843 157.5,-87 153.342,-86.1734 149.03,-85.1066 144.787,-83.9271"/>
<polygon fill="midnightblue" stroke="midnightblue" points="145.701,-80.5474 135.118,-81.03 143.692,-87.2529 145.701,-80.5474"/>
</g>
<!-- Node14 -->
<g id="node14" class="node"><title>Node14</title>
<g id="a_node14"><a xlink:href="model_8h.xhtml" target="_top" xlink:title="Wrapper Model classes for the MEF data. ">
<polygon fill="white" stroke="black" points="693.5,-123.5 693.5,-142.5 749.5,-142.5 749.5,-123.5 693.5,-123.5"/>
<text text-anchor="middle" x="721.5" y="-130.5" font-family="Helvetica,sans-Serif" font-size="10.00">model.h</text>
</a>
</g>
</g>
<!-- Node2&#45;&gt;Node14 -->
<g id="edge13" class="edge"><title>Node2&#45;&gt;Node14</title>
<path fill="none" stroke="midnightblue" d="M721.5,-179.083C721.5,-172.006 721.5,-161.861 721.5,-152.986"/>
<polygon fill="midnightblue" stroke="midnightblue" points="725,-152.751 721.5,-142.751 718,-152.751 725,-152.751"/>
</g>
<!-- Node14&#45;&gt;Node4 -->
<g id="edge14" class="edge"><title>Node14&#45;&gt;Node4</title>
<path fill="none" stroke="midnightblue" d="M693.156,-130.297C571.28,-122.944 96.5472,-93.9752 65.5,-87 62.5003,-86.3261 59.4238,-85.4474 56.3881,-84.4557"/>
<polygon fill="midnightblue" stroke="midnightblue" points="57.568,-81.1605 46.9741,-81.0149 55.1649,-87.7352 57.568,-81.1605"/>
</g>
<!-- Node14&#45;&gt;Node5 -->
<g id="edge16" class="edge"><title>Node14&#45;&gt;Node5</title>
<path fill="none" stroke="midnightblue" d="M693.382,-128.649C678.055,-126.87 658.747,-124.705 641.5,-123 454.177,-104.476 401.347,-135.63 219.5,-87 217.563,-86.482 215.598,-85.8485 213.645,-85.139"/>
<polygon fill="midnightblue" stroke="midnightblue" points="214.757,-81.8091 204.183,-81.1411 212.033,-88.2572 214.757,-81.8091"/>
</g>
<!-- Node14&#45;&gt;Node6 -->
<g id="edge18" class="edge"><title>Node14&#45;&gt;Node6</title>
<path fill="none" stroke="midnightblue" d="M693.119,-125.436C688.58,-124.526 683.923,-123.674 679.5,-123 505.663,-96.5305 455.762,-130.939 285.5,-87 283.199,-86.4063 280.855,-85.6697 278.531,-84.8457"/>
<polygon fill="midnightblue" stroke="midnightblue" points="279.836,-81.5982 269.253,-81.1084 277.221,-88.0913 279.836,-81.5982"/>
</g>
<!-- Node14&#45;&gt;Node9 -->
<g id="edge23" class="edge"><title>Node14&#45;&gt;Node9</title>
<path fill="none" stroke="midnightblue" d="M749.68,-124.608C752.644,-123.992 755.624,-123.438 758.5,-123 1006.37,-85.2253 1077,-142.544 1321.5,-87 1324.33,-86.3563 1327.23,-85.518 1330.1,-84.5689"/>
<polygon fill="midnightblue" stroke="midnightblue" points="1331.41,-87.8165 1339.55,-81.0373 1328.96,-81.2594 1331.41,-87.8165"/>
</g>
<!-- Node14&#45;&gt;Node11 -->
<g id="edge26" class="edge"><title>Node14&#45;&gt;Node11</title>
<path fill="none" stroke="midnightblue" d="M749.686,-124.643C752.649,-124.02 755.627,-123.455 758.5,-123 967.608,-89.8703 1025.88,-128.437 1233.5,-87 1237.38,-86.2252 1241.4,-85.2124 1245.35,-84.0816"/>
<polygon fill="midnightblue" stroke="midnightblue" points="1246.44,-87.4098 1254.95,-81.0966 1244.36,-80.7259 1246.44,-87.4098"/>
</g>
<!-- Node14&#45;&gt;Node13 -->
<g id="edge28" class="edge"><title>Node14&#45;&gt;Node13</title>
<path fill="none" stroke="midnightblue" d="M693.121,-129.823C580.536,-121.175 170.802,-89.5926 157.5,-87 153.339,-86.1891 149.025,-85.1318 144.781,-83.9574"/>
<polygon fill="midnightblue" stroke="midnightblue" points="145.694,-80.5773 135.111,-81.0651 143.688,-87.2838 145.694,-80.5773"/>
</g>
<!-- Node15 -->
<g id="node15" class="node"><title>Node15</title>
<polygon fill="white" stroke="#bfbfbf" points="843,-62 843,-81 898,-81 898,-62 843,-62"/>
<text text-anchor="middle" x="870.5" y="-69" font-family="Helvetica,sans-Serif" font-size="10.00">optional</text>
</g>
<!-- Node14&#45;&gt;Node15 -->
<g id="edge15" class="edge"><title>Node14&#45;&gt;Node15</title>
<path fill="none" stroke="midnightblue" d="M742.848,-123.475C768.186,-113.357 810.638,-96.4046 839.571,-84.8507"/>
<polygon fill="midnightblue" stroke="midnightblue" points="841.203,-87.9681 849.192,-81.0091 838.607,-81.4673 841.203,-87.9681"/>
</g>
<!-- Node16 -->
<g id="node16" class="node"><title>Node16</title>
<polygon fill="white" stroke="#bfbfbf" points="899.5,-0.5 899.5,-19.5 967.5,-19.5 967.5,-0.5 899.5,-0.5"/>
<text text-anchor="middle" x="933.5" y="-7.5" font-family="Helvetica,sans-Serif" font-size="10.00">type_traits</text>
</g>
<!-- Node14&#45;&gt;Node16 -->
<g id="edge17" class="edge"><title>Node14&#45;&gt;Node16</title>
<path fill="none" stroke="midnightblue" d="M749.598,-125.165C801.351,-112.577 906.5,-87 906.5,-87 922.789,-72.304 929.253,-47.1286 931.817,-29.8061"/>
<polygon fill="midnightblue" stroke="midnightblue" points="935.308,-30.0868 933.003,-19.7458 928.356,-29.2674 935.308,-30.0868"/>
</g>
<!-- Node17 -->
<g id="node17" class="node"><title>Node17</title>
<polygon fill="white" stroke="#bfbfbf" points="1084.5,-56.5 1084.5,-86.5 1224.5,-86.5 1224.5,-56.5 1084.5,-56.5"/>
<text text-anchor="start" x="1092.5" y="-74.5" font-family="Helvetica,sans-Serif" font-size="10.00">boost/multi_index/hashed</text>
<text text-anchor="middle" x="1154.5" y="-63.5" font-family="Helvetica,sans-Serif" font-size="10.00">_index.hpp</text>
</g>
<!-- Node14&#45;&gt;Node17 -->
<g id="edge19" class="edge"><title>Node14&#45;&gt;Node17</title>
<path fill="none" stroke="midnightblue" d="M749.705,-124.758C752.664,-124.113 755.637,-123.511 758.5,-123 895.912,-98.4573 932.336,-106.88 1070.5,-87 1071.78,-86.8162 1073.06,-86.6282 1074.36,-86.4363"/>
<polygon fill="midnightblue" stroke="midnightblue" points="1075.06,-89.8696 1084.42,-84.8995 1074.01,-82.9499 1075.06,-89.8696"/>
</g>
<!-- Node18 -->
<g id="node18" class="node"><title>Node18</title>
<polygon fill="white" stroke="#bfbfbf" points="294.5,-56.5 294.5,-86.5 424.5,-86.5 424.5,-56.5 294.5,-56.5"/>
<text text-anchor="start" x="302.5" y="-74.5" font-family="Helvetica,sans-Serif" font-size="10.00">boost/multi_index/mem</text>
<text text-anchor="middle" x="359.5" y="-63.5" font-family="Helvetica,sans-Serif" font-size="10.00">_fun.hpp</text>
</g>
<!-- Node14&#45;&gt;Node18 -->
<g id="edge20" class="edge"><title>Node14&#45;&gt;Node18</title>
<path fill="none" stroke="midnightblue" d="M693.084,-125.646C688.55,-124.709 683.903,-123.793 679.5,-123 573.938,-103.987 544.145,-105.518 434.947,-87.1945"/>
<polygon fill="midnightblue" stroke="midnightblue" points="435.283,-83.7016 424.839,-85.48 434.113,-90.603 435.283,-83.7016"/>
</g>
<!-- Node19 -->
<g id="node19" class="node"><title>Node19</title>
<polygon fill="white" stroke="#bfbfbf" points="442.5,-62 442.5,-81 614.5,-81 614.5,-62 442.5,-62"/>
<text text-anchor="middle" x="528.5" y="-69" font-family="Helvetica,sans-Serif" font-size="10.00">boost/multi_index_container.hpp</text>
</g>
<!-- Node14&#45;&gt;Node19 -->
<g id="edge21" class="edge"><title>Node14&#45;&gt;Node19</title>
<path fill="none" stroke="midnightblue" d="M693.848,-123.475C660.312,-113.136 603.627,-95.6611 566.132,-84.1017"/>
<polygon fill="midnightblue" stroke="midnightblue" points="566.688,-80.6106 556.101,-81.0091 564.626,-87.2999 566.688,-80.6106"/>
</g>
<!-- Node14&#45;&gt;Node20 -->
<g id="edge22" class="edge"><title>Node14&#45;&gt;Node20</title>
<path fill="none" stroke="midnightblue" d="M749.677,-124.587C752.642,-123.975 755.623,-123.428 758.5,-123 1037.66,-81.4754 1116.77,-147.244 1392.5,-87 1395.5,-86.3437 1398.58,-85.4766 1401.62,-84.4918"/>
<polygon fill="midnightblue" stroke="midnightblue" points="1402.84,-87.7728 1411.04,-81.0598 1400.44,-81.196 1402.84,-87.7728"/>
</g>
<!-- Node21 -->
<g id="node21" class="node"><title>Node21</title>
<polygon fill="white" stroke="#bfbfbf" points="999.5,-0.5 999.5,-19.5 1099.5,-19.5 1099.5,-0.5 999.5,-0.5"/>
<text text-anchor="middle" x="1049.5" y="-7.5" font-family="Helvetica,sans-Serif" font-size="10.00">QUndoCommand</text>
</g>
<!-- Node14&#45;&gt;Node21 -->
<g id="edge24" class="edge"><title>Node14&#45;&gt;Node21</title>
<path fill="none" stroke="midnightblue" d="M749.713,-124.798C752.67,-124.145 755.64,-123.531 758.5,-123 819.965,-111.595 992.675,-130.575 1037.5,-87 1052.59,-72.3352 1053.65,-46.948 1052.24,-29.5827"/>
<polygon fill="midnightblue" stroke="midnightblue" points="1055.7,-29.0543 1051.07,-19.523 1048.75,-29.8592 1055.7,-29.0543"/>
</g>
<!-- Node22 -->
<g id="node22" class="node"><title>Node22</title>
<polygon fill="white" stroke="#bfbfbf" points="632.5,-62 632.5,-81 690.5,-81 690.5,-62 632.5,-62"/>
<text text-anchor="middle" x="661.5" y="-69" font-family="Helvetica,sans-Serif" font-size="10.00">QVariant</text>
</g>
<!-- Node14&#45;&gt;Node22 -->
<g id="edge25" class="edge"><title>Node14&#45;&gt;Node22</title>
<path fill="none" stroke="midnightblue" d="M712.903,-123.475C703.636,-114.285 688.683,-99.4563 677.288,-88.156"/>
<polygon fill="midnightblue" stroke="midnightblue" points="679.646,-85.5653 670.081,-81.0091 674.717,-90.5358 679.646,-85.5653"/>
</g>
<!-- Node23 -->
<g id="node23" class="node"><title>Node23</title>
<polygon fill="white" stroke="#bfbfbf" points="708.5,-62 708.5,-81 824.5,-81 824.5,-62 708.5,-62"/>
<text text-anchor="middle" x="766.5" y="-69" font-family="Helvetica,sans-Serif" font-size="10.00">src/ext/multi_index.h</text>
</g>
<!-- Node14&#45;&gt;Node23 -->
<g id="edge27" class="edge"><title>Node14&#45;&gt;Node23</title>
<path fill="none" stroke="midnightblue" d="M727.947,-123.475C734.697,-114.55 745.469,-100.307 753.913,-89.1425"/>
<polygon fill="midnightblue" stroke="midnightblue" points="756.824,-91.0962 760.065,-81.0091 751.241,-86.8737 756.824,-91.0962"/>
</g>
<!-- Node24 -->
<g id="node24" class="node"><title>Node24</title>
<g id="a_node24"><a xlink:href="command_8h.xhtml" target="_top" xlink:title="Undo&#45;redo helper facilities based on the Qt Undo framework. ">
<polygon fill="white" stroke="black" points="954.5,-62 954.5,-81 1028.5,-81 1028.5,-62 954.5,-62"/>
<text text-anchor="middle" x="991.5" y="-69" font-family="Helvetica,sans-Serif" font-size="10.00">command.h</text>
</a>
</g>
</g>
<!-- Node14&#45;&gt;Node24 -->
<g id="edge29" class="edge"><title>Node14&#45;&gt;Node24</title>
<path fill="none" stroke="midnightblue" d="M749.752,-124.994C752.702,-124.303 755.659,-123.626 758.5,-123 839.023,-105.252 860.332,-106.291 940.5,-87 944.628,-86.0067 948.924,-84.9006 953.194,-83.7546"/>
<polygon fill="midnightblue" stroke="midnightblue" points="954.309,-87.0778 963.017,-81.0425 952.446,-80.3302 954.309,-87.0778"/>
</g>
<!-- Node24&#45;&gt;Node16 -->
<g id="edge30" class="edge"><title>Node24&#45;&gt;Node16</title>
<path fill="none" stroke="midnightblue" d="M983.19,-61.9751C974.318,-52.8733 960.054,-38.241 949.08,-26.983"/>
<polygon fill="midnightblue" stroke="midnightblue" points="951.281,-24.2268 941.795,-19.5091 946.269,-29.113 951.281,-24.2268"/>
</g>
<!-- Node24&#45;&gt;Node21 -->
<g id="edge31" class="edge"><title>Node24&#45;&gt;Node21</title>
<path fill="none" stroke="midnightblue" d="M999.81,-61.9751C1008.68,-52.8733 1022.95,-38.241 1033.92,-26.983"/>
<polygon fill="midnightblue" stroke="midnightblue" points="1036.73,-29.113 1041.21,-19.5091 1031.72,-24.2268 1036.73,-29.113"/>
</g>
<!-- Node36&#45;&gt;Node9 -->
<g id="edge49" class="edge"><title>Node36&#45;&gt;Node9</title>
<path fill="none" stroke="midnightblue" d="M1208.87,-179.413C1188.3,-167.006 1156.5,-143.326 1172.5,-123 1214.64,-69.4676 1256.62,-107.782 1321.5,-87 1323.77,-86.2716 1326.11,-85.4671 1328.44,-84.6214"/>
<polygon fill="midnightblue" stroke="midnightblue" points="1329.8,-87.8499 1337.88,-81.0029 1327.29,-81.3135 1329.8,-87.8499"/>
</g>
<!-- Node37 -->
<g id="node37" class="node"><title>Node37</title>
<polygon fill="white" stroke="#bfbfbf" points="1182,-123.5 1182,-142.5 1267,-142.5 1267,-123.5 1182,-123.5"/>
<text text-anchor="middle" x="1224.5" y="-130.5" font-family="Helvetica,sans-Serif" font-size="10.00">QMessageBox</text>
</g>
<!-- Node36&#45;&gt;Node37 -->
<g id="edge48" class="edge"><title>Node36&#45;&gt;Node37</title>
<path fill="none" stroke="midnightblue" d="M1224.5,-179.083C1224.5,-172.006 1224.5,-161.861 1224.5,-152.986"/>
<polygon fill="midnightblue" stroke="midnightblue" points="1228,-152.751 1224.5,-142.751 1221,-152.751 1228,-152.751"/>
</g>
<!-- Node38 -->
<g id="node38" class="node"><title>Node38</title>
<polygon fill="white" stroke="#bfbfbf" points="1285.5,-123.5 1285.5,-142.5 1401.5,-142.5 1401.5,-123.5 1285.5,-123.5"/>
<text text-anchor="middle" x="1343.5" y="-130.5" font-family="Helvetica,sans-Serif" font-size="10.00">src/ext/source_info.h</text>
</g>
<!-- Node36&#45;&gt;Node38 -->
<g id="edge50" class="edge"><title>Node36&#45;&gt;Node38</title>
<path fill="none" stroke="midnightblue" d="M1243.36,-179.444C1262.77,-170.636 1293.23,-156.812 1315.46,-146.722"/>
<polygon fill="midnightblue" stroke="midnightblue" points="1317.07,-149.836 1324.73,-142.516 1314.18,-143.462 1317.07,-149.836"/>
</g>
<!-- Node41 -->
<g id="node41" class="node"><title>Node41</title>
<polygon fill="white" stroke="#bfbfbf" points="2693.5,-123.5 2693.5,-142.5 2759.5,-142.5 2759.5,-123.5 2693.5,-123.5"/>
<text text-anchor="middle" x="2726.5" y="-130.5" font-family="Helvetica,sans-Serif" font-size="10.00">QValidator</text>
</g>
<!-- Node40&#45;&gt;Node41 -->
<g id="edge53" class="edge"><title>Node40&#45;&gt;Node41</title>
<path fill="none" stroke="midnightblue" d="M2726.5,-179.083C2726.5,-172.006 2726.5,-161.861 2726.5,-152.986"/>
<polygon fill="midnightblue" stroke="midnightblue" points="2730,-152.751 2726.5,-142.751 2723,-152.751 2730,-152.751"/>
</g>
</g>
</svg>
        <g id="navigator" transform="translate(0 0)" fill="#404254">
                <rect fill="#f2f5e9" fill-opacity="0.5" stroke="#606060" stroke-width=".5" x="0" y="0" width="60" height="60"/>
                <use id="zoomplus" xlink:href="#zoomPlus" x="17" y="9" onmousedown="handleZoom(evt,'in')"/>
                <use id="zoomminus" xlink:href="#zoomMin" x="42" y="9" onmousedown="handleZoom(evt,'out')"/>
                <use id="reset" xlink:href="#resetDef" x="30" y="36" onmousedown="handleReset()"/>
                <g id="arrowUp" xlink:href="#dirArrow" transform="translate(30 24)" onmousedown="handlePan(0,-1)">
                  <use xlink:href="#rim" fill="#404040">
                        <set attributeName="fill" to="#808080" begin="arrowUp.mouseover" end="arrowUp.mouseout"/>
                  </use>
                  <path fill="none" stroke="white" stroke-width="1.5" d="M0,-3.0v7 M-2.5,-0.5L0,-3.0L2.5,-0.5"/>
                </g>
                <g id="arrowRight" xlink:href="#dirArrow" transform="rotate(90) translate(36 -43)" onmousedown="handlePan(1,0)">
                  <use xlink:href="#rim" fill="#404040">
                        <set attributeName="fill" to="#808080" begin="arrowRight.mouseover" end="arrowRight.mouseout"/>
                  </use>
                  <path fill="none" stroke="white" stroke-width="1.5" d="M0,-3.0v7 M-2.5,-0.5L0,-3.0L2.5,-0.5"/>
                </g>
                <g id="arrowDown" xlink:href="#dirArrow" transform="rotate(180) translate(-30 -48)" onmousedown="handlePan(0,1)">
                  <use xlink:href="#rim" fill="#404040">
                        <set attributeName="fill" to="#808080" begin="arrowDown.mouseover" end="arrowDown.mouseout"/>
                  </use>
                  <path fill="none" stroke="white" stroke-width="1.5" d="M0,-3.0v7 M-2.5,-0.5L0,-3.0L2.5,-0.5"/>
                </g>
                <g id="arrowLeft" xlink:href="#dirArrow" transform="rotate(270) translate(-36 17)" onmousedown="handlePan(-1,0)">
                  <use xlink:href="#rim" fill="#404040">
                        <set attributeName="fill" to="#808080" begin="arrowLeft.mouseover" end="arrowLeft.mouseout"/>
                  </use>
                  <path fill="none" stroke="white" stroke-width="1.5" d="M0,-3.0v7 M-2.5,-0.5L0,-3.0L2.5,-0.5"/>
                </g>
        </g>
        <svg viewBox="0 0 15 15" width="100%" height="30px" preserveAspectRatio="xMaxYMin meet">
         <g id="arrow_out" transform="scale(0.3 0.3)">
          <a xlink:href="eventdialog_8cpp__incl_org.svg" target="_base">
           <rect id="button" ry="5" rx="5" y="6" x="6" height="38" width="38"
                fill="#f2f5e9" fill-opacity="0.5" stroke="#606060" stroke-width="1.0"/>
           <path id="arrow"
             d="M 11.500037,31.436501 C 11.940474,20.09759 22.043105,11.32322 32.158766,21.979434 L 37.068811,17.246167 C 37.068811,17.246167 37.088388,32 37.088388,32 L 22.160133,31.978069 C 22.160133,31.978069 26.997745,27.140456 26.997745,27.140456 C 18.528582,18.264221 13.291696,25.230495 11.500037,31.436501 z"
             style="fill:#404040;"/>
          </a>
         </g>
        </svg>
</svg>
