<?xml version="1.0" encoding="UTF-8" standalone="no"?>
<!DOCTYPE svg PUBLIC "-//W3C//DTD SVG 1.1//EN"
 "http://www.w3.org/Graphics/SVG/1.1/DTD/svg11.dtd">
<!-- Generated by graphviz version 2.38.0 (20140413.2041)
 -->
<!-- Title: importancetablemodel.cpp Pages: 1 -->
<svg width="4741pt" height="151pt"
 viewBox="0.00 0.00 4740.50 151.00" xmlns="http://www.w3.org/2000/svg" xmlns:xlink="http://www.w3.org/1999/xlink">
<g id="graph0" class="graph" transform="scale(1 1) rotate(0) translate(4 147)">
<title>importancetablemodel.cpp</title>
<polygon fill="white" stroke="none" points="-4,4 -4,-147 4736.5,-147 4736.5,4 -4,4"/>
<!-- Node1 -->
<g id="node1" class="node"><title>Node1</title>
<polygon fill="#bfbfbf" stroke="black" points="2167.5,-123.5 2167.5,-142.5 2313.5,-142.5 2313.5,-123.5 2167.5,-123.5"/>
<text text-anchor="middle" x="2240.5" y="-130.5" font-family="Helvetica,sans-Serif" font-size="10.00">importancetablemodel.cpp</text>
</g>
<!-- Node2 -->
<g id="node2" class="node"><title>Node2</title>
<g id="a_node2"><a xlink:href="importancetablemodel_8h.xhtml" target="_top" xlink:title="Table model for reporting importance factors. ">
<polygon fill="white" stroke="black" points="54.5,-62 54.5,-81 188.5,-81 188.5,-62 54.5,-62"/>
<text text-anchor="middle" x="121.5" y="-69" font-family="Helvetica,sans-Serif" font-size="10.00">importancetablemodel.h</text>
</a>
</g>
</g>
<!-- Node1&#45;&gt;Node2 -->
<g id="edge1" class="edge"><title>Node1&#45;&gt;Node2</title>
<path fill="none" stroke="midnightblue" d="M2167.29,-132.022C1849.86,-131.864 590.993,-128.578 197.5,-87 188.377,-86.036 178.712,-84.5544 169.445,-82.8999"/>
<polygon fill="midnightblue" stroke="midnightblue" points="170.062,-79.4547 159.588,-81.053 168.773,-86.3349 170.062,-79.4547"/>
</g>
<!-- Node3 -->
<g id="node3" class="node"><title>Node3</title>
<polygon fill="white" stroke="#bfbfbf" points="0,-0.5 0,-19.5 47,-19.5 47,-0.5 0,-0.5"/>
<text text-anchor="middle" x="23.5" y="-7.5" font-family="Helvetica,sans-Serif" font-size="10.00">vector</text>
</g>
<!-- Node1&#45;&gt;Node3 -->
<g id="edge5" class="edge"><title>Node1&#45;&gt;Node3</title>
<path fill="none" stroke="midnightblue" d="M2167.47,-131.683C1791.35,-129.903 88.5231,-120.031 45.5,-87 28.258,-73.7626 23.926,-47.8493 23.1316,-29.9901"/>
<polygon fill="midnightblue" stroke="midnightblue" points="26.63,-29.8227 23.0152,-19.8636 19.6305,-29.9033 26.63,-29.8227"/>
</g>
<!-- Node6 -->
<g id="node6" class="node"><title>Node6</title>
<polygon fill="white" stroke="#bfbfbf" points="207,-62 207,-81 304,-81 304,-62 207,-62"/>
<text text-anchor="middle" x="255.5" y="-69" font-family="Helvetica,sans-Serif" font-size="10.00">/scram/src/bdd.h</text>
</g>
<!-- Node1&#45;&gt;Node6 -->
<g id="edge6" class="edge"><title>Node1&#45;&gt;Node6</title>
<path fill="none" stroke="midnightblue" d="M2167.47,-131.271C1838.05,-127.853 498.466,-112.49 312.5,-87 306.259,-86.1446 299.717,-84.8595 293.38,-83.4015"/>
<polygon fill="midnightblue" stroke="midnightblue" points="294.211,-80.0018 283.664,-81.0048 292.535,-86.7981 294.211,-80.0018"/>
</g>
<!-- Node7 -->
<g id="node7" class="node"><title>Node7</title>
<polygon fill="white" stroke="#bfbfbf" points="322,-62 322,-81 369,-81 369,-62 322,-62"/>
<text text-anchor="middle" x="345.5" y="-69" font-family="Helvetica,sans-Serif" font-size="10.00">cmath</text>
</g>
<!-- Node1&#45;&gt;Node7 -->
<g id="edge7" class="edge"><title>Node1&#45;&gt;Node7</title>
<path fill="none" stroke="midnightblue" d="M2167.43,-131.909C1844.68,-131.278 555.006,-126.3 378.5,-87 375.988,-86.4407 373.431,-85.6869 370.909,-84.8155"/>
<polygon fill="midnightblue" stroke="midnightblue" points="372.105,-81.524 361.522,-81.0349 369.49,-88.0172 372.105,-81.524"/>
</g>
<!-- Node8 -->
<g id="node8" class="node"><title>Node8</title>
<polygon fill="white" stroke="#bfbfbf" points="387.5,-62 387.5,-81 449.5,-81 449.5,-62 387.5,-62"/>
<text text-anchor="middle" x="418.5" y="-69" font-family="Helvetica,sans-Serif" font-size="10.00">algorithm</text>
</g>
<!-- Node1&#45;&gt;Node8 -->
<g id="edge8" class="edge"><title>Node1&#45;&gt;Node8</title>
<path fill="none" stroke="midnightblue" d="M2167.49,-131.543C1853.71,-129.388 627.992,-118.983 458.5,-87 454.982,-86.3361 451.362,-85.4039 447.805,-84.3287"/>
<polygon fill="midnightblue" stroke="midnightblue" points="448.679,-80.929 438.084,-81.024 446.426,-87.5565 448.679,-80.929"/>
</g>
<!-- Node9 -->
<g id="node9" class="node"><title>Node9</title>
<polygon fill="white" stroke="#bfbfbf" points="468,-62 468,-81 539,-81 539,-62 468,-62"/>
<text text-anchor="middle" x="503.5" y="-69" font-family="Helvetica,sans-Serif" font-size="10.00">forward_list</text>
</g>
<!-- Node1&#45;&gt;Node9 -->
<g id="edge9" class="edge"><title>Node1&#45;&gt;Node9</title>
<path fill="none" stroke="midnightblue" d="M2167.35,-131.311C1863.36,-128.279 708.265,-115.003 547.5,-87 543.31,-86.2702 538.974,-85.2233 534.731,-84.0215"/>
<polygon fill="midnightblue" stroke="midnightblue" points="535.7,-80.6574 525.111,-81.0121 533.61,-87.3382 535.7,-80.6574"/>
</g>
<!-- Node10 -->
<g id="node10" class="node"><title>Node10</title>
<polygon fill="white" stroke="#bfbfbf" points="557,-62 557,-81 614,-81 614,-62 557,-62"/>
<text text-anchor="middle" x="585.5" y="-69" font-family="Helvetica,sans-Serif" font-size="10.00">memory</text>
</g>
<!-- Node1&#45;&gt;Node10 -->
<g id="edge10" class="edge"><title>Node1&#45;&gt;Node10</title>
<path fill="none" stroke="midnightblue" d="M2167.32,-131.448C1871.78,-129.017 774.773,-117.97 622.5,-87 619.422,-86.3739 616.268,-85.5119 613.163,-84.5176"/>
<polygon fill="midnightblue" stroke="midnightblue" points="614.157,-81.1546 603.563,-81.0179 611.759,-87.7312 614.157,-81.1546"/>
</g>
<!-- Node11 -->
<g id="node11" class="node"><title>Node11</title>
<polygon fill="white" stroke="#bfbfbf" points="632,-62 632,-81 725,-81 725,-62 632,-62"/>
<text text-anchor="middle" x="678.5" y="-69" font-family="Helvetica,sans-Serif" font-size="10.00">unordered_map</text>
</g>
<!-- Node1&#45;&gt;Node11 -->
<g id="edge11" class="edge"><title>Node1&#45;&gt;Node11</title>
<path fill="none" stroke="midnightblue" d="M2167.16,-132.02C1905.02,-131.748 1015.05,-127.772 733.5,-87 727.677,-86.1568 721.586,-84.9208 715.667,-83.5204"/>
<polygon fill="midnightblue" stroke="midnightblue" points="716.498,-80.1205 705.944,-81.0488 714.773,-86.9047 716.498,-80.1205"/>
</g>
<!-- Node12 -->
<g id="node12" class="node"><title>Node12</title>
<polygon fill="white" stroke="#bfbfbf" points="742.5,-62 742.5,-81 784.5,-81 784.5,-62 742.5,-62"/>
<text text-anchor="middle" x="763.5" y="-69" font-family="Helvetica,sans-Serif" font-size="10.00">utility</text>
</g>
<!-- Node1&#45;&gt;Node12 -->
<g id="edge12" class="edge"><title>Node1&#45;&gt;Node12</title>
<path fill="none" stroke="midnightblue" d="M2167.4,-131.511C1892.18,-129.424 927.218,-119.816 793.5,-87 791.52,-86.514 789.516,-85.8869 787.533,-85.1668"/>
<polygon fill="midnightblue" stroke="midnightblue" points="788.558,-81.7958 777.992,-81.0137 785.764,-88.2141 788.558,-81.7958"/>
</g>
<!-- Node13 -->
<g id="node13" class="node"><title>Node13</title>
<polygon fill="white" stroke="#bfbfbf" points="802.5,-62 802.5,-81 942.5,-81 942.5,-62 802.5,-62"/>
<text text-anchor="middle" x="872.5" y="-69" font-family="Helvetica,sans-Serif" font-size="10.00">boost/functional/hash.hpp</text>
</g>
<!-- Node1&#45;&gt;Node13 -->
<g id="edge13" class="edge"><title>Node1&#45;&gt;Node13</title>
<path fill="none" stroke="midnightblue" d="M2167.45,-130.86C1931.27,-126.953 1189.83,-112.891 951.5,-87 942.034,-85.9717 931.998,-84.4604 922.369,-82.7969"/>
<polygon fill="midnightblue" stroke="midnightblue" points="922.984,-79.3516 912.522,-81.0221 921.743,-86.2406 922.984,-79.3516"/>
</g>
<!-- Node14 -->
<g id="node14" class="node"><title>Node14</title>
<polygon fill="white" stroke="#bfbfbf" points="960.5,-62 960.5,-81 1088.5,-81 1088.5,-62 960.5,-62"/>
<text text-anchor="middle" x="1024.5" y="-69" font-family="Helvetica,sans-Serif" font-size="10.00">boost/noncopyable.hpp</text>
</g>
<!-- Node1&#45;&gt;Node14 -->
<g id="edge14" class="edge"><title>Node1&#45;&gt;Node14</title>
<path fill="none" stroke="midnightblue" d="M2167.41,-130.622C1949.41,-126.273 1305.93,-111.649 1097.5,-87 1089.01,-85.9966 1080.04,-84.5441 1071.4,-82.9415"/>
<polygon fill="midnightblue" stroke="midnightblue" points="1071.94,-79.4811 1061.46,-81.0091 1070.61,-86.3525 1071.94,-79.4811"/>
</g>
<!-- Node15 -->
<g id="node15" class="node"><title>Node15</title>
<polygon fill="white" stroke="#bfbfbf" points="1107,-56.5 1107,-86.5 1244,-86.5 1244,-56.5 1107,-56.5"/>
<text text-anchor="start" x="1115" y="-74.5" font-family="Helvetica,sans-Serif" font-size="10.00">boost/smart_ptr/intrusive</text>
<text text-anchor="middle" x="1175.5" y="-63.5" font-family="Helvetica,sans-Serif" font-size="10.00">_ptr.hpp</text>
</g>
<!-- Node1&#45;&gt;Node15 -->
<g id="edge15" class="edge"><title>Node1&#45;&gt;Node15</title>
<path fill="none" stroke="midnightblue" d="M2167.4,-132.177C2004.78,-131.813 1600.76,-126.71 1254.25,-87.0987"/>
<polygon fill="midnightblue" stroke="midnightblue" points="1254.61,-83.6169 1244.27,-85.9467 1253.81,-90.5707 1254.61,-83.6169"/>
</g>
<!-- Node16 -->
<g id="node16" class="node"><title>Node16</title>
<polygon fill="white" stroke="#bfbfbf" points="1262,-62 1262,-81 1365,-81 1365,-62 1262,-62"/>
<text text-anchor="middle" x="1313.5" y="-69" font-family="Helvetica,sans-Serif" font-size="10.00">/scram/src/pdag.h</text>
</g>
<!-- Node1&#45;&gt;Node16 -->
<g id="edge16" class="edge"><title>Node1&#45;&gt;Node16</title>
<path fill="none" stroke="midnightblue" d="M2167.26,-132.756C2017.4,-133.302 1665.28,-129.455 1373.5,-87 1367.17,-86.0785 1360.52,-84.7979 1354.06,-83.3758"/>
<polygon fill="midnightblue" stroke="midnightblue" points="1354.65,-79.9203 1344.12,-81.056 1353.06,-86.7372 1354.65,-79.9203"/>
</g>
<!-- Node17 -->
<g id="node17" class="node"><title>Node17</title>
<polygon fill="white" stroke="#bfbfbf" points="1383,-62 1383,-81 1432,-81 1432,-62 1383,-62"/>
<text text-anchor="middle" x="1407.5" y="-69" font-family="Helvetica,sans-Serif" font-size="10.00">cstdint</text>
</g>
<!-- Node1&#45;&gt;Node17 -->
<g id="edge17" class="edge"><title>Node1&#45;&gt;Node17</title>
<path fill="none" stroke="midnightblue" d="M2167.29,-131.211C1996.76,-128.836 1577.22,-119.748 1440.5,-87 1438.14,-86.4342 1435.73,-85.7067 1433.35,-84.8795"/>
<polygon fill="midnightblue" stroke="midnightblue" points="1434.47,-81.5553 1423.88,-81.0768 1431.86,-88.0511 1434.47,-81.5553"/>
</g>
<!-- Node18 -->
<g id="node18" class="node"><title>Node18</title>
<polygon fill="white" stroke="#bfbfbf" points="1450,-62 1450,-81 1497,-81 1497,-62 1450,-62"/>
<text text-anchor="middle" x="1473.5" y="-69" font-family="Helvetica,sans-Serif" font-size="10.00">cstdlib</text>
</g>
<!-- Node1&#45;&gt;Node18 -->
<g id="edge18" class="edge"><title>Node1&#45;&gt;Node18</title>
<path fill="none" stroke="midnightblue" d="M2167.41,-130.778C2007.37,-127.574 1630.35,-116.995 1506.5,-87 1504.14,-86.4283 1501.74,-85.6966 1499.36,-84.8667"/>
<polygon fill="midnightblue" stroke="midnightblue" points="1500.47,-81.5427 1489.89,-81.0595 1497.86,-88.0374 1500.47,-81.5427"/>
</g>
<!-- Node19 -->
<g id="node19" class="node"><title>Node19</title>
<polygon fill="white" stroke="#bfbfbf" points="1515.5,-62 1515.5,-81 1561.5,-81 1561.5,-62 1515.5,-62"/>
<text text-anchor="middle" x="1538.5" y="-69" font-family="Helvetica,sans-Serif" font-size="10.00">iosfwd</text>
</g>
<!-- Node1&#45;&gt;Node19 -->
<g id="edge19" class="edge"><title>Node1&#45;&gt;Node19</title>
<path fill="none" stroke="midnightblue" d="M2167.32,-130.377C2017.74,-126.522 1681.73,-114.958 1570.5,-87 1568.29,-86.4443 1566.04,-85.7418 1563.82,-84.9472"/>
<polygon fill="midnightblue" stroke="midnightblue" points="1564.95,-81.629 1554.37,-81.0438 1562.28,-88.0982 1564.95,-81.629"/>
</g>
<!-- Node20 -->
<g id="node20" class="node"><title>Node20</title>
<polygon fill="white" stroke="#bfbfbf" points="1579.5,-62 1579.5,-81 1647.5,-81 1647.5,-62 1579.5,-62"/>
<text text-anchor="middle" x="1613.5" y="-69" font-family="Helvetica,sans-Serif" font-size="10.00">type_traits</text>
</g>
<!-- Node1&#45;&gt;Node20 -->
<g id="edge20" class="edge"><title>Node1&#45;&gt;Node20</title>
<path fill="none" stroke="midnightblue" d="M2167.32,-132.155C2055.91,-131.094 1837.6,-123.912 1656.5,-87 1652.81,-86.2477 1649,-85.2706 1645.24,-84.179"/>
<polygon fill="midnightblue" stroke="midnightblue" points="1646.12,-80.7869 1635.53,-81.0974 1644,-87.4588 1646.12,-80.7869"/>
</g>
<!-- Node21 -->
<g id="node21" class="node"><title>Node21</title>
<polygon fill="white" stroke="#bfbfbf" points="1665.5,-62 1665.5,-81 1715.5,-81 1715.5,-62 1665.5,-62"/>
<text text-anchor="middle" x="1690.5" y="-69" font-family="Helvetica,sans-Serif" font-size="10.00">variant</text>
</g>
<!-- Node1&#45;&gt;Node21 -->
<g id="edge21" class="edge"><title>Node1&#45;&gt;Node21</title>
<path fill="none" stroke="midnightblue" d="M2167.1,-132.819C2065.94,-132.325 1878.69,-125.56 1724.5,-87 1722.14,-86.4089 1719.73,-85.6741 1717.33,-84.8514"/>
<polygon fill="midnightblue" stroke="midnightblue" points="1718.37,-81.4977 1707.78,-81.1162 1715.82,-88.0172 1718.37,-81.4977"/>
</g>
<!-- Node22 -->
<g id="node22" class="node"><title>Node22</title>
<polygon fill="white" stroke="#bfbfbf" points="1733.5,-56.5 1733.5,-86.5 1843.5,-86.5 1843.5,-56.5 1733.5,-56.5"/>
<text text-anchor="start" x="1741.5" y="-74.5" font-family="Helvetica,sans-Serif" font-size="10.00">boost/container/flat</text>
<text text-anchor="middle" x="1788.5" y="-63.5" font-family="Helvetica,sans-Serif" font-size="10.00">_set.hpp</text>
</g>
<!-- Node1&#45;&gt;Node22 -->
<g id="edge22" class="edge"><title>Node1&#45;&gt;Node22</title>
<path fill="none" stroke="midnightblue" d="M2167.23,-125.865C2091.18,-118.963 1968.64,-106.346 1853.62,-87.0762"/>
<polygon fill="midnightblue" stroke="midnightblue" points="1854.03,-83.5955 1843.58,-85.3743 1852.86,-90.4969 1854.03,-83.5955"/>
</g>
<!-- Node23 -->
<g id="node23" class="node"><title>Node23</title>
<polygon fill="white" stroke="#bfbfbf" points="1862,-56.5 1862,-86.5 1977,-86.5 1977,-56.5 1862,-56.5"/>
<text text-anchor="start" x="1870" y="-74.5" font-family="Helvetica,sans-Serif" font-size="10.00">boost/range/adaptor</text>
<text text-anchor="middle" x="1919.5" y="-63.5" font-family="Helvetica,sans-Serif" font-size="10.00">/transformed.hpp</text>
</g>
<!-- Node1&#45;&gt;Node23 -->
<g id="edge23" class="edge"><title>Node1&#45;&gt;Node23</title>
<path fill="none" stroke="midnightblue" d="M2188.61,-123.493C2139.22,-115.25 2062.56,-102.076 1987.2,-87.2945"/>
<polygon fill="midnightblue" stroke="midnightblue" points="1987.55,-83.796 1977.06,-85.2942 1986.2,-90.6637 1987.55,-83.796"/>
</g>
<!-- Node24 -->
<g id="node24" class="node"><title>Node24</title>
<polygon fill="white" stroke="#bfbfbf" points="1995,-56.5 1995,-86.5 2100,-86.5 2100,-56.5 1995,-56.5"/>
<text text-anchor="start" x="2003" y="-74.5" font-family="Helvetica,sans-Serif" font-size="10.00">/scram/src/ext/find</text>
<text text-anchor="middle" x="2047.5" y="-63.5" font-family="Helvetica,sans-Serif" font-size="10.00">_iterator.h</text>
</g>
<!-- Node1&#45;&gt;Node24 -->
<g id="edge24" class="edge"><title>Node1&#45;&gt;Node24</title>
<path fill="none" stroke="midnightblue" d="M2212.85,-123.475C2184.27,-114.664 2138.87,-100.668 2102.87,-89.5698"/>
<polygon fill="midnightblue" stroke="midnightblue" points="2103.57,-86.1245 2092.99,-86.523 2101.51,-92.8138 2103.57,-86.1245"/>
</g>
<!-- Node25 -->
<g id="node25" class="node"><title>Node25</title>
<polygon fill="white" stroke="#bfbfbf" points="2118,-56.5 2118,-86.5 2231,-86.5 2231,-56.5 2118,-56.5"/>
<text text-anchor="start" x="2126" y="-74.5" font-family="Helvetica,sans-Serif" font-size="10.00">/scram/src/ext/index</text>
<text text-anchor="middle" x="2174.5" y="-63.5" font-family="Helvetica,sans-Serif" font-size="10.00">_map.h</text>
</g>
<!-- Node1&#45;&gt;Node25 -->
<g id="edge25" class="edge"><title>Node1&#45;&gt;Node25</title>
<path fill="none" stroke="midnightblue" d="M2231.04,-123.475C2222.36,-115.643 2209.12,-103.714 2197.64,-93.3656"/>
<polygon fill="midnightblue" stroke="midnightblue" points="2199.83,-90.6193 2190.05,-86.523 2195.14,-95.8184 2199.83,-90.6193"/>
</g>
<!-- Node26 -->
<g id="node26" class="node"><title>Node26</title>
<polygon fill="white" stroke="#bfbfbf" points="2249.5,-56.5 2249.5,-86.5 2363.5,-86.5 2363.5,-56.5 2249.5,-56.5"/>
<text text-anchor="start" x="2257.5" y="-74.5" font-family="Helvetica,sans-Serif" font-size="10.00">/scram/src/ext/linear</text>
<text text-anchor="middle" x="2306.5" y="-63.5" font-family="Helvetica,sans-Serif" font-size="10.00">_map.h</text>
</g>
<!-- Node1&#45;&gt;Node26 -->
<g id="edge26" class="edge"><title>Node1&#45;&gt;Node26</title>
<path fill="none" stroke="midnightblue" d="M2249.96,-123.475C2258.64,-115.643 2271.88,-103.714 2283.36,-93.3656"/>
<polygon fill="midnightblue" stroke="midnightblue" points="2285.86,-95.8184 2290.95,-86.523 2281.17,-90.6193 2285.86,-95.8184"/>
</g>
<!-- Node27 -->
<g id="node27" class="node"><title>Node27</title>
<polygon fill="white" stroke="#bfbfbf" points="2381.5,-62 2381.5,-81 2433.5,-81 2433.5,-62 2381.5,-62"/>
<text text-anchor="middle" x="2407.5" y="-69" font-family="Helvetica,sans-Serif" font-size="10.00">cassert</text>
</g>
<!-- Node1&#45;&gt;Node27 -->
<g id="edge27" class="edge"><title>Node1&#45;&gt;Node27</title>
<path fill="none" stroke="midnightblue" d="M2267.23,-123.447C2294.02,-114.742 2336.37,-100.628 2372.5,-87 2374.35,-86.3037 2376.24,-85.5715 2378.15,-84.8213"/>
<polygon fill="midnightblue" stroke="midnightblue" points="2379.64,-87.9939 2387.6,-81.0041 2377.02,-81.5032 2379.64,-87.9939"/>
</g>
<!-- Node28 -->
<g id="node28" class="node"><title>Node28</title>
<polygon fill="white" stroke="#bfbfbf" points="2452,-62 2452,-81 2529,-81 2529,-62 2452,-62"/>
<text text-anchor="middle" x="2490.5" y="-69" font-family="Helvetica,sans-Serif" font-size="10.00">initializer_list</text>
</g>
<!-- Node1&#45;&gt;Node28 -->
<g id="edge28" class="edge"><title>Node1&#45;&gt;Node28</title>
<path fill="none" stroke="midnightblue" d="M2283.28,-123.431C2324.32,-114.984 2387.93,-101.299 2442.5,-87 2446.12,-86.0505 2449.89,-85.0104 2453.64,-83.9372"/>
<polygon fill="midnightblue" stroke="midnightblue" points="2454.83,-87.2346 2463.44,-81.058 2452.86,-80.5184 2454.83,-87.2346"/>
</g>
<!-- Node29 -->
<g id="node29" class="node"><title>Node29</title>
<polygon fill="white" stroke="#bfbfbf" points="2547.5,-62 2547.5,-81 2611.5,-81 2611.5,-62 2547.5,-62"/>
<text text-anchor="middle" x="2579.5" y="-69" font-family="Helvetica,sans-Serif" font-size="10.00">stdexcept</text>
</g>
<!-- Node1&#45;&gt;Node29 -->
<g id="edge29" class="edge"><title>Node1&#45;&gt;Node29</title>
<path fill="none" stroke="midnightblue" d="M2313.54,-124.688C2374.11,-117.732 2462.17,-105.545 2537.5,-87 2540.72,-86.207 2544.04,-85.2714 2547.35,-84.2633"/>
<polygon fill="midnightblue" stroke="midnightblue" points="2548.64,-87.5235 2557.06,-81.0922 2546.46,-80.8693 2548.64,-87.5235"/>
</g>
<!-- Node30 -->
<g id="node30" class="node"><title>Node30</title>
<polygon fill="white" stroke="#bfbfbf" points="2630,-62 2630,-81 2747,-81 2747,-62 2630,-62"/>
<text text-anchor="middle" x="2688.5" y="-69" font-family="Helvetica,sans-Serif" font-size="10.00">/scram/src/settings.h</text>
</g>
<!-- Node1&#45;&gt;Node30 -->
<g id="edge30" class="edge"><title>Node1&#45;&gt;Node30</title>
<path fill="none" stroke="midnightblue" d="M2313.63,-125.36C2390.35,-117.922 2514.32,-104.569 2620.5,-87 2627.3,-85.8746 2634.45,-84.5298 2641.46,-83.1193"/>
<polygon fill="midnightblue" stroke="midnightblue" points="2642.48,-86.4818 2651.56,-81.0239 2641.06,-79.6277 2642.48,-86.4818"/>
</g>
<!-- Node31 -->
<g id="node31" class="node"><title>Node31</title>
<polygon fill="white" stroke="#bfbfbf" points="2765,-62 2765,-81 2834,-81 2834,-62 2765,-62"/>
<text text-anchor="middle" x="2799.5" y="-69" font-family="Helvetica,sans-Serif" font-size="10.00">string_view</text>
</g>
<!-- Node1&#45;&gt;Node31 -->
<g id="edge31" class="edge"><title>Node1&#45;&gt;Node31</title>
<path fill="none" stroke="midnightblue" d="M2313.76,-130.905C2414.33,-128.202 2600.34,-118.898 2755.5,-87 2759.38,-86.2029 2763.39,-85.1763 2767.34,-84.0379"/>
<polygon fill="midnightblue" stroke="midnightblue" points="2768.43,-87.365 2776.93,-81.045 2766.35,-80.6827 2768.43,-87.365"/>
</g>
<!-- Node32 -->
<g id="node32" class="node"><title>Node32</title>
<polygon fill="white" stroke="#bfbfbf" points="2852,-56.5 2852,-86.5 2971,-86.5 2971,-56.5 2852,-56.5"/>
<text text-anchor="start" x="2860" y="-74.5" font-family="Helvetica,sans-Serif" font-size="10.00">/scram/src/probability</text>
<text text-anchor="middle" x="2911.5" y="-63.5" font-family="Helvetica,sans-Serif" font-size="10.00">_analysis.h</text>
</g>
<!-- Node1&#45;&gt;Node32 -->
<g id="edge32" class="edge"><title>Node1&#45;&gt;Node32</title>
<path fill="none" stroke="midnightblue" d="M2313.58,-129.661C2425.31,-125.394 2645.4,-114.27 2841.82,-86.9596"/>
<polygon fill="midnightblue" stroke="midnightblue" points="2842.33,-90.4221 2851.75,-85.5626 2841.36,-83.4905 2842.33,-90.4221"/>
</g>
<!-- Node33 -->
<g id="node33" class="node"><title>Node33</title>
<polygon fill="white" stroke="#bfbfbf" points="2989,-62 2989,-81 3106,-81 3106,-62 2989,-62"/>
<text text-anchor="middle" x="3047.5" y="-69" font-family="Helvetica,sans-Serif" font-size="10.00">/scram/src/analysis.h</text>
</g>
<!-- Node1&#45;&gt;Node33 -->
<g id="edge33" class="edge"><title>Node1&#45;&gt;Node33</title>
<path fill="none" stroke="midnightblue" d="M2313.75,-131.155C2446.89,-128.816 2737.2,-120.023 2979.5,-87 2986.98,-85.9799 2994.87,-84.5921 3002.52,-83.0774"/>
<polygon fill="midnightblue" stroke="midnightblue" points="3003.3,-86.4902 3012.38,-81.0331 3001.88,-79.6359 3003.3,-86.4902"/>
</g>
<!-- Node34 -->
<g id="node34" class="node"><title>Node34</title>
<polygon fill="white" stroke="#bfbfbf" points="3124.5,-62 3124.5,-81 3168.5,-81 3168.5,-62 3124.5,-62"/>
<text text-anchor="middle" x="3146.5" y="-69" font-family="Helvetica,sans-Serif" font-size="10.00">string</text>
</g>
<!-- Node1&#45;&gt;Node34 -->
<g id="edge34" class="edge"><title>Node1&#45;&gt;Node34</title>
<path fill="none" stroke="midnightblue" d="M2313.72,-131.727C2495.47,-130.488 2963.45,-123.716 3114.5,-87 3116.72,-86.4616 3118.97,-85.7713 3121.19,-84.985"/>
<polygon fill="midnightblue" stroke="midnightblue" points="3122.73,-88.1391 3130.64,-81.0962 3120.06,-81.6661 3122.73,-88.1391"/>
</g>
<!-- Node35 -->
<g id="node35" class="node"><title>Node35</title>
<polygon fill="white" stroke="#bfbfbf" points="3186.5,-56.5 3186.5,-86.5 3302.5,-86.5 3302.5,-56.5 3186.5,-56.5"/>
<text text-anchor="start" x="3194.5" y="-74.5" font-family="Helvetica,sans-Serif" font-size="10.00">/scram/src/fault_tree</text>
<text text-anchor="middle" x="3244.5" y="-63.5" font-family="Helvetica,sans-Serif" font-size="10.00">_analysis.h</text>
</g>
<!-- Node1&#45;&gt;Node35 -->
<g id="edge35" class="edge"><title>Node1&#45;&gt;Node35</title>
<path fill="none" stroke="midnightblue" d="M2313.76,-132.582C2470.48,-132.938 2849.89,-129.062 3176.37,-86.9861"/>
<polygon fill="midnightblue" stroke="midnightblue" points="3177.03,-90.429 3186.5,-85.666 3176.13,-83.4877 3177.03,-90.429"/>
</g>
<!-- Node36 -->
<g id="node36" class="node"><title>Node36</title>
<polygon fill="white" stroke="#bfbfbf" points="3320.5,-62 3320.5,-81 3406.5,-81 3406.5,-62 3320.5,-62"/>
<text text-anchor="middle" x="3363.5" y="-69" font-family="Helvetica,sans-Serif" font-size="10.00">unordered_set</text>
</g>
<!-- Node1&#45;&gt;Node36 -->
<g id="edge36" class="edge"><title>Node1&#45;&gt;Node36</title>
<path fill="none" stroke="midnightblue" d="M2313.86,-131.112C2522.87,-128.233 3118.73,-117.51 3311.5,-87 3316.69,-86.1786 3322.1,-85.0216 3327.39,-83.7154"/>
<polygon fill="midnightblue" stroke="midnightblue" points="3328.55,-87.0283 3337.31,-81.0685 3326.74,-80.2649 3328.55,-87.0283"/>
</g>
<!-- Node37 -->
<g id="node37" class="node"><title>Node37</title>
<polygon fill="white" stroke="#bfbfbf" points="3424.5,-56.5 3424.5,-86.5 3544.5,-86.5 3544.5,-56.5 3424.5,-56.5"/>
<text text-anchor="start" x="3432.5" y="-74.5" font-family="Helvetica,sans-Serif" font-size="10.00">boost/iterator/iterator</text>
<text text-anchor="middle" x="3484.5" y="-63.5" font-family="Helvetica,sans-Serif" font-size="10.00">_facade.hpp</text>
</g>
<!-- Node1&#45;&gt;Node37 -->
<g id="edge37" class="edge"><title>Node1&#45;&gt;Node37</title>
<path fill="none" stroke="midnightblue" d="M2313.67,-130.816C2532.62,-127.021 3181.35,-113.879 3414.28,-86.9651"/>
<polygon fill="midnightblue" stroke="midnightblue" points="3414.88,-90.4188 3424.39,-85.7556 3414.04,-83.4683 3414.88,-90.4188"/>
</g>
<!-- Node38 -->
<g id="node38" class="node"><title>Node38</title>
<polygon fill="white" stroke="#bfbfbf" points="3562.5,-56.5 3562.5,-86.5 3694.5,-86.5 3694.5,-56.5 3562.5,-56.5"/>
<text text-anchor="start" x="3570.5" y="-74.5" font-family="Helvetica,sans-Serif" font-size="10.00">boost/iterator/transform</text>
<text text-anchor="middle" x="3628.5" y="-63.5" font-family="Helvetica,sans-Serif" font-size="10.00">_iterator.hpp</text>
</g>
<!-- Node1&#45;&gt;Node38 -->
<g id="edge38" class="edge"><title>Node1&#45;&gt;Node38</title>
<path fill="none" stroke="midnightblue" d="M2313.66,-131.003C2549.73,-127.552 3290.54,-114.832 3552.11,-86.9989"/>
<polygon fill="midnightblue" stroke="midnightblue" points="3552.78,-90.4468 3562.33,-85.8753 3552.01,-83.4887 3552.78,-90.4468"/>
</g>
<!-- Node39 -->
<g id="node39" class="node"><title>Node39</title>
<polygon fill="white" stroke="#bfbfbf" points="3713,-62 3713,-81 3854,-81 3854,-62 3713,-62"/>
<text text-anchor="middle" x="3783.5" y="-69" font-family="Helvetica,sans-Serif" font-size="10.00">/scram/src/preprocessor.h</text>
</g>
<!-- Node1&#45;&gt;Node39 -->
<g id="edge39" class="edge"><title>Node1&#45;&gt;Node39</title>
<path fill="none" stroke="midnightblue" d="M2313.81,-131.187C2570.74,-128.112 3429.62,-115.871 3703.5,-87 3713.08,-85.9896 3723.25,-84.4867 3733,-82.8258"/>
<polygon fill="midnightblue" stroke="midnightblue" points="3733.74,-86.2494 3742.97,-81.0518 3732.51,-79.3576 3733.74,-86.2494"/>
</g>
<!-- Node40 -->
<g id="node40" class="node"><title>Node40</title>
<polygon fill="white" stroke="#bfbfbf" points="3872.5,-62 3872.5,-81 3904.5,-81 3904.5,-62 3872.5,-62"/>
<text text-anchor="middle" x="3888.5" y="-69" font-family="Helvetica,sans-Serif" font-size="10.00">set</text>
</g>
<!-- Node1&#45;&gt;Node40 -->
<g id="edge40" class="edge"><title>Node1&#45;&gt;Node40</title>
<path fill="none" stroke="midnightblue" d="M2313.74,-132.02C2610.17,-131.824 3712.25,-128.296 3862.5,-87 3863.96,-86.5976 3865.43,-86.0967 3866.89,-85.5251"/>
<polygon fill="midnightblue" stroke="midnightblue" points="3868.63,-88.5691 3876.07,-81.0239 3865.55,-82.284 3868.63,-88.5691"/>
</g>
<!-- Node41 -->
<g id="node41" class="node"><title>Node41</title>
<polygon fill="white" stroke="#bfbfbf" points="3922.5,-62 3922.5,-81 4066.5,-81 4066.5,-62 3922.5,-62"/>
<text text-anchor="middle" x="3994.5" y="-69" font-family="Helvetica,sans-Serif" font-size="10.00">boost/unordered_map.hpp</text>
</g>
<!-- Node1&#45;&gt;Node41 -->
<g id="edge41" class="edge"><title>Node1&#45;&gt;Node41</title>
<path fill="none" stroke="midnightblue" d="M2313.96,-131.493C2594.24,-129.332 3596.45,-119.456 3913.5,-87 3923.41,-85.9852 3933.94,-84.447 3944,-82.746"/>
<polygon fill="midnightblue" stroke="midnightblue" points="3944.64,-86.1882 3953.88,-81.004 3943.42,-79.2946 3944.64,-86.1882"/>
</g>
<!-- Node42 -->
<g id="node42" class="node"><title>Node42</title>
<polygon fill="white" stroke="#bfbfbf" points="4084.5,-62 4084.5,-81 4186.5,-81 4186.5,-62 4084.5,-62"/>
<text text-anchor="middle" x="4135.5" y="-69" font-family="Helvetica,sans-Serif" font-size="10.00">/scram/src/zbdd.h</text>
</g>
<!-- Node1&#45;&gt;Node42 -->
<g id="edge42" class="edge"><title>Node1&#45;&gt;Node42</title>
<path fill="none" stroke="midnightblue" d="M2313.69,-132.28C2610.6,-133.097 3726.08,-132.973 4075.5,-87 4081.98,-86.1468 4088.79,-84.8763 4095.39,-83.436"/>
<polygon fill="midnightblue" stroke="midnightblue" points="4096.58,-86.7522 4105.52,-81.0683 4094.99,-79.9358 4096.58,-86.7522"/>
</g>
<!-- Node43 -->
<g id="node43" class="node"><title>Node43</title>
<polygon fill="white" stroke="#bfbfbf" points="4205,-62 4205,-81 4246,-81 4246,-62 4205,-62"/>
<text text-anchor="middle" x="4225.5" y="-69" font-family="Helvetica,sans-Serif" font-size="10.00">array</text>
</g>
<!-- Node1&#45;&gt;Node43 -->
<g id="edge43" class="edge"><title>Node1&#45;&gt;Node43</title>
<path fill="none" stroke="midnightblue" d="M2313.6,-132.153C2646.43,-132.599 4010.27,-131.667 4195.5,-87 4197.48,-86.522 4199.49,-85.9007 4201.47,-85.1846"/>
<polygon fill="midnightblue" stroke="midnightblue" points="4203.24,-88.2338 4211.01,-81.0394 4200.45,-81.8134 4203.24,-88.2338"/>
</g>
<!-- Node44 -->
<g id="node44" class="node"><title>Node44</title>
<polygon fill="white" stroke="#bfbfbf" points="4264.5,-62 4264.5,-81 4302.5,-81 4302.5,-62 4264.5,-62"/>
<text text-anchor="middle" x="4283.5" y="-69" font-family="Helvetica,sans-Serif" font-size="10.00">map</text>
</g>
<!-- Node1&#45;&gt;Node44 -->
<g id="edge44" class="edge"><title>Node1&#45;&gt;Node44</title>
<path fill="none" stroke="midnightblue" d="M2313.55,-132.263C2652.49,-133.225 4063.55,-134.335 4254.5,-87 4256.43,-86.5226 4258.37,-85.9017 4260.29,-85.186"/>
<polygon fill="midnightblue" stroke="midnightblue" points="4261.84,-88.3293 4269.53,-81.0413 4258.97,-81.9431 4261.84,-88.3293"/>
</g>
<!-- Node45 -->
<g id="node45" class="node"><title>Node45</title>
<polygon fill="white" stroke="#bfbfbf" points="4320.5,-62 4320.5,-81 4390.5,-81 4390.5,-62 4320.5,-62"/>
<text text-anchor="middle" x="4355.5" y="-69" font-family="Helvetica,sans-Serif" font-size="10.00">src/event.h</text>
</g>
<!-- Node1&#45;&gt;Node45 -->
<g id="edge45" class="edge"><title>Node1&#45;&gt;Node45</title>
<path fill="none" stroke="midnightblue" d="M2313.75,-131.694C2658.58,-130.081 4111.79,-121.288 4311.5,-87 4315.69,-86.2804 4320.03,-85.2395 4324.27,-84.0407"/>
<polygon fill="midnightblue" stroke="midnightblue" points="4325.39,-87.3578 4333.89,-81.0338 4323.3,-80.6765 4325.39,-87.3578"/>
</g>
<!-- Node46 -->
<g id="node46" class="node"><title>Node46</title>
<g id="a_node46"><a xlink:href="align_8h.xhtml" target="_top" xlink:title="Text alignment common conventions. ">
<polygon fill="white" stroke="black" points="4408.5,-62 4408.5,-81 4456.5,-81 4456.5,-62 4408.5,-62"/>
<text text-anchor="middle" x="4432.5" y="-69" font-family="Helvetica,sans-Serif" font-size="10.00">align.h</text>
</a>
</g>
</g>
<!-- Node1&#45;&gt;Node46 -->
<g id="edge46" class="edge"><title>Node1&#45;&gt;Node46</title>
<path fill="none" stroke="midnightblue" d="M2313.68,-132.173C2667.55,-132.78 4192.61,-132.705 4399.5,-87 4402.01,-86.4449 4404.57,-85.6939 4407.09,-84.8243"/>
<polygon fill="midnightblue" stroke="midnightblue" points="4408.51,-88.0266 4416.48,-81.0463 4405.9,-81.5326 4408.51,-88.0266"/>
</g>
<!-- Node48 -->
<g id="node48" class="node"><title>Node48</title>
<g id="a_node48"><a xlink:href="guiassert_8h.xhtml" target="_top" xlink:title="GUI assertions that should not crash the program by default. ">
<polygon fill="white" stroke="black" points="4516.5,-62 4516.5,-81 4586.5,-81 4586.5,-62 4516.5,-62"/>
<text text-anchor="middle" x="4551.5" y="-69" font-family="Helvetica,sans-Serif" font-size="10.00">guiassert.h</text>
</a>
</g>
</g>
<!-- Node1&#45;&gt;Node48 -->
<g id="edge48" class="edge"><title>Node1&#45;&gt;Node48</title>
<path fill="none" stroke="midnightblue" d="M2313.66,-131.965C2648.11,-131.585 4033.71,-127.546 4465.5,-87 4478.7,-85.7602 4492.94,-83.6714 4505.95,-81.4597"/>
<polygon fill="midnightblue" stroke="midnightblue" points="4506.85,-84.8563 4516.09,-79.6736 4505.63,-77.9626 4506.85,-84.8563"/>
</g>
<!-- Node2&#45;&gt;Node3 -->
<g id="edge2" class="edge"><title>Node2&#45;&gt;Node3</title>
<path fill="none" stroke="midnightblue" d="M107.459,-61.9751C91.449,-52.2548 65.0496,-36.2266 46.126,-24.7372"/>
<polygon fill="midnightblue" stroke="midnightblue" points="47.8793,-21.7072 37.515,-19.5091 44.2464,-27.6907 47.8793,-21.7072"/>
</g>
<!-- Node4 -->
<g id="node4" class="node"><title>Node4</title>
<polygon fill="white" stroke="#bfbfbf" points="65,-0.5 65,-19.5 182,-19.5 182,-0.5 65,-0.5"/>
<text text-anchor="middle" x="123.5" y="-7.5" font-family="Helvetica,sans-Serif" font-size="10.00">QAbstractTableModel</text>
</g>
<!-- Node2&#45;&gt;Node4 -->
<g id="edge3" class="edge"><title>Node2&#45;&gt;Node4</title>
<path fill="none" stroke="midnightblue" d="M121.787,-61.9751C122.069,-53.5803 122.509,-40.4806 122.873,-29.6631"/>
<polygon fill="midnightblue" stroke="midnightblue" points="126.376,-29.6211 123.214,-19.5091 119.38,-29.3858 126.376,-29.6211"/>
</g>
<!-- Node5 -->
<g id="node5" class="node"><title>Node5</title>
<polygon fill="white" stroke="#bfbfbf" points="200,-0.5 200,-19.5 341,-19.5 341,-0.5 200,-0.5"/>
<text text-anchor="middle" x="270.5" y="-7.5" font-family="Helvetica,sans-Serif" font-size="10.00">src/importance_analysis.h</text>
</g>
<!-- Node2&#45;&gt;Node5 -->
<g id="edge4" class="edge"><title>Node2&#45;&gt;Node5</title>
<path fill="none" stroke="midnightblue" d="M142.848,-61.9751C168.186,-51.8571 210.638,-34.9046 239.571,-23.3507"/>
<polygon fill="midnightblue" stroke="midnightblue" points="241.203,-26.4681 249.192,-19.5091 238.607,-19.9673 241.203,-26.4681"/>
</g>
<!-- Node47 -->
<g id="node47" class="node"><title>Node47</title>
<polygon fill="white" stroke="#bfbfbf" points="4396,-0.5 4396,-19.5 4425,-19.5 4425,-0.5 4396,-0.5"/>
<text text-anchor="middle" x="4410.5" y="-7.5" font-family="Helvetica,sans-Serif" font-size="10.00">Qt</text>
</g>
<!-- Node46&#45;&gt;Node47 -->
<g id="edge47" class="edge"><title>Node46&#45;&gt;Node47</title>
<path fill="none" stroke="midnightblue" d="M4429.35,-61.9751C4426.18,-53.4035 4421.2,-39.9269 4417.15,-28.983"/>
<polygon fill="midnightblue" stroke="midnightblue" points="4420.4,-27.6747 4413.65,-19.5091 4413.83,-30.1023 4420.4,-27.6747"/>
</g>
<!-- Node49 -->
<g id="node49" class="node"><title>Node49</title>
<polygon fill="white" stroke="#bfbfbf" points="4443,-0.5 4443,-19.5 4528,-19.5 4528,-0.5 4443,-0.5"/>
<text text-anchor="middle" x="4485.5" y="-7.5" font-family="Helvetica,sans-Serif" font-size="10.00">QMessageBox</text>
</g>
<!-- Node48&#45;&gt;Node49 -->
<g id="edge49" class="edge"><title>Node48&#45;&gt;Node49</title>
<path fill="none" stroke="midnightblue" d="M4542.04,-61.9751C4531.75,-52.6966 4515.08,-37.6706 4502.51,-26.331"/>
<polygon fill="midnightblue" stroke="midnightblue" points="4504.71,-23.6054 4494.94,-19.5091 4500.02,-28.8046 4504.71,-23.6054"/>
</g>
<!-- Node50 -->
<g id="node50" class="node"><title>Node50</title>
<polygon fill="white" stroke="#bfbfbf" points="4546,-0.5 4546,-19.5 4599,-19.5 4599,-0.5 4546,-0.5"/>
<text text-anchor="middle" x="4572.5" y="-7.5" font-family="Helvetica,sans-Serif" font-size="10.00">QString</text>
</g>
<!-- Node48&#45;&gt;Node50 -->
<g id="edge50" class="edge"><title>Node48&#45;&gt;Node50</title>
<path fill="none" stroke="midnightblue" d="M4554.51,-61.9751C4557.53,-53.4035 4562.29,-39.9269 4566.15,-28.983"/>
<polygon fill="midnightblue" stroke="midnightblue" points="4569.47,-30.1039 4569.5,-19.5091 4562.87,-27.7741 4569.47,-30.1039"/>
</g>
<!-- Node51 -->
<g id="node51" class="node"><title>Node51</title>
<polygon fill="white" stroke="#bfbfbf" points="4616.5,-0.5 4616.5,-19.5 4732.5,-19.5 4732.5,-0.5 4616.5,-0.5"/>
<text text-anchor="middle" x="4674.5" y="-7.5" font-family="Helvetica,sans-Serif" font-size="10.00">src/ext/source_info.h</text>
</g>
<!-- Node48&#45;&gt;Node51 -->
<g id="edge51" class="edge"><title>Node48&#45;&gt;Node51</title>
<path fill="none" stroke="midnightblue" d="M4569.12,-61.9751C4589.67,-52.0338 4623.86,-35.4947 4647.71,-23.961"/>
<polygon fill="midnightblue" stroke="midnightblue" points="4649.43,-27.0145 4656.91,-19.5091 4646.38,-20.7131 4649.43,-27.0145"/>
</g>
</g>
</svg>
