<?xml version="1.0" encoding="UTF-8" standalone="no"?>
<!DOCTYPE svg PUBLIC "-//W3C//DTD SVG 1.1//EN"
 "http://www.w3.org/Graphics/SVG/1.1/DTD/svg11.dtd">
<!-- Generated by graphviz version 2.38.0 (20140413.2041)
 -->
<!-- Title: mainwindow.h Pages: 1 -->
<svg width="1825pt" height="207pt"
 viewBox="0.00 0.00 1824.50 207.00" xmlns="http://www.w3.org/2000/svg" xmlns:xlink="http://www.w3.org/1999/xlink">
<g id="graph0" class="graph" transform="scale(1 1) rotate(0) translate(4 203)">
<title>mainwindow.h</title>
<polygon fill="white" stroke="none" points="-4,4 -4,-203 1820.5,-203 1820.5,4 -4,4"/>
<!-- Node1 -->
<g id="node1" class="node"><title>Node1</title>
<polygon fill="#bfbfbf" stroke="black" points="828,-179.5 828,-198.5 911,-198.5 911,-179.5 828,-179.5"/>
<text text-anchor="middle" x="869.5" y="-186.5" font-family="Helvetica,sans-Serif" font-size="10.00">mainwindow.h</text>
</g>
<!-- Node2 -->
<g id="node2" class="node"><title>Node2</title>
<polygon fill="white" stroke="#bfbfbf" points="228,-123.5 228,-142.5 269,-142.5 269,-123.5 228,-123.5"/>
<text text-anchor="middle" x="248.5" y="-130.5" font-family="Helvetica,sans-Serif" font-size="10.00">array</text>
</g>
<!-- Node1&#45;&gt;Node2 -->
<g id="edge1" class="edge"><title>Node1&#45;&gt;Node2</title>
<path fill="none" stroke="midnightblue" d="M827.81,-188.036C732.037,-187.437 489.019,-182.022 279.231,-142.945"/>
<polygon fill="midnightblue" stroke="midnightblue" points="279.743,-139.48 269.267,-141.059 278.441,-146.358 279.743,-139.48"/>
</g>
<!-- Node3 -->
<g id="node3" class="node"><title>Node3</title>
<polygon fill="white" stroke="#bfbfbf" points="287,-123.5 287,-142.5 350,-142.5 350,-123.5 287,-123.5"/>
<text text-anchor="middle" x="318.5" y="-130.5" font-family="Helvetica,sans-Serif" font-size="10.00">functional</text>
</g>
<!-- Node1&#45;&gt;Node3 -->
<g id="edge2" class="edge"><title>Node1&#45;&gt;Node3</title>
<path fill="none" stroke="midnightblue" d="M827.762,-185.759C741.112,-180.781 535.526,-167.283 364.5,-143 363.04,-142.793 361.556,-142.57 360.058,-142.334"/>
<polygon fill="midnightblue" stroke="midnightblue" points="360.547,-138.867 350.1,-140.633 359.368,-145.767 360.547,-138.867"/>
</g>
<!-- Node4 -->
<g id="node4" class="node"><title>Node4</title>
<polygon fill="white" stroke="#bfbfbf" points="0,-62 0,-81 57,-81 57,-62 0,-62"/>
<text text-anchor="middle" x="28.5" y="-69" font-family="Helvetica,sans-Serif" font-size="10.00">memory</text>
</g>
<!-- Node1&#45;&gt;Node4 -->
<g id="edge3" class="edge"><title>Node1&#45;&gt;Node4</title>
<path fill="none" stroke="midnightblue" d="M827.705,-186.386C726.945,-182.121 473.027,-169.052 392.5,-143 375.82,-137.604 375.102,-128.634 358.5,-123 234.677,-80.975 193.4,-118.539 66.5,-87 63.6733,-86.2975 60.7708,-85.4449 57.8906,-84.5088"/>
<polygon fill="midnightblue" stroke="midnightblue" points="58.9198,-81.16 48.3251,-81.1014 56.5708,-87.7542 58.9198,-81.16"/>
</g>
<!-- Node5 -->
<g id="node5" class="node"><title>Node5</title>
<polygon fill="white" stroke="#bfbfbf" points="75.5,-62 75.5,-81 119.5,-81 119.5,-62 75.5,-62"/>
<text text-anchor="middle" x="97.5" y="-69" font-family="Helvetica,sans-Serif" font-size="10.00">string</text>
</g>
<!-- Node1&#45;&gt;Node5 -->
<g id="edge4" class="edge"><title>Node1&#45;&gt;Node5</title>
<path fill="none" stroke="midnightblue" d="M827.928,-188.938C748.766,-189.599 571.684,-185.641 430.5,-143 412.23,-137.482 410.676,-128.822 392.5,-123 279.726,-86.8749 242.092,-120.467 128.5,-87 126.619,-86.4459 124.708,-85.7937 122.806,-85.0779"/>
<polygon fill="midnightblue" stroke="midnightblue" points="124.121,-81.8335 113.549,-81.1287 121.374,-88.2721 124.121,-81.8335"/>
</g>
<!-- Node6 -->
<g id="node6" class="node"><title>Node6</title>
<polygon fill="white" stroke="#bfbfbf" points="138,-62 138,-81 185,-81 185,-62 138,-62"/>
<text text-anchor="middle" x="161.5" y="-69" font-family="Helvetica,sans-Serif" font-size="10.00">vector</text>
</g>
<!-- Node1&#45;&gt;Node6 -->
<g id="edge5" class="edge"><title>Node1&#45;&gt;Node6</title>
<path fill="none" stroke="midnightblue" d="M827.777,-188.36C753.736,-187.9 595.231,-181.941 468.5,-143 450.257,-137.394 448.631,-128.96 430.5,-123 329.287,-89.7272 295.651,-117.272 193.5,-87 191.57,-86.4281 189.606,-85.7627 187.649,-85.0374"/>
<polygon fill="midnightblue" stroke="midnightblue" points="188.684,-81.6775 178.107,-81.0675 185.995,-88.1404 188.684,-81.6775"/>
</g>
<!-- Node7 -->
<g id="node7" class="node"><title>Node7</title>
<polygon fill="white" stroke="#bfbfbf" points="594.5,-123.5 594.5,-142.5 702.5,-142.5 702.5,-123.5 594.5,-123.5"/>
<text text-anchor="middle" x="648.5" y="-130.5" font-family="Helvetica,sans-Serif" font-size="10.00">QAbstractItemView</text>
</g>
<!-- Node1&#45;&gt;Node7 -->
<g id="edge6" class="edge"><title>Node1&#45;&gt;Node7</title>
<path fill="none" stroke="midnightblue" d="M834.482,-179.444C796.252,-170.102 734.933,-155.119 693.243,-144.933"/>
<polygon fill="midnightblue" stroke="midnightblue" points="693.899,-141.49 683.354,-142.516 692.238,-148.29 693.899,-141.49"/>
</g>
<!-- Node8 -->
<g id="node8" class="node"><title>Node8</title>
<polygon fill="white" stroke="#bfbfbf" points="720.5,-123.5 720.5,-142.5 774.5,-142.5 774.5,-123.5 720.5,-123.5"/>
<text text-anchor="middle" x="747.5" y="-130.5" font-family="Helvetica,sans-Serif" font-size="10.00">QAction</text>
</g>
<!-- Node1&#45;&gt;Node8 -->
<g id="edge7" class="edge"><title>Node1&#45;&gt;Node8</title>
<path fill="none" stroke="midnightblue" d="M850.169,-179.444C830.18,-170.596 798.757,-156.687 775.936,-146.586"/>
<polygon fill="midnightblue" stroke="midnightblue" points="777.302,-143.363 766.741,-142.516 774.468,-149.764 777.302,-143.363"/>
</g>
<!-- Node9 -->
<g id="node9" class="node"><title>Node9</title>
<polygon fill="white" stroke="#bfbfbf" points="793,-123.5 793,-142.5 870,-142.5 870,-123.5 793,-123.5"/>
<text text-anchor="middle" x="831.5" y="-130.5" font-family="Helvetica,sans-Serif" font-size="10.00">QComboBox</text>
</g>
<!-- Node1&#45;&gt;Node9 -->
<g id="edge8" class="edge"><title>Node1&#45;&gt;Node9</title>
<path fill="none" stroke="midnightblue" d="M863.225,-179.083C857.858,-171.455 849.982,-160.264 843.421,-150.941"/>
<polygon fill="midnightblue" stroke="midnightblue" points="846.275,-148.915 837.658,-142.751 840.551,-152.943 846.275,-148.915"/>
</g>
<!-- Node10 -->
<g id="node10" class="node"><title>Node10</title>
<polygon fill="white" stroke="#bfbfbf" points="888.5,-123.5 888.5,-142.5 926.5,-142.5 926.5,-123.5 888.5,-123.5"/>
<text text-anchor="middle" x="907.5" y="-130.5" font-family="Helvetica,sans-Serif" font-size="10.00">QDir</text>
</g>
<!-- Node1&#45;&gt;Node10 -->
<g id="edge9" class="edge"><title>Node1&#45;&gt;Node10</title>
<path fill="none" stroke="midnightblue" d="M875.775,-179.083C881.142,-171.455 889.018,-160.264 895.579,-150.941"/>
<polygon fill="midnightblue" stroke="midnightblue" points="898.449,-152.943 901.342,-142.751 892.725,-148.915 898.449,-152.943"/>
</g>
<!-- Node11 -->
<g id="node11" class="node"><title>Node11</title>
<polygon fill="white" stroke="#bfbfbf" points="944.5,-123.5 944.5,-142.5 1006.5,-142.5 1006.5,-123.5 944.5,-123.5"/>
<text text-anchor="middle" x="975.5" y="-130.5" font-family="Helvetica,sans-Serif" font-size="10.00">QLineEdit</text>
</g>
<!-- Node1&#45;&gt;Node11 -->
<g id="edge10" class="edge"><title>Node1&#45;&gt;Node11</title>
<path fill="none" stroke="midnightblue" d="M886.531,-179.324C903.53,-170.664 929.876,-157.242 949.493,-147.249"/>
<polygon fill="midnightblue" stroke="midnightblue" points="951.19,-150.312 958.512,-142.655 948.012,-144.075 951.19,-150.312"/>
</g>
<!-- Node12 -->
<g id="node12" class="node"><title>Node12</title>
<polygon fill="white" stroke="#bfbfbf" points="1024.5,-123.5 1024.5,-142.5 1106.5,-142.5 1106.5,-123.5 1024.5,-123.5"/>
<text text-anchor="middle" x="1065.5" y="-130.5" font-family="Helvetica,sans-Serif" font-size="10.00">QMainWindow</text>
</g>
<!-- Node1&#45;&gt;Node12 -->
<g id="edge11" class="edge"><title>Node1&#45;&gt;Node12</title>
<path fill="none" stroke="midnightblue" d="M900.557,-179.444C934.103,-170.201 987.697,-155.436 1024.64,-145.257"/>
<polygon fill="midnightblue" stroke="midnightblue" points="1025.88,-148.547 1034.59,-142.516 1024.02,-141.798 1025.88,-148.547"/>
</g>
<!-- Node13 -->
<g id="node13" class="node"><title>Node13</title>
<polygon fill="white" stroke="#bfbfbf" points="1124.5,-123.5 1124.5,-142.5 1188.5,-142.5 1188.5,-123.5 1124.5,-123.5"/>
<text text-anchor="middle" x="1156.5" y="-130.5" font-family="Helvetica,sans-Serif" font-size="10.00">QSettings</text>
</g>
<!-- Node1&#45;&gt;Node13 -->
<g id="edge12" class="edge"><title>Node1&#45;&gt;Node13</title>
<path fill="none" stroke="midnightblue" d="M911.371,-180.803C958.384,-172.619 1037.19,-158.595 1114.4,-143.168"/>
<polygon fill="midnightblue" stroke="midnightblue" points="1115.18,-146.582 1124.29,-141.182 1113.8,-139.719 1115.18,-146.582"/>
</g>
<!-- Node14 -->
<g id="node14" class="node"><title>Node14</title>
<polygon fill="white" stroke="#bfbfbf" points="1206.5,-123.5 1206.5,-142.5 1276.5,-142.5 1276.5,-123.5 1206.5,-123.5"/>
<text text-anchor="middle" x="1241.5" y="-130.5" font-family="Helvetica,sans-Serif" font-size="10.00">QTableView</text>
</g>
<!-- Node1&#45;&gt;Node14 -->
<g id="edge13" class="edge"><title>Node1&#45;&gt;Node14</title>
<path fill="none" stroke="midnightblue" d="M911.056,-183.183C971.557,-175.976 1087.65,-161.42 1196.32,-143.106"/>
<polygon fill="midnightblue" stroke="midnightblue" points="1197.2,-146.506 1206.47,-141.379 1196.03,-139.605 1197.2,-146.506"/>
</g>
<!-- Node15 -->
<g id="node15" class="node"><title>Node15</title>
<polygon fill="white" stroke="#bfbfbf" points="1295,-123.5 1295,-142.5 1346,-142.5 1346,-123.5 1295,-123.5"/>
<text text-anchor="middle" x="1320.5" y="-130.5" font-family="Helvetica,sans-Serif" font-size="10.00">QTimer</text>
</g>
<!-- Node1&#45;&gt;Node15 -->
<g id="edge14" class="edge"><title>Node1&#45;&gt;Node15</title>
<path fill="none" stroke="midnightblue" d="M911.115,-185.489C984.565,-180.626 1142.09,-168.27 1284.74,-142.866"/>
<polygon fill="midnightblue" stroke="midnightblue" points="1285.76,-146.238 1294.98,-141.015 1284.52,-139.35 1285.76,-146.238"/>
</g>
<!-- Node16 -->
<g id="node16" class="node"><title>Node16</title>
<polygon fill="white" stroke="#bfbfbf" points="1364,-123.5 1364,-142.5 1441,-142.5 1441,-123.5 1364,-123.5"/>
<text text-anchor="middle" x="1402.5" y="-130.5" font-family="Helvetica,sans-Serif" font-size="10.00">QUndoStack</text>
</g>
<!-- Node1&#45;&gt;Node16 -->
<g id="edge15" class="edge"><title>Node1&#45;&gt;Node16</title>
<path fill="none" stroke="midnightblue" d="M911.265,-185.501C993.903,-180.262 1184.27,-166.725 1353.72,-143.136"/>
<polygon fill="midnightblue" stroke="midnightblue" points="1354.41,-146.574 1363.82,-141.714 1353.43,-139.642 1354.41,-146.574"/>
</g>
<!-- Node17 -->
<g id="node17" class="node"><title>Node17</title>
<polygon fill="white" stroke="#bfbfbf" points="203,-62 203,-81 276,-81 276,-62 203,-62"/>
<text text-anchor="middle" x="239.5" y="-69" font-family="Helvetica,sans-Serif" font-size="10.00">src/model.h</text>
</g>
<!-- Node1&#45;&gt;Node17 -->
<g id="edge16" class="edge"><title>Node1&#45;&gt;Node17</title>
<path fill="none" stroke="midnightblue" d="M827.862,-186.931C760.233,-184.277 622.868,-175.048 511.5,-143 491.245,-137.171 488.541,-129.526 468.5,-123 389.681,-97.3346 365.819,-107.492 285.5,-87 282.069,-86.1248 278.517,-85.1431 274.977,-84.1141"/>
<polygon fill="midnightblue" stroke="midnightblue" points="275.729,-80.6849 265.144,-81.1375 273.701,-87.3846 275.729,-80.6849"/>
</g>
<!-- Node18 -->
<g id="node18" class="node"><title>Node18</title>
<polygon fill="white" stroke="#bfbfbf" points="1459,-123.5 1459,-142.5 1562,-142.5 1562,-123.5 1459,-123.5"/>
<text text-anchor="middle" x="1510.5" y="-130.5" font-family="Helvetica,sans-Serif" font-size="10.00">src/risk_analysis.h</text>
</g>
<!-- Node1&#45;&gt;Node18 -->
<g id="edge17" class="edge"><title>Node1&#45;&gt;Node18</title>
<path fill="none" stroke="midnightblue" d="M911.163,-185.8C1005.18,-180.614 1241.18,-166.361 1448.65,-143.14"/>
<polygon fill="midnightblue" stroke="midnightblue" points="1449.28,-146.592 1458.82,-141.992 1448.49,-139.636 1449.28,-146.592"/>
</g>
<!-- Node19 -->
<g id="node19" class="node"><title>Node19</title>
<polygon fill="white" stroke="#bfbfbf" points="1580,-123.5 1580,-142.5 1661,-142.5 1661,-123.5 1580,-123.5"/>
<text text-anchor="middle" x="1620.5" y="-130.5" font-family="Helvetica,sans-Serif" font-size="10.00">src/settings.h</text>
</g>
<!-- Node1&#45;&gt;Node19 -->
<g id="edge18" class="edge"><title>Node1&#45;&gt;Node19</title>
<path fill="none" stroke="midnightblue" d="M911.199,-187.038C1018.71,-184.192 1314.19,-174.059 1569.7,-143.087"/>
<polygon fill="midnightblue" stroke="midnightblue" points="1570.41,-146.525 1579.91,-141.834 1569.56,-139.577 1570.41,-146.525"/>
</g>
<!-- Node20 -->
<g id="node20" class="node"><title>Node20</title>
<g id="a_node20"><a xlink:href="model_8h.xhtml" target="_top" xlink:title="Wrapper Model classes for the MEF data. ">
<polygon fill="white" stroke="black" points="520.5,-123.5 520.5,-142.5 576.5,-142.5 576.5,-123.5 520.5,-123.5"/>
<text text-anchor="middle" x="548.5" y="-130.5" font-family="Helvetica,sans-Serif" font-size="10.00">model.h</text>
</a>
</g>
</g>
<!-- Node1&#45;&gt;Node20 -->
<g id="edge19" class="edge"><title>Node1&#45;&gt;Node20</title>
<path fill="none" stroke="midnightblue" d="M827.922,-182.494C774.369,-175.164 678.22,-161.201 586.711,-143.111"/>
<polygon fill="midnightblue" stroke="midnightblue" points="587.221,-139.644 576.729,-141.117 585.85,-146.508 587.221,-139.644"/>
</g>
<!-- Node33 -->
<g id="node33" class="node"><title>Node33</title>
<g id="a_node33"><a xlink:href="zoomableview_8h.xhtml" target="_top" xlink:title="Provides a GraphicsView with zoom in/out and other convenience features. ">
<polygon fill="white" stroke="black" points="1679.5,-123.5 1679.5,-142.5 1771.5,-142.5 1771.5,-123.5 1679.5,-123.5"/>
<text text-anchor="middle" x="1725.5" y="-130.5" font-family="Helvetica,sans-Serif" font-size="10.00">zoomableview.h</text>
</a>
</g>
</g>
<!-- Node1&#45;&gt;Node33 -->
<g id="edge38" class="edge"><title>Node1&#45;&gt;Node33</title>
<path fill="none" stroke="midnightblue" d="M911.323,-187.213C1029.03,-184.667 1373.28,-174.935 1669.27,-143.015"/>
<polygon fill="midnightblue" stroke="midnightblue" points="1669.77,-146.481 1679.34,-141.919 1669.02,-139.522 1669.77,-146.481"/>
</g>
<!-- Node20&#45;&gt;Node4 -->
<g id="edge20" class="edge"><title>Node20&#45;&gt;Node4</title>
<path fill="none" stroke="midnightblue" d="M520.282,-130.374C430.758,-125.056 153.879,-107.349 66.5,-87 63.502,-86.3018 60.4231,-85.4209 57.3778,-84.4398"/>
<polygon fill="midnightblue" stroke="midnightblue" points="58.4996,-81.124 47.9049,-81.0654 56.1506,-87.7182 58.4996,-81.124"/>
</g>
<!-- Node20&#45;&gt;Node5 -->
<g id="edge22" class="edge"><title>Node20&#45;&gt;Node5</title>
<path fill="none" stroke="midnightblue" d="M520.425,-129.534C432.516,-121.735 166.158,-97.5081 128.5,-87 126.569,-86.461 124.607,-85.8121 122.658,-85.0917"/>
<polygon fill="midnightblue" stroke="midnightblue" points="123.775,-81.7632 113.202,-81.0707 121.035,-88.2049 123.775,-81.7632"/>
</g>
<!-- Node20&#45;&gt;Node6 -->
<g id="edge24" class="edge"><title>Node20&#45;&gt;Node6</title>
<path fill="none" stroke="midnightblue" d="M520.334,-128.663C439.114,-119.008 209.229,-91.451 193.5,-87 191.563,-86.452 189.594,-85.8043 187.633,-85.0917"/>
<polygon fill="midnightblue" stroke="midnightblue" points="188.662,-81.7301 178.083,-81.1496 185.991,-88.2005 188.662,-81.7301"/>
</g>
<!-- Node20&#45;&gt;Node17 -->
<g id="edge34" class="edge"><title>Node20&#45;&gt;Node17</title>
<path fill="none" stroke="midnightblue" d="M520.072,-125.709C515.54,-124.763 510.897,-123.829 506.5,-123 408.705,-104.568 382.318,-110.019 285.5,-87 281.865,-86.1357 278.099,-85.1321 274.359,-84.0641"/>
<polygon fill="midnightblue" stroke="midnightblue" points="275.209,-80.6651 264.625,-81.1378 273.194,-87.3687 275.209,-80.6651"/>
</g>
<!-- Node21 -->
<g id="node21" class="node"><title>Node21</title>
<polygon fill="white" stroke="#bfbfbf" points="928,-62 928,-81 983,-81 983,-62 928,-62"/>
<text text-anchor="middle" x="955.5" y="-69" font-family="Helvetica,sans-Serif" font-size="10.00">optional</text>
</g>
<!-- Node20&#45;&gt;Node21 -->
<g id="edge21" class="edge"><title>Node20&#45;&gt;Node21</title>
<path fill="none" stroke="midnightblue" d="M576.702,-124.737C579.661,-124.096 582.635,-123.501 585.5,-123 732.136,-97.3531 773.925,-122.471 918.5,-87 921.327,-86.3065 924.227,-85.4477 927.099,-84.4971"/>
<polygon fill="midnightblue" stroke="midnightblue" points="928.422,-87.74 936.611,-81.0173 926.017,-81.1661 928.422,-87.74"/>
</g>
<!-- Node22 -->
<g id="node22" class="node"><title>Node22</title>
<polygon fill="white" stroke="#bfbfbf" points="984.5,-0.5 984.5,-19.5 1052.5,-19.5 1052.5,-0.5 984.5,-0.5"/>
<text text-anchor="middle" x="1018.5" y="-7.5" font-family="Helvetica,sans-Serif" font-size="10.00">type_traits</text>
</g>
<!-- Node20&#45;&gt;Node22 -->
<g id="edge23" class="edge"><title>Node20&#45;&gt;Node22</title>
<path fill="none" stroke="midnightblue" d="M576.692,-124.68C579.654,-124.05 582.63,-123.474 585.5,-123 674.868,-108.255 919.887,-142.458 991.5,-87 1009.02,-73.4327 1015.2,-47.5974 1017.36,-29.8458"/>
<polygon fill="midnightblue" stroke="midnightblue" points="1020.85,-30.0626 1018.27,-19.7886 1013.88,-29.4337 1020.85,-30.0626"/>
</g>
<!-- Node23 -->
<g id="node23" class="node"><title>Node23</title>
<polygon fill="white" stroke="#bfbfbf" points="1169.5,-56.5 1169.5,-86.5 1309.5,-86.5 1309.5,-56.5 1169.5,-56.5"/>
<text text-anchor="start" x="1177.5" y="-74.5" font-family="Helvetica,sans-Serif" font-size="10.00">boost/multi_index/hashed</text>
<text text-anchor="middle" x="1239.5" y="-63.5" font-family="Helvetica,sans-Serif" font-size="10.00">_index.hpp</text>
</g>
<!-- Node20&#45;&gt;Node23 -->
<g id="edge25" class="edge"><title>Node20&#45;&gt;Node23</title>
<path fill="none" stroke="midnightblue" d="M576.68,-124.606C579.644,-123.99 582.624,-123.437 585.5,-123 836.456,-84.8557 903.397,-116.632 1155.5,-87 1156.78,-86.8494 1158.07,-86.6922 1159.37,-86.5291"/>
<polygon fill="midnightblue" stroke="midnightblue" points="1160.01,-89.9747 1169.46,-85.1725 1159.08,-83.0372 1160.01,-89.9747"/>
</g>
<!-- Node24 -->
<g id="node24" class="node"><title>Node24</title>
<polygon fill="white" stroke="#bfbfbf" points="1327.5,-56.5 1327.5,-86.5 1457.5,-86.5 1457.5,-56.5 1327.5,-56.5"/>
<text text-anchor="start" x="1335.5" y="-74.5" font-family="Helvetica,sans-Serif" font-size="10.00">boost/multi_index/mem</text>
<text text-anchor="middle" x="1392.5" y="-63.5" font-family="Helvetica,sans-Serif" font-size="10.00">_fun.hpp</text>
</g>
<!-- Node20&#45;&gt;Node24 -->
<g id="edge26" class="edge"><title>Node20&#45;&gt;Node24</title>
<path fill="none" stroke="midnightblue" d="M576.674,-124.564C579.639,-123.956 582.621,-123.417 585.5,-123 904.992,-76.7242 992.928,-125.443 1317.06,-87.0454"/>
<polygon fill="midnightblue" stroke="midnightblue" points="1317.7,-90.4936 1327.21,-85.8237 1316.87,-83.5438 1317.7,-90.4936"/>
</g>
<!-- Node25 -->
<g id="node25" class="node"><title>Node25</title>
<polygon fill="white" stroke="#bfbfbf" points="294.5,-62 294.5,-81 466.5,-81 466.5,-62 294.5,-62"/>
<text text-anchor="middle" x="380.5" y="-69" font-family="Helvetica,sans-Serif" font-size="10.00">boost/multi_index_container.hpp</text>
</g>
<!-- Node20&#45;&gt;Node25 -->
<g id="edge27" class="edge"><title>Node20&#45;&gt;Node25</title>
<path fill="none" stroke="midnightblue" d="M524.43,-123.475C495.487,-113.225 446.738,-95.9593 414.098,-84.3994"/>
<polygon fill="midnightblue" stroke="midnightblue" points="415.12,-81.0484 404.526,-81.0091 412.783,-87.6468 415.12,-81.0484"/>
</g>
<!-- Node26 -->
<g id="node26" class="node"><title>Node26</title>
<polygon fill="white" stroke="#bfbfbf" points="485,-62 485,-81 540,-81 540,-62 485,-62"/>
<text text-anchor="middle" x="512.5" y="-69" font-family="Helvetica,sans-Serif" font-size="10.00">QObject</text>
</g>
<!-- Node20&#45;&gt;Node26 -->
<g id="edge28" class="edge"><title>Node20&#45;&gt;Node26</title>
<path fill="none" stroke="midnightblue" d="M543.342,-123.475C538.049,-114.727 529.665,-100.869 522.973,-89.8093"/>
<polygon fill="midnightblue" stroke="midnightblue" points="525.82,-87.7531 517.648,-81.0091 519.83,-91.3768 525.82,-87.7531"/>
</g>
<!-- Node27 -->
<g id="node27" class="node"><title>Node27</title>
<polygon fill="white" stroke="#bfbfbf" points="558,-62 558,-81 611,-81 611,-62 558,-62"/>
<text text-anchor="middle" x="584.5" y="-69" font-family="Helvetica,sans-Serif" font-size="10.00">QString</text>
</g>
<!-- Node20&#45;&gt;Node27 -->
<g id="edge29" class="edge"><title>Node20&#45;&gt;Node27</title>
<path fill="none" stroke="midnightblue" d="M553.658,-123.475C558.951,-114.727 567.335,-100.869 574.027,-89.8093"/>
<polygon fill="midnightblue" stroke="midnightblue" points="577.17,-91.3768 579.352,-81.0091 571.18,-87.7531 577.17,-91.3768"/>
</g>
<!-- Node28 -->
<g id="node28" class="node"><title>Node28</title>
<polygon fill="white" stroke="#bfbfbf" points="1084.5,-0.5 1084.5,-19.5 1184.5,-19.5 1184.5,-0.5 1084.5,-0.5"/>
<text text-anchor="middle" x="1134.5" y="-7.5" font-family="Helvetica,sans-Serif" font-size="10.00">QUndoCommand</text>
</g>
<!-- Node20&#45;&gt;Node28 -->
<g id="edge30" class="edge"><title>Node20&#45;&gt;Node28</title>
<path fill="none" stroke="midnightblue" d="M576.682,-124.617C579.645,-123.999 582.625,-123.443 585.5,-123 644.604,-113.9 1078.36,-127.348 1122.5,-87 1138.03,-72.8051 1138.99,-47.3095 1137.43,-29.7914"/>
<polygon fill="midnightblue" stroke="midnightblue" points="1140.88,-29.1238 1136.17,-19.6304 1133.93,-29.9851 1140.88,-29.1238"/>
</g>
<!-- Node29 -->
<g id="node29" class="node"><title>Node29</title>
<polygon fill="white" stroke="#bfbfbf" points="629.5,-62 629.5,-81 687.5,-81 687.5,-62 629.5,-62"/>
<text text-anchor="middle" x="658.5" y="-69" font-family="Helvetica,sans-Serif" font-size="10.00">QVariant</text>
</g>
<!-- Node20&#45;&gt;Node29 -->
<g id="edge31" class="edge"><title>Node20&#45;&gt;Node29</title>
<path fill="none" stroke="midnightblue" d="M564.26,-123.475C582.476,-113.622 612.673,-97.2883 633.968,-85.7697"/>
<polygon fill="midnightblue" stroke="midnightblue" points="635.638,-88.8453 642.769,-81.0091 632.308,-82.6883 635.638,-88.8453"/>
</g>
<!-- Node30 -->
<g id="node30" class="node"><title>Node30</title>
<polygon fill="white" stroke="#bfbfbf" points="705.5,-62 705.5,-81 775.5,-81 775.5,-62 705.5,-62"/>
<text text-anchor="middle" x="740.5" y="-69" font-family="Helvetica,sans-Serif" font-size="10.00">src/event.h</text>
</g>
<!-- Node20&#45;&gt;Node30 -->
<g id="edge32" class="edge"><title>Node20&#45;&gt;Node30</title>
<path fill="none" stroke="midnightblue" d="M576.657,-123.65C606.477,-114.758 654.896,-100.178 696.5,-87 699.397,-86.0824 702.397,-85.1198 705.407,-84.1455"/>
<polygon fill="midnightblue" stroke="midnightblue" points="706.519,-87.4644 714.939,-81.0344 704.347,-80.8099 706.519,-87.4644"/>
</g>
<!-- Node31 -->
<g id="node31" class="node"><title>Node31</title>
<polygon fill="white" stroke="#bfbfbf" points="793.5,-62 793.5,-81 909.5,-81 909.5,-62 793.5,-62"/>
<text text-anchor="middle" x="851.5" y="-69" font-family="Helvetica,sans-Serif" font-size="10.00">src/ext/multi_index.h</text>
</g>
<!-- Node20&#45;&gt;Node31 -->
<g id="edge33" class="edge"><title>Node20&#45;&gt;Node31</title>
<path fill="none" stroke="midnightblue" d="M576.742,-124.947C579.694,-124.264 582.654,-123.603 585.5,-123 673.428,-104.37 696.342,-104.508 784.5,-87 790.628,-85.7829 797.061,-84.4551 803.415,-83.1134"/>
<polygon fill="midnightblue" stroke="midnightblue" points="804.233,-86.5179 813.281,-81.0071 802.771,-79.6721 804.233,-86.5179"/>
</g>
<!-- Node32 -->
<g id="node32" class="node"><title>Node32</title>
<g id="a_node32"><a xlink:href="command_8h.xhtml" target="_top" xlink:title="Undo&#45;redo helper facilities based on the Qt Undo framework. ">
<polygon fill="white" stroke="black" points="1039.5,-62 1039.5,-81 1113.5,-81 1113.5,-62 1039.5,-62"/>
<text text-anchor="middle" x="1076.5" y="-69" font-family="Helvetica,sans-Serif" font-size="10.00">command.h</text>
</a>
</g>
</g>
<!-- Node20&#45;&gt;Node32 -->
<g id="edge35" class="edge"><title>Node20&#45;&gt;Node32</title>
<path fill="none" stroke="midnightblue" d="M576.689,-124.66C579.651,-124.034 582.628,-123.464 585.5,-123 779.199,-91.7165 832.437,-121.996 1025.5,-87 1030.34,-86.1226 1035.38,-84.9798 1040.33,-83.7205"/>
<polygon fill="midnightblue" stroke="midnightblue" points="1041.53,-87.0213 1050.26,-81.0197 1039.69,-80.2667 1041.53,-87.0213"/>
</g>
<!-- Node32&#45;&gt;Node22 -->
<g id="edge36" class="edge"><title>Node32&#45;&gt;Node22</title>
<path fill="none" stroke="midnightblue" d="M1068.19,-61.9751C1059.32,-52.8733 1045.05,-38.241 1034.08,-26.983"/>
<polygon fill="midnightblue" stroke="midnightblue" points="1036.28,-24.2268 1026.79,-19.5091 1031.27,-29.113 1036.28,-24.2268"/>
</g>
<!-- Node32&#45;&gt;Node28 -->
<g id="edge37" class="edge"><title>Node32&#45;&gt;Node28</title>
<path fill="none" stroke="midnightblue" d="M1084.81,-61.9751C1093.68,-52.8733 1107.95,-38.241 1118.92,-26.983"/>
<polygon fill="midnightblue" stroke="midnightblue" points="1121.73,-29.113 1126.21,-19.5091 1116.72,-24.2268 1121.73,-29.113"/>
</g>
<!-- Node34 -->
<g id="node34" class="node"><title>Node34</title>
<polygon fill="white" stroke="#bfbfbf" points="1630.5,-62 1630.5,-81 1718.5,-81 1718.5,-62 1630.5,-62"/>
<text text-anchor="middle" x="1674.5" y="-69" font-family="Helvetica,sans-Serif" font-size="10.00">QGraphicsView</text>
</g>
<!-- Node33&#45;&gt;Node34 -->
<g id="edge39" class="edge"><title>Node33&#45;&gt;Node34</title>
<path fill="none" stroke="midnightblue" d="M1718.19,-123.475C1710.47,-114.462 1698.09,-100.025 1688.48,-88.8118"/>
<polygon fill="midnightblue" stroke="midnightblue" points="1690.96,-86.3239 1681.79,-81.0091 1685.64,-90.8795 1690.96,-86.3239"/>
</g>
<!-- Node35 -->
<g id="node35" class="node"><title>Node35</title>
<polygon fill="white" stroke="#bfbfbf" points="1736.5,-62 1736.5,-81 1816.5,-81 1816.5,-62 1736.5,-62"/>
<text text-anchor="middle" x="1776.5" y="-69" font-family="Helvetica,sans-Serif" font-size="10.00">QWheelEvent</text>
</g>
<!-- Node33&#45;&gt;Node35 -->
<g id="edge40" class="edge"><title>Node33&#45;&gt;Node35</title>
<path fill="none" stroke="midnightblue" d="M1732.81,-123.475C1740.53,-114.462 1752.91,-100.025 1762.52,-88.8118"/>
<polygon fill="midnightblue" stroke="midnightblue" points="1765.36,-90.8795 1769.21,-81.0091 1760.04,-86.3239 1765.36,-90.8795"/>
</g>
</g>
</svg>
