<?xml version="1.0" encoding="UTF-8" standalone="no"?>
<!DOCTYPE svg PUBLIC "-//W3C//DTD SVG 1.1//EN"
 "http://www.w3.org/Graphics/SVG/1.1/DTD/svg11.dtd">
<!-- Generated by graphviz version 2.38.0 (20140413.2041)
 -->
<!-- Title: modeltree.cpp Pages: 1 -->
<!--zoomable 274 -->
<svg id="main" version="1.1" xmlns="http://www.w3.org/2000/svg" xmlns:xlink="http://www.w3.org/1999/xlink" xml:space="preserve" onload="init(evt)">
<style type="text/css"><![CDATA[
.edge:hover path { stroke: red; }
.edge:hover polygon { stroke: red; fill: red; }
]]></style>
<script type="text/javascript"><![CDATA[
var edges = document.getElementsByTagName('g');
if (edges && edges.length) {
  for (var i=0;i<edges.length;i++) {
    if (edges[i].id.substr(0,4)=='edge') {
      edges[i].setAttribute('class','edge');
    }
  }
}
]]></script>
        <defs>
                <circle id="rim" cx="0" cy="0" r="7"/>
                <circle id="rim2" cx="0" cy="0" r="3.5"/>
                <g id="zoomPlus">
                        <use xlink:href="#rim" fill="#404040">
                                <set attributeName="fill" to="#808080" begin="zoomplus.mouseover" end="zoomplus.mouseout"/>
                        </use>
                        <path d="M-4,0h8M0,-4v8" fill="none" stroke="white" stroke-width="1.5" pointer-events="none"/>
                </g>
                <g id="zoomMin">
                        <use xlink:href="#rim" fill="#404040">
                                <set attributeName="fill" to="#808080" begin="zoomminus.mouseover" end="zoomminus.mouseout"/>
                        </use>
                        <path d="M-4,0h8" fill="none" stroke="white" stroke-width="1.5" pointer-events="none"/>
                </g>
                <g id="dirArrow">
                        <path fill="none" stroke="white" stroke-width="1.5" d="M0,-3.0v7 M-2.5,-0.5L0,-3.0L2.5,-0.5"/>
                </g>
               <g id="resetDef">
                       <use xlink:href="#rim2" fill="#404040">
                               <set attributeName="fill" to="#808080" begin="reset.mouseover" end="reset.mouseout"/>
                       </use>
               </g>
        </defs>

<script type="text/javascript">
var viewWidth = 1537;
var viewHeight = 274;
var sectionId = 'dynsection-0';
</script>
<script xlink:href="svgpan.js"/>
<svg id="graph" class="graph">
<g id="viewport">
<title>modeltree.cpp</title>
<polygon fill="white" stroke="none" points="-4,4 -4,-270 1533,-270 1533,4 -4,4"/>
<!-- Node1 -->
<g id="node1" class="node"><title>Node1</title>
<polygon fill="#bfbfbf" stroke="black" points="1329.5,-246.5 1329.5,-265.5 1415.5,-265.5 1415.5,-246.5 1329.5,-246.5"/>
<text text-anchor="middle" x="1372.5" y="-253.5" font-family="Helvetica,sans-Serif" font-size="10.00">modeltree.cpp</text>
</g>
<!-- Node2 -->
<g id="node2" class="node"><title>Node2</title>
<g id="a_node2"><a xlink:href="modeltree_8h.xhtml" target="_top" xlink:title="The main tree representation of the Model. ">
<polygon fill="white" stroke="black" points="978,-190.5 978,-209.5 1053,-209.5 1053,-190.5 978,-190.5"/>
<text text-anchor="middle" x="1015.5" y="-197.5" font-family="Helvetica,sans-Serif" font-size="10.00">modeltree.h</text>
</a>
</g>
</g>
<!-- Node1&#45;&gt;Node2 -->
<g id="edge1" class="edge"><title>Node1&#45;&gt;Node2</title>
<path fill="none" stroke="midnightblue" d="M1329.44,-248.486C1262.32,-238.334 1133.22,-218.807 1063.31,-208.231"/>
<polygon fill="midnightblue" stroke="midnightblue" points="1063.44,-204.711 1053.02,-206.676 1062.39,-211.632 1063.44,-204.711"/>
</g>
<!-- Node24 -->
<g id="node24" class="node"><title>Node24</title>
<g id="a_node24"><a xlink:href="guiassert_8h.xhtml" target="_top" xlink:title="GUI assertions that should not crash the program by default. ">
<polygon fill="white" stroke="black" points="1337.5,-190.5 1337.5,-209.5 1407.5,-209.5 1407.5,-190.5 1337.5,-190.5"/>
<text text-anchor="middle" x="1372.5" y="-197.5" font-family="Helvetica,sans-Serif" font-size="10.00">guiassert.h</text>
</a>
</g>
</g>
<!-- Node1&#45;&gt;Node24 -->
<g id="edge25" class="edge"><title>Node1&#45;&gt;Node24</title>
<path fill="none" stroke="midnightblue" d="M1372.5,-246.083C1372.5,-239.006 1372.5,-228.861 1372.5,-219.986"/>
<polygon fill="midnightblue" stroke="midnightblue" points="1376,-219.751 1372.5,-209.751 1369,-219.751 1376,-219.751"/>
</g>
<!-- Node27 -->
<g id="node27" class="node"><title>Node27</title>
<g id="a_node27"><a xlink:href="overload_8h.xhtml" target="_top" xlink:title="Facilities to help with pointers to overloaded functions. ">
<polygon fill="white" stroke="black" points="1426,-190.5 1426,-209.5 1493,-209.5 1493,-190.5 1426,-190.5"/>
<text text-anchor="middle" x="1459.5" y="-197.5" font-family="Helvetica,sans-Serif" font-size="10.00">overload.h</text>
</a>
</g>
</g>
<!-- Node1&#45;&gt;Node27 -->
<g id="edge29" class="edge"><title>Node1&#45;&gt;Node27</title>
<path fill="none" stroke="midnightblue" d="M1386.48,-246.324C1400.05,-237.9 1420.88,-224.971 1436.82,-215.074"/>
<polygon fill="midnightblue" stroke="midnightblue" points="1438.91,-217.902 1445.56,-209.655 1435.21,-211.954 1438.91,-217.902"/>
</g>
<!-- Node3 -->
<g id="node3" class="node"><title>Node3</title>
<polygon fill="white" stroke="#bfbfbf" points="892,-129 892,-148 1007,-148 1007,-129 892,-129"/>
<text text-anchor="middle" x="949.5" y="-136" font-family="Helvetica,sans-Serif" font-size="10.00">QAbstractItemModel</text>
</g>
<!-- Node2&#45;&gt;Node3 -->
<g id="edge2" class="edge"><title>Node2&#45;&gt;Node3</title>
<path fill="none" stroke="midnightblue" d="M1006.04,-190.475C995.752,-181.197 979.084,-166.171 966.506,-154.831"/>
<polygon fill="midnightblue" stroke="midnightblue" points="968.71,-152.105 958.939,-148.009 964.022,-157.305 968.71,-152.105"/>
</g>
<!-- Node4 -->
<g id="node4" class="node"><title>Node4</title>
<polygon fill="white" stroke="#bfbfbf" points="1025.5,-123.5 1025.5,-153.5 1135.5,-153.5 1135.5,-123.5 1025.5,-123.5"/>
<text text-anchor="start" x="1033.5" y="-141.5" font-family="Helvetica,sans-Serif" font-size="10.00">boost/container/flat</text>
<text text-anchor="middle" x="1080.5" y="-130.5" font-family="Helvetica,sans-Serif" font-size="10.00">_set.hpp</text>
</g>
<!-- Node2&#45;&gt;Node4 -->
<g id="edge3" class="edge"><title>Node2&#45;&gt;Node4</title>
<path fill="none" stroke="midnightblue" d="M1024.81,-190.475C1033.37,-182.643 1046.4,-170.714 1057.71,-160.366"/>
<polygon fill="midnightblue" stroke="midnightblue" points="1060.17,-162.857 1065.18,-153.523 1055.44,-157.693 1060.17,-162.857"/>
</g>
<!-- Node5 -->
<g id="node5" class="node"><title>Node5</title>
<polygon fill="white" stroke="#bfbfbf" points="1154,-129 1154,-148 1237,-148 1237,-129 1154,-129"/>
<text text-anchor="middle" x="1195.5" y="-136" font-family="Helvetica,sans-Serif" font-size="10.00">src/element.h</text>
</g>
<!-- Node2&#45;&gt;Node5 -->
<g id="edge4" class="edge"><title>Node2&#45;&gt;Node5</title>
<path fill="none" stroke="midnightblue" d="M1041.29,-190.475C1072.43,-180.18 1124.98,-162.81 1159.95,-151.25"/>
<polygon fill="midnightblue" stroke="midnightblue" points="1161.36,-154.471 1169.76,-148.009 1159.16,-147.825 1161.36,-154.471"/>
</g>
<!-- Node6 -->
<g id="node6" class="node"><title>Node6</title>
<polygon fill="white" stroke="#bfbfbf" points="712,-129 712,-148 801,-148 801,-129 712,-129"/>
<text text-anchor="middle" x="756.5" y="-136" font-family="Helvetica,sans-Serif" font-size="10.00">src/fault_tree.h</text>
</g>
<!-- Node2&#45;&gt;Node6 -->
<g id="edge5" class="edge"><title>Node2&#45;&gt;Node6</title>
<path fill="none" stroke="midnightblue" d="M977.774,-191.373C936.361,-182.857 867.978,-168.376 809.5,-154 805.331,-152.975 800.991,-151.863 796.667,-150.725"/>
<polygon fill="midnightblue" stroke="midnightblue" points="797.264,-147.261 786.699,-148.054 795.452,-154.023 797.264,-147.261"/>
</g>
<!-- Node7 -->
<g id="node7" class="node"><title>Node7</title>
<g id="a_node7"><a xlink:href="model_8h.xhtml" target="_top" xlink:title="Wrapper Model classes for the MEF data. ">
<polygon fill="white" stroke="black" points="818.5,-129 818.5,-148 874.5,-148 874.5,-129 818.5,-129"/>
<text text-anchor="middle" x="846.5" y="-136" font-family="Helvetica,sans-Serif" font-size="10.00">model.h</text>
</a>
</g>
</g>
<!-- Node2&#45;&gt;Node7 -->
<g id="edge6" class="edge"><title>Node2&#45;&gt;Node7</title>
<path fill="none" stroke="midnightblue" d="M988.848,-190.474C961.885,-181.734 919.076,-167.541 882.5,-154 880.652,-153.316 878.756,-152.599 876.847,-151.865"/>
<polygon fill="midnightblue" stroke="midnightblue" points="877.949,-148.537 867.362,-148.135 875.388,-155.052 877.949,-148.537"/>
</g>
<!-- Node8 -->
<g id="node8" class="node"><title>Node8</title>
<polygon fill="white" stroke="#bfbfbf" points="1330,-62 1330,-81 1387,-81 1387,-62 1330,-62"/>
<text text-anchor="middle" x="1358.5" y="-69" font-family="Helvetica,sans-Serif" font-size="10.00">memory</text>
</g>
<!-- Node7&#45;&gt;Node8 -->
<g id="edge7" class="edge"><title>Node7&#45;&gt;Node8</title>
<path fill="none" stroke="midnightblue" d="M864.837,-128.882C870.398,-126.607 876.6,-124.4 882.5,-123 1070.39,-78.426 1126.4,-126.139 1315.5,-87 1319.19,-86.2365 1323,-85.2525 1326.76,-84.1568"/>
<polygon fill="midnightblue" stroke="midnightblue" points="1328,-87.436 1336.47,-81.0709 1325.88,-80.765 1328,-87.436"/>
</g>
<!-- Node9 -->
<g id="node9" class="node"><title>Node9</title>
<polygon fill="white" stroke="#bfbfbf" points="0,-62 0,-81 55,-81 55,-62 0,-62"/>
<text text-anchor="middle" x="27.5" y="-69" font-family="Helvetica,sans-Serif" font-size="10.00">optional</text>
</g>
<!-- Node7&#45;&gt;Node9 -->
<g id="edge8" class="edge"><title>Node7&#45;&gt;Node9</title>
<path fill="none" stroke="midnightblue" d="M828.043,-128.908C822.231,-126.575 815.707,-124.329 809.5,-123 485.347,-53.6073 388.653,-156.393 64.5,-87 61.4936,-86.3564 58.4128,-85.4975 55.3744,-84.5178"/>
<polygon fill="midnightblue" stroke="midnightblue" points="56.5513,-81.2215 45.9572,-81.0921 54.1582,-87.7998 56.5513,-81.2215"/>
</g>
<!-- Node10 -->
<g id="node10" class="node"><title>Node10</title>
<polygon fill="white" stroke="#bfbfbf" points="73.5,-62 73.5,-81 117.5,-81 117.5,-62 73.5,-62"/>
<text text-anchor="middle" x="95.5" y="-69" font-family="Helvetica,sans-Serif" font-size="10.00">string</text>
</g>
<!-- Node7&#45;&gt;Node10 -->
<g id="edge9" class="edge"><title>Node7&#45;&gt;Node10</title>
<path fill="none" stroke="midnightblue" d="M828.039,-128.926C822.227,-126.594 815.704,-124.343 809.5,-123 514.579,-59.1302 426.118,-152.255 131.5,-87 128.663,-86.3716 125.76,-85.5435 122.894,-84.6007"/>
<polygon fill="midnightblue" stroke="midnightblue" points="124.035,-81.2906 113.442,-81.0775 121.59,-87.8498 124.035,-81.2906"/>
</g>
<!-- Node11 -->
<g id="node11" class="node"><title>Node11</title>
<polygon fill="white" stroke="#bfbfbf" points="611.5,-0.5 611.5,-19.5 679.5,-19.5 679.5,-0.5 611.5,-0.5"/>
<text text-anchor="middle" x="645.5" y="-7.5" font-family="Helvetica,sans-Serif" font-size="10.00">type_traits</text>
</g>
<!-- Node7&#45;&gt;Node11 -->
<g id="edge10" class="edge"><title>Node7&#45;&gt;Node11</title>
<path fill="none" stroke="midnightblue" d="M828.037,-128.936C822.224,-126.605 815.702,-124.352 809.5,-123 739.369,-107.712 213.82,-139.15 164.5,-87 155.033,-76.9899 155.222,-66.186 164.5,-56 193.595,-24.0561 487.51,-14.3812 601.061,-11.8223"/>
<polygon fill="midnightblue" stroke="midnightblue" points="601.233,-15.3195 611.154,-11.603 601.081,-8.32113 601.233,-15.3195"/>
</g>
<!-- Node12 -->
<g id="node12" class="node"><title>Node12</title>
<polygon fill="white" stroke="#bfbfbf" points="174,-62 174,-81 221,-81 221,-62 174,-62"/>
<text text-anchor="middle" x="197.5" y="-69" font-family="Helvetica,sans-Serif" font-size="10.00">vector</text>
</g>
<!-- Node7&#45;&gt;Node12 -->
<g id="edge11" class="edge"><title>Node7&#45;&gt;Node12</title>
<path fill="none" stroke="midnightblue" d="M828.031,-128.961C822.219,-126.63 815.697,-124.372 809.5,-123 557.761,-67.2883 481.06,-147.798 230.5,-87 228.14,-86.4273 225.737,-85.6949 223.358,-84.8645"/>
<polygon fill="midnightblue" stroke="midnightblue" points="224.473,-81.5405 213.889,-81.0565 221.861,-88.035 224.473,-81.5405"/>
</g>
<!-- Node13 -->
<g id="node13" class="node"><title>Node13</title>
<polygon fill="white" stroke="#bfbfbf" points="239.5,-56.5 239.5,-86.5 379.5,-86.5 379.5,-56.5 239.5,-56.5"/>
<text text-anchor="start" x="247.5" y="-74.5" font-family="Helvetica,sans-Serif" font-size="10.00">boost/multi_index/hashed</text>
<text text-anchor="middle" x="309.5" y="-63.5" font-family="Helvetica,sans-Serif" font-size="10.00">_index.hpp</text>
</g>
<!-- Node7&#45;&gt;Node13 -->
<g id="edge12" class="edge"><title>Node7&#45;&gt;Node13</title>
<path fill="none" stroke="midnightblue" d="M827.631,-128.897C821.915,-126.623 815.547,-124.412 809.5,-123 629.84,-81.0475 576.494,-110.889 389.806,-87.0694"/>
<polygon fill="midnightblue" stroke="midnightblue" points="390.026,-83.5684 379.655,-85.7386 389.116,-90.509 390.026,-83.5684"/>
</g>
<!-- Node14 -->
<g id="node14" class="node"><title>Node14</title>
<polygon fill="white" stroke="#bfbfbf" points="397.5,-56.5 397.5,-86.5 527.5,-86.5 527.5,-56.5 397.5,-56.5"/>
<text text-anchor="start" x="405.5" y="-74.5" font-family="Helvetica,sans-Serif" font-size="10.00">boost/multi_index/mem</text>
<text text-anchor="middle" x="462.5" y="-63.5" font-family="Helvetica,sans-Serif" font-size="10.00">_fun.hpp</text>
</g>
<!-- Node7&#45;&gt;Node14 -->
<g id="edge13" class="edge"><title>Node7&#45;&gt;Node14</title>
<path fill="none" stroke="midnightblue" d="M827.206,-128.92C821.588,-126.703 815.379,-124.516 809.5,-123 694.116,-93.2542 659.112,-106.052 537.873,-87.1384"/>
<polygon fill="midnightblue" stroke="midnightblue" points="538.258,-83.6555 527.83,-85.5306 537.151,-90.5675 538.258,-83.6555"/>
</g>
<!-- Node15 -->
<g id="node15" class="node"><title>Node15</title>
<polygon fill="white" stroke="#bfbfbf" points="545.5,-62 545.5,-81 717.5,-81 717.5,-62 545.5,-62"/>
<text text-anchor="middle" x="631.5" y="-69" font-family="Helvetica,sans-Serif" font-size="10.00">boost/multi_index_container.hpp</text>
</g>
<!-- Node7&#45;&gt;Node15 -->
<g id="edge14" class="edge"><title>Node7&#45;&gt;Node15</title>
<path fill="none" stroke="midnightblue" d="M825.498,-128.862C820.305,-126.839 814.731,-124.762 809.5,-123 764.145,-107.719 711.29,-93.1197 675.028,-83.5844"/>
<polygon fill="midnightblue" stroke="midnightblue" points="675.821,-80.174 665.261,-81.0329 674.051,-86.9468 675.821,-80.174"/>
</g>
<!-- Node16 -->
<g id="node16" class="node"><title>Node16</title>
<polygon fill="white" stroke="#bfbfbf" points="736,-62 736,-81 791,-81 791,-62 736,-62"/>
<text text-anchor="middle" x="763.5" y="-69" font-family="Helvetica,sans-Serif" font-size="10.00">QObject</text>
</g>
<!-- Node7&#45;&gt;Node16 -->
<g id="edge15" class="edge"><title>Node7&#45;&gt;Node16</title>
<path fill="none" stroke="midnightblue" d="M835.306,-128.734C821.866,-118.208 799.1,-100.379 782.804,-87.6174"/>
<polygon fill="midnightblue" stroke="midnightblue" points="784.547,-84.5374 774.516,-81.1273 780.231,-90.0486 784.547,-84.5374"/>
</g>
<!-- Node17 -->
<g id="node17" class="node"><title>Node17</title>
<polygon fill="white" stroke="#bfbfbf" points="1405,-62 1405,-81 1458,-81 1458,-62 1405,-62"/>
<text text-anchor="middle" x="1431.5" y="-69" font-family="Helvetica,sans-Serif" font-size="10.00">QString</text>
</g>
<!-- Node7&#45;&gt;Node17 -->
<g id="edge16" class="edge"><title>Node7&#45;&gt;Node17</title>
<path fill="none" stroke="midnightblue" d="M864.456,-128.986C870.111,-126.656 876.459,-124.392 882.5,-123 1105.22,-71.677 1172.78,-138.323 1395.5,-87 1398.33,-86.3475 1401.23,-85.5034 1404.09,-84.5507"/>
<polygon fill="midnightblue" stroke="midnightblue" points="1405.4,-87.7974 1413.54,-81.0142 1402.95,-81.2415 1405.4,-87.7974"/>
</g>
<!-- Node18 -->
<g id="node18" class="node"><title>Node18</title>
<polygon fill="white" stroke="#bfbfbf" points="996.5,-0.5 996.5,-19.5 1096.5,-19.5 1096.5,-0.5 996.5,-0.5"/>
<text text-anchor="middle" x="1046.5" y="-7.5" font-family="Helvetica,sans-Serif" font-size="10.00">QUndoCommand</text>
</g>
<!-- Node7&#45;&gt;Node18 -->
<g id="edge17" class="edge"><title>Node7&#45;&gt;Node18</title>
<path fill="none" stroke="midnightblue" d="M864.844,-128.908C870.405,-126.634 876.605,-124.42 882.5,-123 969.05,-102.146 1221.44,-152.719 1281.5,-87 1334.24,-29.2844 1192.63,-15.2299 1106.77,-11.9204"/>
<polygon fill="midnightblue" stroke="midnightblue" points="1106.71,-8.41621 1096.6,-11.5678 1106.47,-15.412 1106.71,-8.41621"/>
</g>
<!-- Node19 -->
<g id="node19" class="node"><title>Node19</title>
<polygon fill="white" stroke="#bfbfbf" points="901.5,-62 901.5,-81 959.5,-81 959.5,-62 901.5,-62"/>
<text text-anchor="middle" x="930.5" y="-69" font-family="Helvetica,sans-Serif" font-size="10.00">QVariant</text>
</g>
<!-- Node7&#45;&gt;Node19 -->
<g id="edge18" class="edge"><title>Node7&#45;&gt;Node19</title>
<path fill="none" stroke="midnightblue" d="M857.829,-128.734C871.557,-118.111 894.899,-100.049 911.42,-87.2642"/>
<polygon fill="midnightblue" stroke="midnightblue" points="913.584,-90.0152 919.351,-81.1273 909.3,-84.4791 913.584,-90.0152"/>
</g>
<!-- Node20 -->
<g id="node20" class="node"><title>Node20</title>
<polygon fill="white" stroke="#bfbfbf" points="977.5,-62 977.5,-81 1047.5,-81 1047.5,-62 977.5,-62"/>
<text text-anchor="middle" x="1012.5" y="-69" font-family="Helvetica,sans-Serif" font-size="10.00">src/event.h</text>
</g>
<!-- Node7&#45;&gt;Node20 -->
<g id="edge19" class="edge"><title>Node7&#45;&gt;Node20</title>
<path fill="none" stroke="midnightblue" d="M867.803,-128.869C872.631,-126.927 877.738,-124.884 882.5,-123 915.84,-109.811 954.107,-94.9826 980.446,-84.8249"/>
<polygon fill="midnightblue" stroke="midnightblue" points="981.848,-88.0353 989.921,-81.1737 979.331,-81.5035 981.848,-88.0353"/>
</g>
<!-- Node21 -->
<g id="node21" class="node"><title>Node21</title>
<polygon fill="white" stroke="#bfbfbf" points="1065.5,-62 1065.5,-81 1181.5,-81 1181.5,-62 1065.5,-62"/>
<text text-anchor="middle" x="1123.5" y="-69" font-family="Helvetica,sans-Serif" font-size="10.00">src/ext/multi_index.h</text>
</g>
<!-- Node7&#45;&gt;Node21 -->
<g id="edge20" class="edge"><title>Node7&#45;&gt;Node21</title>
<path fill="none" stroke="midnightblue" d="M866.079,-128.876C871.344,-126.761 877.082,-124.637 882.5,-123 958.095,-100.156 979.24,-103.352 1056.5,-87 1062.24,-85.7844 1068.26,-84.4989 1074.23,-83.2155"/>
<polygon fill="midnightblue" stroke="midnightblue" points="1075.15,-86.5987 1084.19,-81.0706 1073.67,-79.7558 1075.15,-86.5987"/>
</g>
<!-- Node22 -->
<g id="node22" class="node"><title>Node22</title>
<polygon fill="white" stroke="#bfbfbf" points="1200,-62 1200,-81 1273,-81 1273,-62 1200,-62"/>
<text text-anchor="middle" x="1236.5" y="-69" font-family="Helvetica,sans-Serif" font-size="10.00">src/model.h</text>
</g>
<!-- Node7&#45;&gt;Node22 -->
<g id="edge21" class="edge"><title>Node7&#45;&gt;Node22</title>
<path fill="none" stroke="midnightblue" d="M865.24,-128.855C870.705,-126.636 876.754,-124.465 882.5,-123 1016.05,-88.9524 1055.73,-115.846 1190.5,-87 1194.44,-86.1566 1198.53,-85.1179 1202.56,-83.987"/>
<polygon fill="midnightblue" stroke="midnightblue" points="1203.8,-87.2681 1212.38,-81.0452 1201.8,-80.5626 1203.8,-87.2681"/>
</g>
<!-- Node23 -->
<g id="node23" class="node"><title>Node23</title>
<g id="a_node23"><a xlink:href="command_8h.xhtml" target="_top" xlink:title="Undo&#45;redo helper facilities based on the Qt Undo framework. ">
<polygon fill="white" stroke="black" points="809.5,-62 809.5,-81 883.5,-81 883.5,-62 809.5,-62"/>
<text text-anchor="middle" x="846.5" y="-69" font-family="Helvetica,sans-Serif" font-size="10.00">command.h</text>
</a>
</g>
</g>
<!-- Node7&#45;&gt;Node23 -->
<g id="edge22" class="edge"><title>Node7&#45;&gt;Node23</title>
<path fill="none" stroke="midnightblue" d="M846.5,-128.734C846.5,-119.183 846.5,-103.618 846.5,-91.2829"/>
<polygon fill="midnightblue" stroke="midnightblue" points="850,-91.1273 846.5,-81.1273 843,-91.1273 850,-91.1273"/>
</g>
<!-- Node23&#45;&gt;Node11 -->
<g id="edge23" class="edge"><title>Node23&#45;&gt;Node11</title>
<path fill="none" stroke="midnightblue" d="M819.183,-61.9968C812.734,-60.0104 805.879,-57.9159 799.5,-56 760.624,-44.324 716.105,-31.359 684.966,-22.3561"/>
<polygon fill="midnightblue" stroke="midnightblue" points="685.928,-18.9911 675.349,-19.579 683.986,-25.7163 685.928,-18.9911"/>
</g>
<!-- Node23&#45;&gt;Node18 -->
<g id="edge24" class="edge"><title>Node23&#45;&gt;Node18</title>
<path fill="none" stroke="midnightblue" d="M873.227,-61.9706C879.539,-59.9853 886.25,-57.8978 892.5,-56 931.34,-44.2052 975.864,-31.2567 1007.01,-22.29"/>
<polygon fill="midnightblue" stroke="midnightblue" points="1007.99,-25.6514 1016.63,-19.5252 1006.06,-18.9237 1007.99,-25.6514"/>
</g>
<!-- Node24&#45;&gt;Node17 -->
<g id="edge27" class="edge"><title>Node24&#45;&gt;Node17</title>
<path fill="none" stroke="midnightblue" d="M1377.32,-190.484C1382.33,-181.515 1390.29,-166.93 1396.5,-154 1406.78,-132.593 1417.38,-107.401 1424.18,-90.7533"/>
<polygon fill="midnightblue" stroke="midnightblue" points="1427.55,-91.7552 1428.06,-81.1726 1421.06,-89.1282 1427.55,-91.7552"/>
</g>
<!-- Node25 -->
<g id="node25" class="node"><title>Node25</title>
<polygon fill="white" stroke="#bfbfbf" points="1444,-129 1444,-148 1529,-148 1529,-129 1444,-129"/>
<text text-anchor="middle" x="1486.5" y="-136" font-family="Helvetica,sans-Serif" font-size="10.00">QMessageBox</text>
</g>
<!-- Node24&#45;&gt;Node25 -->
<g id="edge26" class="edge"><title>Node24&#45;&gt;Node25</title>
<path fill="none" stroke="midnightblue" d="M1388.83,-190.475C1407.71,-180.622 1439.01,-164.288 1461.08,-152.77"/>
<polygon fill="midnightblue" stroke="midnightblue" points="1462.95,-155.739 1470.2,-148.009 1459.71,-149.533 1462.95,-155.739"/>
</g>
<!-- Node26 -->
<g id="node26" class="node"><title>Node26</title>
<polygon fill="white" stroke="#bfbfbf" points="1271.5,-129 1271.5,-148 1387.5,-148 1387.5,-129 1271.5,-129"/>
<text text-anchor="middle" x="1329.5" y="-136" font-family="Helvetica,sans-Serif" font-size="10.00">src/ext/source_info.h</text>
</g>
<!-- Node24&#45;&gt;Node26 -->
<g id="edge28" class="edge"><title>Node24&#45;&gt;Node26</title>
<path fill="none" stroke="midnightblue" d="M1366.34,-190.475C1359.89,-181.55 1349.6,-167.307 1341.53,-156.143"/>
<polygon fill="midnightblue" stroke="midnightblue" points="1344.34,-154.064 1335.65,-148.009 1338.67,-158.164 1344.34,-154.064"/>
</g>
</g>
</svg>
        <g id="navigator" transform="translate(0 0)" fill="#404254">
                <rect fill="#f2f5e9" fill-opacity="0.5" stroke="#606060" stroke-width=".5" x="0" y="0" width="60" height="60"/>
                <use id="zoomplus" xlink:href="#zoomPlus" x="17" y="9" onmousedown="handleZoom(evt,'in')"/>
                <use id="zoomminus" xlink:href="#zoomMin" x="42" y="9" onmousedown="handleZoom(evt,'out')"/>
                <use id="reset" xlink:href="#resetDef" x="30" y="36" onmousedown="handleReset()"/>
                <g id="arrowUp" xlink:href="#dirArrow" transform="translate(30 24)" onmousedown="handlePan(0,-1)">
                  <use xlink:href="#rim" fill="#404040">
                        <set attributeName="fill" to="#808080" begin="arrowUp.mouseover" end="arrowUp.mouseout"/>
                  </use>
                  <path fill="none" stroke="white" stroke-width="1.5" d="M0,-3.0v7 M-2.5,-0.5L0,-3.0L2.5,-0.5"/>
                </g>
                <g id="arrowRight" xlink:href="#dirArrow" transform="rotate(90) translate(36 -43)" onmousedown="handlePan(1,0)">
                  <use xlink:href="#rim" fill="#404040">
                        <set attributeName="fill" to="#808080" begin="arrowRight.mouseover" end="arrowRight.mouseout"/>
                  </use>
                  <path fill="none" stroke="white" stroke-width="1.5" d="M0,-3.0v7 M-2.5,-0.5L0,-3.0L2.5,-0.5"/>
                </g>
                <g id="arrowDown" xlink:href="#dirArrow" transform="rotate(180) translate(-30 -48)" onmousedown="handlePan(0,1)">
                  <use xlink:href="#rim" fill="#404040">
                        <set attributeName="fill" to="#808080" begin="arrowDown.mouseover" end="arrowDown.mouseout"/>
                  </use>
                  <path fill="none" stroke="white" stroke-width="1.5" d="M0,-3.0v7 M-2.5,-0.5L0,-3.0L2.5,-0.5"/>
                </g>
                <g id="arrowLeft" xlink:href="#dirArrow" transform="rotate(270) translate(-36 17)" onmousedown="handlePan(-1,0)">
                  <use xlink:href="#rim" fill="#404040">
                        <set attributeName="fill" to="#808080" begin="arrowLeft.mouseover" end="arrowLeft.mouseout"/>
                  </use>
                  <path fill="none" stroke="white" stroke-width="1.5" d="M0,-3.0v7 M-2.5,-0.5L0,-3.0L2.5,-0.5"/>
                </g>
        </g>
        <svg viewBox="0 0 15 15" width="100%" height="30px" preserveAspectRatio="xMaxYMin meet">
         <g id="arrow_out" transform="scale(0.3 0.3)">
          <a xlink:href="modeltree_8cpp__incl_org.svg" target="_base">
           <rect id="button" ry="5" rx="5" y="6" x="6" height="38" width="38"
                fill="#f2f5e9" fill-opacity="0.5" stroke="#606060" stroke-width="1.0"/>
           <path id="arrow"
             d="M 11.500037,31.436501 C 11.940474,20.09759 22.043105,11.32322 32.158766,21.979434 L 37.068811,17.246167 C 37.068811,17.246167 37.088388,32 37.088388,32 L 22.160133,31.978069 C 22.160133,31.978069 26.997745,27.140456 26.997745,27.140456 C 18.528582,18.264221 13.291696,25.230495 11.500037,31.436501 z"
             style="fill:#404040;"/>
          </a>
         </g>
        </svg>
</svg>
