<?xml version="1.0" encoding="UTF-8" standalone="no"?>
<!DOCTYPE svg PUBLIC "-//W3C//DTD SVG 1.1//EN"
 "http://www.w3.org/Graphics/SVG/1.1/DTD/svg11.dtd">
<!-- Generated by graphviz version 2.38.0 (20140413.2041)
 -->
<!-- Title: modeltree.h Pages: 1 -->
<!--zoomable 218 -->
<svg id="main" version="1.1" xmlns="http://www.w3.org/2000/svg" xmlns:xlink="http://www.w3.org/1999/xlink" xml:space="preserve" onload="init(evt)">
<style type="text/css"><![CDATA[
.edge:hover path { stroke: red; }
.edge:hover polygon { stroke: red; fill: red; }
]]></style>
<script type="text/javascript"><![CDATA[
var edges = document.getElementsByTagName('g');
if (edges && edges.length) {
  for (var i=0;i<edges.length;i++) {
    if (edges[i].id.substr(0,4)=='edge') {
      edges[i].setAttribute('class','edge');
    }
  }
}
]]></script>
        <defs>
                <circle id="rim" cx="0" cy="0" r="7"/>
                <circle id="rim2" cx="0" cy="0" r="3.5"/>
                <g id="zoomPlus">
                        <use xlink:href="#rim" fill="#404040">
                                <set attributeName="fill" to="#808080" begin="zoomplus.mouseover" end="zoomplus.mouseout"/>
                        </use>
                        <path d="M-4,0h8M0,-4v8" fill="none" stroke="white" stroke-width="1.5" pointer-events="none"/>
                </g>
                <g id="zoomMin">
                        <use xlink:href="#rim" fill="#404040">
                                <set attributeName="fill" to="#808080" begin="zoomminus.mouseover" end="zoomminus.mouseout"/>
                        </use>
                        <path d="M-4,0h8" fill="none" stroke="white" stroke-width="1.5" pointer-events="none"/>
                </g>
                <g id="dirArrow">
                        <path fill="none" stroke="white" stroke-width="1.5" d="M0,-3.0v7 M-2.5,-0.5L0,-3.0L2.5,-0.5"/>
                </g>
               <g id="resetDef">
                       <use xlink:href="#rim2" fill="#404040">
                               <set attributeName="fill" to="#808080" begin="reset.mouseover" end="reset.mouseout"/>
                       </use>
               </g>
        </defs>

<script type="text/javascript">
var viewWidth = 1446;
var viewHeight = 218;
var sectionId = 'dynsection-0';
</script>
<script xlink:href="svgpan.js"/>
<svg id="graph" class="graph">
<g id="viewport">
<title>modeltree.h</title>
<polygon fill="white" stroke="none" points="-4,4 -4,-214 1442.11,-214 1442.11,4 -4,4"/>
<!-- Node1 -->
<g id="node1" class="node"><title>Node1</title>
<polygon fill="#bfbfbf" stroke="black" points="541,-190.5 541,-209.5 616,-209.5 616,-190.5 541,-190.5"/>
<text text-anchor="middle" x="578.5" y="-197.5" font-family="Helvetica,sans-Serif" font-size="10.00">modeltree.h</text>
</g>
<!-- Node2 -->
<g id="node2" class="node"><title>Node2</title>
<polygon fill="white" stroke="#bfbfbf" points="275,-129 275,-148 390,-148 390,-129 275,-129"/>
<text text-anchor="middle" x="332.5" y="-136" font-family="Helvetica,sans-Serif" font-size="10.00">QAbstractItemModel</text>
</g>
<!-- Node1&#45;&gt;Node2 -->
<g id="edge1" class="edge"><title>Node1&#45;&gt;Node2</title>
<path fill="none" stroke="midnightblue" d="M543.254,-190.475C499.595,-179.915 425.157,-161.911 377.437,-150.369"/>
<polygon fill="midnightblue" stroke="midnightblue" points="378.223,-146.958 367.68,-148.009 376.577,-153.762 378.223,-146.958"/>
</g>
<!-- Node3 -->
<g id="node3" class="node"><title>Node3</title>
<polygon fill="white" stroke="#bfbfbf" points="408.5,-123.5 408.5,-153.5 518.5,-153.5 518.5,-123.5 408.5,-123.5"/>
<text text-anchor="start" x="416.5" y="-141.5" font-family="Helvetica,sans-Serif" font-size="10.00">boost/container/flat</text>
<text text-anchor="middle" x="463.5" y="-130.5" font-family="Helvetica,sans-Serif" font-size="10.00">_set.hpp</text>
</g>
<!-- Node1&#45;&gt;Node3 -->
<g id="edge2" class="edge"><title>Node1&#45;&gt;Node3</title>
<path fill="none" stroke="midnightblue" d="M562.023,-190.475C545.793,-182.078 520.464,-168.973 499.553,-158.153"/>
<polygon fill="midnightblue" stroke="midnightblue" points="501.093,-155.01 490.603,-153.523 497.877,-161.227 501.093,-155.01"/>
</g>
<!-- Node4 -->
<g id="node4" class="node"><title>Node4</title>
<polygon fill="white" stroke="#bfbfbf" points="537,-129 537,-148 620,-148 620,-129 537,-129"/>
<text text-anchor="middle" x="578.5" y="-136" font-family="Helvetica,sans-Serif" font-size="10.00">src/element.h</text>
</g>
<!-- Node1&#45;&gt;Node4 -->
<g id="edge3" class="edge"><title>Node1&#45;&gt;Node4</title>
<path fill="none" stroke="midnightblue" d="M578.5,-190.475C578.5,-182.08 578.5,-168.981 578.5,-158.163"/>
<polygon fill="midnightblue" stroke="midnightblue" points="582,-158.009 578.5,-148.009 575,-158.009 582,-158.009"/>
</g>
<!-- Node5 -->
<g id="node5" class="node"><title>Node5</title>
<polygon fill="white" stroke="#bfbfbf" points="638,-129 638,-148 727,-148 727,-129 638,-129"/>
<text text-anchor="middle" x="682.5" y="-136" font-family="Helvetica,sans-Serif" font-size="10.00">src/fault_tree.h</text>
</g>
<!-- Node1&#45;&gt;Node5 -->
<g id="edge4" class="edge"><title>Node1&#45;&gt;Node5</title>
<path fill="none" stroke="midnightblue" d="M593.401,-190.475C610.468,-180.711 638.661,-164.581 658.762,-153.081"/>
<polygon fill="midnightblue" stroke="midnightblue" points="660.685,-156.013 667.627,-148.009 657.209,-149.937 660.685,-156.013"/>
</g>
<!-- Node6 -->
<g id="node6" class="node"><title>Node6</title>
<g id="a_node6"><a xlink:href="model_8h.xhtml" target="_top" xlink:title="Wrapper Model classes for the MEF data. ">
<polygon fill="white" stroke="black" points="744.5,-129 744.5,-148 800.5,-148 800.5,-129 744.5,-129"/>
<text text-anchor="middle" x="772.5" y="-136" font-family="Helvetica,sans-Serif" font-size="10.00">model.h</text>
</a>
</g>
</g>
<!-- Node1&#45;&gt;Node6 -->
<g id="edge5" class="edge"><title>Node1&#45;&gt;Node6</title>
<path fill="none" stroke="midnightblue" d="M611.555,-190.499C643.521,-182.049 693.198,-168.316 735.5,-154 737.624,-153.281 739.805,-152.511 741.994,-151.715"/>
<polygon fill="midnightblue" stroke="midnightblue" points="743.375,-154.934 751.495,-148.128 740.903,-148.386 743.375,-154.934"/>
</g>
<!-- Node7 -->
<g id="node7" class="node"><title>Node7</title>
<polygon fill="white" stroke="#bfbfbf" points="0,-62 0,-81 57,-81 57,-62 0,-62"/>
<text text-anchor="middle" x="28.5" y="-69" font-family="Helvetica,sans-Serif" font-size="10.00">memory</text>
</g>
<!-- Node6&#45;&gt;Node7 -->
<g id="edge6" class="edge"><title>Node6&#45;&gt;Node7</title>
<path fill="none" stroke="midnightblue" d="M754.038,-128.929C748.226,-126.597 741.703,-124.345 735.5,-123 444.069,-59.7895 356.931,-150.21 65.5,-87 62.4954,-86.3483 59.4157,-85.4841 56.378,-84.5012"/>
<polygon fill="midnightblue" stroke="midnightblue" points="57.5556,-81.2052 46.9616,-81.0715 55.1599,-87.7825 57.5556,-81.2052"/>
</g>
<!-- Node8 -->
<g id="node8" class="node"><title>Node8</title>
<polygon fill="white" stroke="#bfbfbf" points="75,-62 75,-81 130,-81 130,-62 75,-62"/>
<text text-anchor="middle" x="102.5" y="-69" font-family="Helvetica,sans-Serif" font-size="10.00">optional</text>
</g>
<!-- Node6&#45;&gt;Node8 -->
<g id="edge7" class="edge"><title>Node6&#45;&gt;Node8</title>
<path fill="none" stroke="midnightblue" d="M754.033,-128.954C748.221,-126.623 741.699,-124.366 735.5,-123 476.347,-65.8877 398.653,-144.112 139.5,-87 136.498,-86.3383 133.419,-85.4676 130.382,-84.4808"/>
<polygon fill="midnightblue" stroke="midnightblue" points="131.561,-81.1852 120.967,-81.0461 129.162,-87.7613 131.561,-81.1852"/>
</g>
<!-- Node9 -->
<g id="node9" class="node"><title>Node9</title>
<polygon fill="white" stroke="#bfbfbf" points="148.5,-62 148.5,-81 192.5,-81 192.5,-62 148.5,-62"/>
<text text-anchor="middle" x="170.5" y="-69" font-family="Helvetica,sans-Serif" font-size="10.00">string</text>
</g>
<!-- Node6&#45;&gt;Node9 -->
<g id="edge8" class="edge"><title>Node6&#45;&gt;Node9</title>
<path fill="none" stroke="midnightblue" d="M754.026,-128.983C748.214,-126.653 741.693,-124.39 735.5,-123 505.562,-71.4069 436.193,-139.673 206.5,-87 203.668,-86.3505 200.768,-85.5084 197.904,-84.5569"/>
<polygon fill="midnightblue" stroke="midnightblue" points="199.047,-81.2476 188.455,-81.022 196.594,-87.8039 199.047,-81.2476"/>
</g>
<!-- Node10 -->
<g id="node10" class="node"><title>Node10</title>
<polygon fill="white" stroke="#bfbfbf" points="521.5,-0.5 521.5,-19.5 589.5,-19.5 589.5,-0.5 521.5,-0.5"/>
<text text-anchor="middle" x="555.5" y="-7.5" font-family="Helvetica,sans-Serif" font-size="10.00">type_traits</text>
</g>
<!-- Node6&#45;&gt;Node10 -->
<g id="edge9" class="edge"><title>Node6&#45;&gt;Node10</title>
<path fill="none" stroke="midnightblue" d="M753.642,-128.848C747.926,-126.573 741.556,-124.373 735.5,-123 681.612,-110.781 277.131,-127.461 239.5,-87 230.117,-76.9112 230.47,-66.4065 239.5,-56 274.17,-16.0435 432.895,-10.6565 511.348,-10.4995"/>
<polygon fill="midnightblue" stroke="midnightblue" points="511.408,-13.9994 521.411,-10.5073 511.414,-6.99943 511.408,-13.9994"/>
</g>
<!-- Node11 -->
<g id="node11" class="node"><title>Node11</title>
<polygon fill="white" stroke="#bfbfbf" points="249,-62 249,-81 296,-81 296,-62 249,-62"/>
<text text-anchor="middle" x="272.5" y="-69" font-family="Helvetica,sans-Serif" font-size="10.00">vector</text>
</g>
<!-- Node6&#45;&gt;Node11 -->
<g id="edge10" class="edge"><title>Node6&#45;&gt;Node11</title>
<path fill="none" stroke="midnightblue" d="M753.633,-128.891C747.916,-126.616 741.548,-124.407 735.5,-123 548.706,-79.5565 491.376,-134.217 305.5,-87 303.197,-86.415 300.851,-85.6846 298.526,-84.8647"/>
<polygon fill="midnightblue" stroke="midnightblue" points="299.83,-81.6167 289.246,-81.1345 297.219,-88.1116 299.83,-81.6167"/>
</g>
<!-- Node12 -->
<g id="node12" class="node"><title>Node12</title>
<polygon fill="white" stroke="#bfbfbf" points="314.5,-56.5 314.5,-86.5 454.5,-86.5 454.5,-56.5 314.5,-56.5"/>
<text text-anchor="start" x="322.5" y="-74.5" font-family="Helvetica,sans-Serif" font-size="10.00">boost/multi_index/hashed</text>
<text text-anchor="middle" x="384.5" y="-63.5" font-family="Helvetica,sans-Serif" font-size="10.00">_index.hpp</text>
</g>
<!-- Node6&#45;&gt;Node12 -->
<g id="edge11" class="edge"><title>Node6&#45;&gt;Node12</title>
<path fill="none" stroke="midnightblue" d="M753.206,-128.922C747.588,-126.704 741.379,-124.517 735.5,-123 620.538,-93.3339 585.776,-105.333 464.709,-87.1169"/>
<polygon fill="midnightblue" stroke="midnightblue" points="465.097,-83.6354 454.68,-85.5691 464.029,-90.5535 465.097,-83.6354"/>
</g>
<!-- Node13 -->
<g id="node13" class="node"><title>Node13</title>
<polygon fill="white" stroke="#bfbfbf" points="472.5,-56.5 472.5,-86.5 602.5,-86.5 602.5,-56.5 472.5,-56.5"/>
<text text-anchor="start" x="480.5" y="-74.5" font-family="Helvetica,sans-Serif" font-size="10.00">boost/multi_index/mem</text>
<text text-anchor="middle" x="537.5" y="-63.5" font-family="Helvetica,sans-Serif" font-size="10.00">_fun.hpp</text>
</g>
<!-- Node6&#45;&gt;Node13 -->
<g id="edge12" class="edge"><title>Node6&#45;&gt;Node13</title>
<path fill="none" stroke="midnightblue" d="M751.92,-128.914C746.616,-126.846 740.885,-124.735 735.5,-123 694.739,-109.871 648.394,-97.8947 610.794,-88.9038"/>
<polygon fill="midnightblue" stroke="midnightblue" points="611.472,-85.4675 600.934,-86.5662 609.857,-92.2787 611.472,-85.4675"/>
</g>
<!-- Node14 -->
<g id="node14" class="node"><title>Node14</title>
<polygon fill="white" stroke="#bfbfbf" points="620.5,-62 620.5,-81 792.5,-81 792.5,-62 620.5,-62"/>
<text text-anchor="middle" x="706.5" y="-69" font-family="Helvetica,sans-Serif" font-size="10.00">boost/multi_index_container.hpp</text>
</g>
<!-- Node6&#45;&gt;Node14 -->
<g id="edge13" class="edge"><title>Node6&#45;&gt;Node14</title>
<path fill="none" stroke="midnightblue" d="M763.599,-128.734C753.109,-118.403 735.476,-101.037 722.575,-88.3315"/>
<polygon fill="midnightblue" stroke="midnightblue" points="724.841,-85.6505 715.26,-81.1273 719.929,-90.6379 724.841,-85.6505"/>
</g>
<!-- Node15 -->
<g id="node15" class="node"><title>Node15</title>
<polygon fill="white" stroke="#bfbfbf" points="811,-62 811,-81 866,-81 866,-62 811,-62"/>
<text text-anchor="middle" x="838.5" y="-69" font-family="Helvetica,sans-Serif" font-size="10.00">QObject</text>
</g>
<!-- Node6&#45;&gt;Node15 -->
<g id="edge14" class="edge"><title>Node6&#45;&gt;Node15</title>
<path fill="none" stroke="midnightblue" d="M781.401,-128.734C791.891,-118.403 809.524,-101.037 822.425,-88.3315"/>
<polygon fill="midnightblue" stroke="midnightblue" points="825.071,-90.6379 829.74,-81.1273 820.159,-85.6505 825.071,-90.6379"/>
</g>
<!-- Node16 -->
<g id="node16" class="node"><title>Node16</title>
<polygon fill="white" stroke="#bfbfbf" points="884,-62 884,-81 937,-81 937,-62 884,-62"/>
<text text-anchor="middle" x="910.5" y="-69" font-family="Helvetica,sans-Serif" font-size="10.00">QString</text>
</g>
<!-- Node6&#45;&gt;Node16 -->
<g id="edge15" class="edge"><title>Node6&#45;&gt;Node16</title>
<path fill="none" stroke="midnightblue" d="M790.825,-128.869C814.436,-117.748 855.689,-98.3167 883.052,-85.4286"/>
<polygon fill="midnightblue" stroke="midnightblue" points="884.544,-88.5947 892.099,-81.1672 881.561,-82.262 884.544,-88.5947"/>
</g>
<!-- Node17 -->
<g id="node17" class="node"><title>Node17</title>
<polygon fill="white" stroke="#bfbfbf" points="1169.5,-0.5 1169.5,-19.5 1269.5,-19.5 1269.5,-0.5 1169.5,-0.5"/>
<text text-anchor="middle" x="1219.5" y="-7.5" font-family="Helvetica,sans-Serif" font-size="10.00">QUndoCommand</text>
</g>
<!-- Node6&#45;&gt;Node17 -->
<g id="edge16" class="edge"><title>Node6&#45;&gt;Node17</title>
<path fill="none" stroke="midnightblue" d="M800.595,-137.524C920.388,-137.34 1384.35,-133.605 1427.5,-87 1473.75,-37.0521 1356.53,-19.8405 1279.84,-13.975"/>
<polygon fill="midnightblue" stroke="midnightblue" points="1280,-10.4774 1269.77,-13.2516 1279.5,-17.4594 1280,-10.4774"/>
</g>
<!-- Node18 -->
<g id="node18" class="node"><title>Node18</title>
<polygon fill="white" stroke="#bfbfbf" points="1047.5,-62 1047.5,-81 1105.5,-81 1105.5,-62 1047.5,-62"/>
<text text-anchor="middle" x="1076.5" y="-69" font-family="Helvetica,sans-Serif" font-size="10.00">QVariant</text>
</g>
<!-- Node6&#45;&gt;Node18 -->
<g id="edge17" class="edge"><title>Node6&#45;&gt;Node18</title>
<path fill="none" stroke="midnightblue" d="M800.837,-133.802C849.875,-127.032 953.476,-111.088 1038.5,-87 1041.15,-86.25 1043.87,-85.3923 1046.58,-84.4771"/>
<polygon fill="midnightblue" stroke="midnightblue" points="1048,-87.6878 1056.21,-81.0005 1045.62,-81.1036 1048,-87.6878"/>
</g>
<!-- Node19 -->
<g id="node19" class="node"><title>Node19</title>
<polygon fill="white" stroke="#bfbfbf" points="1123.5,-62 1123.5,-81 1193.5,-81 1193.5,-62 1123.5,-62"/>
<text text-anchor="middle" x="1158.5" y="-69" font-family="Helvetica,sans-Serif" font-size="10.00">src/event.h</text>
</g>
<!-- Node6&#45;&gt;Node19 -->
<g id="edge18" class="edge"><title>Node6&#45;&gt;Node19</title>
<path fill="none" stroke="midnightblue" d="M800.738,-134.987C859.654,-129.383 999.735,-114.17 1114.5,-87 1117.97,-86.1783 1121.56,-85.2063 1125.12,-84.1605"/>
<polygon fill="midnightblue" stroke="midnightblue" points="1126.47,-87.4072 1134.97,-81.0821 1124.38,-80.7262 1126.47,-87.4072"/>
</g>
<!-- Node20 -->
<g id="node20" class="node"><title>Node20</title>
<polygon fill="white" stroke="#bfbfbf" points="1211.5,-62 1211.5,-81 1327.5,-81 1327.5,-62 1211.5,-62"/>
<text text-anchor="middle" x="1269.5" y="-69" font-family="Helvetica,sans-Serif" font-size="10.00">src/ext/multi_index.h</text>
</g>
<!-- Node6&#45;&gt;Node20 -->
<g id="edge19" class="edge"><title>Node6&#45;&gt;Node20</title>
<path fill="none" stroke="midnightblue" d="M800.552,-135.148C869.345,-129.175 1051.8,-112.096 1202.5,-87 1209.2,-85.8835 1216.25,-84.5435 1223.16,-83.1354"/>
<polygon fill="midnightblue" stroke="midnightblue" points="1224.05,-86.5249 1233.11,-81.0415 1222.6,-79.6747 1224.05,-86.5249"/>
</g>
<!-- Node21 -->
<g id="node21" class="node"><title>Node21</title>
<polygon fill="white" stroke="#bfbfbf" points="1346,-62 1346,-81 1419,-81 1419,-62 1346,-62"/>
<text text-anchor="middle" x="1382.5" y="-69" font-family="Helvetica,sans-Serif" font-size="10.00">src/model.h</text>
</g>
<!-- Node6&#45;&gt;Node21 -->
<g id="edge20" class="edge"><title>Node6&#45;&gt;Node21</title>
<path fill="none" stroke="midnightblue" d="M800.681,-137.121C883.63,-135.547 1133.82,-127.523 1336.5,-87 1340.66,-86.1689 1344.97,-85.0995 1349.21,-83.9185"/>
<polygon fill="midnightblue" stroke="midnightblue" points="1350.31,-87.2441 1358.88,-81.02 1348.3,-80.5389 1350.31,-87.2441"/>
</g>
<!-- Node22 -->
<g id="node22" class="node"><title>Node22</title>
<g id="a_node22"><a xlink:href="command_8h.xhtml" target="_top" xlink:title="Undo&#45;redo helper facilities based on the Qt Undo framework. ">
<polygon fill="white" stroke="black" points="955.5,-62 955.5,-81 1029.5,-81 1029.5,-62 955.5,-62"/>
<text text-anchor="middle" x="992.5" y="-69" font-family="Helvetica,sans-Serif" font-size="10.00">command.h</text>
</a>
</g>
</g>
<!-- Node6&#45;&gt;Node22 -->
<g id="edge21" class="edge"><title>Node6&#45;&gt;Node22</title>
<path fill="none" stroke="midnightblue" d="M800.706,-129.409C834.983,-119.544 894.556,-102.293 945.5,-87 948.69,-86.0425 951.998,-85.0402 955.316,-84.029"/>
<polygon fill="midnightblue" stroke="midnightblue" points="956.648,-87.2814 965.183,-81.0045 954.597,-80.5887 956.648,-87.2814"/>
</g>
<!-- Node22&#45;&gt;Node10 -->
<g id="edge22" class="edge"><title>Node22&#45;&gt;Node10</title>
<path fill="none" stroke="midnightblue" d="M967.844,-61.9581C960.706,-59.741 952.854,-57.5449 945.5,-56 821.847,-30.0238 672.767,-18.0712 599.929,-13.4536"/>
<polygon fill="midnightblue" stroke="midnightblue" points="599.944,-9.94799 589.747,-12.8247 599.513,-16.9347 599.944,-9.94799"/>
</g>
<!-- Node22&#45;&gt;Node17 -->
<g id="edge23" class="edge"><title>Node22&#45;&gt;Node17</title>
<path fill="none" stroke="midnightblue" d="M1018.69,-61.938C1025.14,-59.9129 1032.05,-57.8159 1038.5,-56 1083.66,-43.2829 1135.67,-30.5472 1172.32,-21.8871"/>
<polygon fill="midnightblue" stroke="midnightblue" points="1173.3,-25.2526 1182.23,-19.5559 1171.7,-18.4386 1173.3,-25.2526"/>
</g>
</g>
</svg>
        <g id="navigator" transform="translate(0 0)" fill="#404254">
                <rect fill="#f2f5e9" fill-opacity="0.5" stroke="#606060" stroke-width=".5" x="0" y="0" width="60" height="60"/>
                <use id="zoomplus" xlink:href="#zoomPlus" x="17" y="9" onmousedown="handleZoom(evt,'in')"/>
                <use id="zoomminus" xlink:href="#zoomMin" x="42" y="9" onmousedown="handleZoom(evt,'out')"/>
                <use id="reset" xlink:href="#resetDef" x="30" y="36" onmousedown="handleReset()"/>
                <g id="arrowUp" xlink:href="#dirArrow" transform="translate(30 24)" onmousedown="handlePan(0,-1)">
                  <use xlink:href="#rim" fill="#404040">
                        <set attributeName="fill" to="#808080" begin="arrowUp.mouseover" end="arrowUp.mouseout"/>
                  </use>
                  <path fill="none" stroke="white" stroke-width="1.5" d="M0,-3.0v7 M-2.5,-0.5L0,-3.0L2.5,-0.5"/>
                </g>
                <g id="arrowRight" xlink:href="#dirArrow" transform="rotate(90) translate(36 -43)" onmousedown="handlePan(1,0)">
                  <use xlink:href="#rim" fill="#404040">
                        <set attributeName="fill" to="#808080" begin="arrowRight.mouseover" end="arrowRight.mouseout"/>
                  </use>
                  <path fill="none" stroke="white" stroke-width="1.5" d="M0,-3.0v7 M-2.5,-0.5L0,-3.0L2.5,-0.5"/>
                </g>
                <g id="arrowDown" xlink:href="#dirArrow" transform="rotate(180) translate(-30 -48)" onmousedown="handlePan(0,1)">
                  <use xlink:href="#rim" fill="#404040">
                        <set attributeName="fill" to="#808080" begin="arrowDown.mouseover" end="arrowDown.mouseout"/>
                  </use>
                  <path fill="none" stroke="white" stroke-width="1.5" d="M0,-3.0v7 M-2.5,-0.5L0,-3.0L2.5,-0.5"/>
                </g>
                <g id="arrowLeft" xlink:href="#dirArrow" transform="rotate(270) translate(-36 17)" onmousedown="handlePan(-1,0)">
                  <use xlink:href="#rim" fill="#404040">
                        <set attributeName="fill" to="#808080" begin="arrowLeft.mouseover" end="arrowLeft.mouseout"/>
                  </use>
                  <path fill="none" stroke="white" stroke-width="1.5" d="M0,-3.0v7 M-2.5,-0.5L0,-3.0L2.5,-0.5"/>
                </g>
        </g>
        <svg viewBox="0 0 15 15" width="100%" height="30px" preserveAspectRatio="xMaxYMin meet">
         <g id="arrow_out" transform="scale(0.3 0.3)">
          <a xlink:href="modeltree_8h__incl_org.svg" target="_base">
           <rect id="button" ry="5" rx="5" y="6" x="6" height="38" width="38"
                fill="#f2f5e9" fill-opacity="0.5" stroke="#606060" stroke-width="1.0"/>
           <path id="arrow"
             d="M 11.500037,31.436501 C 11.940474,20.09759 22.043105,11.32322 32.158766,21.979434 L 37.068811,17.246167 C 37.068811,17.246167 37.088388,32 37.088388,32 L 22.160133,31.978069 C 22.160133,31.978069 26.997745,27.140456 26.997745,27.140456 C 18.528582,18.264221 13.291696,25.230495 11.500037,31.436501 z"
             style="fill:#404040;"/>
          </a>
         </g>
        </svg>
</svg>
