<?xml version="1.0" encoding="UTF-8" standalone="no"?>
<!DOCTYPE svg PUBLIC "-//W3C//DTD SVG 1.1//EN"
 "http://www.w3.org/Graphics/SVG/1.1/DTD/svg11.dtd">
<!-- Generated by graphviz version 2.38.0 (20140413.2041)
 -->
<!-- Title: model.cpp Pages: 1 -->
<!--zoomable 207 -->
<svg id="main" version="1.1" xmlns="http://www.w3.org/2000/svg" xmlns:xlink="http://www.w3.org/1999/xlink" xml:space="preserve" onload="init(evt)">
<style type="text/css"><![CDATA[
.edge:hover path { stroke: red; }
.edge:hover polygon { stroke: red; fill: red; }
]]></style>
<script type="text/javascript"><![CDATA[
var edges = document.getElementsByTagName('g');
if (edges && edges.length) {
  for (var i=0;i<edges.length;i++) {
    if (edges[i].id.substr(0,4)=='edge') {
      edges[i].setAttribute('class','edge');
    }
  }
}
]]></script>
        <defs>
                <circle id="rim" cx="0" cy="0" r="7"/>
                <circle id="rim2" cx="0" cy="0" r="3.5"/>
                <g id="zoomPlus">
                        <use xlink:href="#rim" fill="#404040">
                                <set attributeName="fill" to="#808080" begin="zoomplus.mouseover" end="zoomplus.mouseout"/>
                        </use>
                        <path d="M-4,0h8M0,-4v8" fill="none" stroke="white" stroke-width="1.5" pointer-events="none"/>
                </g>
                <g id="zoomMin">
                        <use xlink:href="#rim" fill="#404040">
                                <set attributeName="fill" to="#808080" begin="zoomminus.mouseover" end="zoomminus.mouseout"/>
                        </use>
                        <path d="M-4,0h8" fill="none" stroke="white" stroke-width="1.5" pointer-events="none"/>
                </g>
                <g id="dirArrow">
                        <path fill="none" stroke="white" stroke-width="1.5" d="M0,-3.0v7 M-2.5,-0.5L0,-3.0L2.5,-0.5"/>
                </g>
               <g id="resetDef">
                       <use xlink:href="#rim2" fill="#404040">
                               <set attributeName="fill" to="#808080" begin="reset.mouseover" end="reset.mouseout"/>
                       </use>
               </g>
        </defs>

<script type="text/javascript">
var viewWidth = 1682;
var viewHeight = 207;
var sectionId = 'dynsection-0';
</script>
<script xlink:href="svgpan.js"/>
<svg id="graph" class="graph">
<g id="viewport">
<title>model.cpp</title>
<polygon fill="white" stroke="none" points="-4,4 -4,-203 1678.05,-203 1678.05,4 -4,4"/>
<!-- Node1 -->
<g id="node1" class="node"><title>Node1</title>
<polygon fill="#bfbfbf" stroke="black" points="1108.55,-179.5 1108.55,-198.5 1175.55,-198.5 1175.55,-179.5 1108.55,-179.5"/>
<text text-anchor="middle" x="1142.05" y="-186.5" font-family="Helvetica,sans-Serif" font-size="10.00">model.cpp</text>
</g>
<!-- Node2 -->
<g id="node2" class="node"><title>Node2</title>
<g id="a_node2"><a xlink:href="model_8h.xhtml" target="_top" xlink:title="Wrapper Model classes for the MEF data. ">
<polygon fill="white" stroke="black" points="827.047,-123.5 827.047,-142.5 883.047,-142.5 883.047,-123.5 827.047,-123.5"/>
<text text-anchor="middle" x="855.047" y="-130.5" font-family="Helvetica,sans-Serif" font-size="10.00">model.h</text>
</a>
</g>
</g>
<!-- Node1&#45;&gt;Node2 -->
<g id="edge1" class="edge"><title>Node1&#45;&gt;Node2</title>
<path fill="none" stroke="midnightblue" d="M1108.28,-181.647C1054.44,-171.516 949.463,-151.765 893.059,-141.152"/>
<polygon fill="midnightblue" stroke="midnightblue" points="893.591,-137.691 883.116,-139.281 892.296,-144.57 893.591,-137.691"/>
</g>
<!-- Node19 -->
<g id="node19" class="node"><title>Node19</title>
<polygon fill="white" stroke="#bfbfbf" points="1003.05,-123.5 1003.05,-142.5 1147.05,-142.5 1147.05,-123.5 1003.05,-123.5"/>
<text text-anchor="middle" x="1075.05" y="-130.5" font-family="Helvetica,sans-Serif" font-size="10.00">boost/range/algorithm.hpp</text>
</g>
<!-- Node1&#45;&gt;Node19 -->
<g id="edge20" class="edge"><title>Node1&#45;&gt;Node19</title>
<path fill="none" stroke="midnightblue" d="M1131.28,-179.324C1121.28,-171.263 1106.16,-159.077 1094.12,-149.369"/>
<polygon fill="midnightblue" stroke="midnightblue" points="1095.99,-146.384 1086.01,-142.834 1091.6,-151.834 1095.99,-146.384"/>
</g>
<!-- Node20 -->
<g id="node20" class="node"><title>Node20</title>
<polygon fill="white" stroke="#bfbfbf" points="1165.55,-123.5 1165.55,-142.5 1254.55,-142.5 1254.55,-123.5 1165.55,-123.5"/>
<text text-anchor="middle" x="1210.05" y="-130.5" font-family="Helvetica,sans-Serif" font-size="10.00">src/fault_tree.h</text>
</g>
<!-- Node1&#45;&gt;Node20 -->
<g id="edge21" class="edge"><title>Node1&#45;&gt;Node20</title>
<path fill="none" stroke="midnightblue" d="M1152.97,-179.324C1163.22,-171.185 1178.77,-158.839 1191.05,-149.087"/>
<polygon fill="midnightblue" stroke="midnightblue" points="1193.27,-151.794 1198.92,-142.834 1188.92,-146.312 1193.27,-151.794"/>
</g>
<!-- Node21 -->
<g id="node21" class="node"><title>Node21</title>
<g id="a_node21"><a xlink:href="guiassert_8h.xhtml" target="_top" xlink:title="GUI assertions that should not crash the program by default. ">
<polygon fill="white" stroke="black" points="1418.05,-123.5 1418.05,-142.5 1488.05,-142.5 1488.05,-123.5 1418.05,-123.5"/>
<text text-anchor="middle" x="1453.05" y="-130.5" font-family="Helvetica,sans-Serif" font-size="10.00">guiassert.h</text>
</a>
</g>
</g>
<!-- Node1&#45;&gt;Node21 -->
<g id="edge22" class="edge"><title>Node1&#45;&gt;Node21</title>
<path fill="none" stroke="midnightblue" d="M1175.62,-182.17C1231.72,-172.43 1344.53,-152.843 1407.65,-141.883"/>
<polygon fill="midnightblue" stroke="midnightblue" points="1408.45,-145.295 1417.71,-140.136 1407.26,-138.399 1408.45,-145.295"/>
</g>
<!-- Node3 -->
<g id="node3" class="node"><title>Node3</title>
<polygon fill="white" stroke="#bfbfbf" points="1172.55,-62 1172.55,-81 1229.55,-81 1229.55,-62 1172.55,-62"/>
<text text-anchor="middle" x="1201.05" y="-69" font-family="Helvetica,sans-Serif" font-size="10.00">memory</text>
</g>
<!-- Node2&#45;&gt;Node3 -->
<g id="edge2" class="edge"><title>Node2&#45;&gt;Node3</title>
<path fill="none" stroke="midnightblue" d="M883.356,-129.492C937.345,-124.336 1058.52,-110.97 1158.05,-87 1161.44,-86.182 1164.95,-85.2123 1168.44,-84.1681"/>
<polygon fill="midnightblue" stroke="midnightblue" points="1169.6,-87.4706 1178.06,-81.0916 1167.47,-80.803 1169.6,-87.4706"/>
</g>
<!-- Node4 -->
<g id="node4" class="node"><title>Node4</title>
<polygon fill="white" stroke="#bfbfbf" points="1247.55,-62 1247.55,-81 1302.55,-81 1302.55,-62 1247.55,-62"/>
<text text-anchor="middle" x="1275.05" y="-69" font-family="Helvetica,sans-Serif" font-size="10.00">optional</text>
</g>
<!-- Node2&#45;&gt;Node4 -->
<g id="edge3" class="edge"><title>Node2&#45;&gt;Node4</title>
<path fill="none" stroke="midnightblue" d="M883.268,-129.63C959.878,-123.046 1170.5,-103.904 1238.05,-87 1240.72,-86.3321 1243.45,-85.5205 1246.17,-84.6261"/>
<polygon fill="midnightblue" stroke="midnightblue" points="1247.57,-87.8415 1255.77,-81.1334 1245.17,-81.2633 1247.57,-87.8415"/>
</g>
<!-- Node5 -->
<g id="node5" class="node"><title>Node5</title>
<polygon fill="white" stroke="#bfbfbf" points="1321.05,-62 1321.05,-81 1365.05,-81 1365.05,-62 1321.05,-62"/>
<text text-anchor="middle" x="1343.05" y="-69" font-family="Helvetica,sans-Serif" font-size="10.00">string</text>
</g>
<!-- Node2&#45;&gt;Node5 -->
<g id="edge4" class="edge"><title>Node2&#45;&gt;Node5</title>
<path fill="none" stroke="midnightblue" d="M883.212,-129.759C976.184,-122.286 1269.75,-98.0713 1311.05,-87 1313.2,-86.4226 1315.39,-85.7143 1317.57,-84.9244"/>
<polygon fill="midnightblue" stroke="midnightblue" points="1318.92,-88.152 1326.82,-81.0908 1316.24,-81.6851 1318.92,-88.152"/>
</g>
<!-- Node6 -->
<g id="node6" class="node"><title>Node6</title>
<polygon fill="white" stroke="#bfbfbf" points="454.047,-0.5 454.047,-19.5 522.047,-19.5 522.047,-0.5 454.047,-0.5"/>
<text text-anchor="middle" x="488.047" y="-7.5" font-family="Helvetica,sans-Serif" font-size="10.00">type_traits</text>
</g>
<!-- Node2&#45;&gt;Node6 -->
<g id="edge5" class="edge"><title>Node2&#45;&gt;Node6</title>
<path fill="none" stroke="midnightblue" d="M826.93,-131.582C683.168,-129.312 35.8965,-117.421 7.04704,-87 -2.43367,-77.0028 -2.23049,-66.186 7.04704,-56 36.1419,-24.0561 330.057,-14.3812 443.608,-11.8223"/>
<polygon fill="midnightblue" stroke="midnightblue" points="443.78,-15.3195 453.701,-11.603 443.628,-8.32113 443.78,-15.3195"/>
</g>
<!-- Node7 -->
<g id="node7" class="node"><title>Node7</title>
<polygon fill="white" stroke="#bfbfbf" points="16.547,-62 16.547,-81 63.547,-81 63.547,-62 16.547,-62"/>
<text text-anchor="middle" x="40.047" y="-69" font-family="Helvetica,sans-Serif" font-size="10.00">vector</text>
</g>
<!-- Node2&#45;&gt;Node7 -->
<g id="edge6" class="edge"><title>Node2&#45;&gt;Node7</title>
<path fill="none" stroke="midnightblue" d="M826.764,-131.715C704.442,-130.276 220.48,-122.414 73.047,-87 70.6854,-86.4327 68.2813,-85.7042 65.902,-84.8762"/>
<polygon fill="midnightblue" stroke="midnightblue" points="67.0162,-81.5521 56.4322,-81.0724 64.407,-88.0476 67.0162,-81.5521"/>
</g>
<!-- Node8 -->
<g id="node8" class="node"><title>Node8</title>
<polygon fill="white" stroke="#bfbfbf" points="82.047,-56.5 82.047,-86.5 222.047,-86.5 222.047,-56.5 82.047,-56.5"/>
<text text-anchor="start" x="90.047" y="-74.5" font-family="Helvetica,sans-Serif" font-size="10.00">boost/multi_index/hashed</text>
<text text-anchor="middle" x="152.047" y="-63.5" font-family="Helvetica,sans-Serif" font-size="10.00">_index.hpp</text>
</g>
<!-- Node2&#45;&gt;Node8 -->
<g id="edge7" class="edge"><title>Node2&#45;&gt;Node8</title>
<path fill="none" stroke="midnightblue" d="M826.951,-131.071C740.058,-127.967 467.859,-116.509 232.322,-87.0673"/>
<polygon fill="midnightblue" stroke="midnightblue" points="232.556,-83.5691 222.196,-85.7874 231.678,-90.5138 232.556,-83.5691"/>
</g>
<!-- Node9 -->
<g id="node9" class="node"><title>Node9</title>
<polygon fill="white" stroke="#bfbfbf" points="240.047,-56.5 240.047,-86.5 370.047,-86.5 370.047,-56.5 240.047,-56.5"/>
<text text-anchor="start" x="248.047" y="-74.5" font-family="Helvetica,sans-Serif" font-size="10.00">boost/multi_index/mem</text>
<text text-anchor="middle" x="305.047" y="-63.5" font-family="Helvetica,sans-Serif" font-size="10.00">_fun.hpp</text>
</g>
<!-- Node2&#45;&gt;Node9 -->
<g id="edge8" class="edge"><title>Node2&#45;&gt;Node9</title>
<path fill="none" stroke="midnightblue" d="M827.033,-130.326C754.739,-125.801 555.841,-112.041 380.288,-87.0892"/>
<polygon fill="midnightblue" stroke="midnightblue" points="380.753,-83.6203 370.357,-85.6621 379.757,-90.5491 380.753,-83.6203"/>
</g>
<!-- Node10 -->
<g id="node10" class="node"><title>Node10</title>
<polygon fill="white" stroke="#bfbfbf" points="388.047,-62 388.047,-81 560.047,-81 560.047,-62 388.047,-62"/>
<text text-anchor="middle" x="474.047" y="-69" font-family="Helvetica,sans-Serif" font-size="10.00">boost/multi_index_container.hpp</text>
</g>
<!-- Node2&#45;&gt;Node10 -->
<g id="edge9" class="edge"><title>Node2&#45;&gt;Node10</title>
<path fill="none" stroke="midnightblue" d="M827.031,-127.625C766.674,-118.199 623.02,-95.7649 538.753,-82.6049"/>
<polygon fill="midnightblue" stroke="midnightblue" points="539.2,-79.1325 528.78,-81.0475 538.12,-86.0487 539.2,-79.1325"/>
</g>
<!-- Node11 -->
<g id="node11" class="node"><title>Node11</title>
<polygon fill="white" stroke="#bfbfbf" points="578.547,-62 578.547,-81 633.547,-81 633.547,-62 578.547,-62"/>
<text text-anchor="middle" x="606.047" y="-69" font-family="Helvetica,sans-Serif" font-size="10.00">QObject</text>
</g>
<!-- Node2&#45;&gt;Node11 -->
<g id="edge10" class="edge"><title>Node2&#45;&gt;Node11</title>
<path fill="none" stroke="midnightblue" d="M826.898,-127.543C785.939,-120.718 707.739,-106.399 643.047,-87 640.618,-86.2717 638.125,-85.4538 635.634,-84.5868"/>
<polygon fill="midnightblue" stroke="midnightblue" points="636.786,-81.281 626.193,-81.0868 634.353,-87.8445 636.786,-81.281"/>
</g>
<!-- Node12 -->
<g id="node12" class="node"><title>Node12</title>
<polygon fill="white" stroke="#bfbfbf" points="1383.55,-62 1383.55,-81 1436.55,-81 1436.55,-62 1383.55,-62"/>
<text text-anchor="middle" x="1410.05" y="-69" font-family="Helvetica,sans-Serif" font-size="10.00">QString</text>
</g>
<!-- Node2&#45;&gt;Node12 -->
<g id="edge11" class="edge"><title>Node2&#45;&gt;Node12</title>
<path fill="none" stroke="midnightblue" d="M883.137,-130.053C984.243,-122.979 1326.16,-98.4492 1374.05,-87 1376.72,-86.361 1379.45,-85.5576 1382.16,-84.6585"/>
<polygon fill="midnightblue" stroke="midnightblue" points="1383.56,-87.8745 1391.71,-81.1048 1381.11,-81.3145 1383.56,-87.8745"/>
</g>
<!-- Node13 -->
<g id="node13" class="node"><title>Node13</title>
<polygon fill="white" stroke="#bfbfbf" points="839.047,-0.5 839.047,-19.5 939.047,-19.5 939.047,-0.5 839.047,-0.5"/>
<text text-anchor="middle" x="889.047" y="-7.5" font-family="Helvetica,sans-Serif" font-size="10.00">QUndoCommand</text>
</g>
<!-- Node2&#45;&gt;Node13 -->
<g id="edge12" class="edge"><title>Node2&#45;&gt;Node13</title>
<path fill="none" stroke="midnightblue" d="M883.352,-129.322C949.258,-122.804 1108.56,-105.295 1124.05,-87 1174.43,-27.4854 1034.64,-14.1741 949.443,-11.4558"/>
<polygon fill="midnightblue" stroke="midnightblue" points="949.434,-7.95427 939.34,-11.1744 949.239,-14.9516 949.434,-7.95427"/>
</g>
<!-- Node14 -->
<g id="node14" class="node"><title>Node14</title>
<polygon fill="white" stroke="#bfbfbf" points="744.047,-62 744.047,-81 802.047,-81 802.047,-62 744.047,-62"/>
<text text-anchor="middle" x="773.047" y="-69" font-family="Helvetica,sans-Serif" font-size="10.00">QVariant</text>
</g>
<!-- Node2&#45;&gt;Node14 -->
<g id="edge13" class="edge"><title>Node2&#45;&gt;Node14</title>
<path fill="none" stroke="midnightblue" d="M843.298,-123.475C830.268,-114.02 809.011,-98.5961 793.288,-87.1871"/>
<polygon fill="midnightblue" stroke="midnightblue" points="794.923,-84.0492 784.774,-81.0091 790.812,-89.7149 794.923,-84.0492"/>
</g>
<!-- Node15 -->
<g id="node15" class="node"><title>Node15</title>
<polygon fill="white" stroke="#bfbfbf" points="820.047,-62 820.047,-81 890.047,-81 890.047,-62 820.047,-62"/>
<text text-anchor="middle" x="855.047" y="-69" font-family="Helvetica,sans-Serif" font-size="10.00">src/event.h</text>
</g>
<!-- Node2&#45;&gt;Node15 -->
<g id="edge14" class="edge"><title>Node2&#45;&gt;Node15</title>
<path fill="none" stroke="midnightblue" d="M855.047,-123.475C855.047,-115.08 855.047,-101.981 855.047,-91.1631"/>
<polygon fill="midnightblue" stroke="midnightblue" points="858.547,-91.0091 855.047,-81.0091 851.547,-91.0091 858.547,-91.0091"/>
</g>
<!-- Node16 -->
<g id="node16" class="node"><title>Node16</title>
<polygon fill="white" stroke="#bfbfbf" points="908.047,-62 908.047,-81 1024.05,-81 1024.05,-62 908.047,-62"/>
<text text-anchor="middle" x="966.047" y="-69" font-family="Helvetica,sans-Serif" font-size="10.00">src/ext/multi_index.h</text>
</g>
<!-- Node2&#45;&gt;Node16 -->
<g id="edge15" class="edge"><title>Node2&#45;&gt;Node16</title>
<path fill="none" stroke="midnightblue" d="M870.951,-123.475C889.332,-113.622 919.803,-97.2883 941.292,-85.7697"/>
<polygon fill="midnightblue" stroke="midnightblue" points="943.013,-88.8183 950.173,-81.0091 939.706,-82.6488 943.013,-88.8183"/>
</g>
<!-- Node17 -->
<g id="node17" class="node"><title>Node17</title>
<polygon fill="white" stroke="#bfbfbf" points="1042.55,-62 1042.55,-81 1115.55,-81 1115.55,-62 1042.55,-62"/>
<text text-anchor="middle" x="1079.05" y="-69" font-family="Helvetica,sans-Serif" font-size="10.00">src/model.h</text>
</g>
<!-- Node2&#45;&gt;Node17 -->
<g id="edge16" class="edge"><title>Node2&#45;&gt;Node17</title>
<path fill="none" stroke="midnightblue" d="M883.235,-125.406C918.444,-117.047 980.458,-101.923 1033.05,-87 1036.37,-86.0571 1039.82,-85.0416 1043.26,-84.0014"/>
<polygon fill="midnightblue" stroke="midnightblue" points="1044.33,-87.3346 1052.85,-81.044 1042.27,-80.6452 1044.33,-87.3346"/>
</g>
<!-- Node18 -->
<g id="node18" class="node"><title>Node18</title>
<g id="a_node18"><a xlink:href="command_8h.xhtml" target="_top" xlink:title="Undo&#45;redo helper facilities based on the Qt Undo framework. ">
<polygon fill="white" stroke="black" points="652.047,-62 652.047,-81 726.047,-81 726.047,-62 652.047,-62"/>
<text text-anchor="middle" x="689.047" y="-69" font-family="Helvetica,sans-Serif" font-size="10.00">command.h</text>
</a>
</g>
</g>
<!-- Node2&#45;&gt;Node18 -->
<g id="edge17" class="edge"><title>Node2&#45;&gt;Node18</title>
<path fill="none" stroke="midnightblue" d="M831.263,-123.475C802.665,-113.225 754.496,-95.9593 722.245,-84.3994"/>
<polygon fill="midnightblue" stroke="midnightblue" points="723.381,-81.0885 712.787,-81.0091 721.019,-87.678 723.381,-81.0885"/>
</g>
<!-- Node18&#45;&gt;Node6 -->
<g id="edge18" class="edge"><title>Node18&#45;&gt;Node6</title>
<path fill="none" stroke="midnightblue" d="M661.73,-61.9968C655.281,-60.0104 648.426,-57.9159 642.047,-56 603.171,-44.324 558.652,-31.359 527.513,-22.3561"/>
<polygon fill="midnightblue" stroke="midnightblue" points="528.475,-18.9911 517.897,-19.579 526.533,-25.7163 528.475,-18.9911"/>
</g>
<!-- Node18&#45;&gt;Node13 -->
<g id="edge19" class="edge"><title>Node18&#45;&gt;Node13</title>
<path fill="none" stroke="midnightblue" d="M715.774,-61.9706C722.086,-59.9853 728.798,-57.8978 735.047,-56 773.887,-44.2052 818.411,-31.2567 849.562,-22.29"/>
<polygon fill="midnightblue" stroke="midnightblue" points="850.537,-25.6514 859.181,-19.5252 848.604,-18.9237 850.537,-25.6514"/>
</g>
<!-- Node21&#45;&gt;Node12 -->
<g id="edge24" class="edge"><title>Node21&#45;&gt;Node12</title>
<path fill="none" stroke="midnightblue" d="M1446.89,-123.475C1440.44,-114.55 1430.14,-100.307 1422.07,-89.1425"/>
<polygon fill="midnightblue" stroke="midnightblue" points="1424.89,-87.064 1416.2,-81.0091 1419.22,-91.1642 1424.89,-87.064"/>
</g>
<!-- Node22 -->
<g id="node22" class="node"><title>Node22</title>
<polygon fill="white" stroke="#bfbfbf" points="1454.55,-62 1454.55,-81 1539.55,-81 1539.55,-62 1454.55,-62"/>
<text text-anchor="middle" x="1497.05" y="-69" font-family="Helvetica,sans-Serif" font-size="10.00">QMessageBox</text>
</g>
<!-- Node21&#45;&gt;Node22 -->
<g id="edge23" class="edge"><title>Node21&#45;&gt;Node22</title>
<path fill="none" stroke="midnightblue" d="M1459.35,-123.475C1465.95,-114.55 1476.48,-100.307 1484.74,-89.1425"/>
<polygon fill="midnightblue" stroke="midnightblue" points="1487.62,-91.1305 1490.75,-81.0091 1481.99,-86.9684 1487.62,-91.1305"/>
</g>
<!-- Node23 -->
<g id="node23" class="node"><title>Node23</title>
<polygon fill="white" stroke="#bfbfbf" points="1558.05,-62 1558.05,-81 1674.05,-81 1674.05,-62 1558.05,-62"/>
<text text-anchor="middle" x="1616.05" y="-69" font-family="Helvetica,sans-Serif" font-size="10.00">src/ext/source_info.h</text>
</g>
<!-- Node21&#45;&gt;Node23 -->
<g id="edge25" class="edge"><title>Node21&#45;&gt;Node23</title>
<path fill="none" stroke="midnightblue" d="M1476.4,-123.475C1504.36,-113.269 1551.37,-96.108 1583.04,-84.5492"/>
<polygon fill="midnightblue" stroke="midnightblue" points="1584.54,-87.7259 1592.74,-81.0091 1582.14,-81.1503 1584.54,-87.7259"/>
</g>
</g>
</svg>
        <g id="navigator" transform="translate(0 0)" fill="#404254">
                <rect fill="#f2f5e9" fill-opacity="0.5" stroke="#606060" stroke-width=".5" x="0" y="0" width="60" height="60"/>
                <use id="zoomplus" xlink:href="#zoomPlus" x="17" y="9" onmousedown="handleZoom(evt,'in')"/>
                <use id="zoomminus" xlink:href="#zoomMin" x="42" y="9" onmousedown="handleZoom(evt,'out')"/>
                <use id="reset" xlink:href="#resetDef" x="30" y="36" onmousedown="handleReset()"/>
                <g id="arrowUp" xlink:href="#dirArrow" transform="translate(30 24)" onmousedown="handlePan(0,-1)">
                  <use xlink:href="#rim" fill="#404040">
                        <set attributeName="fill" to="#808080" begin="arrowUp.mouseover" end="arrowUp.mouseout"/>
                  </use>
                  <path fill="none" stroke="white" stroke-width="1.5" d="M0,-3.0v7 M-2.5,-0.5L0,-3.0L2.5,-0.5"/>
                </g>
                <g id="arrowRight" xlink:href="#dirArrow" transform="rotate(90) translate(36 -43)" onmousedown="handlePan(1,0)">
                  <use xlink:href="#rim" fill="#404040">
                        <set attributeName="fill" to="#808080" begin="arrowRight.mouseover" end="arrowRight.mouseout"/>
                  </use>
                  <path fill="none" stroke="white" stroke-width="1.5" d="M0,-3.0v7 M-2.5,-0.5L0,-3.0L2.5,-0.5"/>
                </g>
                <g id="arrowDown" xlink:href="#dirArrow" transform="rotate(180) translate(-30 -48)" onmousedown="handlePan(0,1)">
                  <use xlink:href="#rim" fill="#404040">
                        <set attributeName="fill" to="#808080" begin="arrowDown.mouseover" end="arrowDown.mouseout"/>
                  </use>
                  <path fill="none" stroke="white" stroke-width="1.5" d="M0,-3.0v7 M-2.5,-0.5L0,-3.0L2.5,-0.5"/>
                </g>
                <g id="arrowLeft" xlink:href="#dirArrow" transform="rotate(270) translate(-36 17)" onmousedown="handlePan(-1,0)">
                  <use xlink:href="#rim" fill="#404040">
                        <set attributeName="fill" to="#808080" begin="arrowLeft.mouseover" end="arrowLeft.mouseout"/>
                  </use>
                  <path fill="none" stroke="white" stroke-width="1.5" d="M0,-3.0v7 M-2.5,-0.5L0,-3.0L2.5,-0.5"/>
                </g>
        </g>
        <svg viewBox="0 0 15 15" width="100%" height="30px" preserveAspectRatio="xMaxYMin meet">
         <g id="arrow_out" transform="scale(0.3 0.3)">
          <a xlink:href="model_8cpp__incl_org.svg" target="_base">
           <rect id="button" ry="5" rx="5" y="6" x="6" height="38" width="38"
                fill="#f2f5e9" fill-opacity="0.5" stroke="#606060" stroke-width="1.0"/>
           <path id="arrow"
             d="M 11.500037,31.436501 C 11.940474,20.09759 22.043105,11.32322 32.158766,21.979434 L 37.068811,17.246167 C 37.068811,17.246167 37.088388,32 37.088388,32 L 22.160133,31.978069 C 22.160133,31.978069 26.997745,27.140456 26.997745,27.140456 C 18.528582,18.264221 13.291696,25.230495 11.500037,31.436501 z"
             style="fill:#404040;"/>
          </a>
         </g>
        </svg>
</svg>
