<?xml version="1.0" encoding="UTF-8" standalone="no"?>
<!DOCTYPE svg PUBLIC "-//W3C//DTD SVG 1.1//EN"
 "http://www.w3.org/Graphics/SVG/1.1/DTD/svg11.dtd">
<!-- Generated by graphviz version 2.38.0 (20140413.2041)
 -->
<!-- Title: model.h Pages: 1 -->
<!--zoomable 151 -->
<svg id="main" version="1.1" xmlns="http://www.w3.org/2000/svg" xmlns:xlink="http://www.w3.org/1999/xlink" xml:space="preserve" onload="init(evt)">
<style type="text/css"><![CDATA[
.edge:hover path { stroke: red; }
.edge:hover polygon { stroke: red; fill: red; }
]]></style>
<script type="text/javascript"><![CDATA[
var edges = document.getElementsByTagName('g');
if (edges && edges.length) {
  for (var i=0;i<edges.length;i++) {
    if (edges[i].id.substr(0,4)=='edge') {
      edges[i].setAttribute('class','edge');
    }
  }
}
]]></script>
        <defs>
                <circle id="rim" cx="0" cy="0" r="7"/>
                <circle id="rim2" cx="0" cy="0" r="3.5"/>
                <g id="zoomPlus">
                        <use xlink:href="#rim" fill="#404040">
                                <set attributeName="fill" to="#808080" begin="zoomplus.mouseover" end="zoomplus.mouseout"/>
                        </use>
                        <path d="M-4,0h8M0,-4v8" fill="none" stroke="white" stroke-width="1.5" pointer-events="none"/>
                </g>
                <g id="zoomMin">
                        <use xlink:href="#rim" fill="#404040">
                                <set attributeName="fill" to="#808080" begin="zoomminus.mouseover" end="zoomminus.mouseout"/>
                        </use>
                        <path d="M-4,0h8" fill="none" stroke="white" stroke-width="1.5" pointer-events="none"/>
                </g>
                <g id="dirArrow">
                        <path fill="none" stroke="white" stroke-width="1.5" d="M0,-3.0v7 M-2.5,-0.5L0,-3.0L2.5,-0.5"/>
                </g>
               <g id="resetDef">
                       <use xlink:href="#rim2" fill="#404040">
                               <set attributeName="fill" to="#808080" begin="reset.mouseover" end="reset.mouseout"/>
                       </use>
               </g>
        </defs>

<script type="text/javascript">
var viewWidth = 1447;
var viewHeight = 151;
var sectionId = 'dynsection-0';
</script>
<script xlink:href="svgpan.js"/>
<svg id="graph" class="graph">
<g id="viewport">
<title>model.h</title>
<polygon fill="white" stroke="none" points="-4,4 -4,-147 1443.23,-147 1443.23,4 -4,4"/>
<!-- Node1 -->
<g id="node1" class="node"><title>Node1</title>
<polygon fill="#bfbfbf" stroke="black" points="744.5,-123.5 744.5,-142.5 800.5,-142.5 800.5,-123.5 744.5,-123.5"/>
<text text-anchor="middle" x="772.5" y="-130.5" font-family="Helvetica,sans-Serif" font-size="10.00">model.h</text>
</g>
<!-- Node2 -->
<g id="node2" class="node"><title>Node2</title>
<polygon fill="white" stroke="#bfbfbf" points="0,-62 0,-81 57,-81 57,-62 0,-62"/>
<text text-anchor="middle" x="28.5" y="-69" font-family="Helvetica,sans-Serif" font-size="10.00">memory</text>
</g>
<!-- Node1&#45;&gt;Node2 -->
<g id="edge1" class="edge"><title>Node1&#45;&gt;Node2</title>
<path fill="none" stroke="midnightblue" d="M744.297,-131.368C629.647,-128.62 198.323,-116.497 65.5,-87 62.4986,-86.3335 59.421,-85.4596 56.3847,-84.4708"/>
<polygon fill="midnightblue" stroke="midnightblue" points="57.5638,-81.1754 46.9699,-81.0337 55.1632,-87.7509 57.5638,-81.1754"/>
</g>
<!-- Node3 -->
<g id="node3" class="node"><title>Node3</title>
<polygon fill="white" stroke="#bfbfbf" points="75,-62 75,-81 130,-81 130,-62 75,-62"/>
<text text-anchor="middle" x="102.5" y="-69" font-family="Helvetica,sans-Serif" font-size="10.00">optional</text>
</g>
<!-- Node1&#45;&gt;Node3 -->
<g id="edge2" class="edge"><title>Node1&#45;&gt;Node3</title>
<path fill="none" stroke="midnightblue" d="M744.394,-131.13C637.628,-127.65 257.307,-113.62 139.5,-87 136.501,-86.3224 133.425,-85.4413 130.39,-84.4481"/>
<polygon fill="midnightblue" stroke="midnightblue" points="131.57,-81.1531 120.976,-81.0055 129.166,-87.7272 131.57,-81.1531"/>
</g>
<!-- Node4 -->
<g id="node4" class="node"><title>Node4</title>
<polygon fill="white" stroke="#bfbfbf" points="148.5,-62 148.5,-81 192.5,-81 192.5,-62 148.5,-62"/>
<text text-anchor="middle" x="170.5" y="-69" font-family="Helvetica,sans-Serif" font-size="10.00">string</text>
</g>
<!-- Node1&#45;&gt;Node4 -->
<g id="edge3" class="edge"><title>Node1&#45;&gt;Node4</title>
<path fill="none" stroke="midnightblue" d="M744.343,-130.891C644.904,-126.798 310.609,-111.499 206.5,-87 203.825,-86.3706 201.089,-85.5737 198.379,-84.6787"/>
<polygon fill="midnightblue" stroke="midnightblue" points="199.427,-81.3344 188.834,-81.1315 196.988,-87.8959 199.427,-81.3344"/>
</g>
<!-- Node5 -->
<g id="node5" class="node"><title>Node5</title>
<polygon fill="white" stroke="#bfbfbf" points="521.5,-0.5 521.5,-19.5 589.5,-19.5 589.5,-0.5 521.5,-0.5"/>
<text text-anchor="middle" x="555.5" y="-7.5" font-family="Helvetica,sans-Serif" font-size="10.00">type_traits</text>
</g>
<!-- Node1&#45;&gt;Node5 -->
<g id="edge4" class="edge"><title>Node1&#45;&gt;Node5</title>
<path fill="none" stroke="midnightblue" d="M744.473,-131.798C639.509,-130.753 273.906,-124.433 239.5,-87 230.176,-76.8561 230.47,-66.4065 239.5,-56 274.17,-16.0435 432.895,-10.6565 511.348,-10.4995"/>
<polygon fill="midnightblue" stroke="midnightblue" points="511.408,-13.9994 521.411,-10.5073 511.414,-6.99943 511.408,-13.9994"/>
</g>
<!-- Node6 -->
<g id="node6" class="node"><title>Node6</title>
<polygon fill="white" stroke="#bfbfbf" points="249,-62 249,-81 296,-81 296,-62 249,-62"/>
<text text-anchor="middle" x="272.5" y="-69" font-family="Helvetica,sans-Serif" font-size="10.00">vector</text>
</g>
<!-- Node1&#45;&gt;Node6 -->
<g id="edge5" class="edge"><title>Node1&#45;&gt;Node6</title>
<path fill="none" stroke="midnightblue" d="M744.329,-132.366C670.822,-132.665 467.667,-129.278 305.5,-87 303.201,-86.4006 300.858,-85.66 298.534,-84.8333"/>
<polygon fill="midnightblue" stroke="midnightblue" points="299.841,-81.5862 289.257,-81.0914 297.222,-88.0781 299.841,-81.5862"/>
</g>
<!-- Node7 -->
<g id="node7" class="node"><title>Node7</title>
<polygon fill="white" stroke="#bfbfbf" points="314.5,-56.5 314.5,-86.5 454.5,-86.5 454.5,-56.5 314.5,-56.5"/>
<text text-anchor="start" x="322.5" y="-74.5" font-family="Helvetica,sans-Serif" font-size="10.00">boost/multi_index/hashed</text>
<text text-anchor="middle" x="384.5" y="-63.5" font-family="Helvetica,sans-Serif" font-size="10.00">_index.hpp</text>
</g>
<!-- Node1&#45;&gt;Node7 -->
<g id="edge6" class="edge"><title>Node1&#45;&gt;Node7</title>
<path fill="none" stroke="midnightblue" d="M744.327,-128.252C691.535,-121.152 573.9,-104.971 464.563,-87.1402"/>
<polygon fill="midnightblue" stroke="midnightblue" points="465.122,-83.6853 454.688,-85.5215 463.99,-90.5931 465.122,-83.6853"/>
</g>
<!-- Node8 -->
<g id="node8" class="node"><title>Node8</title>
<polygon fill="white" stroke="#bfbfbf" points="472.5,-56.5 472.5,-86.5 602.5,-86.5 602.5,-56.5 472.5,-56.5"/>
<text text-anchor="start" x="480.5" y="-74.5" font-family="Helvetica,sans-Serif" font-size="10.00">boost/multi_index/mem</text>
<text text-anchor="middle" x="537.5" y="-63.5" font-family="Helvetica,sans-Serif" font-size="10.00">_fun.hpp</text>
</g>
<!-- Node1&#45;&gt;Node8 -->
<g id="edge7" class="edge"><title>Node1&#45;&gt;Node8</title>
<path fill="none" stroke="midnightblue" d="M744.154,-124.823C709.279,-115.993 648.985,-100.727 602.496,-88.9563"/>
<polygon fill="midnightblue" stroke="midnightblue" points="603.352,-85.5628 592.799,-86.5012 601.634,-92.3487 603.352,-85.5628"/>
</g>
<!-- Node9 -->
<g id="node9" class="node"><title>Node9</title>
<polygon fill="white" stroke="#bfbfbf" points="620.5,-62 620.5,-81 792.5,-81 792.5,-62 620.5,-62"/>
<text text-anchor="middle" x="706.5" y="-69" font-family="Helvetica,sans-Serif" font-size="10.00">boost/multi_index_container.hpp</text>
</g>
<!-- Node1&#45;&gt;Node9 -->
<g id="edge8" class="edge"><title>Node1&#45;&gt;Node9</title>
<path fill="none" stroke="midnightblue" d="M763.044,-123.475C752.752,-114.197 736.084,-99.1706 723.506,-87.831"/>
<polygon fill="midnightblue" stroke="midnightblue" points="725.71,-85.1054 715.939,-81.0091 721.022,-90.3046 725.71,-85.1054"/>
</g>
<!-- Node10 -->
<g id="node10" class="node"><title>Node10</title>
<polygon fill="white" stroke="#bfbfbf" points="811,-62 811,-81 866,-81 866,-62 811,-62"/>
<text text-anchor="middle" x="838.5" y="-69" font-family="Helvetica,sans-Serif" font-size="10.00">QObject</text>
</g>
<!-- Node1&#45;&gt;Node10 -->
<g id="edge9" class="edge"><title>Node1&#45;&gt;Node10</title>
<path fill="none" stroke="midnightblue" d="M781.956,-123.475C792.248,-114.197 808.916,-99.1706 821.494,-87.831"/>
<polygon fill="midnightblue" stroke="midnightblue" points="823.978,-90.3046 829.061,-81.0091 819.29,-85.1054 823.978,-90.3046"/>
</g>
<!-- Node11 -->
<g id="node11" class="node"><title>Node11</title>
<polygon fill="white" stroke="#bfbfbf" points="884,-62 884,-81 937,-81 937,-62 884,-62"/>
<text text-anchor="middle" x="910.5" y="-69" font-family="Helvetica,sans-Serif" font-size="10.00">QString</text>
</g>
<!-- Node1&#45;&gt;Node11 -->
<g id="edge10" class="edge"><title>Node1&#45;&gt;Node11</title>
<path fill="none" stroke="midnightblue" d="M792.272,-123.475C815.636,-113.401 854.714,-96.5525 881.503,-85.0023"/>
<polygon fill="midnightblue" stroke="midnightblue" points="882.968,-88.1824 890.765,-81.0091 880.196,-81.7544 882.968,-88.1824"/>
</g>
<!-- Node12 -->
<g id="node12" class="node"><title>Node12</title>
<polygon fill="white" stroke="#bfbfbf" points="1169.5,-0.5 1169.5,-19.5 1269.5,-19.5 1269.5,-0.5 1169.5,-0.5"/>
<text text-anchor="middle" x="1219.5" y="-7.5" font-family="Helvetica,sans-Serif" font-size="10.00">QUndoCommand</text>
</g>
<!-- Node1&#45;&gt;Node12 -->
<g id="edge11" class="edge"><title>Node1&#45;&gt;Node12</title>
<path fill="none" stroke="midnightblue" d="M800.629,-132.271C920.57,-133.139 1385.11,-133.464 1428.5,-87 1475.22,-36.9695 1356.99,-19.7847 1279.87,-13.947"/>
<polygon fill="midnightblue" stroke="midnightblue" points="1279.97,-10.4456 1269.75,-13.2273 1279.48,-17.4279 1279.97,-10.4456"/>
</g>
<!-- Node13 -->
<g id="node13" class="node"><title>Node13</title>
<polygon fill="white" stroke="#bfbfbf" points="1047.5,-62 1047.5,-81 1105.5,-81 1105.5,-62 1047.5,-62"/>
<text text-anchor="middle" x="1076.5" y="-69" font-family="Helvetica,sans-Serif" font-size="10.00">QVariant</text>
</g>
<!-- Node1&#45;&gt;Node13 -->
<g id="edge12" class="edge"><title>Node1&#45;&gt;Node13</title>
<path fill="none" stroke="midnightblue" d="M800.851,-129.062C849.912,-123.568 953.545,-110.152 1038.5,-87 1041.15,-86.2765 1043.88,-85.4373 1046.6,-84.5344"/>
<polygon fill="midnightblue" stroke="midnightblue" points="1048,-87.7485 1056.24,-81.078 1045.64,-81.1594 1048,-87.7485"/>
</g>
<!-- Node14 -->
<g id="node14" class="node"><title>Node14</title>
<polygon fill="white" stroke="#bfbfbf" points="1123.5,-62 1123.5,-81 1193.5,-81 1193.5,-62 1123.5,-62"/>
<text text-anchor="middle" x="1158.5" y="-69" font-family="Helvetica,sans-Serif" font-size="10.00">src/event.h</text>
</g>
<!-- Node1&#45;&gt;Node14 -->
<g id="edge13" class="edge"><title>Node1&#45;&gt;Node14</title>
<path fill="none" stroke="midnightblue" d="M800.745,-130.084C859.674,-125.695 999.778,-113.207 1114.5,-87 1118.17,-86.1626 1121.96,-85.1475 1125.71,-84.0475"/>
<polygon fill="midnightblue" stroke="midnightblue" points="1126.94,-87.3306 1135.44,-81.0013 1124.85,-80.6507 1126.94,-87.3306"/>
</g>
<!-- Node15 -->
<g id="node15" class="node"><title>Node15</title>
<polygon fill="white" stroke="#bfbfbf" points="1211.5,-62 1211.5,-81 1327.5,-81 1327.5,-62 1211.5,-62"/>
<text text-anchor="middle" x="1269.5" y="-69" font-family="Helvetica,sans-Serif" font-size="10.00">src/ext/multi_index.h</text>
</g>
<!-- Node1&#45;&gt;Node15 -->
<g id="edge14" class="edge"><title>Node1&#45;&gt;Node15</title>
<path fill="none" stroke="midnightblue" d="M800.559,-130.127C869.368,-125.302 1051.86,-111.11 1202.5,-87 1209.29,-85.9132 1216.43,-84.5784 1223.41,-83.1628"/>
<polygon fill="midnightblue" stroke="midnightblue" points="1224.41,-86.5304 1233.47,-81.0504 1222.97,-79.6797 1224.41,-86.5304"/>
</g>
<!-- Node16 -->
<g id="node16" class="node"><title>Node16</title>
<polygon fill="white" stroke="#bfbfbf" points="1346,-62 1346,-81 1419,-81 1419,-62 1346,-62"/>
<text text-anchor="middle" x="1382.5" y="-69" font-family="Helvetica,sans-Serif" font-size="10.00">src/model.h</text>
</g>
<!-- Node1&#45;&gt;Node16 -->
<g id="edge15" class="edge"><title>Node1&#45;&gt;Node16</title>
<path fill="none" stroke="midnightblue" d="M800.678,-131.988C883.62,-131.474 1133.79,-126.508 1336.5,-87 1340.66,-86.1891 1344.97,-85.1318 1349.22,-83.9574"/>
<polygon fill="midnightblue" stroke="midnightblue" points="1350.31,-87.2838 1358.89,-81.0651 1348.31,-80.5773 1350.31,-87.2838"/>
</g>
<!-- Node17 -->
<g id="node17" class="node"><title>Node17</title>
<g id="a_node17"><a xlink:href="command_8h.xhtml" target="_top" xlink:title="Undo&#45;redo helper facilities based on the Qt Undo framework. ">
<polygon fill="white" stroke="black" points="955.5,-62 955.5,-81 1029.5,-81 1029.5,-62 955.5,-62"/>
<text text-anchor="middle" x="992.5" y="-69" font-family="Helvetica,sans-Serif" font-size="10.00">command.h</text>
</a>
</g>
</g>
<!-- Node1&#45;&gt;Node17 -->
<g id="edge16" class="edge"><title>Node1&#45;&gt;Node17</title>
<path fill="none" stroke="midnightblue" d="M800.772,-125.059C835.114,-116.533 894.751,-101.421 945.5,-87 948.703,-86.0897 952.022,-85.1202 955.345,-84.1308"/>
<polygon fill="midnightblue" stroke="midnightblue" points="956.666,-87.388 965.223,-81.1414 954.638,-80.6881 956.666,-87.388"/>
</g>
<!-- Node17&#45;&gt;Node5 -->
<g id="edge17" class="edge"><title>Node17&#45;&gt;Node5</title>
<path fill="none" stroke="midnightblue" d="M967.844,-61.9581C960.706,-59.741 952.854,-57.5449 945.5,-56 821.847,-30.0238 672.767,-18.0712 599.929,-13.4536"/>
<polygon fill="midnightblue" stroke="midnightblue" points="599.944,-9.94799 589.747,-12.8247 599.513,-16.9347 599.944,-9.94799"/>
</g>
<!-- Node17&#45;&gt;Node12 -->
<g id="edge18" class="edge"><title>Node17&#45;&gt;Node12</title>
<path fill="none" stroke="midnightblue" d="M1018.69,-61.938C1025.14,-59.9129 1032.05,-57.8159 1038.5,-56 1083.66,-43.2829 1135.67,-30.5472 1172.32,-21.8871"/>
<polygon fill="midnightblue" stroke="midnightblue" points="1173.3,-25.2526 1182.23,-19.5559 1171.7,-18.4386 1173.3,-25.2526"/>
</g>
</g>
</svg>
        <g id="navigator" transform="translate(0 0)" fill="#404254">
                <rect fill="#f2f5e9" fill-opacity="0.5" stroke="#606060" stroke-width=".5" x="0" y="0" width="60" height="60"/>
                <use id="zoomplus" xlink:href="#zoomPlus" x="17" y="9" onmousedown="handleZoom(evt,'in')"/>
                <use id="zoomminus" xlink:href="#zoomMin" x="42" y="9" onmousedown="handleZoom(evt,'out')"/>
                <use id="reset" xlink:href="#resetDef" x="30" y="36" onmousedown="handleReset()"/>
                <g id="arrowUp" xlink:href="#dirArrow" transform="translate(30 24)" onmousedown="handlePan(0,-1)">
                  <use xlink:href="#rim" fill="#404040">
                        <set attributeName="fill" to="#808080" begin="arrowUp.mouseover" end="arrowUp.mouseout"/>
                  </use>
                  <path fill="none" stroke="white" stroke-width="1.5" d="M0,-3.0v7 M-2.5,-0.5L0,-3.0L2.5,-0.5"/>
                </g>
                <g id="arrowRight" xlink:href="#dirArrow" transform="rotate(90) translate(36 -43)" onmousedown="handlePan(1,0)">
                  <use xlink:href="#rim" fill="#404040">
                        <set attributeName="fill" to="#808080" begin="arrowRight.mouseover" end="arrowRight.mouseout"/>
                  </use>
                  <path fill="none" stroke="white" stroke-width="1.5" d="M0,-3.0v7 M-2.5,-0.5L0,-3.0L2.5,-0.5"/>
                </g>
                <g id="arrowDown" xlink:href="#dirArrow" transform="rotate(180) translate(-30 -48)" onmousedown="handlePan(0,1)">
                  <use xlink:href="#rim" fill="#404040">
                        <set attributeName="fill" to="#808080" begin="arrowDown.mouseover" end="arrowDown.mouseout"/>
                  </use>
                  <path fill="none" stroke="white" stroke-width="1.5" d="M0,-3.0v7 M-2.5,-0.5L0,-3.0L2.5,-0.5"/>
                </g>
                <g id="arrowLeft" xlink:href="#dirArrow" transform="rotate(270) translate(-36 17)" onmousedown="handlePan(-1,0)">
                  <use xlink:href="#rim" fill="#404040">
                        <set attributeName="fill" to="#808080" begin="arrowLeft.mouseover" end="arrowLeft.mouseout"/>
                  </use>
                  <path fill="none" stroke="white" stroke-width="1.5" d="M0,-3.0v7 M-2.5,-0.5L0,-3.0L2.5,-0.5"/>
                </g>
        </g>
        <svg viewBox="0 0 15 15" width="100%" height="30px" preserveAspectRatio="xMaxYMin meet">
         <g id="arrow_out" transform="scale(0.3 0.3)">
          <a xlink:href="model_8h__incl_org.svg" target="_base">
           <rect id="button" ry="5" rx="5" y="6" x="6" height="38" width="38"
                fill="#f2f5e9" fill-opacity="0.5" stroke="#606060" stroke-width="1.0"/>
           <path id="arrow"
             d="M 11.500037,31.436501 C 11.940474,20.09759 22.043105,11.32322 32.158766,21.979434 L 37.068811,17.246167 C 37.068811,17.246167 37.088388,32 37.088388,32 L 22.160133,31.978069 C 22.160133,31.978069 26.997745,27.140456 26.997745,27.140456 C 18.528582,18.264221 13.291696,25.230495 11.500037,31.436501 z"
             style="fill:#404040;"/>
          </a>
         </g>
        </svg>
</svg>
