<?xml version="1.0" encoding="UTF-8" standalone="no"?>
<!DOCTYPE svg PUBLIC "-//W3C//DTD SVG 1.1//EN"
 "http://www.w3.org/Graphics/SVG/1.1/DTD/svg11.dtd">
<!-- Generated by graphviz version 2.38.0 (20140413.2041)
 -->
<!-- Title: %3 Pages: 1 -->
<svg width="1422pt" height="332pt"
 viewBox="0.00 0.00 1421.96 332.00" xmlns="http://www.w3.org/2000/svg" xmlns:xlink="http://www.w3.org/1999/xlink">
<g id="graph0" class="graph" transform="scale(1 1) rotate(0) translate(4 328)">
<title>%3</title>
<polygon fill="white" stroke="none" points="-4,4 -4,-328 1417.96,-328 1417.96,4 -4,4"/>
<!-- reporttree -->
<g id="node1" class="node"><title>reporttree</title>
<ellipse fill="none" stroke="black" cx="102.665" cy="-234" rx="59.2899" ry="18"/>
<text text-anchor="middle" x="102.665" y="-230.3" font-family="Times,serif" font-size="14.00">reporttree</text>
</g>
<!-- guiassert -->
<g id="node8" class="node"><title>guiassert</title>
<ellipse fill="none" stroke="black" cx="425.665" cy="-90" rx="53.8905" ry="18"/>
<text text-anchor="middle" x="425.665" y="-86.3" font-family="Times,serif" font-size="14.00">guiassert</text>
</g>
<!-- reporttree&#45;&gt;guiassert -->
<g id="edge3" class="edge"><title>reporttree&#45;&gt;guiassert</title>
<path fill="none" stroke="black" d="M65.2176,-219.994C47.1166,-211.594 27.096,-198.682 16.6648,-180 8.86449,-166.03 6.10305,-156.019 16.6648,-144 39.1292,-118.437 253.8,-101.612 362.805,-94.6448"/>
<polygon fill="black" stroke="black" points="363.254,-98.1235 373.014,-94.0014 362.814,-91.1374 363.254,-98.1235"/>
</g>
<!-- STL -->
<g id="node12" class="node"><title>STL</title>
<ellipse fill="none" stroke="black" cx="587.665" cy="-18" rx="28.6953" ry="18"/>
<text text-anchor="middle" x="587.665" y="-14.3" font-family="Times,serif" font-size="14.00">STL</text>
</g>
<!-- reporttree&#45;&gt;STL -->
<g id="edge2" class="edge"><title>reporttree&#45;&gt;STL</title>
<path fill="none" stroke="black" d="M60.9958,-221.079C40.8262,-212.977 18.4701,-200.002 6.6648,-180 -1.46755,-166.221 -2.76021,-156.929 6.6648,-144 68.2643,-59.4967 128.827,-95.7577 230.665,-72 261.381,-64.8342 464.63,-36.1532 550.005,-24.2348"/>
<polygon fill="black" stroke="black" points="550.631,-27.6814 560.051,-22.8337 549.664,-20.7485 550.631,-27.6814"/>
</g>
<!-- core -->
<g id="node15" class="node"><title>core</title>
<ellipse fill="none" stroke="black" cx="528.665" cy="-90" rx="31.3957" ry="18"/>
<text text-anchor="middle" x="528.665" y="-86.3" font-family="Times,serif" font-size="14.00">core</text>
</g>
<!-- reporttree&#45;&gt;core -->
<g id="edge1" class="edge"><title>reporttree&#45;&gt;core</title>
<path fill="none" stroke="black" d="M130.339,-217.897C147.681,-207.965 170.171,-194.215 188.665,-180 207.11,-165.822 205.691,-154.066 226.665,-144 332.631,-93.1434 375.36,-139.262 488.665,-108 490.997,-107.357 493.372,-106.608 495.744,-105.79"/>
<polygon fill="black" stroke="black" points="497.247,-108.962 505.347,-102.133 494.756,-102.421 497.247,-108.962"/>
</g>
<!-- importancetablemodel -->
<g id="node2" class="node"><title>importancetablemodel</title>
<ellipse fill="none" stroke="black" cx="566.665" cy="-162" rx="115.88" ry="18"/>
<text text-anchor="middle" x="566.665" y="-158.3" font-family="Times,serif" font-size="14.00">importancetablemodel</text>
</g>
<!-- importancetablemodel&#45;&gt;guiassert -->
<g id="edge6" class="edge"><title>importancetablemodel&#45;&gt;guiassert</title>
<path fill="none" stroke="black" d="M533.607,-144.588C512.667,-134.193 485.52,-120.715 463.689,-109.877"/>
<polygon fill="black" stroke="black" points="465.205,-106.722 454.692,-105.411 462.092,-112.992 465.205,-106.722"/>
</g>
<!-- importancetablemodel&#45;&gt;STL -->
<g id="edge5" class="edge"><title>importancetablemodel&#45;&gt;STL</title>
<path fill="none" stroke="black" d="M569.198,-143.871C572.777,-119.67 579.352,-75.2108 583.614,-46.3932"/>
<polygon fill="black" stroke="black" points="587.122,-46.5937 585.123,-36.1893 580.197,-45.5696 587.122,-46.5937"/>
</g>
<!-- importancetablemodel&#45;&gt;core -->
<g id="edge4" class="edge"><title>importancetablemodel&#45;&gt;core</title>
<path fill="none" stroke="black" d="M557.466,-144.055C552.919,-135.679 547.341,-125.404 542.309,-116.134"/>
<polygon fill="black" stroke="black" points="545.364,-114.426 537.517,-107.307 539.212,-117.765 545.364,-114.426"/>
</g>
<!-- align -->
<g id="node23" class="node"><title>align</title>
<ellipse fill="none" stroke="black" cx="653.665" cy="-90" rx="33.5952" ry="18"/>
<text text-anchor="middle" x="653.665" y="-86.3" font-family="Times,serif" font-size="14.00">align</text>
</g>
<!-- importancetablemodel&#45;&gt;align -->
<g id="edge7" class="edge"><title>importancetablemodel&#45;&gt;align</title>
<path fill="none" stroke="black" d="M587.725,-144.055C599.771,-134.363 614.978,-122.127 627.752,-111.849"/>
<polygon fill="black" stroke="black" points="630.14,-114.42 635.737,-105.424 625.752,-108.966 630.14,-114.42"/>
</g>
<!-- settingsdialog -->
<g id="node3" class="node"><title>settingsdialog</title>
<ellipse fill="none" stroke="black" cx="102.665" cy="-162" rx="76.8869" ry="18"/>
<text text-anchor="middle" x="102.665" y="-158.3" font-family="Times,serif" font-size="14.00">settingsdialog</text>
</g>
<!-- settingsdialog&#45;&gt;guiassert -->
<g id="edge10" class="edge"><title>settingsdialog&#45;&gt;guiassert</title>
<path fill="none" stroke="black" d="M157.092,-149.205C216.832,-136.258 312.148,-115.601 371.703,-102.695"/>
<polygon fill="black" stroke="black" points="372.634,-106.074 381.666,-100.535 371.151,-99.2329 372.634,-106.074"/>
</g>
<!-- settingsdialog&#45;&gt;STL -->
<g id="edge9" class="edge"><title>settingsdialog&#45;&gt;STL</title>
<path fill="none" stroke="black" d="M137.682,-145.887C183.275,-126.656 265.759,-93.3733 338.665,-72 412.512,-50.3507 501.091,-33.6333 550.201,-25.1537"/>
<polygon fill="black" stroke="black" points="550.794,-28.6033 560.063,-23.4705 549.616,-21.7031 550.794,-28.6033"/>
</g>
<!-- settingsdialog&#45;&gt;core -->
<g id="edge8" class="edge"><title>settingsdialog&#45;&gt;core</title>
<path fill="none" stroke="black" d="M159.365,-149.834C170.704,-147.764 182.546,-145.715 193.665,-144 324.204,-123.862 361.077,-142.167 488.665,-108 491.002,-107.374 493.381,-106.638 495.755,-105.83"/>
<polygon fill="black" stroke="black" points="497.249,-109.007 505.364,-102.195 494.772,-102.46 497.249,-109.007"/>
</g>
<!-- modeltree -->
<g id="node4" class="node"><title>modeltree</title>
<ellipse fill="none" stroke="black" cx="785.665" cy="-234" rx="57.6901" ry="18"/>
<text text-anchor="middle" x="785.665" y="-230.3" font-family="Times,serif" font-size="14.00">modeltree</text>
</g>
<!-- model -->
<g id="node5" class="node"><title>model</title>
<ellipse fill="none" stroke="black" cx="983.665" cy="-162" rx="38.9931" ry="18"/>
<text text-anchor="middle" x="983.665" y="-158.3" font-family="Times,serif" font-size="14.00">model</text>
</g>
<!-- modeltree&#45;&gt;model -->
<g id="edge12" class="edge"><title>modeltree&#45;&gt;model</title>
<path fill="none" stroke="black" d="M822.346,-220.048C852.717,-209.322 896.998,-193.678 935.665,-180 938.4,-179.033 941.222,-178.034 944.064,-177.028"/>
<polygon fill="black" stroke="black" points="945.45,-180.25 953.708,-173.614 943.113,-173.652 945.45,-180.25"/>
</g>
<!-- overload -->
<g id="node24" class="node"><title>overload</title>
<ellipse fill="none" stroke="black" cx="875.665" cy="-162" rx="50.8918" ry="18"/>
<text text-anchor="middle" x="875.665" y="-158.3" font-family="Times,serif" font-size="14.00">overload</text>
</g>
<!-- modeltree&#45;&gt;overload -->
<g id="edge11" class="edge"><title>modeltree&#45;&gt;overload</title>
<path fill="none" stroke="black" d="M806.087,-217.116C818.371,-207.562 834.178,-195.267 847.621,-184.812"/>
<polygon fill="black" stroke="black" points="849.889,-187.482 855.633,-178.58 845.591,-181.957 849.889,-187.482"/>
</g>
<!-- model&#45;&gt;guiassert -->
<g id="edge14" class="edge"><title>model&#45;&gt;guiassert</title>
<path fill="none" stroke="black" d="M955.335,-149.599C948.954,-147.417 942.149,-145.385 935.665,-144 740.749,-102.379 685.035,-142.105 488.665,-108 483.959,-107.183 479.095,-106.174 474.253,-105.058"/>
<polygon fill="black" stroke="black" points="474.945,-101.624 464.399,-102.646 473.28,-108.424 474.945,-101.624"/>
</g>
<!-- model&#45;&gt;core -->
<g id="edge15" class="edge"><title>model&#45;&gt;core</title>
<path fill="none" stroke="black" d="M955.047,-149.657C948.742,-147.499 942.041,-145.462 935.665,-144 794.011,-111.527 754.197,-130.776 610.665,-108 596.362,-105.73 580.775,-102.653 567.068,-99.7405"/>
<polygon fill="black" stroke="black" points="567.52,-96.2573 557.006,-97.5613 566.038,-103.099 567.52,-96.2573"/>
</g>
<!-- Boost -->
<g id="node18" class="node"><title>Boost</title>
<ellipse fill="none" stroke="black" cx="831.665" cy="-90" rx="37.0935" ry="18"/>
<text text-anchor="middle" x="831.665" y="-86.3" font-family="Times,serif" font-size="14.00">Boost</text>
</g>
<!-- model&#45;&gt;Boost -->
<g id="edge16" class="edge"><title>model&#45;&gt;Boost</title>
<path fill="none" stroke="black" d="M956.84,-148.647C931.834,-137.131 894.381,-119.882 866.958,-107.253"/>
<polygon fill="black" stroke="black" points="868.261,-104 857.714,-102.996 865.333,-110.358 868.261,-104"/>
</g>
<!-- command -->
<g id="node22" class="node"><title>command</title>
<ellipse fill="none" stroke="black" cx="961.665" cy="-90" rx="55.7903" ry="18"/>
<text text-anchor="middle" x="961.665" y="-86.3" font-family="Times,serif" font-size="14.00">command</text>
</g>
<!-- model&#45;&gt;command -->
<g id="edge13" class="edge"><title>model&#45;&gt;command</title>
<path fill="none" stroke="black" d="M978.339,-144.055C975.89,-136.261 972.923,-126.822 970.175,-118.079"/>
<polygon fill="black" stroke="black" points="973.431,-116.766 967.094,-108.275 966.754,-118.865 973.431,-116.766"/>
</g>
<!-- mainwindow -->
<g id="node6" class="node"><title>mainwindow</title>
<ellipse fill="none" stroke="black" cx="660.665" cy="-306" rx="69.5877" ry="18"/>
<text text-anchor="middle" x="660.665" y="-302.3" font-family="Times,serif" font-size="14.00">mainwindow</text>
</g>
<!-- mainwindow&#45;&gt;reporttree -->
<g id="edge27" class="edge"><title>mainwindow&#45;&gt;reporttree</title>
<path fill="none" stroke="black" d="M599.048,-297.59C515.539,-287.505 361.79,-268.788 230.665,-252 209.454,-249.284 186.278,-246.232 165.546,-243.471"/>
<polygon fill="black" stroke="black" points="165.96,-239.995 155.585,-242.142 165.034,-246.934 165.96,-239.995"/>
</g>
<!-- mainwindow&#45;&gt;importancetablemodel -->
<g id="edge20" class="edge"><title>mainwindow&#45;&gt;importancetablemodel</title>
<path fill="none" stroke="black" d="M593.706,-301.107C523.311,-295.45 419.379,-282.125 394.665,-252 363.922,-214.528 422.347,-191.036 479.262,-177.662"/>
<polygon fill="black" stroke="black" points="480.122,-181.056 489.107,-175.441 478.582,-174.227 480.122,-181.056"/>
</g>
<!-- mainwindow&#45;&gt;settingsdialog -->
<g id="edge24" class="edge"><title>mainwindow&#45;&gt;settingsdialog</title>
<path fill="none" stroke="black" d="M598.815,-297.673C535.753,-289.448 435.421,-274.27 350.665,-252 278.08,-232.928 196.673,-201.748 147.563,-181.812"/>
<polygon fill="black" stroke="black" points="148.765,-178.522 138.184,-177.982 146.118,-185.003 148.765,-178.522"/>
</g>
<!-- mainwindow&#45;&gt;modeltree -->
<g id="edge21" class="edge"><title>mainwindow&#45;&gt;modeltree</title>
<path fill="none" stroke="black" d="M688.406,-289.465C706.537,-279.311 730.39,-265.954 749.936,-255.008"/>
<polygon fill="black" stroke="black" points="751.844,-257.951 758.859,-250.011 748.424,-251.844 751.844,-257.951"/>
</g>
<!-- printable -->
<g id="node7" class="node"><title>printable</title>
<ellipse fill="none" stroke="black" cx="1360.66" cy="-162" rx="53.0913" ry="18"/>
<text text-anchor="middle" x="1360.66" y="-158.3" font-family="Times,serif" font-size="14.00">printable</text>
</g>
<!-- mainwindow&#45;&gt;printable -->
<g id="edge25" class="edge"><title>mainwindow&#45;&gt;printable</title>
<path fill="none" stroke="black" d="M729.046,-302.421C882.594,-296.183 1245.15,-278.787 1293.66,-252 1319.06,-237.975 1337.7,-209.823 1348.78,-188.918"/>
<polygon fill="black" stroke="black" points="1351.95,-190.404 1353.34,-179.9 1345.71,-187.247 1351.95,-190.404"/>
</g>
<!-- preferencesdialog -->
<g id="node9" class="node"><title>preferencesdialog</title>
<ellipse fill="none" stroke="black" cx="498.665" cy="-234" rx="94.7833" ry="18"/>
<text text-anchor="middle" x="498.665" y="-230.3" font-family="Times,serif" font-size="14.00">preferencesdialog</text>
</g>
<!-- mainwindow&#45;&gt;preferencesdialog -->
<g id="edge23" class="edge"><title>mainwindow&#45;&gt;preferencesdialog</title>
<path fill="none" stroke="black" d="M626.309,-290.155C602.403,-279.825 570.274,-265.942 544.232,-254.689"/>
<polygon fill="black" stroke="black" points="545.507,-251.428 534.939,-250.674 542.73,-257.853 545.507,-251.428"/>
</g>
<!-- eventdialog -->
<g id="node11" class="node"><title>eventdialog</title>
<ellipse fill="none" stroke="black" cx="1186.66" cy="-234" rx="64.9885" ry="18"/>
<text text-anchor="middle" x="1186.66" y="-230.3" font-family="Times,serif" font-size="14.00">eventdialog</text>
</g>
<!-- mainwindow&#45;&gt;eventdialog -->
<g id="edge26" class="edge"><title>mainwindow&#45;&gt;eventdialog</title>
<path fill="none" stroke="black" d="M725.731,-299.618C813.846,-291.817 975.837,-275.666 1112.66,-252 1118.32,-251.021 1124.2,-249.883 1130.05,-248.669"/>
<polygon fill="black" stroke="black" points="1130.8,-252.088 1139.84,-246.567 1129.33,-245.244 1130.8,-252.088"/>
</g>
<!-- zoomableview -->
<g id="node13" class="node"><title>zoomableview</title>
<ellipse fill="none" stroke="black" cx="1241.66" cy="-90" rx="76.0865" ry="18"/>
<text text-anchor="middle" x="1241.66" y="-86.3" font-family="Times,serif" font-size="14.00">zoomableview</text>
</g>
<!-- mainwindow&#45;&gt;zoomableview -->
<g id="edge18" class="edge"><title>mainwindow&#45;&gt;zoomableview</title>
<path fill="none" stroke="black" d="M730.013,-304.021C880.304,-301.18 1225.42,-290.492 1260.66,-252 1294.28,-215.284 1272.38,-152.449 1255.62,-117.113"/>
<polygon fill="black" stroke="black" points="1258.65,-115.338 1251.09,-107.921 1252.37,-118.437 1258.65,-115.338"/>
</g>
<!-- producttablemodel -->
<g id="node14" class="node"><title>producttablemodel</title>
<ellipse fill="none" stroke="black" cx="334.665" cy="-162" rx="98.5829" ry="18"/>
<text text-anchor="middle" x="334.665" y="-158.3" font-family="Times,serif" font-size="14.00">producttablemodel</text>
</g>
<!-- mainwindow&#45;&gt;producttablemodel -->
<g id="edge17" class="edge"><title>mainwindow&#45;&gt;producttablemodel</title>
<path fill="none" stroke="black" d="M596.184,-299.13C524.953,-291.549 415.908,-276.355 382.665,-252 361.949,-236.823 349.235,-209.93 342.142,-189.666"/>
<polygon fill="black" stroke="black" points="345.437,-188.48 339.017,-180.052 338.78,-190.644 345.437,-188.48"/>
</g>
<!-- diagram -->
<g id="node19" class="node"><title>diagram</title>
<ellipse fill="none" stroke="black" cx="660.665" cy="-234" rx="49.2915" ry="18"/>
<text text-anchor="middle" x="660.665" y="-230.3" font-family="Times,serif" font-size="14.00">diagram</text>
</g>
<!-- mainwindow&#45;&gt;diagram -->
<g id="edge22" class="edge"><title>mainwindow&#45;&gt;diagram</title>
<path fill="none" stroke="black" d="M660.665,-287.697C660.665,-279.983 660.665,-270.712 660.665,-262.112"/>
<polygon fill="black" stroke="black" points="664.165,-262.104 660.665,-252.104 657.165,-262.104 664.165,-262.104"/>
</g>
<!-- elementcontainermodel -->
<g id="node20" class="node"><title>elementcontainermodel</title>
<ellipse fill="none" stroke="black" cx="982.665" cy="-234" rx="120.779" ry="18"/>
<text text-anchor="middle" x="982.665" y="-230.3" font-family="Times,serif" font-size="14.00">elementcontainermodel</text>
</g>
<!-- mainwindow&#45;&gt;elementcontainermodel -->
<g id="edge19" class="edge"><title>mainwindow&#45;&gt;elementcontainermodel</title>
<path fill="none" stroke="black" d="M712.043,-293.831C764.772,-282.368 847.375,-264.411 907.459,-251.349"/>
<polygon fill="black" stroke="black" points="908.247,-254.76 917.276,-249.215 906.76,-247.919 908.247,-254.76"/>
</g>
<!-- Qt5 -->
<g id="node10" class="node"><title>Qt5</title>
<ellipse fill="none" stroke="black" cx="1024.66" cy="-18" rx="27.8951" ry="18"/>
<text text-anchor="middle" x="1024.66" y="-14.3" font-family="Times,serif" font-size="14.00">Qt5</text>
</g>
<!-- printable&#45;&gt;Qt5 -->
<g id="edge28" class="edge"><title>printable&#45;&gt;Qt5</title>
<path fill="none" stroke="black" d="M1359.08,-143.675C1356.23,-123.27 1348.35,-89.8945 1326.66,-72 1286.94,-39.2276 1134.75,-25.7186 1062.79,-21.0751"/>
<polygon fill="black" stroke="black" points="1062.98,-17.58 1052.78,-20.4531 1062.54,-24.5665 1062.98,-17.58"/>
</g>
<!-- guiassert&#45;&gt;Qt5 -->
<g id="edge29" class="edge"><title>guiassert&#45;&gt;Qt5</title>
<path fill="none" stroke="black" d="M464.419,-77.4668C472.384,-75.401 480.753,-73.4484 488.665,-72 673.616,-38.1415 898.705,-24.7739 986.775,-20.5964"/>
<polygon fill="black" stroke="black" points="986.997,-24.09 996.824,-20.1318 986.673,-17.0975 986.997,-24.09"/>
</g>
<!-- ext -->
<g id="node17" class="node"><title>ext</title>
<ellipse fill="none" stroke="black" cx="425.665" cy="-18" rx="27" ry="18"/>
<text text-anchor="middle" x="425.665" y="-14.3" font-family="Times,serif" font-size="14.00">ext</text>
</g>
<!-- guiassert&#45;&gt;ext -->
<g id="edge30" class="edge"><title>guiassert&#45;&gt;ext</title>
<path fill="none" stroke="black" d="M425.665,-71.6966C425.665,-63.9827 425.665,-54.7125 425.665,-46.1124"/>
<polygon fill="black" stroke="black" points="429.165,-46.1043 425.665,-36.1043 422.165,-46.1044 429.165,-46.1043"/>
</g>
<!-- language -->
<g id="node21" class="node"><title>language</title>
<ellipse fill="none" stroke="black" cx="753.665" cy="-162" rx="53.0913" ry="18"/>
<text text-anchor="middle" x="753.665" y="-158.3" font-family="Times,serif" font-size="14.00">language</text>
</g>
<!-- preferencesdialog&#45;&gt;language -->
<g id="edge31" class="edge"><title>preferencesdialog&#45;&gt;language</title>
<path fill="none" stroke="black" d="M550.268,-218.834C595.052,-206.541 659.477,-188.856 703.756,-176.7"/>
<polygon fill="black" stroke="black" points="704.723,-180.065 713.44,-174.042 702.87,-173.314 704.723,-180.065"/>
</g>
<!-- preferencesdialog&#45;&gt;overload -->
<g id="edge32" class="edge"><title>preferencesdialog&#45;&gt;overload</title>
<path fill="none" stroke="black" d="M567.916,-221.621C657.52,-206.868 803.653,-182.697 815.665,-180 819.824,-179.066 824.124,-178.017 828.421,-176.911"/>
<polygon fill="black" stroke="black" points="829.621,-180.213 838.38,-174.252 827.816,-173.45 829.621,-180.213"/>
</g>
<!-- eventdialog&#45;&gt;model -->
<g id="edge35" class="edge"><title>eventdialog&#45;&gt;model</title>
<path fill="none" stroke="black" d="M1147.52,-219.503C1111.93,-207.229 1059.63,-189.194 1023.74,-176.82"/>
<polygon fill="black" stroke="black" points="1024.68,-173.44 1014.08,-173.489 1022.4,-180.058 1024.68,-173.44"/>
</g>
<!-- validator -->
<g id="node16" class="node"><title>validator</title>
<ellipse fill="none" stroke="black" cx="1087.66" cy="-90" rx="51.9908" ry="18"/>
<text text-anchor="middle" x="1087.66" y="-86.3" font-family="Times,serif" font-size="14.00">validator</text>
</g>
<!-- eventdialog&#45;&gt;validator -->
<g id="edge33" class="edge"><title>eventdialog&#45;&gt;validator</title>
<path fill="none" stroke="black" d="M1174.92,-216.153C1157.65,-191.386 1125.29,-144.974 1105.21,-116.159"/>
<polygon fill="black" stroke="black" points="1107.99,-114.026 1099.39,-107.825 1102.24,-118.03 1107.99,-114.026"/>
</g>
<!-- eventdialog&#45;&gt;overload -->
<g id="edge34" class="edge"><title>eventdialog&#45;&gt;overload</title>
<path fill="none" stroke="black" d="M1138.54,-221.759C1129.93,-219.802 1121.04,-217.813 1112.66,-216 1034.21,-199.012 1013.67,-198.955 935.665,-180 931.582,-179.008 927.357,-177.926 923.129,-176.804"/>
<polygon fill="black" stroke="black" points="923.886,-173.383 913.318,-174.137 922.05,-180.138 923.886,-173.383"/>
</g>
<!-- zoomableview&#45;&gt;Qt5 -->
<g id="edge36" class="edge"><title>zoomableview&#45;&gt;Qt5</title>
<path fill="none" stroke="black" d="M1198.53,-75.0866C1157.46,-61.8371 1096.46,-42.1602 1058.7,-29.9804"/>
<polygon fill="black" stroke="black" points="1059.76,-26.6438 1049.17,-26.9047 1057.61,-33.3058 1059.76,-26.6438"/>
</g>
<!-- producttablemodel&#45;&gt;guiassert -->
<g id="edge39" class="edge"><title>producttablemodel&#45;&gt;guiassert</title>
<path fill="none" stroke="black" d="M356.231,-144.411C368.389,-135.058 383.734,-123.254 396.905,-113.123"/>
<polygon fill="black" stroke="black" points="399.399,-115.62 405.191,-106.749 395.131,-110.072 399.399,-115.62"/>
</g>
<!-- producttablemodel&#45;&gt;STL -->
<g id="edge38" class="edge"><title>producttablemodel&#45;&gt;STL</title>
<path fill="none" stroke="black" d="M335.192,-143.962C336.763,-123.84 342.492,-90.7431 362.665,-72 389.512,-47.056 492.568,-30.728 549.432,-23.4179"/>
<polygon fill="black" stroke="black" points="549.997,-26.8747 559.483,-22.1579 549.126,-19.929 549.997,-26.8747"/>
</g>
<!-- producttablemodel&#45;&gt;core -->
<g id="edge37" class="edge"><title>producttablemodel&#45;&gt;core</title>
<path fill="none" stroke="black" d="M380.792,-146.069C411.547,-135.882 452.767,-121.786 488.665,-108 490.864,-107.155 493.121,-106.264 495.391,-105.35"/>
<polygon fill="black" stroke="black" points="496.754,-108.574 504.663,-101.524 494.084,-102.103 496.754,-108.574"/>
</g>
<!-- producttablemodel&#45;&gt;align -->
<g id="edge40" class="edge"><title>producttablemodel&#45;&gt;align</title>
<path fill="none" stroke="black" d="M395.041,-147.751C458.845,-133.75 557.71,-112.056 612.889,-99.9478"/>
<polygon fill="black" stroke="black" points="613.974,-103.293 622.992,-97.7308 612.474,-96.4555 613.974,-103.293"/>
</g>
<!-- validator&#45;&gt;Qt5 -->
<g id="edge41" class="edge"><title>validator&#45;&gt;Qt5</title>
<path fill="none" stroke="black" d="M1072.73,-72.411C1064.47,-63.2234 1054.07,-51.6695 1045.06,-41.66"/>
<polygon fill="black" stroke="black" points="1047.49,-39.1298 1038.2,-34.0382 1042.29,-43.8126 1047.49,-39.1298"/>
</g>
<!-- validator&#45;&gt;STL -->
<g id="edge42" class="edge"><title>validator&#45;&gt;STL</title>
<path fill="none" stroke="black" d="M1049.81,-77.4912C1042.19,-75.4485 1034.21,-73.4985 1026.66,-72 880.135,-42.9112 702.71,-27.4213 626.027,-21.6642"/>
<polygon fill="black" stroke="black" points="626.12,-18.1616 615.889,-20.916 625.604,-25.1426 626.12,-18.1616"/>
</g>
<!-- diagram&#45;&gt;model -->
<g id="edge43" class="edge"><title>diagram&#45;&gt;model</title>
<path fill="none" stroke="black" d="M696.997,-221.622C704.14,-219.592 711.607,-217.614 718.665,-216 813.968,-194.211 840.999,-204.413 935.665,-180 938.789,-179.194 941.999,-178.273 945.205,-177.285"/>
<polygon fill="black" stroke="black" points="946.311,-180.605 954.728,-174.171 944.135,-173.952 946.311,-180.605"/>
</g>
<!-- diagram&#45;&gt;overload -->
<g id="edge44" class="edge"><title>diagram&#45;&gt;overload</title>
<path fill="none" stroke="black" d="M696.168,-221.441C732.749,-209.531 789.916,-190.918 829.878,-177.907"/>
<polygon fill="black" stroke="black" points="830.965,-181.234 839.391,-174.81 828.798,-174.578 830.965,-181.234"/>
</g>
<!-- elementcontainermodel&#45;&gt;model -->
<g id="edge45" class="edge"><title>elementcontainermodel&#45;&gt;model</title>
<path fill="none" stroke="black" d="M982.912,-215.697C983.022,-207.983 983.155,-198.712 983.277,-190.112"/>
<polygon fill="black" stroke="black" points="986.777,-190.153 983.42,-180.104 979.778,-190.053 986.777,-190.153"/>
</g>
<!-- elementcontainermodel&#45;&gt;align -->
<g id="edge46" class="edge"><title>elementcontainermodel&#45;&gt;align</title>
<path fill="none" stroke="black" d="M1003.7,-215.927C1024.57,-196.957 1050.88,-166.095 1031.66,-144 1028.92,-140.841 794.845,-109.628 696.463,-96.6324"/>
<polygon fill="black" stroke="black" points="696.639,-93.1254 686.267,-95.2866 695.723,-100.065 696.639,-93.1254"/>
</g>
<!-- elementcontainermodel&#45;&gt;overload -->
<g id="edge47" class="edge"><title>elementcontainermodel&#45;&gt;overload</title>
<path fill="none" stroke="black" d="M957.036,-216.233C942.116,-206.473 923.185,-194.088 907.337,-183.72"/>
<polygon fill="black" stroke="black" points="909.18,-180.743 898.896,-178.198 905.348,-186.601 909.18,-180.743"/>
</g>
<!-- language&#45;&gt;guiassert -->
<g id="edge50" class="edge"><title>language&#45;&gt;guiassert</title>
<path fill="none" stroke="black" d="M714.444,-149.66C706.914,-147.649 699.069,-145.668 691.665,-144 602.275,-123.864 578.095,-127.955 488.665,-108 484.318,-107.03 479.821,-105.957 475.321,-104.836"/>
<polygon fill="black" stroke="black" points="476.082,-101.418 465.527,-102.324 474.344,-108.198 476.082,-101.418"/>
</g>
<!-- language&#45;&gt;STL -->
<g id="edge49" class="edge"><title>language&#45;&gt;STL</title>
<path fill="none" stroke="black" d="M746.255,-143.942C737.049,-124.412 719.7,-92.4848 696.665,-72 675.161,-52.8764 645.524,-39.0594 622.582,-30.3369"/>
<polygon fill="black" stroke="black" points="623.478,-26.9384 612.885,-26.7987 621.079,-33.5144 623.478,-26.9384"/>
</g>
<!-- language&#45;&gt;core -->
<g id="edge48" class="edge"><title>language&#45;&gt;core</title>
<path fill="none" stroke="black" d="M715.751,-149.205C673.752,-136.138 606.51,-115.219 565.11,-102.339"/>
<polygon fill="black" stroke="black" points="566.014,-98.9542 555.425,-99.3255 563.934,-105.638 566.014,-98.9542"/>
</g>
<!-- language&#45;&gt;Boost -->
<g id="edge51" class="edge"><title>language&#45;&gt;Boost</title>
<path fill="none" stroke="black" d="M771.756,-144.765C782.287,-135.314 795.705,-123.271 807.172,-112.98"/>
<polygon fill="black" stroke="black" points="809.635,-115.473 814.74,-106.189 804.96,-110.263 809.635,-115.473"/>
</g>
<!-- command&#45;&gt;Qt5 -->
<g id="edge52" class="edge"><title>command&#45;&gt;Qt5</title>
<path fill="none" stroke="black" d="M976.595,-72.411C984.864,-63.2234 995.262,-51.6695 1004.27,-41.66"/>
<polygon fill="black" stroke="black" points="1007.04,-43.8126 1011.13,-34.0382 1001.84,-39.1298 1007.04,-43.8126"/>
</g>
<!-- command&#45;&gt;STL -->
<g id="edge53" class="edge"><title>command&#45;&gt;STL</title>
<path fill="none" stroke="black" d="M915.92,-79.5788C903.516,-77.0688 890.084,-74.3913 877.665,-72 787.012,-54.5446 680.136,-35.3753 624.902,-25.573"/>
<polygon fill="black" stroke="black" points="625.342,-22.0965 614.884,-23.7974 624.12,-28.989 625.342,-22.0965"/>
</g>
<!-- align&#45;&gt;Qt5 -->
<g id="edge54" class="edge"><title>align&#45;&gt;Qt5</title>
<path fill="none" stroke="black" d="M684.976,-83.0922C753.243,-70.2116 915.184,-39.6567 988.039,-25.9106"/>
<polygon fill="black" stroke="black" points="988.942,-29.302 998.12,-24.0085 987.644,-22.4234 988.942,-29.302"/>
</g>
</g>
</svg>
