<?xml version="1.0" encoding="UTF-8" standalone="no"?>
<!DOCTYPE svg PUBLIC "-//W3C//DTD SVG 1.1//EN"
 "http://www.w3.org/Graphics/SVG/1.1/DTD/svg11.dtd">
<!-- Generated by graphviz version 2.38.0 (20140413.2041)
 -->
<!-- Title: ext::linear_set::insert Pages: 1 -->
<svg width="513pt" height="137pt"
 viewBox="0.00 0.00 513.00 137.00" xmlns="http://www.w3.org/2000/svg" xmlns:xlink="http://www.w3.org/1999/xlink">
<g id="graph0" class="graph" transform="scale(1 1) rotate(0) translate(4 133)">
<title>ext::linear_set::insert</title>
<polygon fill="white" stroke="none" points="-4,4 -4,-133 509,-133 509,4 -4,4"/>
<!-- Node1 -->
<g id="node1" class="node"><title>Node1</title>
<polygon fill="#bfbfbf" stroke="black" points="0,-55 0,-74 117,-74 117,-55 0,-55"/>
<text text-anchor="middle" x="58.5" y="-62" font-family="Helvetica,sans-Serif" font-size="10.00">ext::linear_set::insert</text>
</g>
<!-- Node2 -->
<g id="node2" class="node"><title>Node2</title>
<g id="a_node2"><a xlink:href="classscram_1_1mef_1_1Element.xhtml#ad5906432084ef153b708dbe77307d4f9" target="_top" xlink:title="Adds an attribute to the attribute map of this element. ">
<polygon fill="white" stroke="black" points="165.5,-98.5 165.5,-128.5 282.5,-128.5 282.5,-98.5 165.5,-98.5"/>
<text text-anchor="start" x="173.5" y="-116.5" font-family="Helvetica,sans-Serif" font-size="10.00">scram::mef::Element</text>
<text text-anchor="middle" x="224" y="-105.5" font-family="Helvetica,sans-Serif" font-size="10.00">::AddAttribute</text>
</a>
</g>
</g>
<!-- Node1&#45;&gt;Node2 -->
<g id="edge1" class="edge"><title>Node1&#45;&gt;Node2</title>
<path fill="none" stroke="midnightblue" d="M101.056,-76.9541C122.895,-83.4992 149.83,-91.5713 172.826,-98.463"/>
<polygon fill="midnightblue" stroke="midnightblue" points="101.996,-73.5822 91.4126,-74.064 99.9869,-80.2876 101.996,-73.5822"/>
</g>
<!-- Node3 -->
<g id="node3" class="node"><title>Node3</title>
<g id="a_node3"><a xlink:href="classext_1_1linear__set.xhtml#a6ab625e16e71548d77393733086cfa0a" target="_top" xlink:title="ext::linear_set\&lt; Attribute,\l AttributeKey \&gt;::linear_set">
<polygon fill="white" stroke="black" points="153,-49.5 153,-79.5 295,-79.5 295,-49.5 153,-49.5"/>
<text text-anchor="start" x="161" y="-67.5" font-family="Helvetica,sans-Serif" font-size="10.00">ext::linear_set&lt; Attribute,</text>
<text text-anchor="middle" x="224" y="-56.5" font-family="Helvetica,sans-Serif" font-size="10.00"> AttributeKey &gt;::linear_set</text>
</a>
</g>
</g>
<!-- Node1&#45;&gt;Node3 -->
<g id="edge2" class="edge"><title>Node1&#45;&gt;Node3</title>
<path fill="none" stroke="midnightblue" d="M127.342,-64.5C135.807,-64.5 144.477,-64.5 152.974,-64.5"/>
<polygon fill="midnightblue" stroke="midnightblue" points="127.144,-61.0001 117.144,-64.5 127.144,-68.0001 127.144,-61.0001"/>
</g>
<!-- Node4 -->
<g id="node4" class="node"><title>Node4</title>
<g id="a_node4"><a xlink:href="classscram_1_1mef_1_1Element.xhtml#ade794914239aa855a85d4408299024b3" target="_top" xlink:title="Sets an attribute to the attribute map. ">
<polygon fill="white" stroke="black" points="165.5,-0.5 165.5,-30.5 282.5,-30.5 282.5,-0.5 165.5,-0.5"/>
<text text-anchor="start" x="173.5" y="-18.5" font-family="Helvetica,sans-Serif" font-size="10.00">scram::mef::Element</text>
<text text-anchor="middle" x="224" y="-7.5" font-family="Helvetica,sans-Serif" font-size="10.00">::SetAttribute</text>
</a>
</g>
</g>
<!-- Node1&#45;&gt;Node4 -->
<g id="edge3" class="edge"><title>Node1&#45;&gt;Node4</title>
<path fill="none" stroke="midnightblue" d="M101.056,-52.0459C122.895,-45.5008 149.83,-37.4287 172.826,-30.537"/>
<polygon fill="midnightblue" stroke="midnightblue" points="99.9869,-48.7124 91.4126,-54.936 101.996,-55.4178 99.9869,-48.7124"/>
</g>
<!-- Node5 -->
<g id="node5" class="node"><title>Node5</title>
<g id="a_node5"><a xlink:href="reporter_8cc.xhtml#a73f9569f4c2e2b6a3eac8d2c01b81943" target="_top" xlink:title="Describes all performed analyses deduced from settings. ">
<polygon fill="white" stroke="black" points="331,-0.5 331,-30.5 505,-30.5 505,-0.5 331,-0.5"/>
<text text-anchor="start" x="339" y="-18.5" font-family="Helvetica,sans-Serif" font-size="10.00">scram::ReportCalculatedQuantity</text>
<text text-anchor="middle" x="418" y="-7.5" font-family="Helvetica,sans-Serif" font-size="10.00">&lt; core::RiskAnalysis &gt;</text>
</a>
</g>
</g>
<!-- Node4&#45;&gt;Node5 -->
<g id="edge4" class="edge"><title>Node4&#45;&gt;Node5</title>
<path fill="none" stroke="midnightblue" d="M292.736,-15.5C305.009,-15.5 317.957,-15.5 330.678,-15.5"/>
<polygon fill="midnightblue" stroke="midnightblue" points="292.606,-12.0001 282.606,-15.5 292.606,-19.0001 292.606,-12.0001"/>
</g>
</g>
</svg>
