<?xml version="1.0" encoding="UTF-8" standalone="no"?>
<!DOCTYPE svg PUBLIC "-//W3C//DTD SVG 1.1//EN"
 "http://www.w3.org/Graphics/SVG/1.1/DTD/svg11.dtd">
<!-- Generated by graphviz version 2.38.0 (20140413.2041)
 -->
<!-- Title: extern.h Pages: 1 -->
<!--zoomable 229 -->
<svg id="main" version="1.1" xmlns="http://www.w3.org/2000/svg" xmlns:xlink="http://www.w3.org/1999/xlink" xml:space="preserve" onload="init(evt)">
<style type="text/css"><![CDATA[
.edge:hover path { stroke: red; }
.edge:hover polygon { stroke: red; fill: red; }
]]></style>
<script type="text/javascript"><![CDATA[
var edges = document.getElementsByTagName('g');
if (edges && edges.length) {
  for (var i=0;i<edges.length;i++) {
    if (edges[i].id.substr(0,4)=='edge') {
      edges[i].setAttribute('class','edge');
    }
  }
}
]]></script>
        <defs>
                <circle id="rim" cx="0" cy="0" r="7"/>
                <circle id="rim2" cx="0" cy="0" r="3.5"/>
                <g id="zoomPlus">
                        <use xlink:href="#rim" fill="#404040">
                                <set attributeName="fill" to="#808080" begin="zoomplus.mouseover" end="zoomplus.mouseout"/>
                        </use>
                        <path d="M-4,0h8M0,-4v8" fill="none" stroke="white" stroke-width="1.5" pointer-events="none"/>
                </g>
                <g id="zoomMin">
                        <use xlink:href="#rim" fill="#404040">
                                <set attributeName="fill" to="#808080" begin="zoomminus.mouseover" end="zoomminus.mouseout"/>
                        </use>
                        <path d="M-4,0h8" fill="none" stroke="white" stroke-width="1.5" pointer-events="none"/>
                </g>
                <g id="dirArrow">
                        <path fill="none" stroke="white" stroke-width="1.5" d="M0,-3.0v7 M-2.5,-0.5L0,-3.0L2.5,-0.5"/>
                </g>
               <g id="resetDef">
                       <use xlink:href="#rim2" fill="#404040">
                               <set attributeName="fill" to="#808080" begin="reset.mouseover" end="reset.mouseout"/>
                       </use>
               </g>
        </defs>

<script type="text/javascript">
var viewWidth = 2462;
var viewHeight = 229;
var sectionId = 'dynsection-0';
</script>
<script xlink:href="svgpan.js"/>
<svg id="graph" class="graph">
<g id="viewport">
<title>extern.h</title>
<polygon fill="white" stroke="none" points="-4,4 -4,-225 2457.5,-225 2457.5,4 -4,4"/>
<!-- Node1 -->
<g id="node1" class="node"><title>Node1</title>
<polygon fill="#bfbfbf" stroke="black" points="1636.5,-201.5 1636.5,-220.5 1692.5,-220.5 1692.5,-201.5 1636.5,-201.5"/>
<text text-anchor="middle" x="1664.5" y="-208.5" font-family="Helvetica,sans-Serif" font-size="10.00">extern.h</text>
</g>
<!-- Node2 -->
<g id="node2" class="node"><title>Node2</title>
<polygon fill="white" stroke="#bfbfbf" points="678,-73 678,-92 735,-92 735,-73 678,-73"/>
<text text-anchor="middle" x="706.5" y="-80" font-family="Helvetica,sans-Serif" font-size="10.00">memory</text>
</g>
<!-- Node1&#45;&gt;Node2 -->
<g id="edge1" class="edge"><title>Node1&#45;&gt;Node2</title>
<path fill="none" stroke="midnightblue" d="M1636.25,-209.847C1545.05,-208.971 1250.47,-203.166 1010.5,-165 890.099,-145.851 860.765,-134.684 744.5,-98 742.084,-97.2378 739.599,-96.4044 737.112,-95.5348"/>
<polygon fill="midnightblue" stroke="midnightblue" points="738.242,-92.2215 727.648,-92.0753 735.839,-98.796 738.242,-92.2215"/>
</g>
<!-- Node3 -->
<g id="node3" class="node"><title>Node3</title>
<polygon fill="white" stroke="#bfbfbf" points="827.5,-6 827.5,-25 871.5,-25 871.5,-6 827.5,-6"/>
<text text-anchor="middle" x="849.5" y="-13" font-family="Helvetica,sans-Serif" font-size="10.00">string</text>
</g>
<!-- Node1&#45;&gt;Node3 -->
<g id="edge2" class="edge"><title>Node1&#45;&gt;Node3</title>
<path fill="none" stroke="midnightblue" d="M1636.29,-209.486C1512.03,-207.058 1012.91,-195.556 859.5,-165 771.273,-147.427 720.529,-171.388 668.5,-98 660.532,-86.7603 659.97,-77.8196 668.5,-67 710.947,-13.1604 753.786,-53.6392 818.5,-31 820.119,-30.4335 821.768,-29.8103 823.418,-29.1504"/>
<polygon fill="midnightblue" stroke="midnightblue" points="824.93,-32.3095 832.702,-25.1092 822.136,-25.8912 824.93,-32.3095"/>
</g>
<!-- Node4 -->
<g id="node4" class="node"><title>Node4</title>
<polygon fill="white" stroke="#bfbfbf" points="753.5,-73 753.5,-92 821.5,-92 821.5,-73 753.5,-73"/>
<text text-anchor="middle" x="787.5" y="-80" font-family="Helvetica,sans-Serif" font-size="10.00">type_traits</text>
</g>
<!-- Node1&#45;&gt;Node4 -->
<g id="edge3" class="edge"><title>Node1&#45;&gt;Node4</title>
<path fill="none" stroke="midnightblue" d="M1636.4,-208.292C1562.98,-203.621 1359.47,-189.335 1191.5,-165 1037.78,-142.729 1000.31,-130.856 848.5,-98 843.047,-96.8199 837.333,-95.5312 831.681,-94.2246"/>
<polygon fill="midnightblue" stroke="midnightblue" points="832.178,-90.7463 821.643,-91.8732 830.581,-97.5618 832.178,-90.7463"/>
</g>
<!-- Node5 -->
<g id="node5" class="node"><title>Node5</title>
<polygon fill="white" stroke="#bfbfbf" points="2032,-6 2032,-25 2079,-25 2079,-6 2032,-6"/>
<text text-anchor="middle" x="2055.5" y="-13" font-family="Helvetica,sans-Serif" font-size="10.00">vector</text>
</g>
<!-- Node1&#45;&gt;Node5 -->
<g id="edge4" class="edge"><title>Node1&#45;&gt;Node5</title>
<path fill="none" stroke="midnightblue" d="M1666.07,-201.141C1669.47,-184.793 1679.19,-150.085 1702.5,-134 1767.95,-88.8428 2005.18,-156.986 2058.5,-98 2073.82,-81.0542 2068.64,-53.0977 2062.71,-34.7393"/>
<polygon fill="midnightblue" stroke="midnightblue" points="2065.96,-33.4244 2059.29,-25.195 2059.37,-35.7895 2065.96,-33.4244"/>
</g>
<!-- Node6 -->
<g id="node6" class="node"><title>Node6</title>
<polygon fill="white" stroke="#bfbfbf" points="1712,-140 1712,-159 1859,-159 1859,-140 1712,-140"/>
<text text-anchor="middle" x="1785.5" y="-147" font-family="Helvetica,sans-Serif" font-size="10.00">boost/dll/shared_library.hpp</text>
</g>
<!-- Node1&#45;&gt;Node6 -->
<g id="edge5" class="edge"><title>Node1&#45;&gt;Node6</title>
<path fill="none" stroke="midnightblue" d="M1681.84,-201.475C1702.05,-191.534 1735.69,-174.995 1759.14,-163.461"/>
<polygon fill="midnightblue" stroke="midnightblue" points="1760.77,-166.563 1768.2,-159.009 1757.68,-160.281 1760.77,-166.563"/>
</g>
<!-- Node7 -->
<g id="node7" class="node"><title>Node7</title>
<polygon fill="white" stroke="#bfbfbf" points="1877.5,-134.5 1877.5,-164.5 2005.5,-164.5 2005.5,-134.5 1877.5,-134.5"/>
<text text-anchor="start" x="1885.5" y="-152.5" font-family="Helvetica,sans-Serif" font-size="10.00">boost/exception/errinfo</text>
<text text-anchor="middle" x="1941.5" y="-141.5" font-family="Helvetica,sans-Serif" font-size="10.00">_nested_exception.hpp</text>
</g>
<!-- Node1&#45;&gt;Node7 -->
<g id="edge6" class="edge"><title>Node1&#45;&gt;Node7</title>
<path fill="none" stroke="midnightblue" d="M1692.58,-203.967C1733.28,-195.226 1810.07,-178.731 1867.64,-166.364"/>
<polygon fill="midnightblue" stroke="midnightblue" points="1868.39,-169.784 1877.43,-164.262 1866.92,-162.94 1868.39,-169.784"/>
</g>
<!-- Node8 -->
<g id="node8" class="node"><title>Node8</title>
<polygon fill="white" stroke="#bfbfbf" points="2023.5,-140 2023.5,-159 2155.5,-159 2155.5,-140 2023.5,-140"/>
<text text-anchor="middle" x="2089.5" y="-147" font-family="Helvetica,sans-Serif" font-size="10.00">boost/exception_ptr.hpp</text>
</g>
<!-- Node1&#45;&gt;Node8 -->
<g id="edge7" class="edge"><title>Node1&#45;&gt;Node8</title>
<path fill="none" stroke="midnightblue" d="M1692.71,-206.984C1752.31,-200.479 1895.34,-184.159 2014.5,-165 2022.14,-163.771 2030.2,-162.349 2038.08,-160.886"/>
<polygon fill="midnightblue" stroke="midnightblue" points="2038.75,-164.321 2047.93,-159.022 2037.45,-157.443 2038.75,-164.321"/>
</g>
<!-- Node9 -->
<g id="node9" class="node"><title>Node9</title>
<polygon fill="white" stroke="#bfbfbf" points="2174,-140 2174,-159 2315,-159 2315,-140 2174,-140"/>
<text text-anchor="middle" x="2244.5" y="-147" font-family="Helvetica,sans-Serif" font-size="10.00">boost/filesystem/path.hpp</text>
</g>
<!-- Node1&#45;&gt;Node9 -->
<g id="edge8" class="edge"><title>Node1&#45;&gt;Node9</title>
<path fill="none" stroke="midnightblue" d="M1692.52,-208.362C1768.62,-203.72 1985.5,-189.227 2164.5,-165 2173.24,-163.817 2182.48,-162.348 2191.45,-160.802"/>
<polygon fill="midnightblue" stroke="midnightblue" points="2192.2,-164.225 2201.43,-159.036 2190.98,-157.333 2192.2,-164.225"/>
</g>
<!-- Node10 -->
<g id="node10" class="node"><title>Node10</title>
<polygon fill="white" stroke="#bfbfbf" points="2333.5,-134.5 2333.5,-164.5 2453.5,-164.5 2453.5,-134.5 2333.5,-134.5"/>
<text text-anchor="start" x="2341.5" y="-152.5" font-family="Helvetica,sans-Serif" font-size="10.00">boost/system/system</text>
<text text-anchor="middle" x="2393.5" y="-141.5" font-family="Helvetica,sans-Serif" font-size="10.00">_error.hpp</text>
</g>
<!-- Node1&#45;&gt;Node10 -->
<g id="edge9" class="edge"><title>Node1&#45;&gt;Node10</title>
<path fill="none" stroke="midnightblue" d="M1692.63,-209.479C1782.9,-207.513 2073.53,-198.905 2323.38,-165.02"/>
<polygon fill="midnightblue" stroke="midnightblue" points="2323.94,-168.476 2333.38,-163.649 2322.99,-161.541 2323.94,-168.476"/>
</g>
<!-- Node11 -->
<g id="node11" class="node"><title>Node11</title>
<g id="a_node11"><a xlink:href="element_8h.xhtml" target="_top" xlink:title="Base/mixin classes, structs, and properties common to all MEF classes/constructs. ...">
<polygon fill="white" stroke="black" points="1201,-140 1201,-159 1284,-159 1284,-140 1201,-140"/>
<text text-anchor="middle" x="1242.5" y="-147" font-family="Helvetica,sans-Serif" font-size="10.00">src/element.h</text>
</a>
</g>
</g>
<!-- Node1&#45;&gt;Node11 -->
<g id="edge10" class="edge"><title>Node1&#45;&gt;Node11</title>
<path fill="none" stroke="midnightblue" d="M1636.48,-206.05C1566.65,-196.203 1383.99,-170.449 1294.05,-157.768"/>
<polygon fill="midnightblue" stroke="midnightblue" points="1294.47,-154.293 1284.08,-156.362 1293.49,-161.224 1294.47,-154.293"/>
</g>
<!-- Node21 -->
<g id="node21" class="node"><title>Node21</title>
<g id="a_node21"><a xlink:href="error_8h.xhtml" target="_top" xlink:title="Exceptions for SCRAM. ">
<polygon fill="white" stroke="black" points="573.5,-73 573.5,-92 621.5,-92 621.5,-73 573.5,-73"/>
<text text-anchor="middle" x="597.5" y="-80" font-family="Helvetica,sans-Serif" font-size="10.00">error.h</text>
</a>
</g>
</g>
<!-- Node1&#45;&gt;Node21 -->
<g id="edge39" class="edge"><title>Node1&#45;&gt;Node21</title>
<path fill="none" stroke="midnightblue" d="M1636.4,-209.59C1475.65,-207.14 678.267,-193.58 635.5,-165 614.233,-150.788 604.623,-121.384 600.46,-102.055"/>
<polygon fill="midnightblue" stroke="midnightblue" points="603.864,-101.22 598.591,-92.0305 596.983,-102.503 603.864,-101.22"/>
</g>
<!-- Node33 -->
<g id="node33" class="node"><title>Node33</title>
<g id="a_node33"><a xlink:href="expression_8h.xhtml" target="_top" xlink:title="Provides the base class for all expressions and units for expression values. ">
<polygon fill="white" stroke="black" points="1932,-73 1932,-92 2027,-92 2027,-73 1932,-73"/>
<text text-anchor="middle" x="1979.5" y="-80" font-family="Helvetica,sans-Serif" font-size="10.00">src/expression.h</text>
</a>
</g>
</g>
<!-- Node1&#45;&gt;Node33 -->
<g id="edge40" class="edge"><title>Node1&#45;&gt;Node33</title>
<path fill="none" stroke="midnightblue" d="M1661.98,-201.371C1658,-185.711 1652.33,-152.521 1669.5,-134 1708.11,-92.3547 1866.79,-109.016 1922.5,-98 1927.69,-96.974 1933.11,-95.7696 1938.46,-94.501"/>
<polygon fill="midnightblue" stroke="midnightblue" points="1939.7,-97.8 1948.58,-92.0122 1938.03,-91.0027 1939.7,-97.8"/>
</g>
<!-- Node11&#45;&gt;Node2 -->
<g id="edge13" class="edge"><title>Node11&#45;&gt;Node2</title>
<path fill="none" stroke="midnightblue" d="M1200.9,-147.961C1114.63,-146.043 910.444,-137.344 744.5,-98 741.505,-97.2899 738.428,-96.4011 735.384,-95.4152"/>
<polygon fill="midnightblue" stroke="midnightblue" points="736.507,-92.0999 725.912,-92.0343 734.154,-98.6925 736.507,-92.0999"/>
</g>
<!-- Node11&#45;&gt;Node3 -->
<g id="edge15" class="edge"><title>Node11&#45;&gt;Node3</title>
<path fill="none" stroke="midnightblue" d="M1200.88,-144.155C1105.96,-134.076 880.724,-109.117 868.5,-98 851.15,-82.2219 848.126,-53.9396 848.259,-35.1942"/>
<polygon fill="midnightblue" stroke="midnightblue" points="851.757,-35.3129 848.634,-25.1887 844.762,-35.0506 851.757,-35.3129"/>
</g>
<!-- Node11&#45;&gt;Node4 -->
<g id="edge17" class="edge"><title>Node11&#45;&gt;Node4</title>
<path fill="none" stroke="midnightblue" d="M1200.93,-144.249C1111.78,-134.986 904.726,-112.64 835.5,-98 831.332,-97.1186 827.004,-96.0443 822.728,-94.883"/>
<polygon fill="midnightblue" stroke="midnightblue" points="823.527,-91.471 812.949,-92.0656 821.589,-98.1974 823.527,-91.471"/>
</g>
<!-- Node11&#45;&gt;Node5 -->
<g id="edge18" class="edge"><title>Node11&#45;&gt;Node5</title>
<path fill="none" stroke="midnightblue" d="M1284.22,-147.203C1443.59,-142.076 2006.46,-122.307 2035.5,-98 2053.63,-82.8287 2056.81,-54.1517 2056.71,-35.182"/>
<polygon fill="midnightblue" stroke="midnightblue" points="2060.2,-34.938 2056.35,-25.0711 2053.21,-35.1911 2060.2,-34.938"/>
</g>
<!-- Node12 -->
<g id="node12" class="node"><title>Node12</title>
<polygon fill="white" stroke="#bfbfbf" points="1218,-73 1218,-92 1267,-92 1267,-73 1218,-73"/>
<text text-anchor="middle" x="1242.5" y="-80" font-family="Helvetica,sans-Serif" font-size="10.00">cstdint</text>
</g>
<!-- Node11&#45;&gt;Node12 -->
<g id="edge11" class="edge"><title>Node11&#45;&gt;Node12</title>
<path fill="none" stroke="midnightblue" d="M1242.5,-139.734C1242.5,-130.183 1242.5,-114.618 1242.5,-102.283"/>
<polygon fill="midnightblue" stroke="midnightblue" points="1246,-102.127 1242.5,-92.1273 1239,-102.127 1246,-102.127"/>
</g>
<!-- Node13 -->
<g id="node13" class="node"><title>Node13</title>
<polygon fill="white" stroke="#bfbfbf" points="1285,-73 1285,-92 1348,-92 1348,-73 1285,-73"/>
<text text-anchor="middle" x="1316.5" y="-80" font-family="Helvetica,sans-Serif" font-size="10.00">functional</text>
</g>
<!-- Node11&#45;&gt;Node13 -->
<g id="edge12" class="edge"><title>Node11&#45;&gt;Node13</title>
<path fill="none" stroke="midnightblue" d="M1252.48,-139.734C1264.35,-129.305 1284.39,-111.709 1298.88,-98.9732"/>
<polygon fill="midnightblue" stroke="midnightblue" points="1301.47,-101.356 1306.68,-92.1273 1296.86,-96.0971 1301.47,-101.356"/>
</g>
<!-- Node14 -->
<g id="node14" class="node"><title>Node14</title>
<polygon fill="white" stroke="#bfbfbf" points="1475,-73 1475,-92 1530,-92 1530,-73 1475,-73"/>
<text text-anchor="middle" x="1502.5" y="-80" font-family="Helvetica,sans-Serif" font-size="10.00">optional</text>
</g>
<!-- Node11&#45;&gt;Node14 -->
<g id="edge14" class="edge"><title>Node11&#45;&gt;Node14</title>
<path fill="none" stroke="midnightblue" d="M1284.09,-141.03C1329.25,-132.468 1403.27,-117.12 1465.5,-98 1467.92,-97.2553 1470.41,-96.4256 1472.9,-95.5507"/>
<polygon fill="midnightblue" stroke="midnightblue" points="1474.19,-98.8061 1482.34,-92.0359 1471.75,-92.2463 1474.19,-98.8061"/>
</g>
<!-- Node15 -->
<g id="node15" class="node"><title>Node15</title>
<polygon fill="white" stroke="#bfbfbf" points="1548,-73 1548,-92 1617,-92 1617,-73 1548,-73"/>
<text text-anchor="middle" x="1582.5" y="-80" font-family="Helvetica,sans-Serif" font-size="10.00">string_view</text>
</g>
<!-- Node11&#45;&gt;Node15 -->
<g id="edge16" class="edge"><title>Node11&#45;&gt;Node15</title>
<path fill="none" stroke="midnightblue" d="M1284.08,-143.401C1341.73,-135.881 1448.95,-120.261 1538.5,-98 1541.88,-97.1596 1545.38,-96.1884 1548.85,-95.1549"/>
<polygon fill="midnightblue" stroke="midnightblue" points="1549.99,-98.4669 1558.48,-92.1337 1547.89,-91.7879 1549.99,-98.4669"/>
</g>
<!-- Node16 -->
<g id="node16" class="node"><title>Node16</title>
<polygon fill="white" stroke="#bfbfbf" points="1635.5,-67.5 1635.5,-97.5 1755.5,-97.5 1755.5,-67.5 1635.5,-67.5"/>
<text text-anchor="start" x="1643.5" y="-85.5" font-family="Helvetica,sans-Serif" font-size="10.00">boost/iterator/iterator</text>
<text text-anchor="middle" x="1695.5" y="-74.5" font-family="Helvetica,sans-Serif" font-size="10.00">_facade.hpp</text>
</g>
<!-- Node11&#45;&gt;Node16 -->
<g id="edge19" class="edge"><title>Node11&#45;&gt;Node16</title>
<path fill="none" stroke="midnightblue" d="M1284.02,-144.033C1352.69,-136.427 1494.41,-119.804 1625.04,-97.9927"/>
<polygon fill="midnightblue" stroke="midnightblue" points="1625.94,-101.39 1635.22,-96.2776 1624.78,-94.4868 1625.94,-101.39"/>
</g>
<!-- Node17 -->
<g id="node17" class="node"><title>Node17</title>
<polygon fill="white" stroke="#bfbfbf" points="1773.5,-67.5 1773.5,-97.5 1913.5,-97.5 1913.5,-67.5 1773.5,-67.5"/>
<text text-anchor="start" x="1781.5" y="-85.5" font-family="Helvetica,sans-Serif" font-size="10.00">boost/multi_index/hashed</text>
<text text-anchor="middle" x="1843.5" y="-74.5" font-family="Helvetica,sans-Serif" font-size="10.00">_index.hpp</text>
</g>
<!-- Node11&#45;&gt;Node17 -->
<g id="edge20" class="edge"><title>Node11&#45;&gt;Node17</title>
<path fill="none" stroke="midnightblue" d="M1284.26,-145.673C1371.36,-139.514 1578.96,-123.474 1763.19,-98.1073"/>
<polygon fill="midnightblue" stroke="midnightblue" points="1763.92,-101.541 1773.34,-96.6977 1762.95,-94.6074 1763.92,-101.541"/>
</g>
<!-- Node18 -->
<g id="node18" class="node"><title>Node18</title>
<polygon fill="white" stroke="#bfbfbf" points="993.5,-67.5 993.5,-97.5 1123.5,-97.5 1123.5,-67.5 993.5,-67.5"/>
<text text-anchor="start" x="1001.5" y="-85.5" font-family="Helvetica,sans-Serif" font-size="10.00">boost/multi_index/mem</text>
<text text-anchor="middle" x="1058.5" y="-74.5" font-family="Helvetica,sans-Serif" font-size="10.00">_fun.hpp</text>
</g>
<!-- Node11&#45;&gt;Node18 -->
<g id="edge21" class="edge"><title>Node11&#45;&gt;Node18</title>
<path fill="none" stroke="midnightblue" d="M1218.07,-139.869C1190.1,-129.988 1143.56,-113.549 1107.94,-100.966"/>
<polygon fill="midnightblue" stroke="midnightblue" points="1108.81,-97.5589 1098.21,-97.5281 1106.47,-104.159 1108.81,-97.5589"/>
</g>
<!-- Node19 -->
<g id="node19" class="node"><title>Node19</title>
<polygon fill="white" stroke="#bfbfbf" points="977.5,-6 977.5,-25 1149.5,-25 1149.5,-6 977.5,-6"/>
<text text-anchor="middle" x="1063.5" y="-13" font-family="Helvetica,sans-Serif" font-size="10.00">boost/multi_index_container.hpp</text>
</g>
<!-- Node11&#45;&gt;Node19 -->
<g id="edge22" class="edge"><title>Node11&#45;&gt;Node19</title>
<path fill="none" stroke="midnightblue" d="M1230.96,-139.912C1210.94,-125.029 1168.48,-93.4955 1132.5,-67 1116.03,-54.8692 1097.29,-41.1643 1083.51,-31.0956"/>
<polygon fill="midnightblue" stroke="midnightblue" points="1085.38,-28.1265 1075.24,-25.0571 1081.25,-33.7803 1085.38,-28.1265"/>
</g>
<!-- Node20 -->
<g id="node20" class="node"><title>Node20</title>
<polygon fill="white" stroke="#bfbfbf" points="1487.5,-6 1487.5,-25 1615.5,-25 1615.5,-6 1487.5,-6"/>
<text text-anchor="middle" x="1551.5" y="-13" font-family="Helvetica,sans-Serif" font-size="10.00">boost/noncopyable.hpp</text>
</g>
<!-- Node11&#45;&gt;Node20 -->
<g id="edge23" class="edge"><title>Node11&#45;&gt;Node20</title>
<path fill="none" stroke="midnightblue" d="M1233.57,-139.937C1217.99,-123.968 1189.23,-89.2483 1208.5,-67 1245.25,-24.5768 1402.99,-39.3235 1458.5,-31 1467.86,-29.5972 1477.74,-28.0873 1487.42,-26.5906"/>
<polygon fill="midnightblue" stroke="midnightblue" points="1488.08,-30.0314 1497.42,-25.0406 1487,-23.114 1488.08,-30.0314"/>
</g>
<!-- Node11&#45;&gt;Node21 -->
<g id="edge24" class="edge"><title>Node11&#45;&gt;Node21</title>
<path fill="none" stroke="midnightblue" d="M1200.89,-146.465C1106.06,-141.473 866.735,-126.867 668.5,-98 656.368,-96.2333 643.183,-93.7104 631.506,-91.2631"/>
<polygon fill="midnightblue" stroke="midnightblue" points="632.209,-87.8343 621.697,-89.1528 630.737,-94.6777 632.209,-87.8343"/>
</g>
<!-- Node28 -->
<g id="node28" class="node"><title>Node28</title>
<g id="a_node28"><a xlink:href="linear__set_8h.xhtml" target="_top" xlink:title="Implementation of a vector&#45;based set for a small number of entries. ">
<polygon fill="white" stroke="black" points="1366.5,-73 1366.5,-92 1456.5,-92 1456.5,-73 1366.5,-73"/>
<text text-anchor="middle" x="1411.5" y="-80" font-family="Helvetica,sans-Serif" font-size="10.00">ext/linear_set.h</text>
</a>
</g>
</g>
<!-- Node11&#45;&gt;Node28 -->
<g id="edge32" class="edge"><title>Node11&#45;&gt;Node28</title>
<path fill="none" stroke="midnightblue" d="M1264.94,-139.869C1294.32,-128.571 1345.99,-108.696 1379.47,-95.8183"/>
<polygon fill="midnightblue" stroke="midnightblue" points="1381.16,-98.9202 1389.23,-92.0637 1378.64,-92.3868 1381.16,-98.9202"/>
</g>
<!-- Node32 -->
<g id="node32" class="node"><title>Node32</title>
<g id="a_node32"><a xlink:href="multi__index_8h.xhtml" target="_top" xlink:title="Helper functions to boost multi_index_container. ">
<polygon fill="white" stroke="black" points="877.5,-73 877.5,-92 975.5,-92 975.5,-73 877.5,-73"/>
<text text-anchor="middle" x="926.5" y="-80" font-family="Helvetica,sans-Serif" font-size="10.00">ext/multi_index.h</text>
</a>
</g>
</g>
<!-- Node11&#45;&gt;Node32 -->
<g id="edge37" class="edge"><title>Node11&#45;&gt;Node32</title>
<path fill="none" stroke="midnightblue" d="M1200.81,-141.025C1149.68,-131.7 1060.46,-114.917 984.5,-98 979.499,-96.8863 974.271,-95.663 969.088,-94.4138"/>
<polygon fill="midnightblue" stroke="midnightblue" points="969.796,-90.9838 959.251,-92.0016 968.129,-97.7824 969.796,-90.9838"/>
</g>
<!-- Node21&#45;&gt;Node3 -->
<g id="edge26" class="edge"><title>Node21&#45;&gt;Node3</title>
<path fill="none" stroke="midnightblue" d="M618.19,-72.8741C623.747,-70.7591 629.799,-68.6357 635.5,-67 715.178,-44.1414 739.709,-56.7503 818.5,-31 820.17,-30.4544 821.867,-29.8414 823.563,-29.1839"/>
<polygon fill="midnightblue" stroke="midnightblue" points="825.27,-32.2599 833.07,-25.0903 822.501,-25.8305 825.27,-32.2599"/>
</g>
<!-- Node22 -->
<g id="node22" class="node"><title>Node22</title>
<polygon fill="white" stroke="#bfbfbf" points="0,-6 0,-25 63,-25 63,-6 0,-6"/>
<text text-anchor="middle" x="31.5" y="-13" font-family="Helvetica,sans-Serif" font-size="10.00">exception</text>
</g>
<!-- Node21&#45;&gt;Node22 -->
<g id="edge25" class="edge"><title>Node21&#45;&gt;Node22</title>
<path fill="none" stroke="midnightblue" d="M573.367,-81.2608C498.247,-80.0754 262.254,-73.017 72.5,-31 69.0791,-30.2425 65.5512,-29.2832 62.0675,-28.2201"/>
<polygon fill="midnightblue" stroke="midnightblue" points="63.0856,-24.8702 52.492,-25.0306 60.8735,-31.5115 63.0856,-24.8702"/>
</g>
<!-- Node23 -->
<g id="node23" class="node"><title>Node23</title>
<polygon fill="white" stroke="#bfbfbf" points="81.5,-6 81.5,-25 227.5,-25 227.5,-6 81.5,-6"/>
<text text-anchor="middle" x="154.5" y="-13" font-family="Helvetica,sans-Serif" font-size="10.00">boost/current_function.hpp</text>
</g>
<!-- Node21&#45;&gt;Node23 -->
<g id="edge27" class="edge"><title>Node21&#45;&gt;Node23</title>
<path fill="none" stroke="midnightblue" d="M573.375,-78.4305C515.284,-70.9732 363.074,-51.0374 236.5,-31 228.289,-29.7002 219.63,-28.2528 211.139,-26.7897"/>
<polygon fill="midnightblue" stroke="midnightblue" points="211.736,-23.3411 201.284,-25.0727 210.534,-30.2372 211.736,-23.3411"/>
</g>
<!-- Node24 -->
<g id="node24" class="node"><title>Node24</title>
<polygon fill="white" stroke="#bfbfbf" points="245.5,-6 245.5,-25 409.5,-25 409.5,-6 245.5,-6"/>
<text text-anchor="middle" x="327.5" y="-13" font-family="Helvetica,sans-Serif" font-size="10.00">boost/exception/exception.hpp</text>
</g>
<!-- Node21&#45;&gt;Node24 -->
<g id="edge28" class="edge"><title>Node21&#45;&gt;Node24</title>
<path fill="none" stroke="midnightblue" d="M573.063,-75.617C527.876,-64.7387 430.624,-41.3261 372.99,-27.4513"/>
<polygon fill="midnightblue" stroke="midnightblue" points="373.598,-23.9978 363.057,-25.06 371.96,-30.8034 373.598,-23.9978"/>
</g>
<!-- Node25 -->
<g id="node25" class="node"><title>Node25</title>
<polygon fill="white" stroke="#bfbfbf" points="427.5,-6 427.5,-25 561.5,-25 561.5,-6 427.5,-6"/>
<text text-anchor="middle" x="494.5" y="-13" font-family="Helvetica,sans-Serif" font-size="10.00">boost/exception/info.hpp</text>
</g>
<!-- Node21&#45;&gt;Node25 -->
<g id="edge29" class="edge"><title>Node21&#45;&gt;Node25</title>
<path fill="none" stroke="midnightblue" d="M583.609,-72.7338C566.466,-61.9156 537.1,-43.3832 516.789,-30.5659"/>
<polygon fill="midnightblue" stroke="midnightblue" points="518.496,-27.5043 508.171,-25.1273 514.76,-33.4241 518.496,-27.5043"/>
</g>
<!-- Node26 -->
<g id="node26" class="node"><title>Node26</title>
<polygon fill="white" stroke="#bfbfbf" points="580,-0.5 580,-30.5 693,-30.5 693,-0.5 580,-0.5"/>
<text text-anchor="start" x="588" y="-18.5" font-family="Helvetica,sans-Serif" font-size="10.00">boost/exception/info</text>
<text text-anchor="middle" x="636.5" y="-7.5" font-family="Helvetica,sans-Serif" font-size="10.00">_tuple.hpp</text>
</g>
<!-- Node21&#45;&gt;Node26 -->
<g id="edge30" class="edge"><title>Node21&#45;&gt;Node26</title>
<path fill="none" stroke="midnightblue" d="M602.76,-72.7338C607.878,-64.2027 615.875,-50.8744 622.799,-39.3345"/>
<polygon fill="midnightblue" stroke="midnightblue" points="625.903,-40.9647 628.047,-30.589 619.9,-37.3632 625.903,-40.9647"/>
</g>
<!-- Node27 -->
<g id="node27" class="node"><title>Node27</title>
<g id="a_node27"><a xlink:href="source__info_8h.xhtml" target="_top" xlink:title="Helper facilities to get source file information. ">
<polygon fill="white" stroke="black" points="711.5,-6 711.5,-25 809.5,-25 809.5,-6 711.5,-6"/>
<text text-anchor="middle" x="760.5" y="-13" font-family="Helvetica,sans-Serif" font-size="10.00">ext/source_info.h</text>
</a>
</g>
</g>
<!-- Node21&#45;&gt;Node27 -->
<g id="edge31" class="edge"><title>Node21&#45;&gt;Node27</title>
<path fill="none" stroke="midnightblue" d="M619.145,-72.8685C647.477,-61.5706 697.316,-41.6961 729.609,-28.8183"/>
<polygon fill="midnightblue" stroke="midnightblue" points="731.033,-32.0189 739.025,-25.0637 728.44,-25.5168 731.033,-32.0189"/>
</g>
<!-- Node28&#45;&gt;Node5 -->
<g id="edge36" class="edge"><title>Node28&#45;&gt;Node5</title>
<path fill="none" stroke="midnightblue" d="M1439.02,-72.9852C1447.44,-70.6849 1456.78,-68.4373 1465.5,-67 1710.27,-26.6363 1781.5,-89.7916 2022.5,-31 2024.86,-30.4244 2027.26,-29.69 2029.64,-28.8583"/>
<polygon fill="midnightblue" stroke="midnightblue" points="2031.14,-32.0283 2039.11,-25.0481 2028.53,-25.5344 2031.14,-32.0283"/>
</g>
<!-- Node29 -->
<g id="node29" class="node"><title>Node29</title>
<polygon fill="white" stroke="#bfbfbf" points="1706.5,-6 1706.5,-25 1768.5,-25 1768.5,-6 1706.5,-6"/>
<text text-anchor="middle" x="1737.5" y="-13" font-family="Helvetica,sans-Serif" font-size="10.00">algorithm</text>
</g>
<!-- Node28&#45;&gt;Node29 -->
<g id="edge33" class="edge"><title>Node28&#45;&gt;Node29</title>
<path fill="none" stroke="midnightblue" d="M1441.67,-72.9493C1449.41,-70.8802 1457.74,-68.76 1465.5,-67 1546.74,-48.5815 1642.75,-31.9406 1696.22,-23.1226"/>
<polygon fill="midnightblue" stroke="midnightblue" points="1697.03,-26.5367 1706.34,-21.4651 1695.9,-19.6289 1697.03,-26.5367"/>
</g>
<!-- Node30 -->
<g id="node30" class="node"><title>Node30</title>
<polygon fill="white" stroke="#bfbfbf" points="1373,-6 1373,-25 1450,-25 1450,-6 1373,-6"/>
<text text-anchor="middle" x="1411.5" y="-13" font-family="Helvetica,sans-Serif" font-size="10.00">initializer_list</text>
</g>
<!-- Node28&#45;&gt;Node30 -->
<g id="edge34" class="edge"><title>Node28&#45;&gt;Node30</title>
<path fill="none" stroke="midnightblue" d="M1411.5,-72.7338C1411.5,-63.1826 1411.5,-47.6183 1411.5,-35.2829"/>
<polygon fill="midnightblue" stroke="midnightblue" points="1415,-35.1273 1411.5,-25.1273 1408,-35.1273 1415,-35.1273"/>
</g>
<!-- Node31 -->
<g id="node31" class="node"><title>Node31</title>
<polygon fill="white" stroke="#bfbfbf" points="1823.5,-6 1823.5,-25 1865.5,-25 1865.5,-6 1823.5,-6"/>
<text text-anchor="middle" x="1844.5" y="-13" font-family="Helvetica,sans-Serif" font-size="10.00">utility</text>
</g>
<!-- Node28&#45;&gt;Node31 -->
<g id="edge35" class="edge"><title>Node28&#45;&gt;Node31</title>
<path fill="none" stroke="midnightblue" d="M1440.18,-72.9559C1448.31,-70.7652 1457.2,-68.5834 1465.5,-67 1602.61,-40.8293 1639.79,-53.7903 1777.5,-31 1789.37,-29.0362 1802.31,-26.3632 1813.62,-23.8469"/>
<polygon fill="midnightblue" stroke="midnightblue" points="1814.5,-27.2355 1823.48,-21.6049 1812.95,-20.4098 1814.5,-27.2355"/>
</g>
<!-- Node32&#45;&gt;Node19 -->
<g id="edge38" class="edge"><title>Node32&#45;&gt;Node19</title>
<path fill="none" stroke="midnightblue" d="M944.693,-72.8685C968.03,-61.7961 1008.73,-42.4862 1035.89,-29.5978"/>
<polygon fill="midnightblue" stroke="midnightblue" points="1037.7,-32.6159 1045.23,-25.1672 1034.7,-26.2916 1037.7,-32.6159"/>
</g>
<!-- Node33&#45;&gt;Node5 -->
<g id="edge43" class="edge"><title>Node33&#45;&gt;Node5</title>
<path fill="none" stroke="midnightblue" d="M1989.75,-72.7338C2001.94,-62.3055 2022.52,-44.7088 2037.41,-31.9732"/>
<polygon fill="midnightblue" stroke="midnightblue" points="2040.09,-34.2869 2045.41,-25.1273 2035.54,-28.9671 2040.09,-34.2869"/>
</g>
<!-- Node33&#45;&gt;Node20 -->
<g id="edge45" class="edge"><title>Node33&#45;&gt;Node20</title>
<path fill="none" stroke="midnightblue" d="M1948.58,-72.9533C1940.17,-70.8134 1931.02,-68.6579 1922.5,-67 1820.42,-47.1365 1701.05,-32.378 1625.85,-24.1011"/>
<polygon fill="midnightblue" stroke="midnightblue" points="1625.86,-20.5815 1615.54,-22.9764 1625.1,-27.5402 1625.86,-20.5815"/>
</g>
<!-- Node33&#45;&gt;Node29 -->
<g id="edge41" class="edge"><title>Node33&#45;&gt;Node29</title>
<path fill="none" stroke="midnightblue" d="M1947.61,-72.9355C1904.12,-61.2527 1826.15,-40.3104 1778.4,-27.4848"/>
<polygon fill="midnightblue" stroke="midnightblue" points="1779.26,-24.0913 1768.69,-24.8774 1777.44,-30.8517 1779.26,-24.0913"/>
</g>
<!-- Node33&#45;&gt;Node31 -->
<g id="edge42" class="edge"><title>Node33&#45;&gt;Node31</title>
<path fill="none" stroke="midnightblue" d="M1961.57,-72.8685C1938.58,-61.7961 1898.47,-42.4862 1871.7,-29.5978"/>
<polygon fill="midnightblue" stroke="midnightblue" points="1873.03,-26.3519 1862.5,-25.1672 1869.99,-32.6589 1873.03,-26.3519"/>
</g>
<!-- Node34 -->
<g id="node34" class="node"><title>Node34</title>
<polygon fill="white" stroke="#bfbfbf" points="1901.5,-0.5 1901.5,-30.5 2013.5,-30.5 2013.5,-0.5 1901.5,-0.5"/>
<text text-anchor="start" x="1909.5" y="-18.5" font-family="Helvetica,sans-Serif" font-size="10.00">boost/icl/continuous</text>
<text text-anchor="middle" x="1957.5" y="-7.5" font-family="Helvetica,sans-Serif" font-size="10.00">_interval.hpp</text>
</g>
<!-- Node33&#45;&gt;Node34 -->
<g id="edge44" class="edge"><title>Node33&#45;&gt;Node34</title>
<path fill="none" stroke="midnightblue" d="M1976.53,-72.7338C1973.73,-64.4561 1969.4,-51.6619 1965.58,-40.3674"/>
<polygon fill="midnightblue" stroke="midnightblue" points="1968.79,-38.9391 1962.27,-30.589 1962.16,-41.1833 1968.79,-38.9391"/>
</g>
</g>
</svg>
        <g id="navigator" transform="translate(0 0)" fill="#404254">
                <rect fill="#f2f5e9" fill-opacity="0.5" stroke="#606060" stroke-width=".5" x="0" y="0" width="60" height="60"/>
                <use id="zoomplus" xlink:href="#zoomPlus" x="17" y="9" onmousedown="handleZoom(evt,'in')"/>
                <use id="zoomminus" xlink:href="#zoomMin" x="42" y="9" onmousedown="handleZoom(evt,'out')"/>
                <use id="reset" xlink:href="#resetDef" x="30" y="36" onmousedown="handleReset()"/>
                <g id="arrowUp" xlink:href="#dirArrow" transform="translate(30 24)" onmousedown="handlePan(0,-1)">
                  <use xlink:href="#rim" fill="#404040">
                        <set attributeName="fill" to="#808080" begin="arrowUp.mouseover" end="arrowUp.mouseout"/>
                  </use>
                  <path fill="none" stroke="white" stroke-width="1.5" d="M0,-3.0v7 M-2.5,-0.5L0,-3.0L2.5,-0.5"/>
                </g>
                <g id="arrowRight" xlink:href="#dirArrow" transform="rotate(90) translate(36 -43)" onmousedown="handlePan(1,0)">
                  <use xlink:href="#rim" fill="#404040">
                        <set attributeName="fill" to="#808080" begin="arrowRight.mouseover" end="arrowRight.mouseout"/>
                  </use>
                  <path fill="none" stroke="white" stroke-width="1.5" d="M0,-3.0v7 M-2.5,-0.5L0,-3.0L2.5,-0.5"/>
                </g>
                <g id="arrowDown" xlink:href="#dirArrow" transform="rotate(180) translate(-30 -48)" onmousedown="handlePan(0,1)">
                  <use xlink:href="#rim" fill="#404040">
                        <set attributeName="fill" to="#808080" begin="arrowDown.mouseover" end="arrowDown.mouseout"/>
                  </use>
                  <path fill="none" stroke="white" stroke-width="1.5" d="M0,-3.0v7 M-2.5,-0.5L0,-3.0L2.5,-0.5"/>
                </g>
                <g id="arrowLeft" xlink:href="#dirArrow" transform="rotate(270) translate(-36 17)" onmousedown="handlePan(-1,0)">
                  <use xlink:href="#rim" fill="#404040">
                        <set attributeName="fill" to="#808080" begin="arrowLeft.mouseover" end="arrowLeft.mouseout"/>
                  </use>
                  <path fill="none" stroke="white" stroke-width="1.5" d="M0,-3.0v7 M-2.5,-0.5L0,-3.0L2.5,-0.5"/>
                </g>
        </g>
        <svg viewBox="0 0 15 15" width="100%" height="30px" preserveAspectRatio="xMaxYMin meet">
         <g id="arrow_out" transform="scale(0.3 0.3)">
          <a xlink:href="extern_8h__incl_org.svg" target="_base">
           <rect id="button" ry="5" rx="5" y="6" x="6" height="38" width="38"
                fill="#f2f5e9" fill-opacity="0.5" stroke="#606060" stroke-width="1.0"/>
           <path id="arrow"
             d="M 11.500037,31.436501 C 11.940474,20.09759 22.043105,11.32322 32.158766,21.979434 L 37.068811,17.246167 C 37.068811,17.246167 37.088388,32 37.088388,32 L 22.160133,31.978069 C 22.160133,31.978069 26.997745,27.140456 26.997745,27.140456 C 18.528582,18.264221 13.291696,25.230495 11.500037,31.436501 z"
             style="fill:#404040;"/>
          </a>
         </g>
        </svg>
</svg>
