<?xml version="1.0" encoding="UTF-8" standalone="no"?>
<!DOCTYPE svg PUBLIC "-//W3C//DTD SVG 1.1//EN"
 "http://www.w3.org/Graphics/SVG/1.1/DTD/svg11.dtd">
<!-- Generated by graphviz version 2.38.0 (20140413.2041)
 -->
<!-- Title: initializer.h Pages: 1 -->
<svg width="4584pt" height="453pt"
 viewBox="0.00 0.00 4584.34 453.00" xmlns="http://www.w3.org/2000/svg" xmlns:xlink="http://www.w3.org/1999/xlink">
<g id="graph0" class="graph" transform="scale(1 1) rotate(0) translate(4 449)">
<title>initializer.h</title>
<polygon fill="white" stroke="none" points="-4,4 -4,-449 4580.34,-449 4580.34,4 -4,4"/>
<!-- Node1 -->
<g id="node1" class="node"><title>Node1</title>
<polygon fill="#bfbfbf" stroke="black" points="1977.34,-425.5 1977.34,-444.5 2044.34,-444.5 2044.34,-425.5 1977.34,-425.5"/>
<text text-anchor="middle" x="2010.84" y="-432.5" font-family="Helvetica,sans-Serif" font-size="10.00">initializer.h</text>
</g>
<!-- Node2 -->
<g id="node2" class="node"><title>Node2</title>
<polygon fill="white" stroke="#bfbfbf" points="636.339,-73 636.339,-92 699.339,-92 699.339,-73 636.339,-73"/>
<text text-anchor="middle" x="667.839" y="-80" font-family="Helvetica,sans-Serif" font-size="10.00">functional</text>
</g>
<!-- Node1&#45;&gt;Node2 -->
<g id="edge1" class="edge"><title>Node1&#45;&gt;Node2</title>
<path fill="none" stroke="midnightblue" d="M1977.13,-433.889C1735.94,-433.004 279.605,-426.134 194.839,-389 157.989,-372.857 131.839,-364.231 131.839,-324 131.839,-324 131.839,-324 131.839,-210 131.839,-155.581 177.548,-154.788 227.839,-134 299.413,-104.415 530.801,-90.1207 626.165,-85.3719"/>
<polygon fill="midnightblue" stroke="midnightblue" points="626.483,-88.8607 636.301,-84.8778 626.142,-81.869 626.483,-88.8607"/>
</g>
<!-- Node3 -->
<g id="node3" class="node"><title>Node3</title>
<polygon fill="white" stroke="#bfbfbf" points="1062.34,-73 1062.34,-92 1119.34,-92 1119.34,-73 1062.34,-73"/>
<text text-anchor="middle" x="1090.84" y="-80" font-family="Helvetica,sans-Serif" font-size="10.00">memory</text>
</g>
<!-- Node1&#45;&gt;Node3 -->
<g id="edge2" class="edge"><title>Node1&#45;&gt;Node3</title>
<path fill="none" stroke="midnightblue" d="M1977.04,-433.793C1762.2,-432.373 591.05,-423.111 435.839,-389 364.078,-373.229 283.839,-397.473 283.839,-324 283.839,-324 283.839,-324 283.839,-266 283.839,-180.482 345.293,-167.82 423.839,-134 552.432,-78.6312 915.933,-127.302 1052.84,-98 1055.92,-97.3414 1059.07,-96.4728 1062.19,-95.4871"/>
<polygon fill="midnightblue" stroke="midnightblue" points="1063.6,-98.699 1071.86,-92.054 1061.26,-92.1027 1063.6,-98.699"/>
</g>
<!-- Node4 -->
<g id="node4" class="node"><title>Node4</title>
<polygon fill="white" stroke="#bfbfbf" points="2237.84,-6 2237.84,-25 2281.84,-25 2281.84,-6 2237.84,-6"/>
<text text-anchor="middle" x="2259.84" y="-13" font-family="Helvetica,sans-Serif" font-size="10.00">string</text>
</g>
<!-- Node1&#45;&gt;Node4 -->
<g id="edge3" class="edge"><title>Node1&#45;&gt;Node4</title>
<path fill="none" stroke="midnightblue" d="M2044.51,-434.328C2202.21,-435.601 2863.22,-437.964 2939.84,-389 2967.31,-371.444 2973.84,-356.602 2973.84,-324 2973.84,-324 2973.84,-324 2973.84,-266 2973.84,-229.822 2949.95,-227.04 2924.84,-201 2908.44,-184.001 2781.67,-76.0091 2759.84,-67 2674.52,-31.7937 2388.72,-20.2875 2292.09,-17.354"/>
<polygon fill="midnightblue" stroke="midnightblue" points="2292.13,-13.854 2282.04,-17.0595 2291.93,-20.851 2292.13,-13.854"/>
</g>
<!-- Node5 -->
<g id="node5" class="node"><title>Node5</title>
<polygon fill="white" stroke="#bfbfbf" points="3185.34,-73 3185.34,-92 3254.34,-92 3254.34,-73 3185.34,-73"/>
<text text-anchor="middle" x="3219.84" y="-80" font-family="Helvetica,sans-Serif" font-size="10.00">string_view</text>
</g>
<!-- Node1&#45;&gt;Node5 -->
<g id="edge4" class="edge"><title>Node1&#45;&gt;Node5</title>
<path fill="none" stroke="midnightblue" d="M2044.41,-434.408C2234.16,-436.28 3163.84,-439.56 3163.84,-324 3163.84,-324 3163.84,-324 3163.84,-210 3163.84,-167.594 3190.48,-123.509 3207.01,-100.232"/>
<polygon fill="midnightblue" stroke="midnightblue" points="3209.87,-102.247 3212.97,-92.1157 3204.23,-98.1023 3209.87,-102.247"/>
</g>
<!-- Node6 -->
<g id="node6" class="node"><title>Node6</title>
<polygon fill="white" stroke="#bfbfbf" points="2088.34,-257.5 2088.34,-276.5 2181.34,-276.5 2181.34,-257.5 2088.34,-257.5"/>
<text text-anchor="middle" x="2134.84" y="-264.5" font-family="Helvetica,sans-Serif" font-size="10.00">unordered_map</text>
</g>
<!-- Node1&#45;&gt;Node6 -->
<g id="edge5" class="edge"><title>Node1&#45;&gt;Node6</title>
<path fill="none" stroke="midnightblue" d="M2027.86,-425.435C2042.15,-417.555 2062.34,-404.724 2075.84,-389 2102.76,-357.644 2120.64,-311.873 2129.13,-286.562"/>
<polygon fill="midnightblue" stroke="midnightblue" points="2132.54,-287.374 2132.27,-276.783 2125.88,-285.229 2132.54,-287.374"/>
</g>
<!-- Node7 -->
<g id="node7" class="node"><title>Node7</title>
<polygon fill="white" stroke="#bfbfbf" points="3030.84,-6 3030.84,-25 3072.84,-25 3072.84,-6 3030.84,-6"/>
<text text-anchor="middle" x="3051.84" y="-13" font-family="Helvetica,sans-Serif" font-size="10.00">utility</text>
</g>
<!-- Node1&#45;&gt;Node7 -->
<g id="edge6" class="edge"><title>Node1&#45;&gt;Node7</title>
<path fill="none" stroke="midnightblue" d="M2044.49,-433.859C2203.48,-432.998 2880.43,-427.119 3087.84,-389 3177.69,-372.487 3282.84,-415.355 3282.84,-324 3282.84,-324 3282.84,-324 3282.84,-148.5 3282.84,-111.203 3289.29,-93.2973 3262.84,-67 3237.73,-42.0296 3135.66,-26.4952 3083.24,-20.0076"/>
<polygon fill="midnightblue" stroke="midnightblue" points="3083.5,-16.5138 3073.16,-18.7954 3082.67,-23.4638 3083.5,-16.5138"/>
</g>
<!-- Node8 -->
<g id="node8" class="node"><title>Node8</title>
<polygon fill="white" stroke="#bfbfbf" points="491.839,-140 491.839,-159 541.839,-159 541.839,-140 491.839,-140"/>
<text text-anchor="middle" x="516.839" y="-147" font-family="Helvetica,sans-Serif" font-size="10.00">variant</text>
</g>
<!-- Node1&#45;&gt;Node8 -->
<g id="edge7" class="edge"><title>Node1&#45;&gt;Node8</title>
<path fill="none" stroke="midnightblue" d="M1977.15,-433.521C1745.52,-430.017 397.839,-406.1 397.839,-324 397.839,-324 397.839,-324 397.839,-266 397.839,-235.902 397.593,-224.14 416.839,-201 433.556,-180.901 460.286,-167.986 481.907,-160.252"/>
<polygon fill="midnightblue" stroke="midnightblue" points="483.06,-163.557 491.426,-157.056 480.832,-156.921 483.06,-163.557"/>
</g>
<!-- Node9 -->
<g id="node9" class="node"><title>Node9</title>
<polygon fill="white" stroke="#bfbfbf" points="1344.34,-6 1344.34,-25 1391.34,-25 1391.34,-6 1344.34,-6"/>
<text text-anchor="middle" x="1367.84" y="-13" font-family="Helvetica,sans-Serif" font-size="10.00">vector</text>
</g>
<!-- Node1&#45;&gt;Node9 -->
<g id="edge8" class="edge"><title>Node1&#45;&gt;Node9</title>
<path fill="none" stroke="midnightblue" d="M1977.1,-433.945C1732.48,-433.452 237.912,-428.811 151.839,-389 116.698,-372.746 93.8392,-362.718 93.8392,-324 93.8392,-324 93.8392,-324 93.8392,-148.5 93.8392,-140.725 137.008,-107.416 427.839,-67 627.633,-39.235 1138.29,-76.3644 1334.84,-31 1337.21,-30.4538 1339.61,-29.7399 1341.99,-28.9217"/>
<polygon fill="midnightblue" stroke="midnightblue" points="1343.48,-32.0964 1351.47,-25.1338 1340.88,-25.5967 1343.48,-32.0964"/>
</g>
<!-- Node10 -->
<g id="node10" class="node"><title>Node10</title>
<polygon fill="white" stroke="#bfbfbf" points="755.839,-67.5 755.839,-97.5 895.839,-97.5 895.839,-67.5 755.839,-67.5"/>
<text text-anchor="start" x="763.839" y="-85.5" font-family="Helvetica,sans-Serif" font-size="10.00">boost/multi_index/hashed</text>
<text text-anchor="middle" x="825.839" y="-74.5" font-family="Helvetica,sans-Serif" font-size="10.00">_index.hpp</text>
</g>
<!-- Node1&#45;&gt;Node10 -->
<g id="edge9" class="edge"><title>Node1&#45;&gt;Node10</title>
<path fill="none" stroke="midnightblue" d="M1977.34,-433.686C1742.27,-431.415 347.321,-416.797 262.839,-389 214.937,-373.239 169.839,-374.428 169.839,-324 169.839,-324 169.839,-324 169.839,-266 169.839,-186.114 220.099,-169.145 291.839,-134 375.167,-93.1777 615.553,-107.66 707.839,-98 720.069,-96.7199 732.996,-95.2503 745.635,-93.7488"/>
<polygon fill="midnightblue" stroke="midnightblue" points="746.18,-97.2087 755.691,-92.5408 745.345,-90.2586 746.18,-97.2087"/>
</g>
<!-- Node11 -->
<g id="node11" class="node"><title>Node11</title>
<polygon fill="white" stroke="#bfbfbf" points="913.839,-67.5 913.839,-97.5 1043.84,-97.5 1043.84,-67.5 913.839,-67.5"/>
<text text-anchor="start" x="921.839" y="-85.5" font-family="Helvetica,sans-Serif" font-size="10.00">boost/multi_index/mem</text>
<text text-anchor="middle" x="978.839" y="-74.5" font-family="Helvetica,sans-Serif" font-size="10.00">_fun.hpp</text>
</g>
<!-- Node1&#45;&gt;Node11 -->
<g id="edge10" class="edge"><title>Node1&#45;&gt;Node11</title>
<path fill="none" stroke="midnightblue" d="M1977.26,-433.886C1744.66,-433.001 380.317,-426.232 301.839,-389 267.388,-372.655 245.839,-362.132 245.839,-324 245.839,-324 245.839,-324 245.839,-266 245.839,-191.312 282.538,-166.386 349.839,-134 458.489,-81.7162 766.724,-112.331 903.596,-97.9349"/>
<polygon fill="midnightblue" stroke="midnightblue" points="904.02,-101.409 913.544,-96.7675 903.204,-94.4569 904.02,-101.409"/>
</g>
<!-- Node12 -->
<g id="node12" class="node"><title>Node12</title>
<polygon fill="white" stroke="#bfbfbf" points="1153.84,-6 1153.84,-25 1325.84,-25 1325.84,-6 1153.84,-6"/>
<text text-anchor="middle" x="1239.84" y="-13" font-family="Helvetica,sans-Serif" font-size="10.00">boost/multi_index_container.hpp</text>
</g>
<!-- Node1&#45;&gt;Node12 -->
<g id="edge11" class="edge"><title>Node1&#45;&gt;Node12</title>
<path fill="none" stroke="midnightblue" d="M1977.16,-433.978C1729.68,-433.72 199.509,-430.452 111.839,-389 77.3666,-372.701 55.8392,-362.132 55.8392,-324 55.8392,-324 55.8392,-324 55.8392,-148.5 55.8392,-117.365 -153.919,-155.634 243.839,-67 413.312,-29.2358 928.592,-19.6477 1143.8,-17.266"/>
<polygon fill="midnightblue" stroke="midnightblue" points="1143.86,-20.7657 1153.82,-17.158 1143.78,-13.7661 1143.86,-20.7657"/>
</g>
<!-- Node13 -->
<g id="node13" class="node"><title>Node13</title>
<polygon fill="white" stroke="#bfbfbf" points="1137.84,-73 1137.84,-92 1265.84,-92 1265.84,-73 1137.84,-73"/>
<text text-anchor="middle" x="1201.84" y="-80" font-family="Helvetica,sans-Serif" font-size="10.00">boost/noncopyable.hpp</text>
</g>
<!-- Node1&#45;&gt;Node13 -->
<g id="edge12" class="edge"><title>Node1&#45;&gt;Node13</title>
<path fill="none" stroke="midnightblue" d="M1977.24,-434.278C1787.29,-435.65 846.474,-439.736 561.839,-389 484.355,-375.188 445.314,-392.539 393.839,-333 330.474,-259.707 392.42,-168.805 482.839,-134 616.813,-82.43 985.396,-115.844 1127.84,-98 1136.24,-96.9473 1145.12,-95.5008 1153.7,-93.9267"/>
<polygon fill="midnightblue" stroke="midnightblue" points="1154.43,-97.3517 1163.59,-92.0362 1153.11,-90.4762 1154.43,-97.3517"/>
</g>
<!-- Node14 -->
<g id="node14" class="node"><title>Node14</title>
<g id="a_node14"><a xlink:href="alignment_8h.xhtml" target="_top" xlink:title="Mission and phase constructs. ">
<polygon fill="white" stroke="black" points="1842.84,-313.5 1842.84,-332.5 1916.84,-332.5 1916.84,-313.5 1842.84,-313.5"/>
<text text-anchor="middle" x="1879.84" y="-320.5" font-family="Helvetica,sans-Serif" font-size="10.00">alignment.h</text>
</a>
</g>
</g>
<!-- Node1&#45;&gt;Node14 -->
<g id="edge13" class="edge"><title>Node1&#45;&gt;Node14</title>
<path fill="none" stroke="midnightblue" d="M2000.56,-425.368C1978.37,-406.733 1925.73,-362.532 1897.86,-339.134"/>
<polygon fill="midnightblue" stroke="midnightblue" points="1899.98,-336.342 1890.07,-332.591 1895.48,-341.702 1899.98,-336.342"/>
</g>
<!-- Node15 -->
<g id="node15" class="node"><title>Node15</title>
<g id="a_node15"><a xlink:href="element_8h.xhtml" target="_top" xlink:title="Base/mixin classes, structs, and properties common to all MEF classes/constructs. ...">
<polygon fill="white" stroke="black" points="1966.34,-140 1966.34,-159 2031.34,-159 2031.34,-140 1966.34,-140"/>
<text text-anchor="middle" x="1998.84" y="-147" font-family="Helvetica,sans-Serif" font-size="10.00">element.h</text>
</a>
</g>
</g>
<!-- Node1&#45;&gt;Node15 -->
<g id="edge78" class="edge"><title>Node1&#45;&gt;Node15</title>
<path fill="none" stroke="midnightblue" d="M2008.64,-425.446C2006.44,-416.447 2003.19,-401.836 2001.84,-389 1993.27,-307.665 1996.14,-209.872 1997.9,-169.427"/>
<polygon fill="midnightblue" stroke="midnightblue" points="2001.4,-169.349 1998.37,-159.197 1994.41,-169.024 2001.4,-169.349"/>
</g>
<!-- Node31 -->
<g id="node31" class="node"><title>Node31</title>
<g id="a_node31"><a xlink:href="instruction_8h.xhtml" target="_top" xlink:title="Model and event tree modifier instructions. ">
<polygon fill="white" stroke="black" points="1803.84,-257.5 1803.84,-276.5 1879.84,-276.5 1879.84,-257.5 1803.84,-257.5"/>
<text text-anchor="middle" x="1841.84" y="-264.5" font-family="Helvetica,sans-Serif" font-size="10.00">instruction.h</text>
</a>
</g>
</g>
<!-- Node1&#45;&gt;Node31 -->
<g id="edge104" class="edge"><title>Node1&#45;&gt;Node31</title>
<path fill="none" stroke="midnightblue" d="M1977.07,-425.877C1934.84,-413.699 1864.41,-386.229 1833.84,-333 1825.63,-318.701 1829.29,-299.741 1834,-285.991"/>
<polygon fill="midnightblue" stroke="midnightblue" points="1837.27,-287.244 1837.64,-276.656 1830.75,-284.705 1837.27,-287.244"/>
</g>
<!-- Node32 -->
<g id="node32" class="node"><title>Node32</title>
<g id="a_node32"><a xlink:href="event_8h.xhtml" target="_top" xlink:title="Contains event classes for fault trees. ">
<polygon fill="white" stroke="black" points="2430.34,-201.5 2430.34,-220.5 2483.34,-220.5 2483.34,-201.5 2430.34,-201.5"/>
<text text-anchor="middle" x="2456.84" y="-208.5" font-family="Helvetica,sans-Serif" font-size="10.00">event.h</text>
</a>
</g>
</g>
<!-- Node1&#45;&gt;Node32 -->
<g id="edge79" class="edge"><title>Node1&#45;&gt;Node32</title>
<path fill="none" stroke="midnightblue" d="M2044.52,-434.359C2116.33,-434.263 2289.18,-429.434 2426.84,-389 2533.63,-357.63 2592.32,-371.683 2650.84,-277 2686.66,-219.04 2559.88,-211.444 2494.06,-211.279"/>
<polygon fill="midnightblue" stroke="midnightblue" points="2493.66,-207.78 2483.67,-211.313 2493.68,-214.78 2493.66,-207.78"/>
</g>
<!-- Node33 -->
<g id="node33" class="node"><title>Node33</title>
<g id="a_node33"><a xlink:href="expression_8h.xhtml" target="_top" xlink:title="Provides the base class for all expressions and units for expression values. ">
<polygon fill="white" stroke="black" points="2658.34,-140 2658.34,-159 2735.34,-159 2735.34,-140 2658.34,-140"/>
<text text-anchor="middle" x="2696.84" y="-147" font-family="Helvetica,sans-Serif" font-size="10.00">expression.h</text>
</a>
</g>
</g>
<!-- Node1&#45;&gt;Node33 -->
<g id="edge89" class="edge"><title>Node1&#45;&gt;Node33</title>
<path fill="none" stroke="midnightblue" d="M2044.6,-433.412C2204.81,-430.484 2881.97,-416.513 2916.84,-389 2940.47,-370.356 2935.84,-354.098 2935.84,-324 2935.84,-324 2935.84,-324 2935.84,-266 2935.84,-232.759 2925.32,-221.095 2898.84,-201 2874.95,-182.87 2797.16,-167.025 2745.38,-158.121"/>
<polygon fill="midnightblue" stroke="midnightblue" points="2745.84,-154.649 2735.4,-156.434 2744.67,-161.551 2745.84,-154.649"/>
</g>
<!-- Node35 -->
<g id="node35" class="node"><title>Node35</title>
<g id="a_node35"><a xlink:href="ccf__group_8h.xhtml" target="_top" xlink:title="Functional containers for basic events grouped by common cause failure. ">
<polygon fill="white" stroke="black" points="2351.84,-257.5 2351.84,-276.5 2423.84,-276.5 2423.84,-257.5 2351.84,-257.5"/>
<text text-anchor="middle" x="2387.84" y="-264.5" font-family="Helvetica,sans-Serif" font-size="10.00">ccf_group.h</text>
</a>
</g>
</g>
<!-- Node1&#45;&gt;Node35 -->
<g id="edge68" class="edge"><title>Node1&#45;&gt;Node35</title>
<path fill="none" stroke="midnightblue" d="M2044.63,-427.483C2102.8,-415.268 2224.32,-385.325 2314.84,-333 2337.44,-319.937 2359.23,-299.107 2373.03,-284.558"/>
<polygon fill="midnightblue" stroke="midnightblue" points="2375.96,-286.544 2380.18,-276.824 2370.82,-281.793 2375.96,-286.544"/>
</g>
<!-- Node36 -->
<g id="node36" class="node"><title>Node36</title>
<g id="a_node36"><a xlink:href="event__tree_8h.xhtml" target="_top" xlink:title="Event Tree facilities. ">
<polygon fill="white" stroke="black" points="616.339,-313.5 616.339,-332.5 693.339,-332.5 693.339,-313.5 616.339,-313.5"/>
<text text-anchor="middle" x="654.839" y="-320.5" font-family="Helvetica,sans-Serif" font-size="10.00">event_tree.h</text>
</a>
</g>
</g>
<!-- Node1&#45;&gt;Node36 -->
<g id="edge80" class="edge"><title>Node1&#45;&gt;Node36</title>
<path fill="none" stroke="midnightblue" d="M1977.25,-432.521C1828.1,-425.719 1210.85,-395.073 707.839,-333 706.537,-332.839 705.217,-332.669 703.887,-332.491"/>
<polygon fill="midnightblue" stroke="midnightblue" points="703.966,-328.966 693.567,-330.994 702.961,-335.893 703.966,-328.966"/>
</g>
<!-- Node38 -->
<g id="node38" class="node"><title>Node38</title>
<g id="a_node38"><a xlink:href="constant_8h.xhtml" target="_top" xlink:title="Constant expressions that cannot have uncertainties. ">
<polygon fill="white" stroke="black" points="2785.84,-369.5 2785.84,-388.5 2907.84,-388.5 2907.84,-369.5 2785.84,-369.5"/>
<text text-anchor="middle" x="2846.84" y="-376.5" font-family="Helvetica,sans-Serif" font-size="10.00">expression/constant.h</text>
</a>
</g>
</g>
<!-- Node1&#45;&gt;Node38 -->
<g id="edge90" class="edge"><title>Node1&#45;&gt;Node38</title>
<path fill="none" stroke="midnightblue" d="M2044.65,-432.73C2151.49,-428.559 2491.39,-414.096 2771.84,-389 2772.95,-388.901 2774.07,-388.798 2775.2,-388.692"/>
<polygon fill="midnightblue" stroke="midnightblue" points="2775.87,-392.142 2785.48,-387.669 2775.18,-385.177 2775.87,-392.142"/>
</g>
<!-- Node39 -->
<g id="node39" class="node"><title>Node39</title>
<g id="a_node39"><a xlink:href="fault__tree_8h.xhtml" target="_top" xlink:title="Fault Tree and Component containers. ">
<polygon fill="white" stroke="black" points="2416.34,-313.5 2416.34,-332.5 2487.34,-332.5 2487.34,-313.5 2416.34,-313.5"/>
<text text-anchor="middle" x="2451.84" y="-320.5" font-family="Helvetica,sans-Serif" font-size="10.00">fault_tree.h</text>
</a>
</g>
</g>
<!-- Node1&#45;&gt;Node39 -->
<g id="edge92" class="edge"><title>Node1&#45;&gt;Node39</title>
<path fill="none" stroke="midnightblue" d="M2044.56,-433.446C2127.87,-431.557 2341.03,-423.403 2401.84,-389 2420.95,-378.189 2435.18,-356.814 2443.48,-341.527"/>
<polygon fill="midnightblue" stroke="midnightblue" points="2446.64,-343.031 2448.06,-332.532 2440.4,-339.852 2446.64,-343.031"/>
</g>
<!-- Node41 -->
<g id="node41" class="node"><title>Node41</title>
<g id="a_node41"><a xlink:href="parameter_8h.xhtml" target="_top" xlink:title="Parameter expressions that act like a shareable variable. ">
<polygon fill="white" stroke="black" points="2793.84,-201.5 2793.84,-220.5 2869.84,-220.5 2869.84,-201.5 2793.84,-201.5"/>
<text text-anchor="middle" x="2831.84" y="-208.5" font-family="Helvetica,sans-Serif" font-size="10.00">parameter.h</text>
</a>
</g>
</g>
<!-- Node1&#45;&gt;Node41 -->
<g id="edge143" class="edge"><title>Node1&#45;&gt;Node41</title>
<path fill="none" stroke="midnightblue" d="M2044.42,-434.665C2145.81,-435.508 2456.08,-429.487 2687.84,-333 2733.8,-313.867 2747.88,-310.351 2784.84,-277 2800.13,-263.204 2813.44,-243.658 2821.95,-229.608"/>
<polygon fill="midnightblue" stroke="midnightblue" points="2825.02,-231.296 2827.04,-220.897 2818.97,-227.762 2825.02,-231.296"/>
</g>
<!-- Node42 -->
<g id="node42" class="node"><title>Node42</title>
<g id="a_node42"><a xlink:href="model_8h.xhtml" target="_top" xlink:title="Representation for a model container for risk analysis. ">
<polygon fill="white" stroke="black" points="2010.84,-369.5 2010.84,-388.5 2066.84,-388.5 2066.84,-369.5 2010.84,-369.5"/>
<text text-anchor="middle" x="2038.84" y="-376.5" font-family="Helvetica,sans-Serif" font-size="10.00">model.h</text>
</a>
</g>
</g>
<!-- Node1&#45;&gt;Node42 -->
<g id="edge105" class="edge"><title>Node1&#45;&gt;Node42</title>
<path fill="none" stroke="midnightblue" d="M2015.46,-425.083C2019.3,-417.691 2024.86,-406.953 2029.6,-397.811"/>
<polygon fill="midnightblue" stroke="midnightblue" points="2032.81,-399.24 2034.3,-388.751 2026.59,-396.018 2032.81,-399.24"/>
</g>
<!-- Node50 -->
<g id="node50" class="node"><title>Node50</title>
<g id="a_node50"><a xlink:href="substitution_8h.xhtml" target="_top" xlink:title="The MEF Substitution constructs. ">
<polygon fill="white" stroke="black" points="1665.84,-257.5 1665.84,-276.5 1747.84,-276.5 1747.84,-257.5 1665.84,-257.5"/>
<text text-anchor="middle" x="1706.84" y="-264.5" font-family="Helvetica,sans-Serif" font-size="10.00">substitution.h</text>
</a>
</g>
</g>
<!-- Node1&#45;&gt;Node50 -->
<g id="edge147" class="edge"><title>Node1&#45;&gt;Node50</title>
<path fill="none" stroke="midnightblue" d="M1977.08,-430.805C1919.62,-423.606 1802.48,-401.021 1734.84,-333 1722.14,-320.225 1714.8,-300.761 1710.85,-286.461"/>
<polygon fill="midnightblue" stroke="midnightblue" points="1714.24,-285.603 1708.45,-276.728 1707.44,-287.275 1714.24,-285.603"/>
</g>
<!-- Node51 -->
<g id="node51" class="node"><title>Node51</title>
<g id="a_node51"><a xlink:href="settings_8h.xhtml" target="_top" xlink:title="Builder for settings. ">
<polygon fill="white" stroke="black" points="2976.84,-140 2976.84,-159 3040.84,-159 3040.84,-140 2976.84,-140"/>
<text text-anchor="middle" x="3008.84" y="-147" font-family="Helvetica,sans-Serif" font-size="10.00">settings.h</text>
</a>
</g>
</g>
<!-- Node1&#45;&gt;Node51 -->
<g id="edge144" class="edge"><title>Node1&#45;&gt;Node51</title>
<path fill="none" stroke="midnightblue" d="M2044.39,-433.489C2211.66,-430.812 2948.97,-417.43 2987.84,-389 3012.69,-370.818 3011.84,-354.795 3011.84,-324 3011.84,-324 3011.84,-324 3011.84,-266 3011.84,-231.852 3010.51,-192.045 3009.62,-169.205"/>
<polygon fill="midnightblue" stroke="midnightblue" points="3013.12,-169.042 3009.22,-159.191 3006.13,-169.325 3013.12,-169.042"/>
</g>
<!-- Node52 -->
<g id="node52" class="node"><title>Node52</title>
<g id="a_node52"><a xlink:href="xml_8h.xhtml" target="_top" xlink:title="XML helper facilities to work with libxml2. ">
<polygon fill="white" stroke="black" points="3466.34,-140 3466.34,-159 3509.34,-159 3509.34,-140 3466.34,-140"/>
<text text-anchor="middle" x="3487.84" y="-147" font-family="Helvetica,sans-Serif" font-size="10.00">xml.h</text>
</a>
</g>
</g>
<!-- Node1&#45;&gt;Node52 -->
<g id="edge148" class="edge"><title>Node1&#45;&gt;Node52</title>
<path fill="none" stroke="midnightblue" d="M2044.44,-433.838C2234.81,-432.788 3173.83,-425.766 3296.84,-389 3350.15,-373.066 3403.84,-379.643 3403.84,-324 3403.84,-324 3403.84,-324 3403.84,-266 3403.84,-222.972 3442.44,-185.205 3467.31,-165.338"/>
<polygon fill="midnightblue" stroke="midnightblue" points="3469.65,-167.95 3475.44,-159.078 3465.38,-162.401 3469.65,-167.95"/>
</g>
<!-- Node14&#45;&gt;Node4 -->
<g id="edge14" class="edge"><title>Node14&#45;&gt;Node4</title>
<path fill="none" stroke="midnightblue" d="M1891.11,-313.418C1929.72,-283.966 2060.04,-184.075 2164.84,-98 2192.34,-75.4134 2223.53,-48.3725 2242.44,-31.8192"/>
<polygon fill="midnightblue" stroke="midnightblue" points="2244.77,-34.4342 2249.97,-25.2078 2240.15,-29.1725 2244.77,-34.4342"/>
</g>
<!-- Node14&#45;&gt;Node9 -->
<g id="edge15" class="edge"><title>Node14&#45;&gt;Node9</title>
<path fill="none" stroke="midnightblue" d="M1842.74,-320.879C1629.56,-314.199 569.839,-277.688 569.839,-212 569.839,-212 569.839,-212 569.839,-148.5 569.839,-106.462 581.878,-88.7697 617.839,-67 686.077,-25.6916 1257.21,-49.3468 1334.84,-31 1337.2,-30.4414 1339.61,-29.7188 1341.99,-28.8949"/>
<polygon fill="midnightblue" stroke="midnightblue" points="1343.48,-32.0676 1351.46,-25.0976 1340.88,-25.5704 1343.48,-32.0676"/>
</g>
<!-- Node14&#45;&gt;Node15 -->
<g id="edge16" class="edge"><title>Node14&#45;&gt;Node15</title>
<path fill="none" stroke="midnightblue" d="M1881.92,-313.284C1887.28,-292.204 1903.18,-237.513 1931.84,-201 1943.49,-186.149 1960.52,-173.391 1974.49,-164.414"/>
<polygon fill="midnightblue" stroke="midnightblue" points="1976.47,-167.305 1983.15,-159.076 1972.8,-161.347 1976.47,-167.305"/>
</g>
<!-- Node14&#45;&gt;Node31 -->
<g id="edge45" class="edge"><title>Node14&#45;&gt;Node31</title>
<path fill="none" stroke="midnightblue" d="M1873.56,-313.083C1868.2,-305.455 1860.32,-294.264 1853.76,-284.941"/>
<polygon fill="midnightblue" stroke="midnightblue" points="1856.61,-282.915 1848,-276.751 1850.89,-286.943 1856.61,-282.915"/>
</g>
<!-- Node15&#45;&gt;Node2 -->
<g id="edge18" class="edge"><title>Node15&#45;&gt;Node2</title>
<path fill="none" stroke="midnightblue" d="M1966.2,-146.18C1921.31,-143.053 1837.98,-137.478 1766.84,-134 1313.76,-111.85 1197.79,-147.076 746.839,-98 734.724,-96.6815 721.673,-94.5732 709.737,-92.3681"/>
<polygon fill="midnightblue" stroke="midnightblue" points="710.067,-88.8677 699.587,-90.4228 708.75,-95.7426 710.067,-88.8677"/>
</g>
<!-- Node15&#45;&gt;Node3 -->
<g id="edge19" class="edge"><title>Node15&#45;&gt;Node3</title>
<path fill="none" stroke="midnightblue" d="M1966.28,-141.978C1950.5,-139.067 1931.25,-135.877 1913.84,-134 1566.6,-96.5638 1470.77,-169.157 1128.84,-98 1125.76,-97.3589 1122.6,-96.5016 1119.48,-95.5229"/>
<polygon fill="midnightblue" stroke="midnightblue" points="1120.41,-92.138 1109.81,-92.0984 1118.07,-98.7363 1120.41,-92.138"/>
</g>
<!-- Node15&#45;&gt;Node4 -->
<g id="edge21" class="edge"><title>Node15&#45;&gt;Node4</title>
<path fill="none" stroke="midnightblue" d="M2001.16,-139.98C2006.22,-123.119 2019.93,-85.5313 2045.84,-67 2113.26,-18.7715 2150.05,-56.7503 2228.84,-31 2230.51,-30.4544 2232.21,-29.8414 2233.9,-29.1839"/>
<polygon fill="midnightblue" stroke="midnightblue" points="2235.61,-32.2599 2243.41,-25.0903 2232.84,-25.8305 2235.61,-32.2599"/>
</g>
<!-- Node15&#45;&gt;Node5 -->
<g id="edge22" class="edge"><title>Node15&#45;&gt;Node5</title>
<path fill="none" stroke="midnightblue" d="M2031.51,-147.635C2209.72,-142.846 3060.65,-119.033 3175.84,-98 3179.82,-97.2731 3183.94,-96.2719 3187.98,-95.1322"/>
<polygon fill="midnightblue" stroke="midnightblue" points="3189.25,-98.4013 3197.76,-92.0915 3187.18,-91.7166 3189.25,-98.4013"/>
</g>
<!-- Node15&#45;&gt;Node9 -->
<g id="edge24" class="edge"><title>Node15&#45;&gt;Node9</title>
<path fill="none" stroke="midnightblue" d="M1966.2,-142.866C1902.12,-131.782 1761.92,-107.403 1713.84,-98 1574.22,-70.6962 1536.21,-74.7285 1400.84,-31 1398.92,-30.3797 1396.96,-29.6855 1395,-28.946"/>
<polygon fill="midnightblue" stroke="midnightblue" points="1395.97,-25.5628 1385.39,-25.0019 1393.31,-32.0381 1395.97,-25.5628"/>
</g>
<!-- Node15&#45;&gt;Node10 -->
<g id="edge26" class="edge"><title>Node15&#45;&gt;Node10</title>
<path fill="none" stroke="midnightblue" d="M1966.19,-146.246C1921.3,-143.195 1837.97,-137.708 1766.84,-134 1387.28,-114.215 1287.64,-140.25 906.189,-98.0377"/>
<polygon fill="midnightblue" stroke="midnightblue" points="906.301,-94.5286 895.975,-96.8986 905.525,-101.485 906.301,-94.5286"/>
</g>
<!-- Node15&#45;&gt;Node11 -->
<g id="edge27" class="edge"><title>Node15&#45;&gt;Node11</title>
<path fill="none" stroke="midnightblue" d="M1966.19,-146.335C1921.29,-143.386 1837.95,-138.015 1766.84,-134 1453.02,-116.282 1369.99,-136.21 1054.49,-98.0818"/>
<polygon fill="midnightblue" stroke="midnightblue" points="1054.48,-94.5547 1044.13,-96.8191 1053.63,-101.503 1054.48,-94.5547"/>
</g>
<!-- Node15&#45;&gt;Node12 -->
<g id="edge28" class="edge"><title>Node15&#45;&gt;Node12</title>
<path fill="none" stroke="midnightblue" d="M1966.23,-142.358C1950.45,-139.534 1931.2,-136.307 1913.84,-134 1746.99,-111.833 1702.39,-128.384 1536.84,-98 1440.54,-80.327 1330.06,-46.2414 1274.95,-28.2625"/>
<polygon fill="midnightblue" stroke="midnightblue" points="1275.91,-24.8947 1265.32,-25.1005 1273.72,-31.5454 1275.91,-24.8947"/>
</g>
<!-- Node15&#45;&gt;Node13 -->
<g id="edge29" class="edge"><title>Node15&#45;&gt;Node13</title>
<path fill="none" stroke="midnightblue" d="M1966.27,-142.059C1950.49,-139.166 1931.24,-135.968 1913.84,-134 1631.19,-102.033 1557.03,-133.796 1274.84,-98 1266.64,-96.9596 1257.98,-95.5334 1249.6,-93.9794"/>
<polygon fill="midnightblue" stroke="midnightblue" points="1250.05,-90.5018 1239.56,-92.0377 1248.72,-97.3742 1250.05,-90.5018"/>
</g>
<!-- Node16 -->
<g id="node16" class="node"><title>Node16</title>
<polygon fill="white" stroke="#bfbfbf" points="3118.34,-73 3118.34,-92 3167.34,-92 3167.34,-73 3118.34,-73"/>
<text text-anchor="middle" x="3142.84" y="-80" font-family="Helvetica,sans-Serif" font-size="10.00">cstdint</text>
</g>
<!-- Node15&#45;&gt;Node16 -->
<g id="edge17" class="edge"><title>Node15&#45;&gt;Node16</title>
<path fill="none" stroke="midnightblue" d="M2031.53,-147.075C2153.57,-141.693 2594.12,-121.695 2956.84,-98 3009.5,-94.5602 3070.46,-89.626 3107.83,-86.4926"/>
<polygon fill="midnightblue" stroke="midnightblue" points="3108.51,-89.9481 3118.18,-85.6205 3107.92,-82.9729 3108.51,-89.9481"/>
</g>
<!-- Node17 -->
<g id="node17" class="node"><title>Node17</title>
<polygon fill="white" stroke="#bfbfbf" points="2288.34,-73 2288.34,-92 2343.34,-92 2343.34,-73 2288.34,-73"/>
<text text-anchor="middle" x="2315.84" y="-80" font-family="Helvetica,sans-Serif" font-size="10.00">optional</text>
</g>
<!-- Node15&#45;&gt;Node17 -->
<g id="edge20" class="edge"><title>Node15&#45;&gt;Node17</title>
<path fill="none" stroke="midnightblue" d="M2031.57,-141.789C2090.91,-129.621 2215.89,-103.995 2278.47,-91.162"/>
<polygon fill="midnightblue" stroke="midnightblue" points="2279.23,-94.5797 2288.32,-89.1422 2277.82,-87.7223 2279.23,-94.5797"/>
</g>
<!-- Node18 -->
<g id="node18" class="node"><title>Node18</title>
<polygon fill="white" stroke="#bfbfbf" points="2087.84,-73 2087.84,-92 2155.84,-92 2155.84,-73 2087.84,-73"/>
<text text-anchor="middle" x="2121.84" y="-80" font-family="Helvetica,sans-Serif" font-size="10.00">type_traits</text>
</g>
<!-- Node15&#45;&gt;Node18 -->
<g id="edge23" class="edge"><title>Node15&#45;&gt;Node18</title>
<path fill="none" stroke="midnightblue" d="M2015.17,-139.869C2035.94,-128.893 2072.03,-109.824 2096.41,-96.9385"/>
<polygon fill="midnightblue" stroke="midnightblue" points="2098.23,-99.934 2105.44,-92.1672 2094.96,-93.745 2098.23,-99.934"/>
</g>
<!-- Node19 -->
<g id="node19" class="node"><title>Node19</title>
<polygon fill="white" stroke="#bfbfbf" points="2475.84,-67.5 2475.84,-97.5 2595.84,-97.5 2595.84,-67.5 2475.84,-67.5"/>
<text text-anchor="start" x="2483.84" y="-85.5" font-family="Helvetica,sans-Serif" font-size="10.00">boost/iterator/iterator</text>
<text text-anchor="middle" x="2535.84" y="-74.5" font-family="Helvetica,sans-Serif" font-size="10.00">_facade.hpp</text>
</g>
<!-- Node15&#45;&gt;Node19 -->
<g id="edge25" class="edge"><title>Node15&#45;&gt;Node19</title>
<path fill="none" stroke="midnightblue" d="M2031.62,-144.532C2117.14,-134.18 2348.49,-106.178 2465.72,-91.9877"/>
<polygon fill="midnightblue" stroke="midnightblue" points="2466.16,-95.4593 2475.67,-90.7829 2465.32,-88.51 2466.16,-95.4593"/>
</g>
<!-- Node20 -->
<g id="node20" class="node"><title>Node20</title>
<g id="a_node20"><a xlink:href="error_8h.xhtml" target="_top" xlink:title="Exceptions for SCRAM. ">
<polygon fill="white" stroke="black" points="1869.84,-73 1869.84,-92 1917.84,-92 1917.84,-73 1869.84,-73"/>
<text text-anchor="middle" x="1893.84" y="-80" font-family="Helvetica,sans-Serif" font-size="10.00">error.h</text>
</a>
</g>
</g>
<!-- Node15&#45;&gt;Node20 -->
<g id="edge30" class="edge"><title>Node15&#45;&gt;Node20</title>
<path fill="none" stroke="midnightblue" d="M1984.68,-139.734C1967.12,-128.867 1937,-110.216 1916.28,-97.3931"/>
<polygon fill="midnightblue" stroke="midnightblue" points="1918.12,-94.415 1907.78,-92.1273 1914.44,-100.367 1918.12,-94.415"/>
</g>
<!-- Node27 -->
<g id="node27" class="node"><title>Node27</title>
<g id="a_node27"><a xlink:href="linear__set_8h.xhtml" target="_top" xlink:title="Implementation of a vector&#45;based set for a small number of entries. ">
<polygon fill="white" stroke="black" points="2857.84,-73 2857.84,-92 2947.84,-92 2947.84,-73 2857.84,-73"/>
<text text-anchor="middle" x="2902.84" y="-80" font-family="Helvetica,sans-Serif" font-size="10.00">ext/linear_set.h</text>
</a>
</g>
</g>
<!-- Node15&#45;&gt;Node27 -->
<g id="edge38" class="edge"><title>Node15&#45;&gt;Node27</title>
<path fill="none" stroke="midnightblue" d="M2031.5,-146.465C2134.72,-139.988 2463.17,-119.043 2734.84,-98 2772.37,-95.093 2814.58,-91.4481 2847.31,-88.54"/>
<polygon fill="midnightblue" stroke="midnightblue" points="2847.93,-91.9984 2857.58,-87.6236 2847.31,-85.0261 2847.93,-91.9984"/>
</g>
<!-- Node30 -->
<g id="node30" class="node"><title>Node30</title>
<g id="a_node30"><a xlink:href="multi__index_8h.xhtml" target="_top" xlink:title="Helper functions to boost multi_index_container. ">
<polygon fill="white" stroke="black" points="1283.84,-73 1283.84,-92 1381.84,-92 1381.84,-73 1283.84,-73"/>
<text text-anchor="middle" x="1332.84" y="-80" font-family="Helvetica,sans-Serif" font-size="10.00">ext/multi_index.h</text>
</a>
</g>
</g>
<!-- Node15&#45;&gt;Node30 -->
<g id="edge43" class="edge"><title>Node15&#45;&gt;Node30</title>
<path fill="none" stroke="midnightblue" d="M1966.24,-142.27C1950.46,-139.425 1931.21,-136.207 1913.84,-134 1724.03,-109.891 1675.41,-115.085 1484.84,-98 1454.27,-95.2594 1420.26,-92.0318 1392.18,-89.3183"/>
<polygon fill="midnightblue" stroke="midnightblue" points="1392.4,-85.8242 1382.11,-88.3438 1391.73,-92.7916 1392.4,-85.8242"/>
</g>
<!-- Node20&#45;&gt;Node4 -->
<g id="edge32" class="edge"><title>Node20&#45;&gt;Node4</title>
<path fill="none" stroke="midnightblue" d="M1913.66,-72.8906C1919.43,-70.6724 1925.81,-68.4926 1931.84,-67 2060.91,-35.0611 2101.02,-67.6267 2228.84,-31 2230.77,-30.4476 2232.73,-29.7889 2234.67,-29.0614"/>
<polygon fill="midnightblue" stroke="midnightblue" points="2236.3,-32.1714 2244.12,-25.0256 2233.55,-25.7337 2236.3,-32.1714"/>
</g>
<!-- Node21 -->
<g id="node21" class="node"><title>Node21</title>
<polygon fill="white" stroke="#bfbfbf" points="1992.34,-6 1992.34,-25 2055.34,-25 2055.34,-6 1992.34,-6"/>
<text text-anchor="middle" x="2023.84" y="-13" font-family="Helvetica,sans-Serif" font-size="10.00">exception</text>
</g>
<!-- Node20&#45;&gt;Node21 -->
<g id="edge31" class="edge"><title>Node20&#45;&gt;Node21</title>
<path fill="none" stroke="midnightblue" d="M1911.1,-72.8685C1933.15,-61.8447 1971.53,-42.6554 1997.3,-29.7678"/>
<polygon fill="midnightblue" stroke="midnightblue" points="1999.13,-32.7699 2006.5,-25.1672 1996,-26.5089 1999.13,-32.7699"/>
</g>
<!-- Node22 -->
<g id="node22" class="node"><title>Node22</title>
<polygon fill="white" stroke="#bfbfbf" points="2073.84,-6 2073.84,-25 2219.84,-25 2219.84,-6 2073.84,-6"/>
<text text-anchor="middle" x="2146.84" y="-13" font-family="Helvetica,sans-Serif" font-size="10.00">boost/current_function.hpp</text>
</g>
<!-- Node20&#45;&gt;Node22 -->
<g id="edge33" class="edge"><title>Node20&#45;&gt;Node22</title>
<path fill="none" stroke="midnightblue" d="M1914.97,-72.8632C1920.42,-70.7958 1926.3,-68.6979 1931.84,-67 1985.91,-50.4148 2049.05,-36.1758 2092.86,-27.0858"/>
<polygon fill="midnightblue" stroke="midnightblue" points="2093.64,-30.4985 2102.73,-25.0566 2092.23,-23.6418 2093.64,-30.4985"/>
</g>
<!-- Node23 -->
<g id="node23" class="node"><title>Node23</title>
<polygon fill="white" stroke="#bfbfbf" points="1409.84,-6 1409.84,-25 1573.84,-25 1573.84,-6 1409.84,-6"/>
<text text-anchor="middle" x="1491.84" y="-13" font-family="Helvetica,sans-Serif" font-size="10.00">boost/exception/exception.hpp</text>
</g>
<!-- Node20&#45;&gt;Node23 -->
<g id="edge34" class="edge"><title>Node20&#45;&gt;Node23</title>
<path fill="none" stroke="midnightblue" d="M1874.01,-72.9314C1868.24,-70.7139 1861.86,-68.5242 1855.84,-67 1737.19,-36.9805 1703.95,-48.6305 1582.84,-31 1573.44,-29.6316 1563.5,-28.118 1553.79,-26.6001"/>
<polygon fill="midnightblue" stroke="midnightblue" points="1554.2,-23.1214 1543.77,-25.0226 1553.11,-30.0361 1554.2,-23.1214"/>
</g>
<!-- Node24 -->
<g id="node24" class="node"><title>Node24</title>
<polygon fill="white" stroke="#bfbfbf" points="1591.84,-6 1591.84,-25 1725.84,-25 1725.84,-6 1591.84,-6"/>
<text text-anchor="middle" x="1658.84" y="-13" font-family="Helvetica,sans-Serif" font-size="10.00">boost/exception/info.hpp</text>
</g>
<!-- Node20&#45;&gt;Node24 -->
<g id="edge35" class="edge"><title>Node20&#45;&gt;Node24</title>
<path fill="none" stroke="midnightblue" d="M1872.69,-72.9407C1867.24,-70.8718 1861.36,-68.7538 1855.84,-67 1805.74,-51.0776 1747.28,-36.5948 1707.14,-27.2625"/>
<polygon fill="midnightblue" stroke="midnightblue" points="1707.87,-23.84 1697.34,-25.0032 1706.3,-30.661 1707.87,-23.84"/>
</g>
<!-- Node25 -->
<g id="node25" class="node"><title>Node25</title>
<polygon fill="white" stroke="#bfbfbf" points="1744.34,-0.5 1744.34,-30.5 1857.34,-30.5 1857.34,-0.5 1744.34,-0.5"/>
<text text-anchor="start" x="1752.34" y="-18.5" font-family="Helvetica,sans-Serif" font-size="10.00">boost/exception/info</text>
<text text-anchor="middle" x="1800.84" y="-7.5" font-family="Helvetica,sans-Serif" font-size="10.00">_tuple.hpp</text>
</g>
<!-- Node20&#45;&gt;Node25 -->
<g id="edge36" class="edge"><title>Node20&#45;&gt;Node25</title>
<path fill="none" stroke="midnightblue" d="M1881.3,-72.7338C1868.12,-63.527 1846.96,-48.7328 1829.64,-36.6293"/>
<polygon fill="midnightblue" stroke="midnightblue" points="1831.2,-33.449 1821,-30.589 1827.19,-39.1865 1831.2,-33.449"/>
</g>
<!-- Node26 -->
<g id="node26" class="node"><title>Node26</title>
<g id="a_node26"><a xlink:href="source__info_8h.xhtml" target="_top" xlink:title="Helper facilities to get source file information. ">
<polygon fill="white" stroke="black" points="1875.84,-6 1875.84,-25 1973.84,-25 1973.84,-6 1875.84,-6"/>
<text text-anchor="middle" x="1924.84" y="-13" font-family="Helvetica,sans-Serif" font-size="10.00">ext/source_info.h</text>
</a>
</g>
</g>
<!-- Node20&#45;&gt;Node26 -->
<g id="edge37" class="edge"><title>Node20&#45;&gt;Node26</title>
<path fill="none" stroke="midnightblue" d="M1898.02,-72.7338C1902.71,-62.8903 1910.46,-46.6598 1916.42,-34.1594"/>
<polygon fill="midnightblue" stroke="midnightblue" points="1919.58,-35.66 1920.72,-25.1273 1913.26,-32.6467 1919.58,-35.66"/>
</g>
<!-- Node27&#45;&gt;Node7 -->
<g id="edge41" class="edge"><title>Node27&#45;&gt;Node7</title>
<path fill="none" stroke="midnightblue" d="M2922.63,-72.8685C2948.23,-61.699 2993.05,-42.1468 3022.59,-29.2602"/>
<polygon fill="midnightblue" stroke="midnightblue" points="3024.21,-32.3738 3031.97,-25.1672 3021.41,-25.9577 3024.21,-32.3738"/>
</g>
<!-- Node27&#45;&gt;Node9 -->
<g id="edge42" class="edge"><title>Node27&#45;&gt;Node9</title>
<path fill="none" stroke="midnightblue" d="M2857.61,-76.8668C2823.83,-73.5831 2776.49,-69.3573 2734.84,-67 2586.8,-58.6212 1545.53,-63.4291 1400.84,-31 1398.33,-30.4371 1395.77,-29.6809 1393.25,-28.808"/>
<polygon fill="midnightblue" stroke="midnightblue" points="1394.45,-25.5166 1383.86,-25.0252 1391.83,-32.0093 1394.45,-25.5166"/>
</g>
<!-- Node28 -->
<g id="node28" class="node"><title>Node28</title>
<polygon fill="white" stroke="#bfbfbf" points="2907.84,-6 2907.84,-25 2969.84,-25 2969.84,-6 2907.84,-6"/>
<text text-anchor="middle" x="2938.84" y="-13" font-family="Helvetica,sans-Serif" font-size="10.00">algorithm</text>
</g>
<!-- Node27&#45;&gt;Node28 -->
<g id="edge39" class="edge"><title>Node27&#45;&gt;Node28</title>
<path fill="none" stroke="midnightblue" d="M2907.69,-72.7338C2913.15,-62.8903 2922.14,-46.6598 2929.06,-34.1594"/>
<polygon fill="midnightblue" stroke="midnightblue" points="2932.28,-35.571 2934.06,-25.1273 2926.15,-32.1795 2932.28,-35.571"/>
</g>
<!-- Node29 -->
<g id="node29" class="node"><title>Node29</title>
<polygon fill="white" stroke="#bfbfbf" points="2591.34,-6 2591.34,-25 2668.34,-25 2668.34,-6 2591.34,-6"/>
<text text-anchor="middle" x="2629.84" y="-13" font-family="Helvetica,sans-Serif" font-size="10.00">initializer_list</text>
</g>
<!-- Node27&#45;&gt;Node29 -->
<g id="edge40" class="edge"><title>Node27&#45;&gt;Node29</title>
<path fill="none" stroke="midnightblue" d="M2868.22,-72.9358C2860.22,-70.9715 2851.74,-68.9019 2843.84,-67 2786.29,-53.1384 2719.94,-37.5405 2676.57,-27.3958"/>
<polygon fill="midnightblue" stroke="midnightblue" points="2677.13,-23.9329 2666.59,-25.0648 2675.54,-30.7492 2677.13,-23.9329"/>
</g>
<!-- Node30&#45;&gt;Node12 -->
<g id="edge44" class="edge"><title>Node30&#45;&gt;Node12</title>
<path fill="none" stroke="midnightblue" d="M1320.3,-72.7338C1304.96,-62.0131 1278.78,-43.7165 1260.46,-30.9137"/>
<polygon fill="midnightblue" stroke="midnightblue" points="1262.38,-27.9873 1252.18,-25.1273 1258.37,-33.7248 1262.38,-27.9873"/>
</g>
<!-- Node31&#45;&gt;Node3 -->
<g id="edge46" class="edge"><title>Node31&#45;&gt;Node3</title>
<path fill="none" stroke="midnightblue" d="M1803.81,-261.436C1789.15,-259.818 1772.23,-258.123 1756.84,-257 1657.36,-249.745 947.021,-269.464 859.839,-221 822.96,-200.499 794.397,-166.051 821.839,-134 855.629,-94.5365 1002.63,-111.334 1052.84,-98 1055.5,-97.2938 1058.23,-96.4666 1060.95,-95.5716"/>
<polygon fill="midnightblue" stroke="midnightblue" points="1062.35,-98.7879 1070.59,-92.1284 1059.99,-92.1957 1062.35,-98.7879"/>
</g>
<!-- Node31&#45;&gt;Node4 -->
<g id="edge47" class="edge"><title>Node31&#45;&gt;Node4</title>
<path fill="none" stroke="midnightblue" d="M1873.99,-257.395C1917.23,-244.28 1993.97,-215.346 2039.84,-165 2071.41,-130.348 2043.41,-97.6913 2078.84,-67 2130.66,-22.1133 2164.13,-53.6392 2228.84,-31 2230.46,-30.4335 2232.11,-29.8103 2233.76,-29.1504"/>
<polygon fill="midnightblue" stroke="midnightblue" points="2235.27,-32.3095 2243.04,-25.1092 2232.48,-25.8912 2235.27,-32.3095"/>
</g>
<!-- Node31&#45;&gt;Node9 -->
<g id="edge48" class="edge"><title>Node31&#45;&gt;Node9</title>
<path fill="none" stroke="midnightblue" d="M1803.81,-261.426C1789.15,-259.806 1772.23,-258.112 1756.84,-257 1653.92,-249.563 918.857,-271.445 828.839,-221 771.524,-188.881 765.878,-160.882 746.839,-98 742.847,-84.8134 737.399,-77.0356 746.839,-67 791.687,-19.3226 1271.22,-46.4047 1334.84,-31 1337.2,-30.4284 1339.6,-29.6968 1341.98,-28.8669"/>
<polygon fill="midnightblue" stroke="midnightblue" points="1343.48,-32.0376 1351.45,-25.0598 1340.87,-25.5429 1343.48,-32.0376"/>
</g>
<!-- Node31&#45;&gt;Node13 -->
<g id="edge49" class="edge"><title>Node31&#45;&gt;Node13</title>
<path fill="none" stroke="midnightblue" d="M1803.68,-261.782C1639.79,-243.624 1003.67,-172.7 996.839,-165 987.693,-154.696 988.341,-144.845 996.839,-134 1001.7,-127.795 1092.62,-107.121 1151.73,-94.2291"/>
<polygon fill="midnightblue" stroke="midnightblue" points="1152.62,-97.618 1161.64,-92.0741 1151.13,-90.7776 1152.62,-97.618"/>
</g>
<!-- Node31&#45;&gt;Node15 -->
<g id="edge50" class="edge"><title>Node31&#45;&gt;Node15</title>
<path fill="none" stroke="midnightblue" d="M1841.21,-257.251C1840.71,-243.548 1841.81,-216.944 1855.84,-201 1859.55,-196.789 1921.71,-175.799 1962.84,-162.24"/>
<polygon fill="midnightblue" stroke="midnightblue" points="1964.14,-165.498 1972.54,-159.051 1961.95,-158.849 1964.14,-165.498"/>
</g>
<!-- Node31&#45;&gt;Node32 -->
<g id="edge51" class="edge"><title>Node31&#45;&gt;Node32</title>
<path fill="none" stroke="midnightblue" d="M1879.85,-262.663C1990.35,-252.96 2310.59,-224.841 2419.83,-215.25"/>
<polygon fill="midnightblue" stroke="midnightblue" points="2420.37,-218.716 2430.02,-214.355 2419.75,-211.743 2420.37,-218.716"/>
</g>
<!-- Node31&#45;&gt;Node33 -->
<g id="edge67" class="edge"><title>Node31&#45;&gt;Node33</title>
<path fill="none" stroke="midnightblue" d="M1879.85,-264.676C2000.45,-260.271 2373.5,-245.011 2491.84,-221 2525.66,-214.139 2616.2,-180.936 2664.86,-162.648"/>
<polygon fill="midnightblue" stroke="midnightblue" points="2666.17,-165.896 2674.29,-159.094 2663.7,-159.346 2666.17,-165.896"/>
</g>
<!-- Node32&#45;&gt;Node3 -->
<g id="edge54" class="edge"><title>Node32&#45;&gt;Node3</title>
<path fill="none" stroke="midnightblue" d="M2430.21,-208.281C2355.41,-203.307 2137.13,-187.79 1956.84,-165 1871.95,-154.269 1851.89,-143.312 1766.84,-134 1484.52,-103.091 1406.58,-157.328 1128.84,-98 1125.76,-97.3427 1122.6,-96.4748 1119.49,-95.4897"/>
<polygon fill="midnightblue" stroke="midnightblue" points="1120.42,-92.1052 1109.82,-92.0571 1118.07,-98.7017 1120.42,-92.1052"/>
</g>
<!-- Node32&#45;&gt;Node4 -->
<g id="edge56" class="edge"><title>Node32&#45;&gt;Node4</title>
<path fill="none" stroke="midnightblue" d="M2457.08,-201.288C2457.1,-186.347 2455.33,-155.384 2441.84,-134 2406.45,-77.903 2333.44,-43.3323 2291.44,-27.2521"/>
<polygon fill="midnightblue" stroke="midnightblue" points="2292.57,-23.9368 2281.98,-23.7397 2290.14,-30.4996 2292.57,-23.9368"/>
</g>
<!-- Node32&#45;&gt;Node7 -->
<g id="edge57" class="edge"><title>Node32&#45;&gt;Node7</title>
<path fill="none" stroke="midnightblue" d="M2469.7,-201.339C2494.69,-185.003 2552.09,-149.862 2605.84,-134 2756.25,-89.6178 2812.75,-159.881 2956.84,-98 2990.93,-83.3596 3021.8,-51.9965 3038.59,-32.7285"/>
<polygon fill="midnightblue" stroke="midnightblue" points="3041.29,-34.9561 3045.08,-25.0625 3035.95,-30.4329 3041.29,-34.9561"/>
</g>
<!-- Node32&#45;&gt;Node8 -->
<g id="edge58" class="edge"><title>Node32&#45;&gt;Node8</title>
<path fill="none" stroke="midnightblue" d="M2430.15,-209.182C2217.15,-202.649 794.697,-159.022 552.017,-151.579"/>
<polygon fill="midnightblue" stroke="midnightblue" points="552.087,-148.079 541.984,-151.271 551.872,-155.076 552.087,-148.079"/>
</g>
<!-- Node32&#45;&gt;Node9 -->
<g id="edge59" class="edge"><title>Node32&#45;&gt;Node9</title>
<path fill="none" stroke="midnightblue" d="M2432.34,-201.483C2385.48,-185.551 2279.64,-151.292 2187.84,-134 2025.47,-103.418 1970.61,-160.913 1817.84,-98 1797.69,-89.7005 1800,-75.2764 1779.84,-67 1623.31,-2.74957 1564.6,-73.5743 1400.84,-31 1398.54,-30.4022 1396.2,-29.6627 1393.87,-28.8367"/>
<polygon fill="midnightblue" stroke="midnightblue" points="1395.18,-25.5895 1384.6,-25.0961 1392.56,-32.0817 1395.18,-25.5895"/>
</g>
<!-- Node32&#45;&gt;Node15 -->
<g id="edge60" class="edge"><title>Node32&#45;&gt;Node15</title>
<path fill="none" stroke="midnightblue" d="M2430.24,-206.544C2354.05,-196.647 2134.58,-168.134 2041.44,-156.035"/>
<polygon fill="midnightblue" stroke="midnightblue" points="2041.88,-152.563 2031.52,-154.745 2040.98,-159.504 2041.88,-152.563"/>
</g>
<!-- Node32&#45;&gt;Node16 -->
<g id="edge52" class="edge"><title>Node32&#45;&gt;Node16</title>
<path fill="none" stroke="midnightblue" d="M2483.59,-203.062C2520.31,-193.347 2584.22,-175.684 2605.84,-165 2626.96,-154.562 2626.79,-142.292 2648.84,-134 2807.22,-74.4467 2859.66,-116.586 3027.84,-98 3054.78,-95.0232 3085.2,-91.1656 3107.98,-88.1778"/>
<polygon fill="midnightblue" stroke="midnightblue" points="3108.73,-91.6091 3118.19,-86.8306 3107.82,-84.6693 3108.73,-91.6091"/>
</g>
<!-- Node32&#45;&gt;Node17 -->
<g id="edge55" class="edge"><title>Node32&#45;&gt;Node17</title>
<path fill="none" stroke="midnightblue" d="M2454.14,-201.412C2448.95,-186.108 2436.25,-153.867 2415.84,-134 2405.09,-123.535 2370.97,-107.341 2345.56,-96.1247"/>
<polygon fill="midnightblue" stroke="midnightblue" points="2346.88,-92.8818 2336.31,-92.0921 2344.08,-99.2981 2346.88,-92.8818"/>
</g>
<!-- Node32&#45;&gt;Node29 -->
<g id="edge53" class="edge"><title>Node32&#45;&gt;Node29</title>
<path fill="none" stroke="midnightblue" d="M2466.39,-201.45C2474.93,-193.12 2486.83,-179.604 2491.84,-165 2496.31,-151.968 2495.96,-147.148 2491.84,-134 2486.02,-115.411 2472.66,-116.589 2466.84,-98 2462.72,-84.8519 2458.66,-78.0906 2466.84,-67 2492.79,-31.7959 2543.01,-20.4001 2580.88,-17.0608"/>
<polygon fill="midnightblue" stroke="midnightblue" points="2581.48,-20.5267 2591.21,-16.3195 2580.98,-13.5447 2581.48,-20.5267"/>
</g>
<!-- Node32&#45;&gt;Node33 -->
<g id="edge61" class="edge"><title>Node32&#45;&gt;Node33</title>
<path fill="none" stroke="midnightblue" d="M2483.54,-203.849C2519.88,-195.414 2586.92,-179.631 2643.84,-165 2647.94,-163.945 2652.22,-162.819 2656.49,-161.679"/>
<polygon fill="midnightblue" stroke="midnightblue" points="2657.59,-165.006 2666.33,-159.019 2655.77,-158.248 2657.59,-165.006"/>
</g>
<!-- Node33&#45;&gt;Node7 -->
<g id="edge63" class="edge"><title>Node33&#45;&gt;Node7</title>
<path fill="none" stroke="midnightblue" d="M2735.52,-144.933C2818.13,-136.987 3006.06,-117.024 3027.84,-98 3045.77,-82.3384 3050.63,-54.0257 3051.78,-35.2419"/>
<polygon fill="midnightblue" stroke="midnightblue" points="3055.27,-35.3184 3052.09,-25.2134 3048.28,-35.0985 3055.27,-35.3184"/>
</g>
<!-- Node33&#45;&gt;Node9 -->
<g id="edge64" class="edge"><title>Node33&#45;&gt;Node9</title>
<path fill="none" stroke="midnightblue" d="M2658.21,-147.432C2503.92,-142.992 1936.47,-124.964 1860.84,-98 1838.65,-90.088 1839.93,-75.1975 1817.84,-67 1643.44,-2.27465 1581.08,-77.0332 1400.84,-31 1398.54,-30.412 1396.19,-29.6795 1393.87,-28.8582"/>
<polygon fill="midnightblue" stroke="midnightblue" points="1395.17,-25.6104 1384.59,-25.1256 1392.56,-32.1047 1395.17,-25.6104"/>
</g>
<!-- Node33&#45;&gt;Node13 -->
<g id="edge66" class="edge"><title>Node33&#45;&gt;Node13</title>
<path fill="none" stroke="midnightblue" d="M2658.11,-147.497C2444.58,-141.916 1415.47,-114.357 1274.84,-98 1266.35,-97.0129 1257.38,-95.5683 1248.74,-93.9684"/>
<polygon fill="midnightblue" stroke="midnightblue" points="1249.28,-90.508 1238.79,-92.0371 1247.94,-97.3796 1249.28,-90.508"/>
</g>
<!-- Node33&#45;&gt;Node28 -->
<g id="edge62" class="edge"><title>Node33&#45;&gt;Node28</title>
<path fill="none" stroke="midnightblue" d="M2735.52,-146.808C2800.99,-143.045 2929.23,-131.483 2956.84,-98 2971.77,-79.8878 2960.6,-52.062 2950.38,-34.0695"/>
<polygon fill="midnightblue" stroke="midnightblue" points="2953.17,-31.9219 2944.97,-25.2094 2947.19,-35.5686 2953.17,-31.9219"/>
</g>
<!-- Node34 -->
<g id="node34" class="node"><title>Node34</title>
<polygon fill="white" stroke="#bfbfbf" points="2613.84,-67.5 2613.84,-97.5 2725.84,-97.5 2725.84,-67.5 2613.84,-67.5"/>
<text text-anchor="start" x="2621.84" y="-85.5" font-family="Helvetica,sans-Serif" font-size="10.00">boost/icl/continuous</text>
<text text-anchor="middle" x="2669.84" y="-74.5" font-family="Helvetica,sans-Serif" font-size="10.00">_interval.hpp</text>
</g>
<!-- Node33&#45;&gt;Node34 -->
<g id="edge65" class="edge"><title>Node33&#45;&gt;Node34</title>
<path fill="none" stroke="midnightblue" d="M2693.2,-139.734C2689.72,-131.372 2684.34,-118.4 2679.61,-107.022"/>
<polygon fill="midnightblue" stroke="midnightblue" points="2682.76,-105.481 2675.69,-97.589 2676.3,-108.167 2682.76,-105.481"/>
</g>
<!-- Node35&#45;&gt;Node3 -->
<g id="edge69" class="edge"><title>Node35&#45;&gt;Node3</title>
<path fill="none" stroke="midnightblue" d="M2351.74,-263.171C2326.55,-261.258 2292.16,-258.769 2261.84,-257 2117.5,-248.578 1060.25,-272.744 963.839,-165 954.652,-154.733 956.103,-145.401 963.839,-134 965.269,-131.893 1021.88,-109.905 1059.03,-95.6461"/>
<polygon fill="midnightblue" stroke="midnightblue" points="1060.39,-98.8753 1068.47,-92.0283 1057.88,-92.3389 1060.39,-98.8753"/>
</g>
<!-- Node35&#45;&gt;Node4 -->
<g id="edge71" class="edge"><title>Node35&#45;&gt;Node4</title>
<path fill="none" stroke="midnightblue" d="M2424,-260.655C2447.67,-255.077 2476.88,-243.773 2491.84,-221 2508.42,-195.762 2479.06,-161.553 2461.84,-134 2441.27,-101.09 2437.79,-89.035 2405.84,-67 2370.83,-42.8522 2323.17,-29.2436 2291.97,-22.383"/>
<polygon fill="midnightblue" stroke="midnightblue" points="2292.57,-18.9319 2282.06,-20.3095 2291.13,-25.7835 2292.57,-18.9319"/>
</g>
<!-- Node35&#45;&gt;Node7 -->
<g id="edge73" class="edge"><title>Node35&#45;&gt;Node7</title>
<path fill="none" stroke="midnightblue" d="M2424.2,-259.149C2466.75,-250.941 2539.23,-236.361 2600.84,-221 2736.37,-187.208 2767.81,-169.744 2902.84,-134 2968.7,-116.566 3009.7,-151.532 3051.84,-98 3065.82,-80.2389 3062.35,-52.908 3057.77,-34.8671"/>
<polygon fill="midnightblue" stroke="midnightblue" points="3061.12,-33.8707 3054.99,-25.2319 3054.4,-35.8102 3061.12,-33.8707"/>
</g>
<!-- Node35&#45;&gt;Node9 -->
<g id="edge74" class="edge"><title>Node35&#45;&gt;Node9</title>
<path fill="none" stroke="midnightblue" d="M2370.59,-257.332C2314.49,-229.198 2139.24,-141.791 2111.84,-134 1969.08,-93.4029 1916.76,-155.271 1779.84,-98 1759.73,-89.5896 1761.96,-75.382 1741.84,-67 1601.16,-8.39287 1548.13,-70.1182 1400.84,-31 1398.54,-30.3901 1396.2,-29.6422 1393.88,-28.8105"/>
<polygon fill="midnightblue" stroke="midnightblue" points="1395.19,-25.5642 1384.6,-25.0601 1392.56,-32.0537 1395.19,-25.5642"/>
</g>
<!-- Node35&#45;&gt;Node15 -->
<g id="edge75" class="edge"><title>Node35&#45;&gt;Node15</title>
<path fill="none" stroke="midnightblue" d="M2358.92,-257.413C2289.91,-236.924 2115.58,-185.161 2037.59,-162.005"/>
<polygon fill="midnightblue" stroke="midnightblue" points="2038.27,-158.556 2027.69,-159.065 2036.28,-165.267 2038.27,-158.556"/>
</g>
<!-- Node35&#45;&gt;Node17 -->
<g id="edge70" class="edge"><title>Node35&#45;&gt;Node17</title>
<path fill="none" stroke="midnightblue" d="M2389.4,-257.343C2392.94,-235.283 2399.66,-175.758 2377.84,-134 2369.8,-118.604 2354.8,-106.194 2341.58,-97.5289"/>
<polygon fill="midnightblue" stroke="midnightblue" points="2343.16,-94.3942 2332.81,-92.1378 2339.49,-100.357 2343.16,-94.3942"/>
</g>
<!-- Node35&#45;&gt;Node18 -->
<g id="edge72" class="edge"><title>Node35&#45;&gt;Node18</title>
<path fill="none" stroke="midnightblue" d="M2376.89,-257.338C2360.72,-244.639 2329.4,-220.375 2301.84,-201 2246.31,-161.959 2178.81,-119.076 2144.39,-97.5219"/>
<polygon fill="midnightblue" stroke="midnightblue" points="2145.94,-94.3583 2135.6,-92.029 2142.23,-100.295 2145.94,-94.3583"/>
</g>
<!-- Node35&#45;&gt;Node32 -->
<g id="edge76" class="edge"><title>Node35&#45;&gt;Node32</title>
<path fill="none" stroke="midnightblue" d="M2398.93,-257.324C2409.33,-249.185 2425.1,-236.839 2437.56,-227.087"/>
<polygon fill="midnightblue" stroke="midnightblue" points="2439.83,-229.753 2445.55,-220.834 2435.52,-224.241 2439.83,-229.753"/>
</g>
<!-- Node35&#45;&gt;Node33 -->
<g id="edge77" class="edge"><title>Node35&#45;&gt;Node33</title>
<path fill="none" stroke="midnightblue" d="M2424.11,-259.555C2460.66,-252.434 2518.3,-239.474 2565.84,-221 2605.97,-205.404 2649.39,-180.225 2674.79,-164.557"/>
<polygon fill="midnightblue" stroke="midnightblue" points="2676.97,-167.321 2683.6,-159.057 2673.26,-161.383 2676.97,-167.321"/>
</g>
<!-- Node36&#45;&gt;Node3 -->
<g id="edge81" class="edge"><title>Node36&#45;&gt;Node3</title>
<path fill="none" stroke="midnightblue" d="M652.187,-313.353C643.643,-283.578 620.184,-184.361 669.839,-134 729.859,-73.1274 969.587,-117.416 1052.84,-98 1055.84,-97.3009 1058.92,-96.4194 1061.96,-95.4379"/>
<polygon fill="midnightblue" stroke="midnightblue" points="1063.19,-98.7161 1071.43,-92.063 1060.84,-92.1221 1063.19,-98.7161"/>
</g>
<!-- Node36&#45;&gt;Node4 -->
<g id="edge82" class="edge"><title>Node36&#45;&gt;Node4</title>
<path fill="none" stroke="midnightblue" d="M693.617,-319.559C822.552,-311.076 1248.4,-280.119 1595.84,-221 1703.39,-202.699 1732.59,-203.043 1834.84,-165 1895.02,-142.609 1906.67,-129.107 1962.84,-98 1986.71,-84.7798 1990.19,-76.3148 2015.84,-67 2106.08,-34.2285 2137.19,-59.5992 2228.84,-31 2230.71,-30.4159 2232.62,-29.7415 2234.51,-29.0097"/>
<polygon fill="midnightblue" stroke="midnightblue" points="2235.96,-32.1972 2243.76,-25.0255 2233.19,-25.7686 2235.96,-32.1972"/>
</g>
<!-- Node36&#45;&gt;Node8 -->
<g id="edge83" class="edge"><title>Node36&#45;&gt;Node8</title>
<path fill="none" stroke="midnightblue" d="M618.282,-313.418C597.329,-306.742 572.053,-295.426 555.839,-277 528.474,-245.901 520.31,-195.882 517.875,-169.004"/>
<polygon fill="midnightblue" stroke="midnightblue" points="521.365,-168.741 517.142,-159.024 514.384,-169.254 521.365,-168.741"/>
</g>
<!-- Node36&#45;&gt;Node9 -->
<g id="edge84" class="edge"><title>Node36&#45;&gt;Node9</title>
<path fill="none" stroke="midnightblue" d="M616.327,-319.913C558.875,-314.379 453.552,-294.23 416.839,-221 372.318,-132.194 484.809,-99.0455 578.839,-67 738.038,-12.745 1171.11,-69.4732 1334.84,-31 1337.2,-30.4444 1339.61,-29.724 1341.99,-28.9015"/>
<polygon fill="midnightblue" stroke="midnightblue" points="1343.48,-32.0747 1351.46,-25.1065 1340.88,-25.5768 1343.48,-32.0747"/>
</g>
<!-- Node36&#45;&gt;Node15 -->
<g id="edge85" class="edge"><title>Node36&#45;&gt;Node15</title>
<path fill="none" stroke="midnightblue" d="M693.42,-322.172C849.574,-322.564 1434.89,-321.005 1613.84,-277 1634.31,-271.967 1637.53,-265.459 1656.84,-257 1716.71,-230.765 1730.52,-220.731 1792.84,-201 1861.91,-179.129 1881.84,-183.694 1951.84,-165 1955.24,-164.091 1958.77,-163.099 1962.29,-162.073"/>
<polygon fill="midnightblue" stroke="midnightblue" points="1963.52,-165.358 1972.1,-159.138 1961.52,-158.652 1963.52,-165.358"/>
</g>
<!-- Node36&#45;&gt;Node31 -->
<g id="edge88" class="edge"><title>Node36&#45;&gt;Node31</title>
<path fill="none" stroke="midnightblue" d="M693.443,-321.327C835.284,-318.663 1341.01,-307.473 1756.84,-277 1768.74,-276.128 1781.56,-274.915 1793.54,-273.662"/>
<polygon fill="midnightblue" stroke="midnightblue" points="1794.24,-277.107 1803.8,-272.558 1793.49,-270.147 1794.24,-277.107"/>
</g>
<!-- Node37 -->
<g id="node37" class="node"><title>Node37</title>
<g id="a_node37"><a xlink:href="variant_8h.xhtml" target="_top" xlink:title="Extra helper functions for std::variant. ">
<polygon fill="white" stroke="black" points="426.339,-201.5 426.339,-220.5 503.339,-220.5 503.339,-201.5 426.339,-201.5"/>
<text text-anchor="middle" x="464.839" y="-208.5" font-family="Helvetica,sans-Serif" font-size="10.00">ext/variant.h</text>
</a>
</g>
</g>
<!-- Node36&#45;&gt;Node37 -->
<g id="edge86" class="edge"><title>Node36&#45;&gt;Node37</title>
<path fill="none" stroke="midnightblue" d="M616.177,-315.42C587.185,-309.103 547.551,-297.417 517.839,-277 499.726,-264.553 484.548,-244.188 475.14,-229.568"/>
<polygon fill="midnightblue" stroke="midnightblue" points="478.044,-227.609 469.818,-220.932 472.085,-231.282 478.044,-227.609"/>
</g>
<!-- Node37&#45;&gt;Node8 -->
<g id="edge87" class="edge"><title>Node37&#45;&gt;Node8</title>
<path fill="none" stroke="midnightblue" d="M472.29,-201.475C480.167,-192.462 492.784,-178.025 502.583,-166.812"/>
<polygon fill="midnightblue" stroke="midnightblue" points="505.457,-168.842 509.403,-159.009 500.187,-164.236 505.457,-168.842"/>
</g>
<!-- Node38&#45;&gt;Node33 -->
<g id="edge91" class="edge"><title>Node38&#45;&gt;Node33</title>
<path fill="none" stroke="midnightblue" d="M2853.86,-369.325C2860.38,-360.695 2869.69,-346.784 2873.84,-333 2890.77,-276.785 2914.37,-247.735 2878.84,-201 2862.72,-179.798 2793.77,-165.17 2745.53,-157.309"/>
<polygon fill="midnightblue" stroke="midnightblue" points="2746.01,-153.84 2735.58,-155.735 2744.91,-160.754 2746.01,-153.84"/>
</g>
<!-- Node39&#45;&gt;Node3 -->
<g id="edge93" class="edge"><title>Node39&#45;&gt;Node3</title>
<path fill="none" stroke="midnightblue" d="M2416.02,-313.948C2377.75,-305.244 2315.35,-290.764 2261.84,-277 2229.67,-268.727 2222.67,-262.007 2189.84,-257 1940.37,-218.958 1298.11,-288.062 1054.84,-221 1005.36,-207.36 979.887,-209.226 953.839,-165 946.847,-153.128 945.935,-145.285 953.839,-134 980.699,-95.6522 1008.97,-114.346 1052.84,-98 1054.72,-97.2974 1056.66,-96.5715 1058.62,-95.8362"/>
<polygon fill="midnightblue" stroke="midnightblue" points="1060.24,-98.9616 1068.36,-92.146 1057.77,-92.4156 1060.24,-98.9616"/>
</g>
<!-- Node39&#45;&gt;Node4 -->
<g id="edge94" class="edge"><title>Node39&#45;&gt;Node4</title>
<path fill="none" stroke="midnightblue" d="M2487.68,-316.734C2537.29,-308.97 2623.81,-293.573 2650.84,-277 2736.53,-224.449 2806.89,-137.092 2734.84,-67 2703.11,-36.1399 2394.01,-21.6317 2292.18,-17.663"/>
<polygon fill="midnightblue" stroke="midnightblue" points="2292.03,-14.1546 2281.9,-17.2709 2291.76,-21.1495 2292.03,-14.1546"/>
</g>
<!-- Node39&#45;&gt;Node9 -->
<g id="edge96" class="edge"><title>Node39&#45;&gt;Node9</title>
<path fill="none" stroke="midnightblue" d="M2429.99,-313.349C2407.89,-304.511 2372.8,-290.244 2342.84,-277 2308.79,-261.948 2075.61,-144.309 2039.84,-134 1911.65,-97.0566 1872.3,-125.864 1741.84,-98 1696.33,-88.2813 1687.2,-77.3561 1641.84,-67 1536.26,-42.8964 1504.89,-61.0478 1400.84,-31 1398.69,-30.3793 1396.5,-29.6492 1394.32,-28.8523"/>
<polygon fill="midnightblue" stroke="midnightblue" points="1395.57,-25.5836 1384.99,-25.0638 1392.93,-32.0692 1395.57,-25.5836"/>
</g>
<!-- Node39&#45;&gt;Node15 -->
<g id="edge98" class="edge"><title>Node39&#45;&gt;Node15</title>
<path fill="none" stroke="midnightblue" d="M2422.21,-313.439C2393.31,-304.893 2348.21,-291.043 2309.84,-277 2288.14,-269.057 2283.31,-265.54 2261.84,-257 2219.88,-240.315 2208.77,-237.738 2166.84,-221 2117.99,-201.5 2061.71,-177.585 2028.27,-163.219"/>
<polygon fill="midnightblue" stroke="midnightblue" points="2029.23,-159.821 2018.66,-159.083 2026.46,-166.251 2029.23,-159.821"/>
</g>
<!-- Node39&#45;&gt;Node32 -->
<g id="edge99" class="edge"><title>Node39&#45;&gt;Node32</title>
<path fill="none" stroke="midnightblue" d="M2455.44,-313.222C2458.9,-304.285 2463.87,-289.942 2465.84,-277 2468.2,-261.494 2465.41,-243.867 2462.34,-230.885"/>
<polygon fill="midnightblue" stroke="midnightblue" points="2465.63,-229.615 2459.69,-220.842 2458.86,-231.405 2465.63,-229.615"/>
</g>
<!-- Node39&#45;&gt;Node35 -->
<g id="edge97" class="edge"><title>Node39&#45;&gt;Node35</title>
<path fill="none" stroke="midnightblue" d="M2441.56,-313.324C2432,-305.263 2417.56,-293.077 2406.05,-283.369"/>
<polygon fill="midnightblue" stroke="midnightblue" points="2408.21,-280.608 2398.31,-276.834 2403.69,-285.958 2408.21,-280.608"/>
</g>
<!-- Node40 -->
<g id="node40" class="node"><title>Node40</title>
<polygon fill="white" stroke="#bfbfbf" points="2555.84,-257.5 2555.84,-276.5 2641.84,-276.5 2641.84,-257.5 2555.84,-257.5"/>
<text text-anchor="middle" x="2598.84" y="-264.5" font-family="Helvetica,sans-Serif" font-size="10.00">unordered_set</text>
</g>
<!-- Node39&#45;&gt;Node40 -->
<g id="edge95" class="edge"><title>Node39&#45;&gt;Node40</title>
<path fill="none" stroke="midnightblue" d="M2475.13,-313.444C2499.65,-304.438 2538.44,-290.189 2566.04,-280.049"/>
<polygon fill="midnightblue" stroke="midnightblue" points="2567.48,-283.25 2575.66,-276.516 2565.06,-276.679 2567.48,-283.25"/>
</g>
<!-- Node39&#45;&gt;Node41 -->
<g id="edge100" class="edge"><title>Node39&#45;&gt;Node41</title>
<path fill="none" stroke="midnightblue" d="M2487.41,-320.229C2540.08,-316.693 2641.25,-306.366 2721.84,-277 2755.94,-264.574 2791.39,-241.478 2812.53,-226.428"/>
<polygon fill="midnightblue" stroke="midnightblue" points="2814.63,-229.23 2820.67,-220.526 2810.52,-223.563 2814.63,-229.23"/>
</g>
<!-- Node41&#45;&gt;Node15 -->
<g id="edge102" class="edge"><title>Node41&#45;&gt;Node15</title>
<path fill="none" stroke="midnightblue" d="M2793.61,-207.269C2656,-197.44 2186.44,-163.9 2041.68,-153.56"/>
<polygon fill="midnightblue" stroke="midnightblue" points="2041.66,-150.05 2031.43,-152.828 2041.16,-157.032 2041.66,-150.05"/>
</g>
<!-- Node41&#45;&gt;Node16 -->
<g id="edge101" class="edge"><title>Node41&#45;&gt;Node16</title>
<path fill="none" stroke="midnightblue" d="M2844.8,-201.291C2868.36,-185.796 2920.19,-153.261 2967.84,-134 3025.81,-110.565 3044.24,-116.917 3103.84,-98 3106.4,-97.1879 3109.03,-96.3062 3111.67,-95.392"/>
<polygon fill="midnightblue" stroke="midnightblue" points="3112.88,-98.6794 3121.1,-92.0062 3110.51,-92.0912 3112.88,-98.6794"/>
</g>
<!-- Node41&#45;&gt;Node33 -->
<g id="edge103" class="edge"><title>Node41&#45;&gt;Node33</title>
<path fill="none" stroke="midnightblue" d="M2812.5,-201.475C2789.74,-191.445 2751.75,-174.7 2725.55,-163.155"/>
<polygon fill="midnightblue" stroke="midnightblue" points="2726.71,-159.839 2716.15,-159.009 2723.88,-166.245 2726.71,-159.839"/>
</g>
<!-- Node42&#45;&gt;Node3 -->
<g id="edge106" class="edge"><title>Node42&#45;&gt;Node3</title>
<path fill="none" stroke="midnightblue" d="M2010.62,-378.232C1844.03,-379.061 989.753,-375.634 790.839,-221 759.351,-196.521 742.47,-163.923 768.839,-134 810.899,-86.2719 991.128,-113.449 1052.84,-98 1055.66,-97.2926 1058.57,-96.4367 1061.45,-95.4986"/>
<polygon fill="midnightblue" stroke="midnightblue" points="1062.77,-98.7434 1071.01,-92.0881 1060.42,-92.15 1062.77,-98.7434"/>
</g>
<!-- Node42&#45;&gt;Node4 -->
<g id="edge107" class="edge"><title>Node42&#45;&gt;Node4</title>
<path fill="none" stroke="midnightblue" d="M2040.66,-369.405C2045.19,-349.042 2058.11,-296.596 2078.84,-257 2085.31,-244.636 2207.04,-85.413 2247.14,-33.0594"/>
<polygon fill="midnightblue" stroke="midnightblue" points="2249.94,-35.1617 2253.25,-25.0954 2244.39,-30.9039 2249.94,-35.1617"/>
</g>
<!-- Node42&#45;&gt;Node5 -->
<g id="edge108" class="edge"><title>Node42&#45;&gt;Node5</title>
<path fill="none" stroke="midnightblue" d="M2066.96,-377.409C2175.59,-374.917 2567.66,-363.927 2687.84,-333 2859.61,-288.797 2889.42,-240.673 3049.84,-165 3100.49,-141.106 3159.38,-112.743 3192.87,-96.5598"/>
<polygon fill="midnightblue" stroke="midnightblue" points="3194.53,-99.6437 3202.01,-92.1394 3191.48,-93.3418 3194.53,-99.6437"/>
</g>
<!-- Node42&#45;&gt;Node9 -->
<g id="edge109" class="edge"><title>Node42&#45;&gt;Node9</title>
<path fill="none" stroke="midnightblue" d="M2010.65,-378.24C1835.15,-379.563 890.639,-384.17 606.839,-333 506.196,-314.854 434.032,-319.303 405.839,-221 400.767,-203.313 391.311,-165.643 406.839,-134 427.878,-91.1295 446.112,-83.7314 490.839,-67 666.666,-1.22787 1151.98,-73.489 1334.84,-31 1337.2,-30.4503 1339.61,-29.7339 1341.99,-28.9142"/>
<polygon fill="midnightblue" stroke="midnightblue" points="1343.48,-32.0883 1351.47,-25.1236 1340.88,-25.5892 1343.48,-32.0883"/>
</g>
<!-- Node42&#45;&gt;Node14 -->
<g id="edge110" class="edge"><title>Node42&#45;&gt;Node14</title>
<path fill="none" stroke="midnightblue" d="M2013.65,-369.444C1986.9,-360.359 1944.44,-345.939 1914.53,-335.783"/>
<polygon fill="midnightblue" stroke="midnightblue" points="1915.51,-332.418 1904.92,-332.516 1913.26,-339.046 1915.51,-332.418"/>
</g>
<!-- Node42&#45;&gt;Node15 -->
<g id="edge112" class="edge"><title>Node42&#45;&gt;Node15</title>
<path fill="none" stroke="midnightblue" d="M2037.32,-369.36C2031.47,-336.068 2010.29,-215.651 2002.1,-169.074"/>
<polygon fill="midnightblue" stroke="midnightblue" points="2005.54,-168.392 2000.36,-159.149 1998.64,-169.604 2005.54,-168.392"/>
</g>
<!-- Node42&#45;&gt;Node31 -->
<g id="edge134" class="edge"><title>Node42&#45;&gt;Node31</title>
<path fill="none" stroke="midnightblue" d="M2024.29,-369.444C2002.85,-356.878 1961.45,-332.777 1925.84,-313 1906.37,-302.19 1884.16,-290.309 1867.46,-281.471"/>
<polygon fill="midnightblue" stroke="midnightblue" points="1868.81,-278.225 1858.34,-276.649 1865.54,-284.415 1868.81,-278.225"/>
</g>
<!-- Node42&#45;&gt;Node32 -->
<g id="edge113" class="edge"><title>Node42&#45;&gt;Node32</title>
<path fill="none" stroke="midnightblue" d="M2066.86,-376.046C2117.4,-371.951 2226.78,-360.468 2314.84,-333 2370.26,-315.714 2393.67,-319.841 2432.84,-277 2444.62,-264.111 2450.76,-244.934 2453.87,-230.748"/>
<polygon fill="midnightblue" stroke="midnightblue" points="2457.36,-231.13 2455.76,-220.656 2450.48,-229.841 2457.36,-231.13"/>
</g>
<!-- Node42&#45;&gt;Node33 -->
<g id="edge115" class="edge"><title>Node42&#45;&gt;Node33</title>
<path fill="none" stroke="midnightblue" d="M2067.14,-377.526C2176.17,-375.091 2567.09,-360.579 2650.84,-277 2680.65,-247.246 2691.29,-196.678 2694.97,-169.357"/>
<polygon fill="midnightblue" stroke="midnightblue" points="2698.47,-169.539 2696.16,-159.2 2691.52,-168.726 2698.47,-169.539"/>
</g>
<!-- Node42&#45;&gt;Node35 -->
<g id="edge111" class="edge"><title>Node42&#45;&gt;Node35</title>
<path fill="none" stroke="midnightblue" d="M2067.18,-375.991C2113.15,-372.017 2206.23,-360.974 2279.84,-333 2312.98,-320.404 2347.43,-297.715 2368.26,-282.755"/>
<polygon fill="midnightblue" stroke="midnightblue" points="2370.56,-285.409 2376.56,-276.678 2366.43,-279.76 2370.56,-285.409"/>
</g>
<!-- Node42&#45;&gt;Node36 -->
<g id="edge114" class="edge"><title>Node42&#45;&gt;Node36</title>
<path fill="none" stroke="midnightblue" d="M2010.57,-377.562C1842.52,-374.883 973.38,-359.912 707.839,-333 706.533,-332.868 705.211,-332.723 703.878,-332.567"/>
<polygon fill="midnightblue" stroke="midnightblue" points="703.919,-329.042 693.545,-331.19 702.995,-335.98 703.919,-329.042"/>
</g>
<!-- Node42&#45;&gt;Node39 -->
<g id="edge133" class="edge"><title>Node42&#45;&gt;Node39</title>
<path fill="none" stroke="midnightblue" d="M2066.9,-374.331C2137.04,-365.161 2320.46,-341.177 2406.31,-329.953"/>
<polygon fill="midnightblue" stroke="midnightblue" points="2406.81,-333.417 2416.28,-328.65 2405.91,-326.476 2406.81,-333.417"/>
</g>
<!-- Node42&#45;&gt;Node41 -->
<g id="edge135" class="edge"><title>Node42&#45;&gt;Node41</title>
<path fill="none" stroke="midnightblue" d="M2066.94,-377.373C2171.06,-374.824 2534.6,-363.862 2645.84,-333 2699.08,-318.228 2710.95,-307.773 2756.84,-277 2778.82,-262.264 2801.41,-241.819 2815.98,-227.815"/>
<polygon fill="midnightblue" stroke="midnightblue" points="2818.48,-230.266 2823.19,-220.776 2813.59,-225.257 2818.48,-230.266"/>
</g>
<!-- Node43 -->
<g id="node43" class="node"><title>Node43</title>
<g id="a_node43"><a xlink:href="extern_8h.xhtml" target="_top" xlink:title="The MEF facilities to call external functions in expressions. ">
<polygon fill="white" stroke="black" points="1476.34,-201.5 1476.34,-220.5 1587.34,-220.5 1587.34,-201.5 1476.34,-201.5"/>
<text text-anchor="middle" x="1531.84" y="-208.5" font-family="Helvetica,sans-Serif" font-size="10.00">expression/extern.h</text>
</a>
</g>
</g>
<!-- Node42&#45;&gt;Node43 -->
<g id="edge116" class="edge"><title>Node42&#45;&gt;Node43</title>
<path fill="none" stroke="midnightblue" d="M2010.6,-376.732C1969.41,-373.831 1891.48,-364.299 1833.84,-333 1791.58,-310.054 1799.31,-279.55 1756.84,-257 1707.34,-230.718 1644.3,-219.733 1597.55,-215.168"/>
<polygon fill="midnightblue" stroke="midnightblue" points="1597.8,-211.677 1587.53,-214.264 1597.18,-218.649 1597.8,-211.677"/>
</g>
<!-- Node49 -->
<g id="node49" class="node"><title>Node49</title>
<g id="a_node49"><a xlink:href="test__event_8h.xhtml" target="_top" xlink:title="Event tree analysis expressions to test functional and initiating events. ">
<polygon fill="white" stroke="black" points="2140.34,-313.5 2140.34,-332.5 2271.34,-332.5 2271.34,-313.5 2140.34,-313.5"/>
<text text-anchor="middle" x="2205.84" y="-320.5" font-family="Helvetica,sans-Serif" font-size="10.00">expression/test_event.h</text>
</a>
</g>
</g>
<!-- Node42&#45;&gt;Node49 -->
<g id="edge129" class="edge"><title>Node42&#45;&gt;Node49</title>
<path fill="none" stroke="midnightblue" d="M2065.3,-369.444C2093.52,-360.32 2138.38,-345.813 2169.81,-335.651"/>
<polygon fill="midnightblue" stroke="midnightblue" points="2171.06,-338.923 2179.5,-332.516 2168.91,-332.263 2171.06,-338.923"/>
</g>
<!-- Node42&#45;&gt;Node50 -->
<g id="edge136" class="edge"><title>Node42&#45;&gt;Node50</title>
<path fill="none" stroke="midnightblue" d="M2010.5,-375.888C1948.73,-370.891 1804.14,-356.928 1761.84,-333 1742.21,-321.895 1726.44,-300.938 1716.9,-285.817"/>
<polygon fill="midnightblue" stroke="midnightblue" points="1719.7,-283.669 1711.56,-276.885 1713.69,-287.264 1719.7,-283.669"/>
</g>
<!-- Node43&#45;&gt;Node3 -->
<g id="edge117" class="edge"><title>Node43&#45;&gt;Node3</title>
<path fill="none" stroke="midnightblue" d="M1476.28,-209.694C1341.83,-208.375 1007.45,-201.43 973.839,-165 964.497,-154.874 966.269,-145.512 973.839,-134 976.398,-130.109 1026.21,-109.49 1060,-95.8309"/>
<polygon fill="midnightblue" stroke="midnightblue" points="1061.51,-98.9954 1069.48,-92.0122 1058.9,-92.5024 1061.51,-98.9954"/>
</g>
<!-- Node43&#45;&gt;Node4 -->
<g id="edge118" class="edge"><title>Node43&#45;&gt;Node4</title>
<path fill="none" stroke="midnightblue" d="M1587.58,-202.426C1661.19,-192.166 1783.76,-174.092 1802.84,-165 1821.6,-156.061 1820.17,-144.943 1837.84,-134 1874.11,-111.53 1889.49,-118.625 1926.84,-98 1947.46,-86.6118 1947.97,-75.7688 1969.84,-67 2077.71,-23.7443 2117.4,-63.9888 2228.84,-31 2230.72,-30.4434 2232.63,-29.7894 2234.53,-29.0723"/>
<polygon fill="midnightblue" stroke="midnightblue" points="2235.97,-32.266 2243.79,-25.1203 2233.22,-25.8283 2235.97,-32.266"/>
</g>
<!-- Node43&#45;&gt;Node9 -->
<g id="edge120" class="edge"><title>Node43&#45;&gt;Node9</title>
<path fill="none" stroke="midnightblue" d="M1476.26,-209.388C1347.66,-207.396 1038.12,-199.075 1006.84,-165 997.522,-154.85 997.563,-144.187 1006.84,-134 1064.55,-70.6303 1333.13,-161.37 1390.84,-98 1407.02,-80.2272 1393.15,-51.9124 1381.02,-33.7709"/>
<polygon fill="midnightblue" stroke="midnightblue" points="1383.65,-31.4345 1375,-25.3211 1377.95,-35.4964 1383.65,-31.4345"/>
</g>
<!-- Node43&#45;&gt;Node15 -->
<g id="edge126" class="edge"><title>Node43&#45;&gt;Node15</title>
<path fill="none" stroke="midnightblue" d="M1587.71,-202.882C1682.18,-190.845 1871.47,-166.728 1956.16,-155.937"/>
<polygon fill="midnightblue" stroke="midnightblue" points="1956.72,-159.394 1966.2,-154.658 1955.84,-152.451 1956.72,-159.394"/>
</g>
<!-- Node43&#45;&gt;Node18 -->
<g id="edge119" class="edge"><title>Node43&#45;&gt;Node18</title>
<path fill="none" stroke="midnightblue" d="M1587.52,-204.075C1649.15,-196.993 1751.24,-183.706 1837.84,-165 1885.31,-154.745 2017.95,-115.066 2083.78,-95.1053"/>
<polygon fill="midnightblue" stroke="midnightblue" points="2085.2,-98.333 2093.75,-92.0786 2083.17,-91.6349 2085.2,-98.333"/>
</g>
<!-- Node43&#45;&gt;Node20 -->
<g id="edge127" class="edge"><title>Node43&#45;&gt;Node20</title>
<path fill="none" stroke="midnightblue" d="M1587.35,-202.205C1646.3,-193.426 1735.27,-178.605 1766.84,-165 1788.48,-155.676 1790.17,-146.97 1809.84,-134 1829.74,-120.88 1853.01,-107 1870,-97.1185"/>
<polygon fill="midnightblue" stroke="midnightblue" points="1871.83,-100.104 1878.74,-92.0706 1868.33,-94.0436 1871.83,-100.104"/>
</g>
<!-- Node43&#45;&gt;Node33 -->
<g id="edge128" class="edge"><title>Node43&#45;&gt;Node33</title>
<path fill="none" stroke="midnightblue" d="M1587.64,-207.15C1786.75,-196.981 2460.45,-162.573 2648.01,-152.994"/>
<polygon fill="midnightblue" stroke="midnightblue" points="2648.32,-156.483 2658.12,-152.477 2647.96,-149.492 2648.32,-156.483"/>
</g>
<!-- Node44 -->
<g id="node44" class="node"><title>Node44</title>
<polygon fill="white" stroke="#bfbfbf" points="1016.34,-140 1016.34,-159 1163.34,-159 1163.34,-140 1016.34,-140"/>
<text text-anchor="middle" x="1089.84" y="-147" font-family="Helvetica,sans-Serif" font-size="10.00">boost/dll/shared_library.hpp</text>
</g>
<!-- Node43&#45;&gt;Node44 -->
<g id="edge121" class="edge"><title>Node43&#45;&gt;Node44</title>
<path fill="none" stroke="midnightblue" d="M1476.07,-203.854C1405.38,-195.87 1279.84,-181.043 1172.84,-165 1164.22,-163.708 1155.12,-162.232 1146.22,-160.727"/>
<polygon fill="midnightblue" stroke="midnightblue" points="1146.75,-157.267 1136.31,-159.025 1145.57,-164.166 1146.75,-157.267"/>
</g>
<!-- Node45 -->
<g id="node45" class="node"><title>Node45</title>
<polygon fill="white" stroke="#bfbfbf" points="1181.84,-134.5 1181.84,-164.5 1309.84,-164.5 1309.84,-134.5 1181.84,-134.5"/>
<text text-anchor="start" x="1189.84" y="-152.5" font-family="Helvetica,sans-Serif" font-size="10.00">boost/exception/errinfo</text>
<text text-anchor="middle" x="1245.84" y="-141.5" font-family="Helvetica,sans-Serif" font-size="10.00">_nested_exception.hpp</text>
</g>
<!-- Node43&#45;&gt;Node45 -->
<g id="edge122" class="edge"><title>Node43&#45;&gt;Node45</title>
<path fill="none" stroke="midnightblue" d="M1490.86,-201.475C1446.37,-192.218 1374.38,-177.241 1319.92,-165.911"/>
<polygon fill="midnightblue" stroke="midnightblue" points="1320.47,-162.45 1309.96,-163.84 1319.04,-169.304 1320.47,-162.45"/>
</g>
<!-- Node46 -->
<g id="node46" class="node"><title>Node46</title>
<polygon fill="white" stroke="#bfbfbf" points="1327.84,-140 1327.84,-159 1459.84,-159 1459.84,-140 1327.84,-140"/>
<text text-anchor="middle" x="1393.84" y="-147" font-family="Helvetica,sans-Serif" font-size="10.00">boost/exception_ptr.hpp</text>
</g>
<!-- Node43&#45;&gt;Node46 -->
<g id="edge123" class="edge"><title>Node43&#45;&gt;Node46</title>
<path fill="none" stroke="midnightblue" d="M1512.07,-201.475C1488.7,-191.401 1449.62,-174.553 1422.84,-163.002"/>
<polygon fill="midnightblue" stroke="midnightblue" points="1424.14,-159.754 1413.57,-159.009 1421.37,-166.182 1424.14,-159.754"/>
</g>
<!-- Node47 -->
<g id="node47" class="node"><title>Node47</title>
<polygon fill="white" stroke="#bfbfbf" points="1478.34,-140 1478.34,-159 1619.34,-159 1619.34,-140 1478.34,-140"/>
<text text-anchor="middle" x="1548.84" y="-147" font-family="Helvetica,sans-Serif" font-size="10.00">boost/filesystem/path.hpp</text>
</g>
<!-- Node43&#45;&gt;Node47 -->
<g id="edge124" class="edge"><title>Node43&#45;&gt;Node47</title>
<path fill="none" stroke="midnightblue" d="M1534.27,-201.475C1536.7,-192.992 1540.5,-179.704 1543.6,-168.822"/>
<polygon fill="midnightblue" stroke="midnightblue" points="1547.03,-169.586 1546.41,-159.009 1540.3,-167.663 1547.03,-169.586"/>
</g>
<!-- Node48 -->
<g id="node48" class="node"><title>Node48</title>
<polygon fill="white" stroke="#bfbfbf" points="1637.84,-134.5 1637.84,-164.5 1757.84,-164.5 1757.84,-134.5 1637.84,-134.5"/>
<text text-anchor="start" x="1645.84" y="-152.5" font-family="Helvetica,sans-Serif" font-size="10.00">boost/system/system</text>
<text text-anchor="middle" x="1697.84" y="-141.5" font-family="Helvetica,sans-Serif" font-size="10.00">_error.hpp</text>
</g>
<!-- Node43&#45;&gt;Node48 -->
<g id="edge125" class="edge"><title>Node43&#45;&gt;Node48</title>
<path fill="none" stroke="midnightblue" d="M1555.62,-201.475C1579.89,-192.776 1618.25,-179.026 1649.02,-167.998"/>
<polygon fill="midnightblue" stroke="midnightblue" points="1650.48,-171.192 1658.72,-164.523 1648.12,-164.602 1650.48,-171.192"/>
</g>
<!-- Node49&#45;&gt;Node4 -->
<g id="edge130" class="edge"><title>Node49&#45;&gt;Node4</title>
<path fill="none" stroke="midnightblue" d="M2217.46,-313.375C2245.16,-291.983 2314.67,-233.253 2339.84,-165 2344.61,-152.073 2346.67,-145.965 2339.84,-134 2324.23,-106.662 2297.47,-123.375 2278.84,-98 2265.3,-79.5552 2261.23,-52.9573 2260.1,-35.2201"/>
<polygon fill="midnightblue" stroke="midnightblue" points="2263.59,-34.879 2259.71,-25.0184 2256.59,-35.1436 2263.59,-34.879"/>
</g>
<!-- Node49&#45;&gt;Node6 -->
<g id="edge131" class="edge"><title>Node49&#45;&gt;Node6</title>
<path fill="none" stroke="midnightblue" d="M2194.43,-313.324C2183.73,-305.185 2167.5,-292.839 2154.68,-283.087"/>
<polygon fill="midnightblue" stroke="midnightblue" points="2156.53,-280.102 2146.45,-276.834 2152.29,-285.673 2156.53,-280.102"/>
</g>
<!-- Node49&#45;&gt;Node33 -->
<g id="edge132" class="edge"><title>Node49&#45;&gt;Node33</title>
<path fill="none" stroke="midnightblue" d="M2271.65,-314.44C2352.8,-303.086 2493.19,-276.715 2600.84,-221 2630.49,-205.657 2660.92,-181.63 2679.35,-165.972"/>
<polygon fill="midnightblue" stroke="midnightblue" points="2681.88,-168.415 2687.16,-159.23 2677.3,-163.117 2681.88,-168.415"/>
</g>
<!-- Node50&#45;&gt;Node3 -->
<g id="edge137" class="edge"><title>Node50&#45;&gt;Node3</title>
<path fill="none" stroke="midnightblue" d="M1665.61,-266.044C1500.96,-265.934 895.867,-262.671 821.839,-221 785.07,-200.302 756.053,-165.753 783.839,-134 823.556,-88.6135 994.385,-112.85 1052.84,-98 1055.66,-97.2828 1058.56,-96.4203 1061.44,-95.4779"/>
<polygon fill="midnightblue" stroke="midnightblue" points="1062.76,-98.7217 1071,-92.0611 1060.41,-92.1298 1062.76,-98.7217"/>
</g>
<!-- Node50&#45;&gt;Node8 -->
<g id="edge139" class="edge"><title>Node50&#45;&gt;Node8</title>
<path fill="none" stroke="midnightblue" d="M1665.7,-266.329C1497.73,-267.349 863.7,-267.943 669.839,-221 620.806,-209.127 568.384,-181.244 539.403,-164.319"/>
<polygon fill="midnightblue" stroke="midnightblue" points="540.897,-161.135 530.512,-159.038 537.323,-167.154 540.897,-161.135"/>
</g>
<!-- Node50&#45;&gt;Node9 -->
<g id="edge140" class="edge"><title>Node50&#45;&gt;Node9</title>
<path fill="none" stroke="midnightblue" d="M1665.65,-265.394C1498.23,-262.741 873.726,-250.909 790.839,-221 705.137,-190.076 667.585,-179.492 626.839,-98 620.678,-85.6768 617.347,-76.9867 626.839,-67 681.104,-9.9057 1258.19,-49.1415 1334.84,-31 1337.2,-30.4406 1339.61,-29.7175 1341.99,-28.8933"/>
<polygon fill="midnightblue" stroke="midnightblue" points="1343.48,-32.0659 1351.46,-25.0954 1340.88,-25.5688 1343.48,-32.0659"/>
</g>
<!-- Node50&#45;&gt;Node15 -->
<g id="edge141" class="edge"><title>Node50&#45;&gt;Node15</title>
<path fill="none" stroke="midnightblue" d="M1722.73,-257.465C1747.64,-244.284 1797.63,-218.655 1841.84,-201 1853.16,-196.478 1918.93,-175.614 1961.67,-162.159"/>
<polygon fill="midnightblue" stroke="midnightblue" points="1962.98,-165.417 1971.47,-159.078 1960.88,-158.739 1962.98,-165.417"/>
</g>
<!-- Node50&#45;&gt;Node17 -->
<g id="edge138" class="edge"><title>Node50&#45;&gt;Node17</title>
<path fill="none" stroke="midnightblue" d="M1735.4,-257.442C1834.82,-227.647 2165.85,-128.446 2278.18,-94.7858"/>
<polygon fill="midnightblue" stroke="midnightblue" points="2279.47,-98.0524 2288.05,-91.829 2277.46,-91.347 2279.47,-98.0524"/>
</g>
<!-- Node50&#45;&gt;Node32 -->
<g id="edge142" class="edge"><title>Node50&#45;&gt;Node32</title>
<path fill="none" stroke="midnightblue" d="M1748,-261.498C1762.76,-259.96 1779.54,-258.302 1794.84,-257 2032.94,-236.738 2319.85,-219.765 2420.12,-214.056"/>
<polygon fill="midnightblue" stroke="midnightblue" points="2420.54,-217.538 2430.33,-213.477 2420.14,-210.549 2420.54,-217.538"/>
</g>
<!-- Node51&#45;&gt;Node5 -->
<g id="edge146" class="edge"><title>Node51&#45;&gt;Node5</title>
<path fill="none" stroke="midnightblue" d="M3035.57,-139.993C3041.88,-138.006 3048.59,-135.913 3054.84,-134 3108.49,-117.566 3122.3,-114.782 3175.84,-98 3178.74,-97.0911 3181.74,-96.1346 3184.75,-95.1645"/>
<polygon fill="midnightblue" stroke="midnightblue" points="3185.86,-98.4842 3194.29,-92.0604 3183.69,-91.8281 3185.86,-98.4842"/>
</g>
<!-- Node51&#45;&gt;Node16 -->
<g id="edge145" class="edge"><title>Node51&#45;&gt;Node16</title>
<path fill="none" stroke="midnightblue" d="M3026.63,-139.869C3049.46,-128.796 3089.27,-109.486 3115.84,-96.5978"/>
<polygon fill="midnightblue" stroke="midnightblue" points="3117.5,-99.6807 3124.97,-92.1672 3114.45,-93.3826 3117.5,-99.6807"/>
</g>
<!-- Node52&#45;&gt;Node3 -->
<g id="edge154" class="edge"><title>Node52&#45;&gt;Node3</title>
<path fill="none" stroke="midnightblue" d="M3465.97,-147.665C3401.97,-145.245 3209.56,-138.14 3049.84,-134 2836.43,-128.468 1338.41,-138.66 1128.84,-98 1125.58,-97.3679 1122.24,-96.4792 1118.95,-95.4493"/>
<polygon fill="midnightblue" stroke="midnightblue" points="1120,-92.1065 1109.4,-92.052 1117.65,-98.7015 1120,-92.1065"/>
</g>
<!-- Node52&#45;&gt;Node4 -->
<g id="edge156" class="edge"><title>Node52&#45;&gt;Node4</title>
<path fill="none" stroke="midnightblue" d="M3466.2,-148.346C3368.22,-147.414 2965.98,-140.991 2848.84,-98 2826.72,-89.8827 2827.9,-75.2649 2805.84,-67 2710.7,-31.3593 2394.64,-20.0446 2292.2,-17.2678"/>
<polygon fill="midnightblue" stroke="midnightblue" points="2292.23,-13.7676 2282.14,-17.0044 2292.05,-20.7652 2292.23,-13.7676"/>
</g>
<!-- Node52&#45;&gt;Node5 -->
<g id="edge157" class="edge"><title>Node52&#45;&gt;Node5</title>
<path fill="none" stroke="midnightblue" d="M3465.91,-143.181C3422.04,-132.541 3322.71,-108.449 3264.55,-94.344"/>
<polygon fill="midnightblue" stroke="midnightblue" points="3265.08,-90.8722 3254.54,-91.9164 3263.43,-97.6749 3265.08,-90.8722"/>
</g>
<!-- Node52&#45;&gt;Node16 -->
<g id="edge150" class="edge"><title>Node52&#45;&gt;Node16</title>
<path fill="none" stroke="midnightblue" d="M3466.24,-146.899C3414.94,-142.69 3282.14,-129.401 3175.84,-98 3173.69,-97.3662 3171.5,-96.6267 3169.32,-95.8232"/>
<polygon fill="midnightblue" stroke="midnightblue" points="3170.58,-92.5556 3160,-92.0222 3167.94,-99.0379 3170.58,-92.5556"/>
</g>
<!-- Node52&#45;&gt;Node17 -->
<g id="edge155" class="edge"><title>Node52&#45;&gt;Node17</title>
<path fill="none" stroke="midnightblue" d="M3466.26,-147.804C3358.49,-144.25 2867.76,-127.149 2466.84,-98 2428.19,-95.1899 2384.08,-90.8195 2353.56,-87.611"/>
<polygon fill="midnightblue" stroke="midnightblue" points="2353.67,-84.1037 2343.36,-86.529 2352.94,-91.0646 2353.67,-84.1037"/>
</g>
<!-- Node52&#45;&gt;Node18 -->
<g id="edge158" class="edge"><title>Node52&#45;&gt;Node18</title>
<path fill="none" stroke="midnightblue" d="M3466.23,-147.747C3324.23,-142.774 2523.03,-114.366 2278.84,-98 2240.81,-95.451 2197.69,-91.3845 2166.28,-88.2057"/>
<polygon fill="midnightblue" stroke="midnightblue" points="2166.41,-84.7003 2156.1,-87.1652 2165.69,-91.664 2166.41,-84.7003"/>
</g>
<!-- Node52&#45;&gt;Node19 -->
<g id="edge163" class="edge"><title>Node52&#45;&gt;Node19</title>
<path fill="none" stroke="midnightblue" d="M3466.26,-147.706C3350.24,-143.373 2798.99,-121.935 2605.97,-97.9764"/>
<polygon fill="midnightblue" stroke="midnightblue" points="2606.32,-94.493 2595.96,-96.6879 2605.43,-101.436 2606.32,-94.493"/>
</g>
<!-- Node52&#45;&gt;Node20 -->
<g id="edge168" class="edge"><title>Node52&#45;&gt;Node20</title>
<path fill="none" stroke="midnightblue" d="M3466.29,-147.783C3299.95,-142.242 2223.1,-106.235 2078.84,-98 2026.29,-95.0004 1965.47,-89.9239 1928.33,-86.6431"/>
<polygon fill="midnightblue" stroke="midnightblue" points="1928.33,-83.1291 1918.06,-85.7277 1927.71,-90.1014 1928.33,-83.1291"/>
</g>
<!-- Node53 -->
<g id="node53" class="node"><title>Node53</title>
<polygon fill="white" stroke="#bfbfbf" points="3753.34,-73 3753.34,-92 3800.34,-92 3800.34,-73 3753.34,-73"/>
<text text-anchor="middle" x="3776.84" y="-80" font-family="Helvetica,sans-Serif" font-size="10.00">cmath</text>
</g>
<!-- Node52&#45;&gt;Node53 -->
<g id="edge149" class="edge"><title>Node52&#45;&gt;Node53</title>
<path fill="none" stroke="midnightblue" d="M3509.48,-145.863C3554.07,-140.076 3659.13,-124.611 3743.84,-98 3745.76,-97.3952 3747.73,-96.7126 3749.69,-95.9815"/>
<polygon fill="midnightblue" stroke="midnightblue" points="3751.37,-99.0775 3759.3,-92.0565 3748.72,-92.597 3751.37,-99.0775"/>
</g>
<!-- Node54 -->
<g id="node54" class="node"><title>Node54</title>
<polygon fill="white" stroke="#bfbfbf" points="3818.34,-73 3818.34,-92 3865.34,-92 3865.34,-73 3818.34,-73"/>
<text text-anchor="middle" x="3841.84" y="-80" font-family="Helvetica,sans-Serif" font-size="10.00">cstdlib</text>
</g>
<!-- Node52&#45;&gt;Node54 -->
<g id="edge151" class="edge"><title>Node52&#45;&gt;Node54</title>
<path fill="none" stroke="midnightblue" d="M3509.67,-147.014C3562.17,-143.024 3699.21,-130.122 3808.84,-98 3810.99,-97.371 3813.18,-96.6348 3815.36,-95.8338"/>
<polygon fill="midnightblue" stroke="midnightblue" points="3816.74,-99.0492 3824.68,-92.0373 3814.1,-92.5658 3816.74,-99.0492"/>
</g>
<!-- Node55 -->
<g id="node55" class="node"><title>Node55</title>
<polygon fill="white" stroke="#bfbfbf" points="3883.84,-73 3883.84,-92 3935.84,-92 3935.84,-73 3883.84,-73"/>
<text text-anchor="middle" x="3909.84" y="-80" font-family="Helvetica,sans-Serif" font-size="10.00">iterator</text>
</g>
<!-- Node52&#45;&gt;Node55 -->
<g id="edge152" class="edge"><title>Node52&#45;&gt;Node55</title>
<path fill="none" stroke="midnightblue" d="M3509.55,-147.58C3568.84,-144.658 3738.19,-133.577 3873.84,-98 3876.35,-97.3419 3878.92,-96.5538 3881.47,-95.6897"/>
<polygon fill="midnightblue" stroke="midnightblue" points="3882.95,-98.875 3891.09,-92.0944 3880.49,-92.3183 3882.95,-98.875"/>
</g>
<!-- Node56 -->
<g id="node56" class="node"><title>Node56</title>
<polygon fill="white" stroke="#bfbfbf" points="3953.84,-73 3953.84,-92 3995.84,-92 3995.84,-73 3953.84,-73"/>
<text text-anchor="middle" x="3974.84" y="-80" font-family="Helvetica,sans-Serif" font-size="10.00">limits</text>
</g>
<!-- Node52&#45;&gt;Node56 -->
<g id="edge153" class="edge"><title>Node52&#45;&gt;Node56</title>
<path fill="none" stroke="midnightblue" d="M3509.76,-148.684C3576.5,-148.698 3782.59,-144.679 3944.84,-98 3946.72,-97.4602 3948.62,-96.8107 3950.51,-96.0898"/>
<polygon fill="midnightblue" stroke="midnightblue" points="3951.92,-99.2934 3959.67,-92.0679 3949.1,-92.8841 3951.92,-99.2934"/>
</g>
<!-- Node57 -->
<g id="node57" class="node"><title>Node57</title>
<polygon fill="white" stroke="#bfbfbf" points="4014.34,-67.5 4014.34,-97.5 4141.34,-97.5 4141.34,-67.5 4014.34,-67.5"/>
<text text-anchor="start" x="4022.34" y="-85.5" font-family="Helvetica,sans-Serif" font-size="10.00">boost/exception/errinfo</text>
<text text-anchor="middle" x="4077.84" y="-74.5" font-family="Helvetica,sans-Serif" font-size="10.00">_at_line.hpp</text>
</g>
<!-- Node52&#45;&gt;Node57 -->
<g id="edge159" class="edge"><title>Node52&#45;&gt;Node57</title>
<path fill="none" stroke="midnightblue" d="M3509.6,-147.147C3579.73,-142.623 3806.23,-126.754 4004.2,-97.9922"/>
<polygon fill="midnightblue" stroke="midnightblue" points="4004.82,-101.439 4014.2,-96.5245 4003.8,-94.5137 4004.82,-101.439"/>
</g>
<!-- Node58 -->
<g id="node58" class="node"><title>Node58</title>
<polygon fill="white" stroke="#bfbfbf" points="4159.34,-67.5 4159.34,-97.5 4286.34,-97.5 4286.34,-67.5 4159.34,-67.5"/>
<text text-anchor="start" x="4167.34" y="-85.5" font-family="Helvetica,sans-Serif" font-size="10.00">boost/exception/errinfo</text>
<text text-anchor="middle" x="4222.84" y="-74.5" font-family="Helvetica,sans-Serif" font-size="10.00">_errno.hpp</text>
</g>
<!-- Node52&#45;&gt;Node58 -->
<g id="edge160" class="edge"><title>Node52&#45;&gt;Node58</title>
<path fill="none" stroke="midnightblue" d="M3509.37,-147.797C3591.32,-144.924 3891.7,-132.609 4149.3,-97.9528"/>
<polygon fill="midnightblue" stroke="midnightblue" points="4149.78,-101.42 4159.21,-96.6048 4148.83,-94.4839 4149.78,-101.42"/>
</g>
<!-- Node59 -->
<g id="node59" class="node"><title>Node59</title>
<polygon fill="white" stroke="#bfbfbf" points="4304.34,-67.5 4304.34,-97.5 4431.34,-97.5 4431.34,-67.5 4304.34,-67.5"/>
<text text-anchor="start" x="4312.34" y="-85.5" font-family="Helvetica,sans-Serif" font-size="10.00">boost/exception/errinfo</text>
<text text-anchor="middle" x="4367.84" y="-74.5" font-family="Helvetica,sans-Serif" font-size="10.00">_file_name.hpp</text>
</g>
<!-- Node52&#45;&gt;Node59 -->
<g id="edge161" class="edge"><title>Node52&#45;&gt;Node59</title>
<path fill="none" stroke="midnightblue" d="M3509.45,-148.206C3602.3,-146.722 3976.59,-138.494 4293.9,-97.9875"/>
<polygon fill="midnightblue" stroke="midnightblue" points="4294.75,-101.407 4304.22,-96.6565 4293.85,-94.4649 4294.75,-101.407"/>
</g>
<!-- Node60 -->
<g id="node60" class="node"><title>Node60</title>
<polygon fill="white" stroke="#bfbfbf" points="4449.34,-67.5 4449.34,-97.5 4576.34,-97.5 4576.34,-67.5 4449.34,-67.5"/>
<text text-anchor="start" x="4457.34" y="-85.5" font-family="Helvetica,sans-Serif" font-size="10.00">boost/exception/errinfo</text>
<text text-anchor="middle" x="4512.84" y="-74.5" font-family="Helvetica,sans-Serif" font-size="10.00">_file_open_mode.hpp</text>
</g>
<!-- Node52&#45;&gt;Node60 -->
<g id="edge162" class="edge"><title>Node52&#45;&gt;Node60</title>
<path fill="none" stroke="midnightblue" d="M3509.39,-148.495C3612.02,-148.233 4061.51,-144.428 4439.2,-97.9392"/>
<polygon fill="midnightblue" stroke="midnightblue" points="4439.73,-101.399 4449.23,-96.6925 4438.87,-94.4529 4439.73,-101.399"/>
</g>
<!-- Node61 -->
<g id="node61" class="node"><title>Node61</title>
<polygon fill="white" stroke="#bfbfbf" points="3311.34,-67.5 3311.34,-97.5 3426.34,-97.5 3426.34,-67.5 3311.34,-67.5"/>
<text text-anchor="start" x="3319.34" y="-85.5" font-family="Helvetica,sans-Serif" font-size="10.00">boost/range/adaptor</text>
<text text-anchor="middle" x="3368.84" y="-74.5" font-family="Helvetica,sans-Serif" font-size="10.00">/filtered.hpp</text>
</g>
<!-- Node52&#45;&gt;Node61 -->
<g id="edge164" class="edge"><title>Node52&#45;&gt;Node61</title>
<path fill="none" stroke="midnightblue" d="M3471.79,-139.734C3454.39,-130.231 3426.1,-114.777 3403.57,-102.472"/>
<polygon fill="midnightblue" stroke="midnightblue" points="3405.09,-99.3111 3394.63,-97.589 3401.73,-105.454 3405.09,-99.3111"/>
</g>
<!-- Node62 -->
<g id="node62" class="node"><title>Node62</title>
<polygon fill="white" stroke="#bfbfbf" points="3444.84,-73 3444.84,-92 3530.84,-92 3530.84,-73 3444.84,-73"/>
<text text-anchor="middle" x="3487.84" y="-80" font-family="Helvetica,sans-Serif" font-size="10.00">libxml/parser.h</text>
</g>
<!-- Node52&#45;&gt;Node62 -->
<g id="edge165" class="edge"><title>Node52&#45;&gt;Node62</title>
<path fill="none" stroke="midnightblue" d="M3487.84,-139.734C3487.84,-130.183 3487.84,-114.618 3487.84,-102.283"/>
<polygon fill="midnightblue" stroke="midnightblue" points="3491.34,-102.127 3487.84,-92.1273 3484.34,-102.127 3491.34,-102.127"/>
</g>
<!-- Node63 -->
<g id="node63" class="node"><title>Node63</title>
<polygon fill="white" stroke="#bfbfbf" points="3548.84,-73 3548.84,-92 3640.84,-92 3640.84,-73 3548.84,-73"/>
<text text-anchor="middle" x="3594.84" y="-80" font-family="Helvetica,sans-Serif" font-size="10.00">libxml/relaxng.h</text>
</g>
<!-- Node52&#45;&gt;Node63 -->
<g id="edge166" class="edge"><title>Node52&#45;&gt;Node63</title>
<path fill="none" stroke="midnightblue" d="M3502.27,-139.734C3520.16,-128.867 3550.86,-110.216 3571.97,-97.3931"/>
<polygon fill="midnightblue" stroke="midnightblue" points="3573.91,-100.311 3580.64,-92.1273 3570.27,-94.3279 3573.91,-100.311"/>
</g>
<!-- Node64 -->
<g id="node64" class="node"><title>Node64</title>
<polygon fill="white" stroke="#bfbfbf" points="3658.84,-73 3658.84,-92 3734.84,-92 3734.84,-73 3658.84,-73"/>
<text text-anchor="middle" x="3696.84" y="-80" font-family="Helvetica,sans-Serif" font-size="10.00">libxml/tree.h</text>
</g>
<!-- Node52&#45;&gt;Node64 -->
<g id="edge167" class="edge"><title>Node52&#45;&gt;Node64</title>
<path fill="none" stroke="midnightblue" d="M3509.42,-141.789C3544.93,-130.745 3616.09,-108.613 3659.79,-95.0235"/>
<polygon fill="midnightblue" stroke="midnightblue" points="3660.96,-98.3247 3669.47,-92.0127 3658.88,-91.6404 3660.96,-98.3247"/>
</g>
</g>
</svg>
