<?xml version="1.0" encoding="UTF-8" standalone="no"?>
<!DOCTYPE svg PUBLIC "-//W3C//DTD SVG 1.1//EN"
 "http://www.w3.org/Graphics/SVG/1.1/DTD/svg11.dtd">
<!-- Generated by graphviz version 2.38.0 (20140413.2041)
 -->
<!-- Title: %3 Pages: 1 -->
<svg width="1591pt" height="1124pt"
 viewBox="0.00 0.00 1590.64 1124.00" xmlns="http://www.w3.org/2000/svg" xmlns:xlink="http://www.w3.org/1999/xlink">
<g id="graph0" class="graph" transform="scale(1 1) rotate(0) translate(4 1120)">
<title>%3</title>
<polygon fill="white" stroke="none" points="-4,4 -4,-1120 1586.64,-1120 1586.64,4 -4,4"/>
<!-- project -->
<g id="node1" class="node"><title>project</title>
<ellipse fill="none" stroke="black" cx="1437.64" cy="-594" rx="44.393" ry="18"/>
<text text-anchor="middle" x="1437.64" y="-590.3" font-family="Times,serif" font-size="14.00">project</text>
</g>
<!-- env -->
<g id="node10" class="node"><title>env</title>
<ellipse fill="none" stroke="black" cx="1428.64" cy="-162" rx="27.0966" ry="18"/>
<text text-anchor="middle" x="1428.64" y="-158.3" font-family="Times,serif" font-size="14.00">env</text>
</g>
<!-- project&#45;&gt;env -->
<g id="edge2" class="edge"><title>project&#45;&gt;env</title>
<path fill="none" stroke="black" d="M1466.99,-580.339C1509.36,-559.845 1582.64,-515.127 1582.64,-451 1582.64,-451 1582.64,-451 1582.64,-305 1582.64,-239.44 1506.28,-195.798 1461.1,-175.715"/>
<polygon fill="black" stroke="black" points="1462.27,-172.409 1451.7,-171.676 1459.5,-178.84 1462.27,-172.409"/>
</g>
<!-- xml -->
<g id="node17" class="node"><title>xml</title>
<ellipse fill="none" stroke="black" cx="1484.64" cy="-522" rx="27.8951" ry="18"/>
<text text-anchor="middle" x="1484.64" y="-518.3" font-family="Times,serif" font-size="14.00">xml</text>
</g>
<!-- project&#45;&gt;xml -->
<g id="edge1" class="edge"><title>project&#45;&gt;xml</title>
<path fill="none" stroke="black" d="M1448.78,-576.411C1454.6,-567.744 1461.83,-556.971 1468.28,-547.375"/>
<polygon fill="black" stroke="black" points="1471.24,-549.241 1473.91,-538.988 1465.43,-545.339 1471.24,-549.241"/>
</g>
<!-- settings -->
<g id="node19" class="node"><title>settings</title>
<ellipse fill="none" stroke="black" cx="1390.64" cy="-522" rx="48.1917" ry="18"/>
<text text-anchor="middle" x="1390.64" y="-518.3" font-family="Times,serif" font-size="14.00">settings</text>
</g>
<!-- project&#45;&gt;settings -->
<g id="edge3" class="edge"><title>project&#45;&gt;settings</title>
<path fill="none" stroke="black" d="M1426.51,-576.411C1420.91,-568.077 1414.01,-557.797 1407.76,-548.488"/>
<polygon fill="black" stroke="black" points="1410.51,-546.307 1402.03,-539.956 1404.7,-550.209 1410.51,-546.307"/>
</g>
<!-- expression/numerical -->
<g id="node2" class="node"><title>expression/numerical</title>
<ellipse fill="none" stroke="black" cx="480.644" cy="-306" rx="110.48" ry="18"/>
<text text-anchor="middle" x="480.644" y="-302.3" font-family="Times,serif" font-size="14.00">expression/numerical</text>
</g>
<!-- expression/constant -->
<g id="node37" class="node"><title>expression/constant</title>
<ellipse fill="none" stroke="black" cx="534.644" cy="-234" rx="104.782" ry="18"/>
<text text-anchor="middle" x="534.644" y="-230.3" font-family="Times,serif" font-size="14.00">expression/constant</text>
</g>
<!-- expression/numerical&#45;&gt;expression/constant -->
<g id="edge4" class="edge"><title>expression/numerical&#45;&gt;expression/constant</title>
<path fill="none" stroke="black" d="M493.716,-288.055C500.121,-279.753 507.965,-269.584 515.067,-260.378"/>
<polygon fill="black" stroke="black" points="517.981,-262.331 521.318,-252.275 512.438,-258.055 517.981,-262.331"/>
</g>
<!-- event_tree -->
<g id="node3" class="node"><title>event_tree</title>
<ellipse fill="none" stroke="black" cx="946.644" cy="-450" rx="60.3893" ry="18"/>
<text text-anchor="middle" x="946.644" y="-446.3" font-family="Times,serif" font-size="14.00">event_tree</text>
</g>
<!-- instruction -->
<g id="node15" class="node"><title>instruction</title>
<ellipse fill="none" stroke="black" cx="792.644" cy="-378" rx="61.99" ry="18"/>
<text text-anchor="middle" x="792.644" y="-374.3" font-family="Times,serif" font-size="14.00">instruction</text>
</g>
<!-- event_tree&#45;&gt;instruction -->
<g id="edge5" class="edge"><title>event_tree&#45;&gt;instruction</title>
<path fill="none" stroke="black" d="M914.735,-434.496C891.299,-423.843 859.258,-409.279 833.88,-397.744"/>
<polygon fill="black" stroke="black" points="835.064,-394.437 824.512,-393.485 832.168,-400.81 835.064,-394.437"/>
</g>
<!-- bdd -->
<g id="node4" class="node"><title>bdd</title>
<ellipse fill="none" stroke="black" cx="1185.64" cy="-738" rx="28.6953" ry="18"/>
<text text-anchor="middle" x="1185.64" y="-734.3" font-family="Times,serif" font-size="14.00">bdd</text>
</g>
<!-- bdd&#45;&gt;settings -->
<g id="edge8" class="edge"><title>bdd&#45;&gt;settings</title>
<path fill="none" stroke="black" d="M1199.73,-722.291C1234.64,-685.856 1325.35,-591.16 1367.94,-546.703"/>
<polygon fill="black" stroke="black" points="1370.68,-548.904 1375.07,-539.262 1365.62,-544.062 1370.68,-548.904"/>
</g>
<!-- pdag -->
<g id="node23" class="node"><title>pdag</title>
<ellipse fill="none" stroke="black" cx="1057.64" cy="-594" rx="33.5952" ry="18"/>
<text text-anchor="middle" x="1057.64" y="-590.3" font-family="Times,serif" font-size="14.00">pdag</text>
</g>
<!-- bdd&#45;&gt;pdag -->
<g id="edge7" class="edge"><title>bdd&#45;&gt;pdag</title>
<path fill="none" stroke="black" d="M1186.73,-719.751C1187.03,-700.337 1184.69,-668.801 1168.64,-648 1163.55,-641.401 1123.4,-623.142 1092.83,-609.898"/>
<polygon fill="black" stroke="black" points="1093.87,-606.535 1083.3,-605.795 1091.1,-612.964 1093.87,-606.535"/>
</g>
<!-- zbdd -->
<g id="node32" class="node"><title>zbdd</title>
<ellipse fill="none" stroke="black" cx="1126.64" cy="-666" rx="33.2948" ry="18"/>
<text text-anchor="middle" x="1126.64" y="-662.3" font-family="Times,serif" font-size="14.00">zbdd</text>
</g>
<!-- bdd&#45;&gt;zbdd -->
<g id="edge6" class="edge"><title>bdd&#45;&gt;zbdd</title>
<path fill="none" stroke="black" d="M1168.48,-723.17C1159.69,-714.179 1149.27,-702.201 1140.91,-691.616"/>
<polygon fill="black" stroke="black" points="1143.58,-689.337 1134.73,-683.51 1138.01,-693.583 1143.58,-689.337"/>
</g>
<!-- Boost -->
<g id="node5" class="node"><title>Boost</title>
<ellipse fill="none" stroke="black" cx="1316.64" cy="-18" rx="37.0935" ry="18"/>
<text text-anchor="middle" x="1316.64" y="-14.3" font-family="Times,serif" font-size="14.00">Boost</text>
</g>
<!-- event -->
<g id="node6" class="node"><title>event</title>
<ellipse fill="none" stroke="black" cx="852.644" cy="-306" rx="36.2938" ry="18"/>
<text text-anchor="middle" x="852.644" y="-302.3" font-family="Times,serif" font-size="14.00">event</text>
</g>
<!-- expression -->
<g id="node22" class="node"><title>expression</title>
<ellipse fill="none" stroke="black" cx="736.644" cy="-162" rx="61.1893" ry="18"/>
<text text-anchor="middle" x="736.644" y="-158.3" font-family="Times,serif" font-size="14.00">expression</text>
</g>
<!-- event&#45;&gt;expression -->
<g id="edge9" class="edge"><title>event&#45;&gt;expression</title>
<path fill="none" stroke="black" d="M834.65,-290.218C822.877,-280.095 807.533,-266.013 795.644,-252 778.715,-232.047 762.518,-207.04 751.392,-188.618"/>
<polygon fill="black" stroke="black" points="754.328,-186.707 746.208,-179.901 748.311,-190.285 754.328,-186.707"/>
</g>
<!-- element -->
<g id="node46" class="node"><title>element</title>
<ellipse fill="none" stroke="black" cx="852.644" cy="-234" rx="48.1917" ry="18"/>
<text text-anchor="middle" x="852.644" y="-230.3" font-family="Times,serif" font-size="14.00">element</text>
</g>
<!-- event&#45;&gt;element -->
<g id="edge10" class="edge"><title>event&#45;&gt;element</title>
<path fill="none" stroke="black" d="M852.644,-287.697C852.644,-279.983 852.644,-270.712 852.644,-262.112"/>
<polygon fill="black" stroke="black" points="856.144,-262.104 852.644,-252.104 849.144,-262.104 856.144,-262.104"/>
</g>
<!-- probability_analysis -->
<g id="node7" class="node"><title>probability_analysis</title>
<ellipse fill="none" stroke="black" cx="999.644" cy="-810" rx="103.982" ry="18"/>
<text text-anchor="middle" x="999.644" y="-806.3" font-family="Times,serif" font-size="14.00">probability_analysis</text>
</g>
<!-- fault_tree_analysis -->
<g id="node18" class="node"><title>fault_tree_analysis</title>
<ellipse fill="none" stroke="black" cx="999.644" cy="-738" rx="98.5829" ry="18"/>
<text text-anchor="middle" x="999.644" y="-734.3" font-family="Times,serif" font-size="14.00">fault_tree_analysis</text>
</g>
<!-- probability_analysis&#45;&gt;fault_tree_analysis -->
<g id="edge11" class="edge"><title>probability_analysis&#45;&gt;fault_tree_analysis</title>
<path fill="none" stroke="black" d="M999.644,-791.697C999.644,-783.983 999.644,-774.712 999.644,-766.112"/>
<polygon fill="black" stroke="black" points="1003.14,-766.104 999.644,-756.104 996.144,-766.104 1003.14,-766.104"/>
</g>
<!-- xml_stream -->
<g id="node8" class="node"><title>xml_stream</title>
<ellipse fill="none" stroke="black" cx="65.6442" cy="-522" rx="65.7887" ry="18"/>
<text text-anchor="middle" x="65.6442" y="-518.3" font-family="Times,serif" font-size="14.00">xml_stream</text>
</g>
<!-- error -->
<g id="node12" class="node"><title>error</title>
<ellipse fill="none" stroke="black" cx="1229.64" cy="-90" rx="34.394" ry="18"/>
<text text-anchor="middle" x="1229.64" y="-86.3" font-family="Times,serif" font-size="14.00">error</text>
</g>
<!-- xml_stream&#45;&gt;error -->
<g id="edge12" class="edge"><title>xml_stream&#45;&gt;error</title>
<path fill="none" stroke="black" d="M71.3104,-503.728C79.4921,-477.21 93.6442,-424.732 93.6442,-379 93.6442,-379 93.6442,-379 93.6442,-233 93.6442,-120.978 974.645,-96.1334 1184.96,-91.7983"/>
<polygon fill="black" stroke="black" points="1185.1,-95.2963 1195.03,-91.596 1184.96,-88.2977 1185.1,-95.2963"/>
</g>
<!-- expression/conditional -->
<g id="node9" class="node"><title>expression/conditional</title>
<ellipse fill="none" stroke="black" cx="1072.64" cy="-234" rx="115.88" ry="18"/>
<text text-anchor="middle" x="1072.64" y="-230.3" font-family="Times,serif" font-size="14.00">expression/conditional</text>
</g>
<!-- expression/conditional&#45;&gt;expression -->
<g id="edge13" class="edge"><title>expression/conditional&#45;&gt;expression</title>
<path fill="none" stroke="black" d="M1006.26,-219.17C944.611,-206.326 853.717,-187.39 794.84,-175.124"/>
<polygon fill="black" stroke="black" points="795.459,-171.678 784.955,-173.065 794.031,-178.531 795.459,-171.678"/>
</g>
<!-- env&#45;&gt;Boost -->
<g id="edge14" class="edge"><title>env&#45;&gt;Boost</title>
<path fill="none" stroke="black" d="M1419.81,-144.8C1409.41,-126.35 1391.07,-95.6955 1371.64,-72 1362.69,-61.0768 1351.66,-50.0673 1341.84,-40.9347"/>
<polygon fill="black" stroke="black" points="1344.03,-38.1976 1334.28,-34.0504 1339.32,-43.3723 1344.03,-38.1976"/>
</g>
<!-- STL -->
<g id="node28" class="node"><title>STL</title>
<ellipse fill="none" stroke="black" cx="1400.64" cy="-18" rx="28.6953" ry="18"/>
<text text-anchor="middle" x="1400.64" y="-14.3" font-family="Times,serif" font-size="14.00">STL</text>
</g>
<!-- env&#45;&gt;STL -->
<g id="edge15" class="edge"><title>env&#45;&gt;STL</title>
<path fill="none" stroke="black" d="M1425.27,-143.871C1420.47,-119.564 1411.65,-74.8187 1405.97,-46.0132"/>
<polygon fill="black" stroke="black" points="1409.4,-45.3232 1404.03,-36.1893 1402.53,-46.6775 1409.4,-45.3232"/>
</g>
<!-- substitution -->
<g id="node11" class="node"><title>substitution</title>
<ellipse fill="none" stroke="black" cx="645.644" cy="-378" rx="66.8882" ry="18"/>
<text text-anchor="middle" x="645.644" y="-374.3" font-family="Times,serif" font-size="14.00">substitution</text>
</g>
<!-- substitution&#45;&gt;event -->
<g id="edge16" class="edge"><title>substitution&#45;&gt;event</title>
<path fill="none" stroke="black" d="M687.145,-363.792C719.741,-353.308 766.222,-338.117 806.644,-324 809.357,-323.053 812.154,-322.059 814.966,-321.049"/>
<polygon fill="black" stroke="black" points="816.28,-324.296 824.483,-317.59 813.889,-317.717 816.28,-324.296"/>
</g>
<!-- error&#45;&gt;Boost -->
<g id="edge17" class="edge"><title>error&#45;&gt;Boost</title>
<path fill="none" stroke="black" d="M1247.67,-74.496C1259.95,-64.6134 1276.42,-51.3648 1290.18,-40.2908"/>
<polygon fill="black" stroke="black" points="1292.74,-42.722 1298.34,-33.7263 1288.36,-37.2682 1292.74,-42.722"/>
</g>
<!-- error&#45;&gt;STL -->
<g id="edge19" class="edge"><title>error&#45;&gt;STL</title>
<path fill="none" stroke="black" d="M1256.53,-78.665C1283.48,-68.2115 1326.13,-51.4364 1362.64,-36 1364.7,-35.1312 1366.81,-34.2246 1368.94,-33.3021"/>
<polygon fill="black" stroke="black" points="1370.46,-36.4544 1378.21,-29.2228 1367.64,-30.0475 1370.46,-36.4544"/>
</g>
<!-- ext -->
<g id="node34" class="node"><title>ext</title>
<ellipse fill="none" stroke="black" cx="1229.64" cy="-18" rx="27" ry="18"/>
<text text-anchor="middle" x="1229.64" y="-14.3" font-family="Times,serif" font-size="14.00">ext</text>
</g>
<!-- error&#45;&gt;ext -->
<g id="edge18" class="edge"><title>error&#45;&gt;ext</title>
<path fill="none" stroke="black" d="M1229.64,-71.6966C1229.64,-63.9827 1229.64,-54.7125 1229.64,-46.1124"/>
<polygon fill="black" stroke="black" points="1233.14,-46.1043 1229.64,-36.1043 1226.14,-46.1044 1233.14,-46.1043"/>
</g>
<!-- ccf_group -->
<g id="node13" class="node"><title>ccf_group</title>
<ellipse fill="none" stroke="black" cx="503.644" cy="-378" rx="57.3905" ry="18"/>
<text text-anchor="middle" x="503.644" y="-374.3" font-family="Times,serif" font-size="14.00">ccf_group</text>
</g>
<!-- ccf_group&#45;&gt;expression/numerical -->
<g id="edge20" class="edge"><title>ccf_group&#45;&gt;expression/numerical</title>
<path fill="none" stroke="black" d="M498.077,-360.055C495.488,-352.176 492.347,-342.617 489.448,-333.794"/>
<polygon fill="black" stroke="black" points="492.767,-332.683 486.32,-324.275 486.117,-334.868 492.767,-332.683"/>
</g>
<!-- ccf_group&#45;&gt;event -->
<g id="edge21" class="edge"><title>ccf_group&#45;&gt;event</title>
<path fill="none" stroke="black" d="M545.393,-365.566C553.409,-363.564 561.761,-361.61 569.644,-360 674.032,-338.685 703.478,-350.604 806.644,-324 809.599,-323.238 812.629,-322.356 815.654,-321.403"/>
<polygon fill="black" stroke="black" points="816.851,-324.693 825.204,-318.174 814.609,-318.061 816.851,-324.693"/>
</g>
<!-- expression/test_event -->
<g id="node14" class="node"><title>expression/test_event</title>
<ellipse fill="none" stroke="black" cx="337.644" cy="-450" rx="112.38" ry="18"/>
<text text-anchor="middle" x="337.644" y="-446.3" font-family="Times,serif" font-size="14.00">expression/test_event</text>
</g>
<!-- expression/test_event&#45;&gt;expression -->
<g id="edge22" class="edge"><title>expression/test_event&#45;&gt;expression</title>
<path fill="none" stroke="black" d="M329.935,-431.744C312.217,-389.162 274.14,-278.042 328.644,-216 350.587,-191.022 556.427,-174.342 667.062,-167.102"/>
<polygon fill="black" stroke="black" points="667.383,-170.589 677.137,-166.452 666.932,-163.603 667.383,-170.589"/>
</g>
<!-- instruction&#45;&gt;event -->
<g id="edge23" class="edge"><title>instruction&#45;&gt;event</title>
<path fill="none" stroke="black" d="M806.863,-360.411C814.444,-351.567 823.904,-340.531 832.253,-330.789"/>
<polygon fill="black" stroke="black" points="835.09,-332.858 838.94,-322.988 829.775,-328.303 835.09,-332.858"/>
</g>
<!-- alignment -->
<g id="node16" class="node"><title>alignment</title>
<ellipse fill="none" stroke="black" cx="680.644" cy="-450" rx="57.6901" ry="18"/>
<text text-anchor="middle" x="680.644" y="-446.3" font-family="Times,serif" font-size="14.00">alignment</text>
</g>
<!-- alignment&#45;&gt;instruction -->
<g id="edge24" class="edge"><title>alignment&#45;&gt;instruction</title>
<path fill="none" stroke="black" d="M705.223,-433.638C721.015,-423.768 741.737,-410.817 759.042,-400.001"/>
<polygon fill="black" stroke="black" points="761.111,-402.836 767.736,-394.568 757.401,-396.9 761.111,-402.836"/>
</g>
<!-- xml&#45;&gt;error -->
<g id="edge26" class="edge"><title>xml&#45;&gt;error</title>
<path fill="none" stroke="black" d="M1473.26,-505.482C1465.74,-495.049 1455.8,-480.897 1447.64,-468 1358.98,-327.873 1347.59,-286.408 1262.64,-144 1257.2,-134.88 1251.09,-124.979 1245.63,-116.229"/>
<polygon fill="black" stroke="black" points="1248.49,-114.216 1240.21,-107.609 1242.57,-117.939 1248.49,-114.216"/>
</g>
<!-- LibXML -->
<g id="node20" class="node"><title>LibXML</title>
<ellipse fill="none" stroke="black" cx="1505.64" cy="-450" rx="48.9926" ry="18"/>
<text text-anchor="middle" x="1505.64" y="-446.3" font-family="Times,serif" font-size="14.00">LibXML</text>
</g>
<!-- xml&#45;&gt;LibXML -->
<g id="edge25" class="edge"><title>xml&#45;&gt;LibXML</title>
<path fill="none" stroke="black" d="M1489.73,-504.055C1492.07,-496.261 1494.9,-486.822 1497.52,-478.079"/>
<polygon fill="black" stroke="black" points="1500.94,-478.859 1500.46,-468.275 1494.24,-476.848 1500.94,-478.859"/>
</g>
<!-- fault_tree_analysis&#45;&gt;zbdd -->
<g id="edge29" class="edge"><title>fault_tree_analysis&#45;&gt;zbdd</title>
<path fill="none" stroke="black" d="M1029.1,-720.765C1048.93,-709.837 1075.04,-695.445 1095.25,-684.301"/>
<polygon fill="black" stroke="black" points="1097.02,-687.326 1104.09,-679.434 1093.64,-681.196 1097.02,-687.326"/>
</g>
<!-- preprocessor -->
<g id="node43" class="node"><title>preprocessor</title>
<ellipse fill="none" stroke="black" cx="1003.64" cy="-666" rx="72.2875" ry="18"/>
<text text-anchor="middle" x="1003.64" y="-662.3" font-family="Times,serif" font-size="14.00">preprocessor</text>
</g>
<!-- fault_tree_analysis&#45;&gt;preprocessor -->
<g id="edge28" class="edge"><title>fault_tree_analysis&#45;&gt;preprocessor</title>
<path fill="none" stroke="black" d="M1000.63,-719.697C1001.07,-711.983 1001.6,-702.712 1002.09,-694.112"/>
<polygon fill="black" stroke="black" points="1005.59,-694.288 1002.67,-684.104 998.602,-693.888 1005.59,-694.288"/>
</g>
<!-- analysis -->
<g id="node45" class="node"><title>analysis</title>
<ellipse fill="none" stroke="black" cx="955.644" cy="-594" rx="48.1917" ry="18"/>
<text text-anchor="middle" x="955.644" y="-590.3" font-family="Times,serif" font-size="14.00">analysis</text>
</g>
<!-- fault_tree_analysis&#45;&gt;analysis -->
<g id="edge27" class="edge"><title>fault_tree_analysis&#45;&gt;analysis</title>
<path fill="none" stroke="black" d="M962.799,-721.285C947.464,-712.677 931.253,-700.376 922.644,-684 911.705,-663.191 923.205,-637.937 935.533,-619.653"/>
<polygon fill="black" stroke="black" points="938.553,-621.448 941.556,-611.288 932.873,-617.358 938.553,-621.448"/>
</g>
<!-- settings&#45;&gt;error -->
<g id="edge30" class="edge"><title>settings&#45;&gt;error</title>
<path fill="none" stroke="black" d="M1384.23,-503.978C1365.46,-454.175 1309.06,-304.416 1262.64,-180 1254.8,-158.962 1245.95,-135.106 1239.4,-117.391"/>
<polygon fill="black" stroke="black" points="1242.58,-115.904 1235.83,-107.739 1236.01,-118.332 1242.58,-115.904"/>
</g>
<!-- expression/random_deviate -->
<g id="node21" class="node"><title>expression/random_deviate</title>
<ellipse fill="none" stroke="black" cx="617.644" cy="-522" rx="138.375" ry="18"/>
<text text-anchor="middle" x="617.644" y="-518.3" font-family="Times,serif" font-size="14.00">expression/random_deviate</text>
</g>
<!-- expression/random_deviate&#45;&gt;expression -->
<g id="edge31" class="edge"><title>expression/random_deviate&#45;&gt;expression</title>
<path fill="none" stroke="black" d="M566.26,-505.194C542.308,-496.417 514.189,-484.003 491.644,-468 490.546,-467.22 362.128,-325.257 361.644,-324 355.901,-309.066 356.259,-303.067 361.644,-288 375.567,-249.042 384.849,-236.745 420.644,-216 461.78,-192.16 588.873,-176.527 668.791,-168.77"/>
<polygon fill="black" stroke="black" points="669.153,-172.251 678.775,-167.818 668.488,-165.283 669.153,-172.251"/>
</g>
<!-- expression&#45;&gt;error -->
<g id="edge32" class="edge"><title>expression&#45;&gt;error</title>
<path fill="none" stroke="black" d="M790.342,-153.376C888.885,-139.384 1096.72,-109.874 1186.66,-97.1033"/>
<polygon fill="black" stroke="black" points="1187.37,-100.538 1196.77,-95.6672 1186.38,-93.6078 1187.37,-100.538"/>
</g>
<!-- model -->
<g id="node31" class="node"><title>model</title>
<ellipse fill="none" stroke="black" cx="812.644" cy="-522" rx="38.9931" ry="18"/>
<text text-anchor="middle" x="812.644" y="-518.3" font-family="Times,serif" font-size="14.00">model</text>
</g>
<!-- pdag&#45;&gt;model -->
<g id="edge33" class="edge"><title>pdag&#45;&gt;model</title>
<path fill="none" stroke="black" d="M1031.15,-582.478C1025.11,-580.222 1018.69,-577.937 1012.64,-576 959.666,-559.022 897.589,-543.189 856.813,-533.329"/>
<polygon fill="black" stroke="black" points="857.464,-529.886 846.923,-530.954 855.829,-536.693 857.464,-529.886"/>
</g>
<!-- logger -->
<g id="node47" class="node"><title>logger</title>
<ellipse fill="none" stroke="black" cx="1322.64" cy="-90" rx="40.0939" ry="18"/>
<text text-anchor="middle" x="1322.64" y="-86.3" font-family="Times,serif" font-size="14.00">logger</text>
</g>
<!-- pdag&#45;&gt;logger -->
<g id="edge34" class="edge"><title>pdag&#45;&gt;logger</title>
<path fill="none" stroke="black" d="M1077.89,-579.412C1118.88,-550.743 1211.72,-479.765 1257.64,-396 1308.64,-302.979 1319.65,-173.68 1322.01,-118.128"/>
<polygon fill="black" stroke="black" points="1325.51,-118.154 1322.38,-108.033 1318.52,-117.9 1325.51,-118.154"/>
</g>
<!-- expression/exponential -->
<g id="node24" class="node"><title>expression/exponential</title>
<ellipse fill="none" stroke="black" cx="305.644" cy="-522" rx="118.079" ry="18"/>
<text text-anchor="middle" x="305.644" y="-518.3" font-family="Times,serif" font-size="14.00">expression/exponential</text>
</g>
<!-- expression/exponential&#45;&gt;expression -->
<g id="edge35" class="edge"><title>expression/exponential&#45;&gt;expression</title>
<path fill="none" stroke="black" d="M263.984,-505.095C246.882,-496.56 228.38,-484.369 216.644,-468 193.077,-435.128 197.644,-419.447 197.644,-379 197.644,-379 197.644,-379 197.644,-305 197.644,-243.144 247.864,-240.54 304.644,-216 368.078,-188.584 561.4,-173.289 666.62,-166.79"/>
<polygon fill="black" stroke="black" points="667.061,-170.269 676.83,-166.169 666.637,-163.282 667.061,-170.269"/>
</g>
<!-- serialization -->
<g id="node25" class="node"><title>serialization</title>
<ellipse fill="none" stroke="black" cx="280.644" cy="-594" rx="67.6881" ry="18"/>
<text text-anchor="middle" x="280.644" y="-590.3" font-family="Times,serif" font-size="14.00">serialization</text>
</g>
<!-- serialization&#45;&gt;xml_stream -->
<g id="edge38" class="edge"><title>serialization&#45;&gt;xml_stream</title>
<path fill="none" stroke="black" d="M239.698,-579.669C204.58,-568.235 153.838,-551.714 116.195,-539.458"/>
<polygon fill="black" stroke="black" points="117.03,-536.049 106.438,-536.282 114.863,-542.706 117.03,-536.049"/>
</g>
<!-- serialization&#45;&gt;expression/exponential -->
<g id="edge36" class="edge"><title>serialization&#45;&gt;expression/exponential</title>
<path fill="none" stroke="black" d="M286.696,-576.055C289.51,-568.176 292.924,-558.617 296.075,-549.794"/>
<polygon fill="black" stroke="black" points="299.407,-550.87 299.474,-540.275 292.815,-548.516 299.407,-550.87"/>
</g>
<!-- serialization&#45;&gt;model -->
<g id="edge37" class="edge"><title>serialization&#45;&gt;model</title>
<path fill="none" stroke="black" d="M347.209,-590.576C441.267,-586.055 617.964,-573.529 764.644,-540 767.833,-539.271 771.103,-538.398 774.363,-537.437"/>
<polygon fill="black" stroke="black" points="775.567,-540.727 784.028,-534.349 773.437,-534.059 775.567,-540.727"/>
</g>
<!-- scram -->
<g id="node26" class="node"><title>scram</title>
<ellipse fill="none" stroke="black" cx="1034.64" cy="-1098" rx="39.7935" ry="18"/>
<text text-anchor="middle" x="1034.64" y="-1094.3" font-family="Times,serif" font-size="14.00">scram</text>
</g>
<!-- scram&#45;&gt;project -->
<g id="edge41" class="edge"><title>scram&#45;&gt;project</title>
<path fill="none" stroke="black" d="M1074.45,-1097.12C1160.6,-1095.09 1356.64,-1077.04 1356.64,-955 1356.64,-955 1356.64,-955 1356.64,-737 1356.64,-690.188 1390.27,-644.752 1414.19,-618.35"/>
<polygon fill="black" stroke="black" points="1416.98,-620.485 1421.25,-610.788 1411.87,-615.706 1416.98,-620.485"/>
</g>
<!-- scram&#45;&gt;serialization -->
<g id="edge39" class="edge"><title>scram&#45;&gt;serialization</title>
<path fill="none" stroke="black" d="M995.347,-1094.84C825.087,-1084.97 159.644,-1040.89 159.644,-955 159.644,-955 159.644,-955 159.644,-737 159.644,-684.001 209.081,-640.739 244.755,-616.419"/>
<polygon fill="black" stroke="black" points="247.074,-619.082 253.489,-610.65 243.216,-613.241 247.074,-619.082"/>
</g>
<!-- reporter -->
<g id="node29" class="node"><title>reporter</title>
<ellipse fill="none" stroke="black" cx="783.644" cy="-1026" rx="50.0912" ry="18"/>
<text text-anchor="middle" x="783.644" y="-1022.3" font-family="Times,serif" font-size="14.00">reporter</text>
</g>
<!-- scram&#45;&gt;reporter -->
<g id="edge40" class="edge"><title>scram&#45;&gt;reporter</title>
<path fill="none" stroke="black" d="M1001.83,-1087.85C958.567,-1075.78 882.102,-1054.46 832.154,-1040.53"/>
<polygon fill="black" stroke="black" points="832.8,-1037.08 822.227,-1037.76 830.919,-1043.82 832.8,-1037.08"/>
</g>
<!-- initializer -->
<g id="node30" class="node"><title>initializer</title>
<ellipse fill="none" stroke="black" cx="1164.64" cy="-594" rx="55.4913" ry="18"/>
<text text-anchor="middle" x="1164.64" y="-590.3" font-family="Times,serif" font-size="14.00">initializer</text>
</g>
<!-- scram&#45;&gt;initializer -->
<g id="edge42" class="edge"><title>scram&#45;&gt;initializer</title>
<path fill="none" stroke="black" d="M1072.77,-1092.99C1142.98,-1083.27 1285.64,-1051.63 1285.64,-955 1285.64,-955 1285.64,-955 1285.64,-737 1285.64,-683.553 1235.37,-640.008 1199.63,-615.807"/>
<polygon fill="black" stroke="black" points="1201.18,-612.637 1190.9,-610.077 1197.34,-618.489 1201.18,-612.637"/>
</g>
<!-- fault_tree -->
<g id="node27" class="node"><title>fault_tree</title>
<ellipse fill="none" stroke="black" cx="812.644" cy="-450" rx="55.7903" ry="18"/>
<text text-anchor="middle" x="812.644" y="-446.3" font-family="Times,serif" font-size="14.00">fault_tree</text>
</g>
<!-- fault_tree&#45;&gt;ccf_group -->
<g id="edge43" class="edge"><title>fault_tree&#45;&gt;ccf_group</title>
<path fill="none" stroke="black" d="M771.12,-437.768C763.338,-435.769 755.258,-433.764 747.644,-432 669.014,-413.781 648.308,-414.073 569.644,-396 565.057,-394.946 560.301,-393.809 555.541,-392.64"/>
<polygon fill="black" stroke="black" points="556.364,-389.239 545.814,-390.214 554.669,-396.03 556.364,-389.239"/>
</g>
<!-- parameter -->
<g id="node41" class="node"><title>parameter</title>
<ellipse fill="none" stroke="black" cx="932.644" cy="-378" rx="59.5901" ry="18"/>
<text text-anchor="middle" x="932.644" y="-374.3" font-family="Times,serif" font-size="14.00">parameter</text>
</g>
<!-- fault_tree&#45;&gt;parameter -->
<g id="edge44" class="edge"><title>fault_tree&#45;&gt;parameter</title>
<path fill="none" stroke="black" d="M838.387,-433.983C855.747,-423.857 878.861,-410.374 897.855,-399.294"/>
<polygon fill="black" stroke="black" points="899.655,-402.295 906.53,-394.233 896.128,-396.249 899.655,-402.295"/>
</g>
<!-- reporter&#45;&gt;xml_stream -->
<g id="edge46" class="edge"><title>reporter&#45;&gt;xml_stream</title>
<path fill="none" stroke="black" d="M759.531,-1010.21C675.766,-958.535 390.466,-780.045 169.644,-612 141.93,-590.91 111.865,-564.801 91.223,-546.33"/>
<polygon fill="black" stroke="black" points="93.3034,-543.494 83.5282,-539.408 88.6218,-548.698 93.3034,-543.494"/>
</g>
<!-- risk_analysis -->
<g id="node36" class="node"><title>risk_analysis</title>
<ellipse fill="none" stroke="black" cx="783.644" cy="-954" rx="71.4873" ry="18"/>
<text text-anchor="middle" x="783.644" y="-950.3" font-family="Times,serif" font-size="14.00">risk_analysis</text>
</g>
<!-- reporter&#45;&gt;risk_analysis -->
<g id="edge45" class="edge"><title>reporter&#45;&gt;risk_analysis</title>
<path fill="none" stroke="black" d="M783.644,-1007.7C783.644,-999.983 783.644,-990.712 783.644,-982.112"/>
<polygon fill="black" stroke="black" points="787.144,-982.104 783.644,-972.104 780.144,-982.104 787.144,-982.104"/>
</g>
<!-- initializer&#45;&gt;expression/conditional -->
<g id="edge47" class="edge"><title>initializer&#45;&gt;expression/conditional</title>
<path fill="none" stroke="black" d="M1149.18,-576.222C1120.8,-544.154 1061.34,-470.683 1039.64,-396 1026.08,-349.317 1045.19,-293.461 1059.49,-261.318"/>
<polygon fill="black" stroke="black" points="1062.71,-262.686 1063.73,-252.141 1056.36,-259.75 1062.71,-262.686"/>
</g>
<!-- initializer&#45;&gt;env -->
<g id="edge48" class="edge"><title>initializer&#45;&gt;env</title>
<path fill="none" stroke="black" d="M1209.78,-583.61C1236.45,-575.949 1269.11,-562.582 1290.64,-540 1388.85,-437.044 1418.18,-258.566 1426.04,-190.474"/>
<polygon fill="black" stroke="black" points="1429.56,-190.48 1427.16,-180.161 1422.6,-189.724 1429.56,-190.48"/>
</g>
<!-- initializer&#45;&gt;xml -->
<g id="edge49" class="edge"><title>initializer&#45;&gt;xml</title>
<path fill="none" stroke="black" d="M1215.92,-587.246C1273.34,-579.922 1368.69,-565.11 1447.64,-540 1449.78,-539.321 1451.95,-538.55 1454.12,-537.719"/>
<polygon fill="black" stroke="black" points="1455.6,-540.893 1463.48,-533.803 1452.9,-534.436 1455.6,-540.893"/>
</g>
<!-- initializer&#45;&gt;settings -->
<g id="edge50" class="edge"><title>initializer&#45;&gt;settings</title>
<path fill="none" stroke="black" d="M1203.24,-581.046C1242.57,-568.863 1303.55,-549.975 1345.2,-537.076"/>
<polygon fill="black" stroke="black" points="1346.3,-540.398 1354.82,-534.096 1344.23,-533.712 1346.3,-540.398"/>
</g>
<!-- initializer&#45;&gt;expression/random_deviate -->
<g id="edge55" class="edge"><title>initializer&#45;&gt;expression/random_deviate</title>
<path fill="none" stroke="black" d="M1124.91,-581.44C1116.93,-579.401 1108.56,-577.466 1100.64,-576 952.969,-548.642 913.909,-556.627 764.644,-540 752.455,-538.642 739.7,-537.2 727.015,-535.751"/>
<polygon fill="black" stroke="black" points="727.201,-532.25 716.868,-534.59 726.405,-539.204 727.201,-532.25"/>
</g>
<!-- initializer&#45;&gt;expression/exponential -->
<g id="edge51" class="edge"><title>initializer&#45;&gt;expression/exponential</title>
<path fill="none" stroke="black" d="M1125.31,-581.214C1117.22,-579.168 1108.7,-577.287 1100.64,-576 823.696,-531.774 750.207,-562.378 470.644,-540 450.416,-538.381 428.821,-536.365 408.146,-534.293"/>
<polygon fill="black" stroke="black" points="408.381,-530.799 398.079,-533.273 407.676,-537.764 408.381,-530.799"/>
</g>
<!-- initializer&#45;&gt;model -->
<g id="edge53" class="edge"><title>initializer&#45;&gt;model</title>
<path fill="none" stroke="black" d="M1124.13,-581.731C1116.36,-579.714 1108.27,-577.712 1100.64,-576 1016.12,-557.027 916.523,-539.83 859.365,-530.451"/>
<polygon fill="black" stroke="black" points="859.632,-526.949 849.199,-528.792 858.505,-533.857 859.632,-526.949"/>
</g>
<!-- expression/boolean -->
<g id="node33" class="node"><title>expression/boolean</title>
<ellipse fill="none" stroke="black" cx="1148.64" cy="-378" rx="100.182" ry="18"/>
<text text-anchor="middle" x="1148.64" y="-374.3" font-family="Times,serif" font-size="14.00">expression/boolean</text>
</g>
<!-- initializer&#45;&gt;expression/boolean -->
<g id="edge54" class="edge"><title>initializer&#45;&gt;expression/boolean</title>
<path fill="none" stroke="black" d="M1163.36,-575.849C1160.59,-538.832 1154.04,-451.181 1150.69,-406.386"/>
<polygon fill="black" stroke="black" points="1154.17,-405.944 1149.93,-396.232 1147.19,-406.466 1154.17,-405.944"/>
</g>
<!-- cycle -->
<g id="node38" class="node"><title>cycle</title>
<ellipse fill="none" stroke="black" cx="1025.64" cy="-522" rx="35.194" ry="18"/>
<text text-anchor="middle" x="1025.64" y="-518.3" font-family="Times,serif" font-size="14.00">cycle</text>
</g>
<!-- initializer&#45;&gt;cycle -->
<g id="edge52" class="edge"><title>initializer&#45;&gt;cycle</title>
<path fill="none" stroke="black" d="M1135.84,-578.496C1113.48,-567.233 1082.43,-551.598 1058.99,-539.793"/>
<polygon fill="black" stroke="black" points="1060.28,-536.525 1049.78,-535.153 1057.13,-542.777 1060.28,-536.525"/>
</g>
<!-- initializer&#45;&gt;logger -->
<g id="edge56" class="edge"><title>initializer&#45;&gt;logger</title>
<path fill="none" stroke="black" d="M1178.07,-576.461C1203.82,-543.924 1260.26,-468.444 1290.64,-396 1316.04,-335.451 1314.01,-316.948 1323.64,-252 1330.7,-204.469 1331.35,-191.975 1328.64,-144 1328.17,-135.549 1327.27,-126.376 1326.3,-118.074"/>
<polygon fill="black" stroke="black" points="1329.78,-117.641 1325.08,-108.144 1322.83,-118.497 1329.78,-117.641"/>
</g>
<!-- model&#45;&gt;event_tree -->
<g id="edge62" class="edge"><title>model&#45;&gt;event_tree</title>
<path fill="none" stroke="black" d="M837.535,-507.998C857.491,-497.573 885.83,-482.769 908.625,-470.861"/>
<polygon fill="black" stroke="black" points="910.452,-473.855 917.695,-466.123 907.21,-467.651 910.452,-473.855"/>
</g>
<!-- model&#45;&gt;substitution -->
<g id="edge57" class="edge"><title>model&#45;&gt;substitution</title>
<path fill="none" stroke="black" d="M783.36,-510.072C777.216,-507.937 770.749,-505.803 764.644,-504 698.478,-484.456 656.399,-522.147 613.644,-468 598.82,-449.226 611.232,-422.996 624.682,-403.877"/>
<polygon fill="black" stroke="black" points="627.652,-405.749 630.84,-395.645 622.047,-401.556 627.652,-405.749"/>
</g>
<!-- model&#45;&gt;expression/test_event -->
<g id="edge58" class="edge"><title>model&#45;&gt;expression/test_event</title>
<path fill="none" stroke="black" d="M784.012,-509.72C777.708,-507.559 771.011,-505.504 764.644,-504 733.518,-496.648 552.941,-475.414 436.802,-462.161"/>
<polygon fill="black" stroke="black" points="437.148,-458.678 426.816,-461.023 436.356,-465.633 437.148,-458.678"/>
</g>
<!-- model&#45;&gt;alignment -->
<g id="edge59" class="edge"><title>model&#45;&gt;alignment</title>
<path fill="none" stroke="black" d="M788.125,-507.998C768.336,-497.503 740.178,-482.571 717.648,-470.623"/>
<polygon fill="black" stroke="black" points="719.167,-467.467 708.692,-465.874 715.887,-473.651 719.167,-467.467"/>
</g>
<!-- model&#45;&gt;fault_tree -->
<g id="edge60" class="edge"><title>model&#45;&gt;fault_tree</title>
<path fill="none" stroke="black" d="M812.644,-503.697C812.644,-495.983 812.644,-486.712 812.644,-478.112"/>
<polygon fill="black" stroke="black" points="816.144,-478.104 812.644,-468.104 809.144,-478.104 816.144,-478.104"/>
</g>
<!-- expression/extern -->
<g id="node35" class="node"><title>expression/extern</title>
<ellipse fill="none" stroke="black" cx="703.644" cy="-306" rx="94.4839" ry="18"/>
<text text-anchor="middle" x="703.644" y="-302.3" font-family="Times,serif" font-size="14.00">expression/extern</text>
</g>
<!-- model&#45;&gt;expression/extern -->
<g id="edge61" class="edge"><title>model&#45;&gt;expression/extern</title>
<path fill="none" stroke="black" d="M783.379,-510.006C777.234,-507.875 770.761,-505.76 764.644,-504 694.181,-483.724 673.368,-490.69 603.644,-468 565.408,-455.557 459.706,-429.617 437.644,-396 428.865,-382.623 427.496,-372.37 437.644,-360 443.7,-352.618 548.887,-333.311 625.142,-320.155"/>
<polygon fill="black" stroke="black" points="625.964,-323.565 635.227,-318.422 624.778,-316.666 625.964,-323.565"/>
</g>
<!-- zbdd&#45;&gt;bdd -->
<g id="edge63" class="edge"><title>zbdd&#45;&gt;bdd</title>
<path fill="none" stroke="black" d="M1144.53,-681.57C1153.11,-690.417 1163.12,-701.942 1171.22,-712.19"/>
<polygon fill="black" stroke="black" points="1168.65,-714.589 1177.5,-720.411 1174.21,-710.34 1168.65,-714.589"/>
</g>
<!-- zbdd&#45;&gt;pdag -->
<g id="edge64" class="edge"><title>zbdd&#45;&gt;pdag</title>
<path fill="none" stroke="black" d="M1111.67,-649.811C1102.36,-640.363 1090.22,-628.043 1079.8,-617.477"/>
<polygon fill="black" stroke="black" points="1082.1,-614.824 1072.59,-610.159 1077.11,-619.738 1082.1,-614.824"/>
</g>
<!-- expression/boolean&#45;&gt;expression -->
<g id="edge65" class="edge"><title>expression/boolean&#45;&gt;expression</title>
<path fill="none" stroke="black" d="M1163.3,-359.695C1188.75,-327.498 1234.98,-257.871 1197.64,-216 1172.12,-187.378 929.563,-172.014 806.921,-166.019"/>
<polygon fill="black" stroke="black" points="807.026,-162.52 796.87,-165.535 806.69,-169.512 807.026,-162.52"/>
</g>
<!-- expression/extern&#45;&gt;expression -->
<g id="edge67" class="edge"><title>expression/extern&#45;&gt;expression</title>
<path fill="none" stroke="black" d="M707.625,-287.871C713.274,-263.564 723.672,-218.819 730.366,-190.013"/>
<polygon fill="black" stroke="black" points="733.795,-190.722 732.649,-180.189 726.977,-189.137 733.795,-190.722"/>
</g>
<!-- expression/extern&#45;&gt;element -->
<g id="edge66" class="edge"><title>expression/extern&#45;&gt;element</title>
<path fill="none" stroke="black" d="M737.455,-289.116C760.498,-278.29 791.033,-263.945 814.874,-252.744"/>
<polygon fill="black" stroke="black" points="816.419,-255.886 823.982,-248.466 813.442,-249.55 816.419,-255.886"/>
</g>
<!-- risk_analysis&#45;&gt;expression/random_deviate -->
<g id="edge72" class="edge"><title>risk_analysis&#45;&gt;expression/random_deviate</title>
<path fill="none" stroke="black" d="M743.46,-938.937C694.332,-918.875 617.644,-876.99 617.644,-811 617.644,-811 617.644,-811 617.644,-665 617.644,-624.996 617.644,-578.653 617.644,-550.08"/>
<polygon fill="black" stroke="black" points="621.144,-550.049 617.644,-540.049 614.144,-550.049 621.144,-550.049"/>
</g>
<!-- mocus -->
<g id="node39" class="node"><title>mocus</title>
<ellipse fill="none" stroke="black" cx="825.644" cy="-810" rx="40.8928" ry="18"/>
<text text-anchor="middle" x="825.644" y="-806.3" font-family="Times,serif" font-size="14.00">mocus</text>
</g>
<!-- risk_analysis&#45;&gt;mocus -->
<g id="edge71" class="edge"><title>risk_analysis&#45;&gt;mocus</title>
<path fill="none" stroke="black" d="M786.236,-936.008C789.235,-917.902 794.791,-888.527 802.644,-864 805.502,-855.074 809.338,-845.604 813.057,-837.175"/>
<polygon fill="black" stroke="black" points="816.343,-838.405 817.303,-827.854 809.972,-835.503 816.343,-838.405"/>
</g>
<!-- uncertainty_analysis -->
<g id="node40" class="node"><title>uncertainty_analysis</title>
<ellipse fill="none" stroke="black" cx="1150.64" cy="-882" rx="107.482" ry="18"/>
<text text-anchor="middle" x="1150.64" y="-878.3" font-family="Times,serif" font-size="14.00">uncertainty_analysis</text>
</g>
<!-- risk_analysis&#45;&gt;uncertainty_analysis -->
<g id="edge69" class="edge"><title>risk_analysis&#45;&gt;uncertainty_analysis</title>
<path fill="none" stroke="black" d="M838.985,-942.445C901.109,-930.595 1002.38,-911.28 1072.54,-897.897"/>
<polygon fill="black" stroke="black" points="1073.49,-901.279 1082.66,-895.967 1072.18,-894.403 1073.49,-901.279"/>
</g>
<!-- importance_analysis -->
<g id="node42" class="node"><title>importance_analysis</title>
<ellipse fill="none" stroke="black" cx="918.644" cy="-882" rx="106.681" ry="18"/>
<text text-anchor="middle" x="918.644" y="-878.3" font-family="Times,serif" font-size="14.00">importance_analysis</text>
</g>
<!-- risk_analysis&#45;&gt;importance_analysis -->
<g id="edge70" class="edge"><title>risk_analysis&#45;&gt;importance_analysis</title>
<path fill="none" stroke="black" d="M813.605,-937.465C832.687,-927.57 857.638,-914.633 878.433,-903.85"/>
<polygon fill="black" stroke="black" points="880.093,-906.932 887.36,-899.222 876.871,-900.718 880.093,-906.932"/>
</g>
<!-- event_tree_analysis -->
<g id="node44" class="node"><title>event_tree_analysis</title>
<ellipse fill="none" stroke="black" cx="748.644" cy="-666" rx="102.882" ry="18"/>
<text text-anchor="middle" x="748.644" y="-662.3" font-family="Times,serif" font-size="14.00">event_tree_analysis</text>
</g>
<!-- risk_analysis&#45;&gt;event_tree_analysis -->
<g id="edge68" class="edge"><title>risk_analysis&#45;&gt;event_tree_analysis</title>
<path fill="none" stroke="black" d="M781.56,-935.966C775.713,-888.192 759.122,-752.623 751.981,-694.266"/>
<polygon fill="black" stroke="black" points="755.451,-693.807 750.762,-684.306 748.503,-694.658 755.451,-693.807"/>
</g>
<!-- expression/constant&#45;&gt;expression -->
<g id="edge73" class="edge"><title>expression/constant&#45;&gt;expression</title>
<path fill="none" stroke="black" d="M578.974,-217.638C611.53,-206.356 655.702,-191.049 689.01,-179.507"/>
<polygon fill="black" stroke="black" points="690.232,-182.788 698.535,-176.206 687.94,-176.174 690.232,-182.788"/>
</g>
<!-- cycle&#45;&gt;event_tree -->
<g id="edge74" class="edge"><title>cycle&#45;&gt;event_tree</title>
<path fill="none" stroke="black" d="M1008.89,-506.155C998.339,-496.805 984.502,-484.545 972.554,-473.958"/>
<polygon fill="black" stroke="black" points="974.835,-471.303 965.029,-467.29 970.193,-476.542 974.835,-471.303"/>
</g>
<!-- cycle&#45;&gt;parameter -->
<g id="edge75" class="edge"><title>cycle&#45;&gt;parameter</title>
<path fill="none" stroke="black" d="M1027.87,-503.857C1029.45,-484.825 1029.29,-453.907 1015.64,-432 1006.51,-417.34 991.658,-405.996 977.024,-397.634"/>
<polygon fill="black" stroke="black" points="978.463,-394.435 967.994,-392.811 975.165,-400.609 978.463,-394.435"/>
</g>
<!-- mocus&#45;&gt;zbdd -->
<g id="edge76" class="edge"><title>mocus&#45;&gt;zbdd</title>
<path fill="none" stroke="black" d="M858.402,-799.155C867.497,-796.618 877.41,-794.032 886.644,-792 935.24,-781.305 1071.61,-790.315 1107.64,-756 1124.13,-740.299 1128.08,-714.074 1128.38,-694.148"/>
<polygon fill="black" stroke="black" points="1131.88,-694.063 1128.24,-684.113 1124.88,-694.16 1131.88,-694.063"/>
</g>
<!-- uncertainty_analysis&#45;&gt;probability_analysis -->
<g id="edge77" class="edge"><title>uncertainty_analysis&#45;&gt;probability_analysis</title>
<path fill="none" stroke="black" d="M1116,-864.941C1094.42,-854.936 1066.47,-841.978 1043.37,-831.269"/>
<polygon fill="black" stroke="black" points="1044.67,-828.015 1034.13,-826.985 1041.73,-834.366 1044.67,-828.015"/>
</g>
<!-- parameter&#45;&gt;expression -->
<g id="edge79" class="edge"><title>parameter&#45;&gt;expression</title>
<path fill="none" stroke="black" d="M935.696,-359.535C940.303,-327.073 945.086,-257.021 909.644,-216 884.114,-186.451 842.585,-173.103 806.615,-167.188"/>
<polygon fill="black" stroke="black" points="807.039,-163.713 796.635,-165.71 806.014,-170.637 807.039,-163.713"/>
</g>
<!-- parameter&#45;&gt;element -->
<g id="edge78" class="edge"><title>parameter&#45;&gt;element</title>
<path fill="none" stroke="black" d="M927.75,-359.831C922.059,-341.319 911.628,-311.364 897.644,-288 891.474,-277.691 883.3,-267.387 875.612,-258.642"/>
<polygon fill="black" stroke="black" points="878.073,-256.146 868.76,-251.094 872.89,-260.85 878.073,-256.146"/>
</g>
<!-- importance_analysis&#45;&gt;probability_analysis -->
<g id="edge80" class="edge"><title>importance_analysis&#45;&gt;probability_analysis</title>
<path fill="none" stroke="black" d="M938.252,-864.055C948.5,-855.199 961.205,-844.219 972.394,-834.549"/>
<polygon fill="black" stroke="black" points="974.939,-836.976 980.217,-827.789 970.362,-831.68 974.939,-836.976"/>
</g>
<!-- preprocessor&#45;&gt;pdag -->
<g id="edge81" class="edge"><title>preprocessor&#45;&gt;pdag</title>
<path fill="none" stroke="black" d="M1016.72,-648.055C1023.48,-639.292 1031.84,-628.451 1039.24,-618.856"/>
<polygon fill="black" stroke="black" points="1042.1,-620.885 1045.43,-610.829 1036.55,-616.609 1042.1,-620.885"/>
</g>
<!-- event_tree_analysis&#45;&gt;expression/numerical -->
<g id="edge83" class="edge"><title>event_tree_analysis&#45;&gt;expression/numerical</title>
<path fill="none" stroke="black" d="M649.609,-661.104C501.992,-654.444 237.845,-638.916 203.644,-612 140.615,-562.395 158.711,-487.472 216.644,-432 273.256,-377.794 357.74,-343.478 415.805,-324.793"/>
<polygon fill="black" stroke="black" points="417.12,-328.048 425.606,-321.706 415.017,-321.372 417.12,-328.048"/>
</g>
<!-- event_tree_analysis&#45;&gt;event_tree -->
<g id="edge84" class="edge"><title>event_tree_analysis&#45;&gt;event_tree</title>
<path fill="none" stroke="black" d="M764.513,-647.849C799.587,-609.941 883.792,-518.932 924.228,-475.227"/>
<polygon fill="black" stroke="black" points="927.025,-477.358 931.248,-467.641 921.887,-472.604 927.025,-477.358"/>
</g>
<!-- event_tree_analysis&#45;&gt;expression/test_event -->
<g id="edge82" class="edge"><title>event_tree_analysis&#45;&gt;expression/test_event</title>
<path fill="none" stroke="black" d="M702.914,-649.825C645.756,-629.682 546.252,-590.675 470.644,-540 451.319,-527.048 451.393,-517.774 432.644,-504 416.463,-492.112 397.338,-480.958 380.504,-471.977"/>
<polygon fill="black" stroke="black" points="381.904,-468.759 371.421,-467.221 378.657,-474.961 381.904,-468.759"/>
</g>
<!-- event_tree_analysis&#45;&gt;analysis -->
<g id="edge85" class="edge"><title>event_tree_analysis&#45;&gt;analysis</title>
<path fill="none" stroke="black" d="M793.56,-649.811C828.408,-638.027 876.468,-621.775 911.197,-610.03"/>
<polygon fill="black" stroke="black" points="912.714,-613.212 921.066,-606.693 910.472,-606.581 912.714,-613.212"/>
</g>
<!-- analysis&#45;&gt;settings -->
<g id="edge86" class="edge"><title>analysis&#45;&gt;settings</title>
<path fill="none" stroke="black" d="M991.321,-581.849C998.966,-579.705 1007.03,-577.624 1014.64,-576 1127.02,-552.015 1260.67,-536.121 1334.54,-528.42"/>
<polygon fill="black" stroke="black" points="1334.97,-531.894 1344.56,-527.388 1334.25,-524.931 1334.97,-531.894"/>
</g>
<!-- element&#45;&gt;error -->
<g id="edge87" class="edge"><title>element&#45;&gt;error</title>
<path fill="none" stroke="black" d="M885.441,-220.647C955.419,-194.289 1118.97,-132.685 1192.58,-104.959"/>
<polygon fill="black" stroke="black" points="1194.23,-108.079 1202.35,-101.279 1191.76,-101.528 1194.23,-108.079"/>
</g>
<!-- logger&#45;&gt;Boost -->
<g id="edge89" class="edge"><title>logger&#45;&gt;Boost</title>
<path fill="none" stroke="black" d="M1321.16,-71.6966C1320.5,-63.9827 1319.71,-54.7125 1318.97,-46.1124"/>
<polygon fill="black" stroke="black" points="1322.45,-45.7689 1318.11,-36.1043 1315.48,-46.3667 1322.45,-45.7689"/>
</g>
<!-- logger&#45;&gt;STL -->
<g id="edge88" class="edge"><title>logger&#45;&gt;STL</title>
<path fill="none" stroke="black" d="M1339.95,-73.4647C1351,-63.5525 1365.45,-50.5861 1377.48,-39.7916"/>
<polygon fill="black" stroke="black" points="1379.87,-42.3496 1384.97,-33.0656 1375.19,-37.1398 1379.87,-42.3496"/>
</g>
</g>
</svg>
