<?xml version="1.0" encoding="UTF-8" standalone="no"?>
<!DOCTYPE svg PUBLIC "-//W3C//DTD SVG 1.1//EN"
 "http://www.w3.org/Graphics/SVG/1.1/DTD/svg11.dtd">
<!-- Generated by graphviz version 2.38.0 (20140413.2041)
 -->
<!-- Title: variant.h Pages: 1 -->
<svg width="765pt" height="308pt"
 viewBox="0.00 0.00 765.00 308.00" xmlns="http://www.w3.org/2000/svg" xmlns:xlink="http://www.w3.org/1999/xlink">
<g id="graph0" class="graph" transform="scale(1 1) rotate(0) translate(4 304)">
<title>variant.h</title>
<polygon fill="white" stroke="none" points="-4,4 -4,-304 761,-304 761,4 -4,4"/>
<!-- Node1 -->
<g id="node1" class="node"><title>Node1</title>
<polygon fill="#bfbfbf" stroke="black" points="642,-280.5 642,-299.5 701,-299.5 701,-280.5 642,-280.5"/>
<text text-anchor="middle" x="671.5" y="-287.5" font-family="Helvetica,sans-Serif" font-size="10.00">variant.h</text>
</g>
<!-- Node2 -->
<g id="node2" class="node"><title>Node2</title>
<g id="a_node2"><a xlink:href="event__tree_8h.xhtml" target="_top" xlink:title="Event Tree facilities. ">
<polygon fill="white" stroke="black" points="309,-224.5 309,-243.5 386,-243.5 386,-224.5 309,-224.5"/>
<text text-anchor="middle" x="347.5" y="-231.5" font-family="Helvetica,sans-Serif" font-size="10.00">event_tree.h</text>
</a>
</g>
</g>
<!-- Node1&#45;&gt;Node2 -->
<g id="edge1" class="edge"><title>Node1&#45;&gt;Node2</title>
<path fill="none" stroke="midnightblue" d="M631.997,-282.416C569.387,-271.981 448.116,-251.769 386.084,-241.431"/>
<polygon fill="midnightblue" stroke="midnightblue" points="631.449,-285.873 641.888,-284.065 632.6,-278.968 631.449,-285.873"/>
</g>
<!-- Node18 -->
<g id="node18" class="node"><title>Node18</title>
<g id="a_node18"><a xlink:href="serialization_8cc.xhtml" target="_top" xlink:title="serialization.cc">
<polygon fill="white" stroke="black" points="593,-56.5 593,-75.5 680,-75.5 680,-56.5 593,-56.5"/>
<text text-anchor="middle" x="636.5" y="-63.5" font-family="Helvetica,sans-Serif" font-size="10.00">serialization.cc</text>
</a>
</g>
</g>
<!-- Node1&#45;&gt;Node18 -->
<g id="edge26" class="edge"><title>Node1&#45;&gt;Node18</title>
<path fill="none" stroke="midnightblue" d="M670.665,-270.146C668.936,-237.561 664.02,-168.75 651.5,-112 648.661,-99.1332 643.512,-84.7718 640.049,-75.8101"/>
<polygon fill="midnightblue" stroke="midnightblue" points="667.183,-270.604 671.166,-280.422 674.175,-270.263 667.183,-270.604"/>
</g>
<!-- Node19 -->
<g id="node19" class="node"><title>Node19</title>
<g id="a_node19"><a xlink:href="event_8cc.xhtml" target="_top" xlink:title="Implementation of Event Class and its derived classes. ">
<polygon fill="white" stroke="black" points="700,-224.5 700,-243.5 757,-243.5 757,-224.5 700,-224.5"/>
<text text-anchor="middle" x="728.5" y="-231.5" font-family="Helvetica,sans-Serif" font-size="10.00">event.cc</text>
</a>
</g>
</g>
<!-- Node1&#45;&gt;Node19 -->
<g id="edge25" class="edge"><title>Node1&#45;&gt;Node19</title>
<path fill="none" stroke="midnightblue" d="M688.121,-273.253C698.234,-263.673 710.777,-251.791 719.175,-243.834"/>
<polygon fill="midnightblue" stroke="midnightblue" points="685.51,-270.906 680.658,-280.324 690.325,-275.987 685.51,-270.906"/>
</g>
<!-- Node3 -->
<g id="node3" class="node"><title>Node3</title>
<g id="a_node3"><a xlink:href="cycle_8h.xhtml" target="_top" xlink:title="Validation facilities to detect and print cycles in graphs. ">
<polygon fill="white" stroke="black" points="464.5,-168.5 464.5,-187.5 514.5,-187.5 514.5,-168.5 464.5,-168.5"/>
<text text-anchor="middle" x="489.5" y="-175.5" font-family="Helvetica,sans-Serif" font-size="10.00">cycle.h</text>
</a>
</g>
</g>
<!-- Node2&#45;&gt;Node3 -->
<g id="edge2" class="edge"><title>Node2&#45;&gt;Node3</title>
<path fill="none" stroke="midnightblue" d="M379.655,-220.772C406.328,-210.629 443.569,-196.467 467.105,-187.516"/>
<polygon fill="midnightblue" stroke="midnightblue" points="378.103,-217.618 370,-224.444 380.591,-224.16 378.103,-217.618"/>
</g>
<!-- Node5 -->
<g id="node5" class="node"><title>Node5</title>
<g id="a_node5"><a xlink:href="event__tree_8cc.xhtml" target="_top" xlink:title="Implementation of event tree facilities. ">
<polygon fill="white" stroke="black" points="47.5,-168.5 47.5,-187.5 129.5,-187.5 129.5,-168.5 47.5,-168.5"/>
<text text-anchor="middle" x="88.5" y="-175.5" font-family="Helvetica,sans-Serif" font-size="10.00">event_tree.cc</text>
</a>
</g>
</g>
<!-- Node2&#45;&gt;Node5 -->
<g id="edge4" class="edge"><title>Node2&#45;&gt;Node5</title>
<path fill="none" stroke="midnightblue" d="M298.713,-222.828C249.895,-212.65 175.627,-197.165 129.684,-187.587"/>
<polygon fill="midnightblue" stroke="midnightblue" points="298.221,-226.301 308.725,-224.916 299.65,-219.448 298.221,-226.301"/>
</g>
<!-- Node6 -->
<g id="node6" class="node"><title>Node6</title>
<g id="a_node6"><a xlink:href="event__tree__analysis_8h.xhtml" target="_top" xlink:title="Event tree analysis facilities. ">
<polygon fill="white" stroke="black" points="148,-168.5 148,-187.5 269,-187.5 269,-168.5 148,-168.5"/>
<text text-anchor="middle" x="208.5" y="-175.5" font-family="Helvetica,sans-Serif" font-size="10.00">event_tree_analysis.h</text>
</a>
</g>
</g>
<!-- Node2&#45;&gt;Node6 -->
<g id="edge5" class="edge"><title>Node2&#45;&gt;Node6</title>
<path fill="none" stroke="midnightblue" d="M316.024,-220.772C289.915,-210.629 253.461,-196.467 230.422,-187.516"/>
<polygon fill="midnightblue" stroke="midnightblue" points="314.886,-224.085 325.475,-224.444 317.421,-217.56 314.886,-224.085"/>
</g>
<!-- Node13 -->
<g id="node13" class="node"><title>Node13</title>
<g id="a_node13"><a xlink:href="initializer_8h.xhtml" target="_top" xlink:title="A facility that processes input files into analysis constructs. ">
<polygon fill="white" stroke="black" points="286,-112.5 286,-131.5 353,-131.5 353,-112.5 286,-112.5"/>
<text text-anchor="middle" x="319.5" y="-119.5" font-family="Helvetica,sans-Serif" font-size="10.00">initializer.h</text>
</a>
</g>
</g>
<!-- Node2&#45;&gt;Node13 -->
<g id="edge13" class="edge"><title>Node2&#45;&gt;Node13</title>
<path fill="none" stroke="midnightblue" d="M342.835,-214.674C336.714,-190.625 326.217,-149.388 321.687,-131.591"/>
<polygon fill="midnightblue" stroke="midnightblue" points="339.444,-215.541 345.303,-224.368 346.228,-213.814 339.444,-215.541"/>
</g>
<!-- Node14 -->
<g id="node14" class="node"><title>Node14</title>
<g id="a_node14"><a xlink:href="model_8h.xhtml" target="_top" xlink:title="Representation for a model container for risk analysis. ">
<polygon fill="white" stroke="black" points="347.5,-168.5 347.5,-187.5 403.5,-187.5 403.5,-168.5 347.5,-168.5"/>
<text text-anchor="middle" x="375.5" y="-175.5" font-family="Helvetica,sans-Serif" font-size="10.00">model.h</text>
</a>
</g>
</g>
<!-- Node2&#45;&gt;Node14 -->
<g id="edge16" class="edge"><title>Node2&#45;&gt;Node14</title>
<path fill="none" stroke="midnightblue" d="M356.842,-214.983C361.595,-205.817 367.156,-195.092 370.962,-187.751"/>
<polygon fill="midnightblue" stroke="midnightblue" points="353.62,-213.594 352.124,-224.083 359.834,-216.817 353.62,-213.594"/>
</g>
<!-- Node4 -->
<g id="node4" class="node"><title>Node4</title>
<g id="a_node4"><a xlink:href="initializer_8cc.xhtml" target="_top" xlink:title="Implementation of input file processing into analysis constructs. ">
<polygon fill="white" stroke="black" points="404,-56.5 404,-75.5 475,-75.5 475,-56.5 404,-56.5"/>
<text text-anchor="middle" x="439.5" y="-63.5" font-family="Helvetica,sans-Serif" font-size="10.00">initializer.cc</text>
</a>
</g>
</g>
<!-- Node3&#45;&gt;Node4 -->
<g id="edge3" class="edge"><title>Node3&#45;&gt;Node4</title>
<path fill="none" stroke="midnightblue" d="M503.263,-159.832C512.311,-146.32 521.034,-127.286 512.5,-112 502.557,-94.1908 482.35,-82.5554 465.711,-75.5863"/>
<polygon fill="midnightblue" stroke="midnightblue" points="500.229,-158.051 497.155,-168.189 505.881,-162.181 500.229,-158.051"/>
</g>
<!-- Node7 -->
<g id="node7" class="node"><title>Node7</title>
<g id="a_node7"><a xlink:href="event__tree__analysis_8cc.xhtml" target="_top" xlink:title="Implementation of event tree analysis facilities. ">
<polygon fill="white" stroke="black" points="0,-112.5 0,-131.5 125,-131.5 125,-112.5 0,-112.5"/>
<text text-anchor="middle" x="62.5" y="-119.5" font-family="Helvetica,sans-Serif" font-size="10.00">event_tree_analysis.cc</text>
</a>
</g>
</g>
<!-- Node6&#45;&gt;Node7 -->
<g id="edge6" class="edge"><title>Node6&#45;&gt;Node7</title>
<path fill="none" stroke="midnightblue" d="M175.801,-164.906C148.352,-154.754 109.832,-140.506 85.5259,-131.516"/>
<polygon fill="midnightblue" stroke="midnightblue" points="174.773,-168.257 185.366,-168.444 177.201,-161.692 174.773,-168.257"/>
</g>
<!-- Node8 -->
<g id="node8" class="node"><title>Node8</title>
<g id="a_node8"><a xlink:href="risk__analysis_8h.xhtml" target="_top" xlink:title="Contains the main system for performing analysis. ">
<polygon fill="white" stroke="black" points="143.5,-112.5 143.5,-131.5 229.5,-131.5 229.5,-112.5 143.5,-112.5"/>
<text text-anchor="middle" x="186.5" y="-119.5" font-family="Helvetica,sans-Serif" font-size="10.00">risk_analysis.h</text>
</a>
</g>
</g>
<!-- Node6&#45;&gt;Node8 -->
<g id="edge7" class="edge"><title>Node6&#45;&gt;Node8</title>
<path fill="none" stroke="midnightblue" d="M201.04,-158.69C197.333,-149.589 193.024,-139.014 190.065,-131.751"/>
<polygon fill="midnightblue" stroke="midnightblue" points="197.853,-160.143 204.867,-168.083 204.335,-157.502 197.853,-160.143"/>
</g>
<!-- Node9 -->
<g id="node9" class="node"><title>Node9</title>
<g id="a_node9"><a xlink:href="reporter_8h.xhtml" target="_top" xlink:title="Reporter of results. ">
<polygon fill="white" stroke="black" points="225.5,-56.5 225.5,-75.5 289.5,-75.5 289.5,-56.5 225.5,-56.5"/>
<text text-anchor="middle" x="257.5" y="-63.5" font-family="Helvetica,sans-Serif" font-size="10.00">reporter.h</text>
</a>
</g>
</g>
<!-- Node8&#45;&gt;Node9 -->
<g id="edge8" class="edge"><title>Node8&#45;&gt;Node9</title>
<path fill="none" stroke="midnightblue" d="M206.09,-106.101C218.868,-96.3824 235.113,-84.0269 245.885,-75.8339"/>
<polygon fill="midnightblue" stroke="midnightblue" points="203.748,-103.484 197.907,-112.324 207.986,-109.056 203.748,-103.484"/>
</g>
<!-- Node11 -->
<g id="node11" class="node"><title>Node11</title>
<g id="a_node11"><a xlink:href="scram_8cc.xhtml" target="_top" xlink:title="Main entrance. ">
<polygon fill="white" stroke="black" points="289.5,-0.5 289.5,-19.5 349.5,-19.5 349.5,-0.5 289.5,-0.5"/>
<text text-anchor="middle" x="319.5" y="-7.5" font-family="Helvetica,sans-Serif" font-size="10.00">scram.cc</text>
</a>
</g>
</g>
<!-- Node8&#45;&gt;Node11 -->
<g id="edge12" class="edge"><title>Node8&#45;&gt;Node11</title>
<path fill="none" stroke="midnightblue" d="M191.121,-102.527C195.535,-88.2206 203.483,-68.7532 216.5,-56 236.573,-36.3349 266.653,-24.5547 289.132,-18.0111"/>
<polygon fill="midnightblue" stroke="midnightblue" points="187.72,-101.693 188.408,-112.265 194.463,-103.571 187.72,-101.693"/>
</g>
<!-- Node12 -->
<g id="node12" class="node"><title>Node12</title>
<g id="a_node12"><a xlink:href="risk__analysis_8cc.xhtml" target="_top" xlink:title="Implementation of risk analysis handler. ">
<polygon fill="white" stroke="black" points="79.5,-56.5 79.5,-75.5 169.5,-75.5 169.5,-56.5 79.5,-56.5"/>
<text text-anchor="middle" x="124.5" y="-63.5" font-family="Helvetica,sans-Serif" font-size="10.00">risk_analysis.cc</text>
</a>
</g>
</g>
<!-- Node8&#45;&gt;Node12 -->
<g id="edge11" class="edge"><title>Node8&#45;&gt;Node12</title>
<path fill="none" stroke="midnightblue" d="M168.746,-105.537C157.692,-95.9087 143.869,-83.8694 134.643,-75.8339"/>
<polygon fill="midnightblue" stroke="midnightblue" points="166.699,-108.395 176.539,-112.324 171.297,-103.117 166.699,-108.395"/>
</g>
<!-- Node10 -->
<g id="node10" class="node"><title>Node10</title>
<g id="a_node10"><a xlink:href="reporter_8cc.xhtml" target="_top" xlink:title="Implements Reporter class. ">
<polygon fill="white" stroke="black" points="203.5,-0.5 203.5,-19.5 271.5,-19.5 271.5,-0.5 203.5,-0.5"/>
<text text-anchor="middle" x="237.5" y="-7.5" font-family="Helvetica,sans-Serif" font-size="10.00">reporter.cc</text>
</a>
</g>
</g>
<!-- Node9&#45;&gt;Node10 -->
<g id="edge9" class="edge"><title>Node9&#45;&gt;Node10</title>
<path fill="none" stroke="midnightblue" d="M250.718,-46.6897C247.348,-37.589 243.431,-27.0141 240.741,-19.7511"/>
<polygon fill="midnightblue" stroke="midnightblue" points="247.442,-47.9211 254.197,-56.083 254.006,-45.4899 247.442,-47.9211"/>
</g>
<!-- Node9&#45;&gt;Node11 -->
<g id="edge10" class="edge"><title>Node9&#45;&gt;Node11</title>
<path fill="none" stroke="midnightblue" d="M275.254,-49.5372C286.308,-39.9087 300.131,-27.8694 309.357,-19.8339"/>
<polygon fill="midnightblue" stroke="midnightblue" points="272.703,-47.1168 267.461,-56.324 277.301,-52.3954 272.703,-47.1168"/>
</g>
<!-- Node13&#45;&gt;Node4 -->
<g id="edge14" class="edge"><title>Node13&#45;&gt;Node4</title>
<path fill="none" stroke="midnightblue" d="M347.873,-108.232C370.32,-98.1312 401.035,-84.3091 420.575,-75.5164"/>
<polygon fill="midnightblue" stroke="midnightblue" points="346.197,-105.148 338.514,-112.444 349.07,-111.532 346.197,-105.148"/>
</g>
<!-- Node13&#45;&gt;Node11 -->
<g id="edge15" class="edge"><title>Node13&#45;&gt;Node11</title>
<path fill="none" stroke="midnightblue" d="M319.5,-102.348C319.5,-78.2538 319.5,-37.3079 319.5,-19.5914"/>
<polygon fill="midnightblue" stroke="midnightblue" points="316,-102.368 319.5,-112.368 323,-102.369 316,-102.368"/>
</g>
<!-- Node14&#45;&gt;Node8 -->
<g id="edge21" class="edge"><title>Node14&#45;&gt;Node8</title>
<path fill="none" stroke="midnightblue" d="M337.182,-166.052C301.567,-155.876 249.237,-140.925 216.553,-131.587"/>
<polygon fill="midnightblue" stroke="midnightblue" points="336.628,-169.534 347.205,-168.916 338.551,-162.803 336.628,-169.534"/>
</g>
<!-- Node14&#45;&gt;Node9 -->
<g id="edge20" class="edge"><title>Node14&#45;&gt;Node9</title>
<path fill="none" stroke="midnightblue" d="M337.476,-168.066C316.767,-161.366 292.23,-150.143 276.5,-132 262.329,-115.655 258.713,-89.2268 257.801,-75.6539"/>
<polygon fill="midnightblue" stroke="midnightblue" points="336.697,-171.486 347.28,-171.003 338.705,-164.781 336.697,-171.486"/>
</g>
<!-- Node14&#45;&gt;Node13 -->
<g id="edge17" class="edge"><title>Node14&#45;&gt;Node13</title>
<path fill="none" stroke="midnightblue" d="M359.17,-161.253C349.235,-151.673 336.912,-139.791 328.661,-131.834"/>
<polygon fill="midnightblue" stroke="midnightblue" points="356.875,-163.902 366.503,-168.324 361.734,-158.863 356.875,-163.902"/>
</g>
<!-- Node15 -->
<g id="node15" class="node"><title>Node15</title>
<g id="a_node15"><a xlink:href="model_8cc.xhtml" target="_top" xlink:title="Implementation of functions in Model class. ">
<polygon fill="white" stroke="black" points="371.5,-112.5 371.5,-131.5 431.5,-131.5 431.5,-112.5 371.5,-112.5"/>
<text text-anchor="middle" x="401.5" y="-119.5" font-family="Helvetica,sans-Serif" font-size="10.00">model.cc</text>
</a>
</g>
</g>
<!-- Node14&#45;&gt;Node15 -->
<g id="edge18" class="edge"><title>Node14&#45;&gt;Node15</title>
<path fill="none" stroke="midnightblue" d="M384.175,-158.983C388.588,-149.817 393.752,-139.092 397.287,-131.751"/>
<polygon fill="midnightblue" stroke="midnightblue" points="380.978,-157.555 379.793,-168.083 387.285,-160.591 380.978,-157.555"/>
</g>
<!-- Node16 -->
<g id="node16" class="node"><title>Node16</title>
<g id="a_node16"><a xlink:href="pdag_8cc.xhtml" target="_top" xlink:title="Implementation of a Propositional Directed Acyclic Graph with indexed nodes, variables, and gates. ">
<polygon fill="white" stroke="black" points="449.5,-112.5 449.5,-131.5 503.5,-131.5 503.5,-112.5 449.5,-112.5"/>
<text text-anchor="middle" x="476.5" y="-119.5" font-family="Helvetica,sans-Serif" font-size="10.00">pdag.cc</text>
</a>
</g>
</g>
<!-- Node14&#45;&gt;Node16 -->
<g id="edge19" class="edge"><title>Node14&#45;&gt;Node16</title>
<path fill="none" stroke="midnightblue" d="M400.583,-163.59C419.257,-153.605 444.204,-140.267 460.313,-131.655"/>
<polygon fill="midnightblue" stroke="midnightblue" points="398.896,-160.522 391.727,-168.324 402.196,-166.696 398.896,-160.522"/>
</g>
<!-- Node17 -->
<g id="node17" class="node"><title>Node17</title>
<g id="a_node17"><a xlink:href="serialization_8h.xhtml" target="_top" xlink:title="The MEF Model serialization facilities. ">
<polygon fill="white" stroke="black" points="560,-112.5 560,-131.5 643,-131.5 643,-112.5 560,-112.5"/>
<text text-anchor="middle" x="601.5" y="-119.5" font-family="Helvetica,sans-Serif" font-size="10.00">serialization.h</text>
</a>
</g>
</g>
<!-- Node14&#45;&gt;Node17 -->
<g id="edge22" class="edge"><title>Node14&#45;&gt;Node17</title>
<path fill="none" stroke="midnightblue" d="M413.632,-167.889C456.163,-157.726 524.42,-141.417 565.897,-131.507"/>
<polygon fill="midnightblue" stroke="midnightblue" points="412.579,-164.542 403.666,-170.27 414.206,-171.35 412.579,-164.542"/>
</g>
<!-- Node17&#45;&gt;Node11 -->
<g id="edge23" class="edge"><title>Node17&#45;&gt;Node11</title>
<path fill="none" stroke="midnightblue" d="M579.534,-106.834C556.403,-92.4188 518.546,-70.2277 483.5,-56 438.226,-37.6197 382.947,-24.1972 349.522,-17.0041"/>
<polygon fill="midnightblue" stroke="midnightblue" points="577.886,-109.933 588.211,-112.309 581.621,-104.013 577.886,-109.933"/>
</g>
<!-- Node17&#45;&gt;Node18 -->
<g id="edge24" class="edge"><title>Node17&#45;&gt;Node18</title>
<path fill="none" stroke="midnightblue" d="M612.8,-103.566C618.822,-94.2747 625.969,-83.2484 630.828,-75.7511"/>
<polygon fill="midnightblue" stroke="midnightblue" points="609.781,-101.788 607.28,-112.083 615.656,-105.595 609.781,-101.788"/>
</g>
</g>
</svg>
